<svg width="496" height="380" viewBox="0 0 496 380" fill="none" xmlns="http://www.w3.org/2000/svg">
<mask id="mask0" mask-type="alpha" maskUnits="userSpaceOnUse" x="0" y="0" width="496" height="380">
<rect width="496" height="380" fill="#C4C4C4"/>
</mask>
<g mask="url(#mask0)">
<path opacity="0.08" d="M624.039 400.557C675.943 594.265 550.036 796.307 342.818 851.831C135.6 907.354 167.57 758.867 115.666 565.16C63.7622 371.452 -63.1971 206.9 144.021 151.376C351.238 95.8525 594.002 257.155 624.039 400.557Z" fill="url(#paint0_linear)"/>
<path d="M268.702 253.742L262.582 258.479C262.668 258.549 262.723 258.592 262.723 258.592L268.702 253.742C267.493 269.804 265.05 287.223 260.971 301.994C256.624 317.708 238.117 377.949 226.653 396.12L182.464 396.114C182.676 390.959 182.84 370.009 187.804 356.522C193.52 341.054 198.336 345.284 199.437 332.724C200.554 320.176 204.476 312.621 211.48 300.374C218.46 288.113 228.001 291.911 221.23 246.123C218.433 227.853 221.116 209.163 228.938 192.417C229.883 192.808 230.904 193.212 231.988 193.625L232.077 192.885C232.077 192.885 233.957 193.852 236.892 195.378C237.812 195.687 238.766 195.998 239.763 196.31C239.806 196.527 239.856 196.735 239.903 196.946C251.746 203.13 272.728 214.255 271.477 214.803C269.741 215.564 268.702 253.742 268.702 253.742Z" fill="url(#paint1_linear)"/>
<path d="M245.046 297.185C244.16 306.515 235.744 317.28 238.401 337.017C241.059 356.754 231.926 360.122 232.789 376.613C233.471 389.653 236.524 394.739 237.592 396.139H275.395C276.921 388.48 291.629 314.181 292.889 290.367C294.218 265.247 268.082 221.108 271.182 196.346L224.67 194.552C224.67 194.552 214.481 209.265 229.986 243.356C245.49 277.446 245.932 287.854 245.046 297.185Z" fill="#428DFC"/>
<path d="M300.653 134.596C300.653 134.596 332.894 154.372 353.951 150.155C353.951 150.155 353.584 159.382 351.904 164.002C351.904 164.002 307.795 177.445 282.59 147.619L300.653 134.596Z" fill="url(#paint2_linear)"/>
<path d="M269.019 94.0891C269.019 94.0891 280.962 131.849 321.944 135.001L300.577 173.181C300.577 173.181 285.165 177.734 276.058 162.673C266.951 147.611 261.346 148.662 255.042 138.854C248.738 129.046 242.297 103.888 256.551 86.5188" fill="url(#paint3_linear)"/>
<path d="M269.019 94.0891C269.019 94.0891 276.747 149.391 295.199 173.295C295.199 173.295 273.81 191.328 214.678 177.07C214.678 177.07 202.865 123.114 252.837 88.6909C252.837 88.6909 259.274 95.6215 269.019 94.0891Z" fill="url(#paint4_linear)"/>
<path d="M349.649 135.483H116.205V268.21H349.649V135.483Z" fill="white"/>
<path d="M350.851 269.413H115V134.28H350.85L350.851 269.413Z" stroke="#E1D9F3" stroke-width="6"/>
<path d="M158 207L165.416 221.813L182 224.189L170 235.719L172.833 252L158 244.313L143.167 252L146 235.719L134 224.189L150.584 221.813L158 207Z" fill="url(#paint5_linear)"/>
<path d="M353.951 150.155C353.951 150.155 347.291 158.665 339.336 160.33C331.381 161.995 333.786 167.73 338.781 166.066C343.777 164.401 348.031 162.735 348.031 162.735C348.031 162.735 348.216 166.435 339.891 170.135C331.566 173.834 336.375 177.165 338.225 182.345C340.076 187.526 349.88 189.745 355.8 175.685C359.286 167.367 358.599 157.885 353.951 150.155Z" fill="url(#paint6_linear)"/>
<path d="M353.951 150.155C353.951 150.155 347.291 158.665 339.336 160.33C331.381 161.995 333.786 167.73 338.781 166.066C343.777 164.401 348.031 162.735 348.031 162.735C348.031 162.735 348.216 166.435 339.891 170.135C331.566 173.834 336.375 177.165 338.225 182.345C340.076 187.526 349.88 189.745 355.8 175.685C359.286 167.367 358.599 157.885 353.951 150.155Z" fill="#401919" fill-opacity="0.6"/>
<path d="M269.378 81.0589C268.277 85.3198 268.154 89.7749 269.02 94.0896C269.02 94.0896 261.453 97.6251 252.838 88.6914C252.838 88.6914 254.944 83.8976 256.561 78.8289L269.378 81.0589Z" fill="url(#paint7_linear)"/>
<path d="M269.378 81.0589C268.277 85.3198 268.154 89.7749 269.02 94.0896C269.02 94.0896 261.453 97.6251 252.838 88.6914C252.838 88.6914 254.944 83.8976 256.561 78.8289L269.378 81.0589Z" fill="#401919" fill-opacity="0.6"/>
<path d="M281.796 51.3459C281.796 51.3459 282.91 56.5247 285.629 59.6668C288.347 62.8089 290.519 64.7204 284.196 67.7423C284.196 67.7423 279.635 87.8843 257.556 79.6146C257.556 79.6146 240.742 71.5913 243.63 64.6397C246.518 57.6881 258.116 48.2786 258.116 48.2786L271.99 45.0071L281.796 51.3459Z" fill="#FFBEB6"/>
<path d="M281.796 51.3459C281.796 51.3459 282.91 56.5247 285.629 59.6668C288.347 62.8089 290.519 64.7204 284.196 67.7423C284.196 67.7423 279.635 87.8843 257.556 79.6146C257.556 79.6146 240.742 71.5913 243.63 64.6397C246.518 57.6881 258.116 48.2786 258.116 48.2786L271.99 45.0071L281.796 51.3459Z" fill="#401919" fill-opacity="0.6"/>
<path d="M283.737 72.3685C282.813 74.206 280.575 74.9474 278.737 74.0236C278.072 73.689 277.522 73.1628 277.159 72.5131C276.879 72.0205 277.597 71.4909 277.88 71.9902C278.591 73.3856 280.299 73.9395 281.695 73.2275C282.221 72.9594 282.649 72.5332 282.922 72.0095C283.192 71.5086 284.01 71.8633 283.737 72.3685Z" fill="#1C2868"/>
<path d="M293.82 30.2671C293.756 29.8678 293.149 30.0367 293.213 30.4343C294.9 40.217 288.736 49.6399 279.098 52.0154C286.104 49.3692 292.605 42.9632 291.118 28L230.404 52.1692C230.404 52.1692 231.729 62.5327 239.031 70.1139C246.333 77.6951 256.667 79.9874 259.927 78.7475C259.927 78.7475 260.736 73.356 256.601 72.4667C252.466 71.5774 248.68 69.1725 250.681 65.0898C252.681 61.0071 255.555 65.0393 258.874 62.5495C262.193 60.0597 264.012 53.4595 264.012 53.4595C267.605 53.947 271.252 53.8613 274.819 53.2056C285.632 53.0451 294.268 44.1501 294.108 33.3369C294.094 32.3071 293.997 31.2808 293.82 30.2671Z" fill="#23286B"/>
<path d="M267.861 250.409C261.573 249.745 255.832 237.851 251.478 226.94C247.737 217.543 237.465 209.7 231.917 206.464L246.552 187.912C248.485 191.922 256.815 208.742 263.044 214.012C270.139 220.014 282.411 211.305 284.243 211.02C286.084 210.734 288.127 214.222 282.857 217.492C277.595 220.762 274.098 222.048 274.619 225.545C275.14 229.042 279.284 236.187 287.219 241.012C295.154 245.845 274.148 251.082 267.861 250.409Z" fill="url(#paint8_linear)"/>
<path d="M267.861 250.409C261.573 249.745 255.832 237.851 251.478 226.94C247.737 217.543 237.465 209.7 231.917 206.464L246.552 187.912C248.485 191.922 256.815 208.742 263.044 214.012C270.139 220.014 282.411 211.305 284.243 211.02C286.084 210.734 288.127 214.222 282.857 217.492C277.595 220.762 274.098 222.048 274.619 225.545C275.14 229.042 279.284 236.187 287.219 241.012C295.154 245.845 274.148 251.082 267.861 250.409Z" fill="#401919" fill-opacity="0.6"/>
<path d="M263.33 97.1463C263.33 97.1463 246.556 116.554 240.261 131.85C233.966 147.145 235.7 150.969 246.105 160.675C256.509 170.381 259.267 171.784 259.267 171.784L225.727 214.312C225.727 214.312 211.316 210.755 206.319 195.973C201.322 181.19 198.749 176.833 193.122 171.438C187.495 166.042 174.903 148.175 192.53 130.096C212.409 109.706 219.189 104.934 252.838 88.6909" fill="#23286B"/>
</g>
<defs>
<linearGradient id="paint0_linear" x1="718.257" y1="751.232" x2="108.306" y2="851.146" gradientUnits="userSpaceOnUse">
<stop stop-color="#370AEB"/>
<stop offset="1" stop-color="#8B6FFF"/>
</linearGradient>
<linearGradient id="paint1_linear" x1="122.045" y1="309.908" x2="280.153" y2="286.525" gradientUnits="userSpaceOnUse">
<stop offset="0.1291" stop-color="#428DFC"/>
<stop offset="0.9987" stop-color="#1D72D8"/>
</linearGradient>
<linearGradient id="paint2_linear" x1="327.645" y1="156.867" x2="268.982" y2="111.545" gradientUnits="userSpaceOnUse">
<stop stop-color="#FFBEB6"/>
<stop offset="0.0326" stop-color="#FEBDB5"/>
<stop offset="0.6116" stop-color="#F5A8A3"/>
<stop offset="1" stop-color="#F2A19C"/>
</linearGradient>
<linearGradient id="paint3_linear" x1="293.28" y1="137.299" x2="250.962" y2="121.793" gradientUnits="userSpaceOnUse">
<stop stop-color="#23286B"/>
<stop offset="0.4316" stop-color="#1D225F"/>
<stop offset="1" stop-color="#151A4F"/>
</linearGradient>
<linearGradient id="paint4_linear" x1="280.169" y1="124.046" x2="215.982" y2="186.264" gradientUnits="userSpaceOnUse">
<stop stop-color="#23286B"/>
<stop offset="0.4316" stop-color="#1D225F"/>
<stop offset="1" stop-color="#151A4F"/>
</linearGradient>
<linearGradient id="paint5_linear" x1="158" y1="209.644" x2="158" y2="260.862" gradientUnits="userSpaceOnUse">
<stop stop-color="#FFD660"/>
<stop offset="1" stop-color="#EEC764"/>
</linearGradient>
<linearGradient id="paint6_linear" x1="334.177" y1="168.241" x2="358" y2="168.241" gradientUnits="userSpaceOnUse">
<stop stop-color="#FFBEB6"/>
<stop offset="1" stop-color="#F2A19C"/>
</linearGradient>
<linearGradient id="paint7_linear" x1="252.839" y1="86.8034" x2="269.378" y2="86.8034" gradientUnits="userSpaceOnUse">
<stop stop-color="#EEA89F"/>
<stop offset="1" stop-color="#F2A19C"/>
</linearGradient>
<linearGradient id="paint8_linear" x1="231.917" y1="219.189" x2="288.986" y2="219.189" gradientUnits="userSpaceOnUse">
<stop stop-color="#FFBEB6"/>
<stop offset="1" stop-color="#F2A19C"/>
</linearGradient>
</defs>
</svg>
