<svg width="496" height="380" viewBox="0 0 496 380" fill="none" xmlns="http://www.w3.org/2000/svg">
<mask id="mask0" mask-type="alpha" maskUnits="userSpaceOnUse" x="0" y="0" width="496" height="380">
<rect width="496" height="380" fill="#C4C4C4"/>
</mask>
<g mask="url(#mask0)">
<path opacity="0.08" d="M299.087 105.689C492.794 53.7854 694.836 179.692 750.36 386.91C805.884 594.128 657.397 562.158 463.689 614.062C269.982 665.966 105.429 792.925 49.9056 585.707C-5.6182 378.49 155.684 135.726 299.087 105.689Z" fill="url(#paint0_linear)"/>
<path d="M343.498 124.858C336.598 128.858 324.498 141.558 320.798 144.858C317.698 147.358 314.498 149.558 310.998 151.458L308.498 131.958C308.498 131.958 330.598 124.258 330.998 121.558C331.398 118.858 332.298 114.058 331.198 108.858C330.098 103.658 331.798 101.758 333.498 104.258C335.198 106.758 335.198 113.858 339.098 110.358C342.998 106.858 345.098 101.558 346.398 99.9576C347.698 98.4576 351.198 97.0576 353.098 105.758C354.998 114.558 350.398 120.858 343.498 124.858Z" fill="url(#paint1_linear)"/>
<path d="M354.298 125.257H311.198L347.398 82.8574H390.398L354.298 125.257Z" fill="url(#paint2_linear)"/>
<path d="M364.498 129.158C356.498 136.158 351.498 139.858 344.998 147.158C339.298 153.658 326.198 167.658 323.298 170.758L318.298 144.658C318.298 144.658 341.198 139.458 343.498 133.058C345.698 126.658 347.998 113.558 349.098 110.158C350.198 106.658 353.698 110.558 353.598 113.358C353.398 116.258 352.198 127.558 357.498 121.058C362.798 114.558 370.098 106.058 370.098 106.058C370.098 106.058 372.598 122.158 364.498 129.158Z" fill="url(#paint3_linear)"/>
<path d="M206.598 197.557C206.598 197.557 204.398 214.557 215.998 235.157C227.598 255.757 231.198 284.357 231.698 313.957C232.198 343.557 233.898 348.457 239.298 359.157C244.698 369.857 246.098 376.857 243.798 384.457C241.498 392.057 248.198 402.457 248.198 402.457H287.598C287.598 402.457 277.298 292.457 273.798 275.457C270.298 258.457 254.098 190.857 254.098 190.857L206.598 197.557Z" fill="url(#paint4_linear)"/>
<path d="M256.698 253.657C254.398 225.357 251.598 195.957 251.598 195.957L206.298 193.157C206.298 193.157 202.898 207.857 207.398 235.057C211.898 262.257 210.298 277.057 204.598 285.457C197.098 296.457 194.898 303.357 192.598 322.057C190.298 340.757 189.298 343.757 180.798 359.557C172.498 374.957 172.298 386.657 177.498 402.357H212.998C217.598 391.457 249.498 314.757 252.598 298.957C256.098 282.057 258.998 282.057 256.698 253.657Z" fill="#23286B"/>
<path opacity="0.86" d="M223.198 269.157C223.198 269.057 223.098 269.057 222.998 269.057C222.898 269.057 222.898 269.157 222.898 269.257C222.898 269.357 222.998 269.357 223.098 269.357C223.198 269.357 223.198 269.257 223.198 269.157ZM221.598 265.257C221.598 265.157 221.498 265.157 221.398 265.157C221.298 265.157 221.298 265.257 221.298 265.357C221.298 265.457 221.398 265.457 221.498 265.457C221.598 265.457 221.598 265.357 221.598 265.257ZM229.198 262.257C229.098 262.157 228.998 262.157 228.998 262.257C228.898 262.357 228.898 262.457 228.998 262.457C229.098 262.557 229.198 262.557 229.198 262.457C229.298 262.457 229.298 262.357 229.198 262.257ZM214.098 268.657C213.998 268.657 213.898 268.757 213.898 268.857C213.898 268.957 213.998 269.057 214.098 269.057C214.198 269.057 214.298 268.957 214.298 268.857C214.298 268.657 214.198 268.657 214.098 268.657ZM214.098 264.357C213.998 264.357 213.898 264.457 213.898 264.557C213.898 264.657 213.998 264.757 214.098 264.757C214.198 264.757 214.298 264.657 214.298 264.557C214.298 264.457 214.198 264.357 214.098 264.357ZM246.298 269.957C246.198 269.857 245.998 269.857 245.798 269.957C245.698 270.057 245.698 270.257 245.798 270.457C245.898 270.557 246.098 270.557 246.298 270.457C246.398 270.357 246.398 270.057 246.298 269.957ZM240.198 264.657C240.098 264.557 239.898 264.557 239.698 264.657C239.598 264.757 239.598 265.057 239.698 265.157C239.798 265.257 240.098 265.257 240.198 265.157C240.298 265.057 240.298 264.857 240.198 264.657ZM221.698 290.357C221.498 290.357 221.398 290.557 221.398 290.757C221.398 290.957 221.598 291.057 221.698 291.057C221.898 291.057 221.998 290.857 221.998 290.657C222.098 290.457 221.898 290.357 221.698 290.357ZM221.198 282.257C220.998 282.257 220.898 282.457 220.898 282.657C220.898 282.857 221.098 282.957 221.298 282.957C221.498 282.957 221.598 282.757 221.598 282.557C221.498 282.457 221.298 282.257 221.198 282.257ZM220.598 274.257C220.398 274.257 220.298 274.457 220.298 274.657C220.298 274.857 220.498 274.957 220.598 274.957C220.798 274.957 220.898 274.757 220.898 274.657C220.898 274.357 220.798 274.257 220.598 274.257ZM219.998 266.257C219.798 266.257 219.698 266.457 219.698 266.657C219.698 266.857 219.898 266.957 220.098 266.957C220.298 266.957 220.398 266.757 220.398 266.557C220.398 266.357 220.198 266.157 219.998 266.257ZM237.598 282.357C237.498 282.157 237.298 282.157 237.098 282.157C236.898 282.257 236.898 282.457 236.898 282.657C236.998 282.857 237.198 282.857 237.398 282.857C237.598 282.657 237.598 282.457 237.598 282.357ZM233.998 275.057C233.898 274.857 233.698 274.857 233.498 274.857C233.298 274.857 233.298 275.157 233.298 275.357C233.398 275.557 233.598 275.557 233.798 275.557C233.998 275.457 233.998 275.257 233.998 275.057ZM230.398 267.857C230.298 267.657 230.098 267.657 229.898 267.757C229.698 267.857 229.698 268.057 229.798 268.257C229.898 268.457 230.098 268.457 230.198 268.357C230.398 268.257 230.398 268.057 230.398 267.857ZM206.598 284.557C206.398 284.457 206.298 284.557 206.198 284.757C206.098 284.957 206.198 285.157 206.398 285.157C206.598 285.257 206.798 285.157 206.798 284.957C206.898 284.857 206.798 284.657 206.598 284.557ZM209.198 276.957C208.998 276.857 208.798 276.957 208.798 277.157C208.698 277.357 208.798 277.557 208.998 277.557C209.198 277.557 209.398 277.557 209.398 277.357C209.398 277.157 209.298 276.957 209.198 276.957ZM211.698 269.257C211.498 269.157 211.298 269.257 211.298 269.457C211.198 269.657 211.298 269.857 211.498 269.857C211.698 269.957 211.798 269.857 211.898 269.657C211.998 269.557 211.898 269.357 211.698 269.257ZM214.298 261.657C214.098 261.557 213.898 261.657 213.898 261.857C213.798 262.057 213.898 262.157 214.098 262.257C214.298 262.357 214.498 262.257 214.498 262.057C214.498 261.857 214.398 261.657 214.298 261.657ZM244.498 278.657C244.398 278.557 244.198 278.457 244.098 278.557C243.998 278.657 243.898 278.857 243.998 278.957C244.098 279.057 244.298 279.157 244.398 279.057C244.498 278.957 244.598 278.757 244.498 278.657ZM240.698 272.557C240.598 272.457 240.398 272.357 240.298 272.457C240.198 272.557 240.098 272.757 240.198 272.857C240.298 272.957 240.498 273.057 240.598 272.957C240.698 272.857 240.798 272.657 240.698 272.557ZM236.898 266.457C236.898 266.357 236.798 266.357 236.798 266.357C236.698 266.357 236.598 266.357 236.498 266.357C236.398 266.457 236.298 266.657 236.398 266.757C236.498 266.857 236.698 266.957 236.798 266.857C236.898 266.857 236.898 266.757 236.898 266.657C236.898 266.557 236.898 266.457 236.898 266.457ZM214.398 283.457C214.198 283.457 214.098 283.557 213.998 283.657C213.998 283.857 213.998 283.957 214.198 284.057C214.398 284.057 214.498 283.957 214.598 283.857C214.698 283.657 214.598 283.557 214.398 283.457ZM215.998 276.457C215.798 276.457 215.698 276.557 215.598 276.657C215.598 276.857 215.698 276.957 215.798 277.057C215.998 277.057 216.098 276.957 216.198 276.857C216.298 276.657 216.198 276.557 215.998 276.457ZM217.698 269.457C217.498 269.457 217.398 269.557 217.298 269.657C217.298 269.757 217.298 269.957 217.498 269.957C217.698 269.957 217.798 269.857 217.898 269.757C217.898 269.657 217.798 269.557 217.698 269.457ZM219.298 262.457C219.098 262.457 218.998 262.557 218.898 262.657C218.898 262.857 218.998 262.957 219.098 263.057C219.298 263.057 219.398 262.957 219.498 262.857C219.498 262.657 219.398 262.457 219.298 262.457ZM247.298 261.357C247.198 261.257 246.998 261.257 246.898 261.457C246.798 261.557 246.798 261.757 246.898 261.857C246.998 261.957 247.198 261.957 247.298 261.757C247.498 261.657 247.498 261.457 247.298 261.357ZM229.698 280.357C229.498 280.357 229.398 280.557 229.498 280.757C229.498 280.957 229.698 281.057 229.798 280.957C229.998 280.957 230.098 280.757 230.098 280.657C230.098 280.357 229.898 280.257 229.698 280.357ZM228.498 273.257C228.298 273.257 228.198 273.457 228.298 273.657C228.298 273.857 228.498 273.957 228.598 273.857C228.798 273.857 228.898 273.657 228.798 273.557C228.898 273.357 228.698 273.157 228.498 273.257ZM227.398 266.157C227.198 266.157 227.098 266.357 227.198 266.457C227.198 266.657 227.398 266.757 227.498 266.657C227.698 266.657 227.798 266.457 227.698 266.357C227.698 266.257 227.498 266.057 227.398 266.157ZM227.098 267.157C226.998 267.157 226.898 267.257 226.898 267.357C226.898 267.457 226.998 267.557 227.098 267.557C227.198 267.557 227.298 267.457 227.298 267.357C227.198 267.257 227.198 267.157 227.098 267.157ZM227.198 262.957C227.098 262.957 226.998 263.057 226.998 263.157C226.998 263.257 227.098 263.357 227.198 263.357C227.298 263.357 227.398 263.257 227.398 263.157C227.398 263.057 227.298 262.957 227.198 262.957ZM235.598 263.557C235.598 263.457 235.498 263.457 235.398 263.457C235.298 263.457 235.298 263.557 235.298 263.657C235.298 263.757 235.398 263.757 235.498 263.757C235.598 263.757 235.598 263.657 235.598 263.557ZM219.198 263.057C219.098 263.057 218.998 263.057 218.998 263.157C218.998 263.257 218.998 263.357 219.098 263.357C219.198 263.357 219.298 263.357 219.298 263.257C219.398 263.257 219.298 263.157 219.198 263.057ZM246.998 265.157C246.898 265.057 246.798 265.057 246.698 265.057C246.598 265.157 246.598 265.257 246.598 265.357C246.698 265.457 246.798 265.457 246.898 265.457C246.998 265.357 247.098 265.257 246.998 265.157ZM226.798 268.657C226.698 268.657 226.598 268.757 226.598 268.857C226.598 268.957 226.598 269.057 226.698 269.057C226.798 269.057 226.898 269.057 226.898 268.957C226.998 268.757 226.898 268.657 226.798 268.657ZM227.898 263.857C227.798 263.857 227.698 263.957 227.698 264.057C227.698 264.157 227.698 264.257 227.798 264.257C227.898 264.257 227.998 264.257 227.998 264.157C227.998 264.057 227.998 263.957 227.898 263.857ZM236.998 266.457C236.998 266.357 236.898 266.257 236.798 266.257C236.698 266.257 236.598 266.357 236.598 266.457C236.598 266.557 236.698 266.657 236.798 266.657H236.898C236.998 266.657 236.998 266.557 236.998 266.457ZM218.698 262.457C218.598 262.357 218.498 262.457 218.398 262.457C218.298 262.557 218.398 262.657 218.398 262.757C218.498 262.857 218.598 262.757 218.698 262.757C218.898 262.657 218.798 262.557 218.698 262.457ZM244.098 286.457C243.898 286.457 243.798 286.657 243.798 286.857C243.798 287.057 243.998 287.157 244.198 287.157C244.398 287.157 244.498 286.957 244.498 286.757C244.498 286.457 244.298 286.357 244.098 286.457ZM242.898 278.157C242.698 278.157 242.598 278.357 242.598 278.557C242.598 278.757 242.798 278.857 242.998 278.857C243.198 278.857 243.298 278.657 243.298 278.457C243.198 278.257 242.998 278.157 242.898 278.157ZM241.598 269.957C241.398 269.957 241.298 270.157 241.298 270.357C241.298 270.557 241.498 270.657 241.698 270.657C241.898 270.657 241.998 270.457 241.998 270.257C241.898 270.057 241.798 269.957 241.598 269.957ZM210.398 278.257C210.198 278.157 209.998 278.157 209.898 278.357C209.798 278.557 209.798 278.757 209.998 278.857C210.198 278.957 210.398 278.957 210.498 278.757C210.598 278.557 210.498 278.357 210.398 278.257ZM215.298 271.557C215.098 271.457 214.898 271.457 214.798 271.657C214.698 271.857 214.698 272.057 214.898 272.157C215.098 272.257 215.298 272.257 215.398 272.057C215.498 271.857 215.398 271.657 215.298 271.557ZM220.198 264.857C220.098 264.757 219.798 264.757 219.698 264.957C219.598 265.157 219.598 265.357 219.798 265.457C219.998 265.557 220.198 265.557 220.298 265.357C220.398 265.157 220.298 264.957 220.198 264.857ZM250.898 262.757C250.798 262.557 250.598 262.557 250.398 262.657C250.198 262.757 250.198 262.957 250.298 263.157C250.398 263.357 250.598 263.357 250.798 263.257C250.898 263.157 250.998 262.957 250.898 262.757ZM227.898 282.057C227.698 282.057 227.498 282.157 227.498 282.257C227.498 282.457 227.598 282.657 227.698 282.657C227.898 282.657 228.098 282.557 228.098 282.357C228.198 282.257 228.098 282.057 227.898 282.057ZM229.898 273.957C229.698 273.957 229.498 274.057 229.498 274.157C229.498 274.357 229.598 274.557 229.698 274.557C229.898 274.557 230.098 274.457 230.098 274.257C230.198 274.157 230.098 273.957 229.898 273.957ZM231.798 265.857C231.598 265.857 231.398 265.957 231.398 266.157C231.398 266.357 231.498 266.557 231.698 266.557C231.898 266.557 232.098 266.457 232.098 266.357C232.098 266.057 231.998 265.857 231.798 265.857ZM232.998 284.657C232.798 284.657 232.598 284.757 232.598 284.957C232.598 285.157 232.698 285.357 232.898 285.357C233.098 285.357 233.298 285.257 233.298 285.057C233.298 284.957 233.198 284.757 232.998 284.657ZM234.598 276.557C234.398 276.557 234.198 276.657 234.198 276.857C234.198 277.057 234.298 277.257 234.498 277.257C234.698 277.257 234.898 277.157 234.898 276.957C234.898 276.757 234.798 276.657 234.598 276.557ZM236.198 268.457C235.998 268.457 235.798 268.557 235.798 268.757C235.798 268.957 235.898 269.157 236.098 269.157C236.298 269.157 236.498 269.057 236.498 268.857C236.498 268.657 236.398 268.457 236.198 268.457ZM248.398 272.057C248.198 272.057 248.098 272.257 248.098 272.457C248.098 272.657 248.298 272.757 248.498 272.757C248.698 272.757 248.798 272.557 248.798 272.357C248.798 272.157 248.598 272.057 248.398 272.057ZM246.798 263.957C246.598 263.957 246.498 264.157 246.498 264.357C246.498 264.557 246.698 264.657 246.898 264.657C247.098 264.657 247.198 264.457 247.198 264.257C247.198 264.057 246.998 263.957 246.798 263.957ZM219.198 274.357C218.998 274.257 218.798 274.257 218.698 274.457C218.598 274.657 218.598 274.857 218.798 274.957C218.998 275.057 219.198 275.057 219.298 274.857C219.398 274.757 219.298 274.457 219.198 274.357ZM223.798 267.457C223.598 267.357 223.398 267.357 223.298 267.557C223.198 267.757 223.198 267.957 223.398 268.057C223.598 268.157 223.798 268.157 223.898 267.957C223.998 267.857 223.898 267.657 223.798 267.457ZM232.898 270.457C232.798 270.357 232.598 270.457 232.598 270.557C232.498 270.657 232.598 270.857 232.698 270.857C232.798 270.857 232.998 270.857 232.998 270.757C233.098 270.657 233.098 270.557 232.898 270.457ZM235.398 264.757C235.298 264.657 235.098 264.757 235.098 264.857C234.998 264.957 235.098 265.157 235.198 265.157C235.298 265.257 235.498 265.157 235.498 265.057C235.598 264.957 235.498 264.757 235.398 264.757ZM245.998 269.957C245.898 269.957 245.698 270.057 245.698 270.257C245.698 270.357 245.798 270.557 245.998 270.557C246.098 270.557 246.298 270.457 246.298 270.257C246.298 270.057 246.198 269.957 245.998 269.957C246.098 269.957 245.998 269.957 245.998 269.957ZM246.098 263.657C245.998 263.657 245.898 263.757 245.798 263.857C245.798 263.957 245.898 264.157 246.098 264.157C246.198 264.157 246.398 264.057 246.398 263.857C246.398 263.757 246.298 263.657 246.098 263.657Z" fill="white"/>
<path d="M356.298 89.1576C355.898 89.1576 355.398 89.0576 354.998 88.9576C353.798 88.5576 352.798 87.5576 352.298 86.2576C351.798 84.8576 351.798 83.3576 352.298 81.9576C352.998 79.6576 354.998 78.0576 357.398 77.8576C357.898 77.8576 358.298 77.9576 358.698 78.0576C360.598 78.8576 361.898 80.7576 361.798 82.8576H362.798C362.898 80.3576 361.398 78.0576 359.098 77.1576C356.098 76.1576 352.598 78.1576 351.398 81.6576C350.798 83.2576 350.798 85.0576 351.498 86.6576C352.098 88.1576 353.298 89.3576 354.798 89.8576C355.298 90.0576 355.898 90.1576 356.398 90.1576L356.298 89.1576Z" fill="url(#paint5_linear)"/>
<path d="M371.898 89.1576C371.498 89.1576 370.998 89.0576 370.598 88.9576C369.398 88.5576 368.398 87.5576 367.898 86.2576C367.398 84.8576 367.398 83.3576 367.898 81.9576C368.598 79.6576 370.598 78.0576 372.998 77.8576C373.498 77.8576 373.898 77.9576 374.298 78.0576C376.198 78.8576 377.498 80.7576 377.398 82.8576H378.398C378.498 80.3576 376.998 78.0576 374.698 77.1576C371.698 76.1576 368.198 78.1576 366.998 81.6576C366.398 83.2576 366.398 85.0576 367.098 86.6576C367.698 88.1576 368.898 89.3576 370.398 89.8576C370.898 90.0576 371.498 90.1576 371.998 90.1576V89.1576H371.898Z" fill="url(#paint6_linear)"/>
<path d="M314.898 182.058C314.898 182.058 304.498 188.158 293.998 181.458C286.598 176.658 280.098 181.158 272.598 183.158C269.398 184.158 265.998 184.258 262.598 183.658C250.298 180.858 235.598 177.858 233.698 150.758C232.698 133.558 233.098 116.358 234.798 99.2576C236.098 98.0576 237.398 96.8576 238.698 95.6576C245.298 90.7576 258.398 81.0576 261.198 79.4576C261.198 79.4576 261.298 79.4576 261.298 79.3576C261.398 79.3576 261.498 79.2576 261.498 79.2576L272.398 89.3576C272.398 89.3576 261.198 116.458 270.198 127.758C270.998 128.758 271.998 129.658 273.198 130.458C287.298 139.358 308.198 131.958 308.198 131.958L314.898 182.058Z" fill="url(#paint7_linear)"/>
<path d="M279.598 252.158C235.698 274.458 183.798 252.158 183.798 252.158C177.398 170.558 209.998 123.258 234.998 99.2576C236.598 97.6576 238.298 96.1576 239.798 94.8576C245.098 90.1576 250.798 85.9576 256.798 82.1576C256.998 82.0576 257.198 81.9576 257.398 81.7576C258.398 81.1576 259.298 80.6576 259.998 80.2576L260.098 80.1576C260.698 79.8576 261.098 79.5576 261.398 79.4576C261.398 79.4576 261.498 79.4576 261.498 79.3576C261.598 79.3576 261.698 79.2576 261.698 79.2576C268.298 89.2576 272.398 89.3576 272.598 89.3576V89.4576V89.5576C271.098 102.258 270.298 115.058 270.398 127.758C270.398 145.758 271.298 165.158 272.598 183.058C272.998 187.958 273.298 192.758 273.698 197.458C276.398 228.458 279.598 252.158 279.598 252.158Z" fill="url(#paint8_linear)"/>
<path d="M327.698 195.758C327.698 195.758 321.698 204.658 303.498 199.458C287.798 195.058 283.198 194.058 273.898 197.458C272.398 197.958 270.798 198.658 268.998 199.458C255.998 205.058 238.198 197.558 232.598 175.658C227.398 155.258 234.098 105.858 234.998 99.2576C236.598 97.6576 238.298 96.1576 239.798 94.8576C245.098 90.1576 250.798 85.9576 256.798 82.1576C256.998 82.0576 257.198 81.9576 257.398 81.7576C258.398 81.1576 259.198 80.6576 259.998 80.2576L260.098 80.1576C260.598 79.8576 260.998 79.6576 261.398 79.4576C261.398 79.4576 261.498 79.4576 261.498 79.3576C261.598 79.3576 261.698 79.2576 261.698 79.2576L272.598 89.3576V89.4576V89.5576C272.398 92.3576 269.898 124.158 272.098 137.958C274.398 152.458 277.998 150.458 289.298 149.658C299.098 148.758 308.698 147.058 318.198 144.558L327.698 195.758Z" fill="url(#paint9_linear)"/>
<path d="M279.898 77.2576C276.998 80.9576 274.598 85.0576 272.698 89.3576C272.698 89.3576 265.698 90.5576 261.798 79.2576L271.198 67.0576L279.898 77.2576Z" fill="url(#paint10_linear)"/>
<path d="M301.698 59.6575C301.698 59.7575 301.698 59.8575 301.698 59.8575C301.598 60.2575 301.498 60.7575 301.398 61.1575C300.298 65.9575 302.398 70.7575 301.898 72.0575C301.398 73.3575 298.598 73.2575 297.398 72.9575C296.198 72.6575 292.598 78.0575 286.498 79.6575C280.798 81.2575 274.098 78.3575 270.498 74.1575C272.298 63.6575 275.598 59.5575 286.798 58.5575C298.998 57.5575 300.998 50.4575 300.998 50.4575C301.898 53.5575 302.198 56.5575 301.698 59.6575Z" fill="#FFBEB6"/>
<path d="M252.898 48.4575C256.998 44.5575 260.298 38.8575 261.698 36.8575C263.598 34.0575 273.398 26.9575 284.898 31.4575C296.398 35.9575 309.198 45.0575 301.798 59.9575C302.298 56.8575 301.998 53.6575 301.098 50.6575C301.098 50.6575 299.098 57.7575 286.898 58.7575C285.598 58.8575 284.398 59.0575 283.098 59.2575C275.998 63.2575 270.898 69.3575 273.898 78.9575C274.098 79.5575 273.198 79.7575 272.998 79.1575C270.198 70.2575 274.198 64.1575 280.298 59.9575C273.498 62.1575 271.498 67.2575 270.098 77.4575C270.098 77.4575 251.398 74.7575 239.698 59.1575C241.598 55.8575 244.598 53.3575 248.098 51.9575C249.398 51.3575 250.598 50.6575 251.598 49.7575C246.198 51.4575 240.498 52.6575 238.798 58.5575C238.698 58.7575 238.498 58.9575 238.198 58.8575C237.998 58.7575 237.798 58.5575 237.898 58.3575C239.898 51.3575 246.998 50.5575 252.898 48.4575Z" fill="#E94A47"/>
<path d="M308.098 65.7575C309.998 62.9575 310.198 59.4575 308.498 57.8575C306.798 56.2575 303.998 57.2575 302.098 59.9575C301.898 60.2575 301.698 60.6575 301.498 60.9575C300.298 60.2575 298.798 60.5575 297.498 61.1575C297.498 60.9575 297.598 60.7575 297.598 60.5575C297.798 59.0575 297.298 57.5575 296.298 56.4575C294.398 54.6575 290.998 55.7575 288.898 58.9575C287.898 60.4575 287.298 62.1575 287.098 63.9575C286.998 65.1575 287.298 66.3575 287.898 67.3575C288.098 67.5575 288.198 67.8575 288.398 68.0575C289.398 68.9575 290.798 69.2575 292.098 68.6575C293.698 68.0575 294.998 66.9575 295.898 65.5575C296.598 64.4575 297.098 63.3575 297.398 62.0575C298.598 61.5575 300.098 61.0575 301.198 61.7575C301.198 61.8575 301.198 61.8575 301.098 61.9575C301.098 62.0575 301.098 62.1575 301.098 62.1575C300.898 63.2575 300.898 64.3575 301.098 65.4575C301.198 65.9575 301.398 66.3575 301.498 66.8575C301.498 66.9575 301.598 67.0575 301.598 67.1575C301.598 67.2575 301.698 67.4575 301.698 67.5575L301.798 67.6575C303.298 69.4575 306.198 68.4575 308.098 65.7575ZM295.198 65.0575C294.398 66.3575 293.198 67.2575 291.898 67.8575C290.898 68.2575 289.698 68.0575 288.898 67.3575C288.098 66.4575 287.698 65.1575 287.798 63.9575C287.898 62.3575 288.498 60.8575 289.398 59.4575C291.298 56.6575 294.198 55.6575 295.798 57.1575C295.998 57.3575 296.098 57.4575 296.198 57.6575C296.698 58.5575 296.898 59.5575 296.798 60.5575C296.698 62.1575 296.098 63.7575 295.198 65.0575ZM302.098 67.1575C300.698 65.8575 300.898 62.8575 302.498 60.5575C304.098 58.1575 306.498 57.3575 307.898 58.6575C309.298 59.9575 309.098 62.9575 307.498 65.2575C305.898 67.5575 303.498 68.4575 302.098 67.1575Z" fill="#23286B"/>
</g>
<defs>
<linearGradient id="paint0_linear" x1="649.761" y1="11.471" x2="749.675" y2="621.422" gradientUnits="userSpaceOnUse">
<stop stop-color="#370AEB"/>
<stop offset="1" stop-color="#8B6FFF"/>
</linearGradient>
<linearGradient id="paint1_linear" x1="331.319" y1="106.911" x2="329.583" y2="183.726" gradientUnits="userSpaceOnUse">
<stop stop-color="#FFBEB6"/>
<stop offset="1" stop-color="#F2A19C"/>
</linearGradient>
<linearGradient id="paint2_linear" x1="367.946" y1="80.9151" x2="315" y2="152.523" gradientUnits="userSpaceOnUse">
<stop stop-color="#A1C3FC"/>
<stop offset="0.6955" stop-color="#81AEF2"/>
<stop offset="1" stop-color="#78A9EF"/>
</linearGradient>
<linearGradient id="paint3_linear" x1="371.347" y1="105.323" x2="303.758" y2="172.715" gradientUnits="userSpaceOnUse">
<stop stop-color="#FFBEB6"/>
<stop offset="1" stop-color="#F2A19C"/>
</linearGradient>
<linearGradient id="paint4_linear" x1="320.363" y1="383.909" x2="247.629" y2="292.239" gradientUnits="userSpaceOnUse">
<stop stop-color="#23286B"/>
<stop offset="1" stop-color="#151A4F"/>
</linearGradient>
<linearGradient id="paint5_linear" x1="350.944" y1="83.5353" x2="362.781" y2="83.5353" gradientUnits="userSpaceOnUse">
<stop offset="0.1291" stop-color="#428DFC"/>
<stop offset="0.9987" stop-color="#1D72D8"/>
</linearGradient>
<linearGradient id="paint6_linear" x1="366.504" y1="83.5353" x2="378.34" y2="83.5353" gradientUnits="userSpaceOnUse">
<stop offset="0.1291" stop-color="#428DFC"/>
<stop offset="0.9987" stop-color="#1D72D8"/>
</linearGradient>
<linearGradient id="paint7_linear" x1="340.072" y1="35.0644" x2="289.599" y2="116.964" gradientUnits="userSpaceOnUse">
<stop offset="0.08983" stop-color="#EEEEEE"/>
<stop offset="0.8178" stop-color="#D6D7D8"/>
</linearGradient>
<linearGradient id="paint8_linear" x1="214.765" y1="144.52" x2="271.904" y2="255.941" gradientUnits="userSpaceOnUse">
<stop offset="0.08983" stop-color="#EEEEEE"/>
<stop offset="0.8178" stop-color="#D6D7D8"/>
</linearGradient>
<linearGradient id="paint9_linear" x1="309.564" y1="196.692" x2="544.508" y2="445.763" gradientUnits="userSpaceOnUse">
<stop offset="0.08983" stop-color="#EEEEEE"/>
<stop offset="0.8178" stop-color="#D6D7D8"/>
</linearGradient>
<linearGradient id="paint10_linear" x1="256.215" y1="104.786" x2="269.438" y2="80.8728" gradientUnits="userSpaceOnUse">
<stop stop-color="#FFBEB6"/>
<stop offset="1" stop-color="#F2A19C"/>
</linearGradient>
</defs>
</svg>
