<svg width="496" height="380" viewBox="0 0 496 380" fill="none" xmlns="http://www.w3.org/2000/svg">
<mask id="mask0" mask-type="alpha" maskUnits="userSpaceOnUse" x="0" y="0" width="496" height="380">
<rect width="496" height="380" fill="#C4C4C4"/>
</mask>
<g mask="url(#mask0)">
<path opacity="0.08" d="M440.53 828.255C266.857 928.525 10.9753 810.466 -130.997 564.562C-272.97 318.659 -110.054 330.531 63.6193 230.261C237.293 129.99 350.428 -57.6632 492.401 188.24C634.373 434.144 572.583 764.396 440.53 828.255Z" fill="url(#paint0_linear)"/>
<path d="M257.098 198.554C249.433 197.457 239.411 194.989 237.053 191.973C234.695 188.957 242.36 187.586 244.128 182.924C245.896 178.262 242.654 177.713 241.18 179.359C237.746 182.893 233.997 186.105 229.978 188.957C225.557 191.973 224.672 192.522 215.829 187.86C206.986 183.198 196.963 173.601 196.963 173.601C196.963 173.601 180.013 158.553 178.232 155.239L160.418 187.828C160.418 187.828 176.423 191.246 180.742 191.884C188.373 192.682 203.742 194.166 223.198 206.506C242.655 218.846 251.793 215.281 260.341 207.877C268.889 200.473 264.762 199.65 257.098 198.554Z" fill="url(#paint1_linear)"/>
<path d="M189.676 328.973L257.528 203.685L231.008 187.757L168.149 316.044L189.676 328.973Z" fill="url(#paint2_linear)"/>
<path d="M189.676 328.973L211.2 341.9L284.046 219.611L257.528 203.685L189.676 328.973Z" fill="url(#paint3_linear)"/>
<path d="M211.201 341.9L232.728 354.829L310.566 235.539L284.046 219.611L211.201 341.9Z" fill="url(#paint4_linear)"/>
<path d="M232.728 354.829L254.071 367.652L337.221 251.55L310.565 235.539L232.728 354.829Z" fill="url(#paint5_linear)"/>
<path d="M531.184 320.211C531.184 320.211 525.28 315.489 501.075 324.049C476.87 332.609 464.472 318.44 464.472 318.44C462.42 331.78 470.083 340.355 479.299 344.584C484.284 348.076 490.205 349.987 496.292 350.067C505.605 350.135 516.439 345.535 524.213 352.927C524.513 353.212 524.968 352.758 524.667 352.472C519.557 347.613 512.619 347.694 506.022 348.498C497.746 349.508 490.219 349.495 483.229 346.107C488.794 347.878 494.504 348.176 498.714 347.073C511.112 343.826 527.052 348.844 527.052 348.844C534.726 343.236 531.184 320.211 531.184 320.211Z" fill="#23286B"/>
<path d="M382.613 200.252C383.469 209.04 379.49 217.601 372.221 222.614C359.799 231.233 343.322 234.781 333.182 232.753C323.043 230.725 318.734 223.881 314.171 230.472C314.171 230.472 341.041 248.977 359.039 241.119C377.038 233.26 385.403 229.205 387.684 218.051C389.965 206.896 389.458 198.024 384.895 197.011C380.332 195.997 382.613 200.252 382.613 200.252Z" fill="url(#paint6_linear)"/>
<path d="M464.472 318.439C464.472 318.439 463.732 338.714 459.677 352.91C455.622 367.106 464.747 384.344 466.521 396.511C468.295 408.679 465.993 416.435 465.993 416.435H442.173C442.173 416.435 441.827 408.5 451.312 409.186C458.901 409.735 451.565 391.188 447.763 386.118C443.961 381.048 430.019 382.569 426.976 363.304C423.934 344.038 427.483 330.349 425.455 327.054L464.472 318.439Z" fill="url(#paint7_linear)"/>
<path d="M378.02 199.549C377.745 200.389 376.682 202.405 372.48 202.731C369.194 202.942 365.922 202.15 363.098 200.458L369.667 197.705C372.048 198.426 374.474 198.984 376.93 199.378C377.308 199.438 377.668 199.498 378.02 199.549Z" fill="url(#paint8_linear)"/>
<path d="M451.777 353.47C439.952 367.92 450.019 387.626 449.145 397.694C448.448 404.223 446.614 410.579 443.725 416.474L412.87 416.431C412.87 416.431 415.426 407.333 424.19 408.645C432.946 409.957 433.743 392.034 429.147 387.652C424.559 383.27 409.114 368.872 410.581 350.092C412.039 331.311 420.803 320.66 402.854 305.851C384.906 291.032 376.142 282.68 369.05 257.433C369.05 257.433 351.521 260.358 329.191 246.791C306.86 233.225 299.768 229.469 299.768 229.469C299.768 229.469 305.608 221.957 316.25 229.263C326.893 236.561 349.017 244.073 368.629 232.599C368.634 232.599 368.638 232.595 368.638 232.59C388.25 221.108 387.624 201.298 382.616 200.252C381.553 200.029 379.477 199.798 376.931 199.377C368.123 197.894 353.76 194.043 356.83 179.851C356.967 179.191 357.139 178.538 357.344 177.896L357.859 176.378L357.884 176.387C358.15 176.481 360.114 177.201 362.824 177.973C367.72 179.397 375.061 181.026 379.057 179.559C383.649 177.97 388.496 177.243 393.353 177.416C394.904 177.477 396.445 177.684 397.958 178.033C397.966 178.033 397.975 178.042 397.992 178.042C399.499 178.391 400.95 178.945 402.305 179.688C404.189 180.717 405.775 182.214 406.91 184.036C407.013 184.19 407.099 184.353 407.193 184.525C407.365 184.833 407.519 185.159 407.674 185.494C410.203 191.068 409.697 195.75 408.66 200.449C408.649 200.471 408.643 200.494 408.643 200.518C407.579 205.277 405.976 210.062 406.404 215.808C407.253 227.256 413.239 270.708 464.469 318.439C464.469 318.439 463.594 339.021 451.777 353.47Z" fill="#A1C3FC"/>
<path d="M409.554 194.713C409.569 194.626 409.548 194.538 409.497 194.467C409.605 191.374 408.979 188.299 407.673 185.494C407.519 185.16 407.365 184.834 407.193 184.525C407.099 184.354 407.013 184.191 406.91 184.037C405.775 182.215 404.188 180.718 402.305 179.689C400.949 178.945 399.498 178.391 397.992 178.042C397.975 178.042 397.966 178.034 397.957 178.034C396.445 177.685 394.904 177.478 393.352 177.416C393.029 178.804 392.589 180.161 392.037 181.474C388.518 188.789 380.932 194.319 374.243 198.464C366.444 203.296 356.737 205.776 348.412 200.727C348.256 200.643 348.06 200.701 347.976 200.857C347.895 201.007 347.944 201.192 348.088 201.282C356.124 206.156 365.592 204.248 373.347 199.753C378.707 196.645 384.566 192.592 388.794 187.554C385.646 192.23 381.617 196.246 376.931 199.378C370.697 203.632 362.147 207.422 350.441 209.549C350.441 209.549 354.258 225.671 368.639 232.591C373.424 234.898 379.375 236.184 386.741 235.524C386.741 235.524 398.456 223.22 405.155 209.528C401.787 219.097 396.7 227.97 390.144 235.712C389.878 236.025 390.331 236.482 390.599 236.166C398.605 226.728 404.427 215.636 407.646 203.686C408.024 202.627 408.359 201.57 408.643 200.518C408.644 200.494 408.65 200.471 408.66 200.449C409.06 198.738 409.328 197 409.461 195.249C409.49 195.07 409.526 194.892 409.554 194.713Z" fill="url(#paint9_linear)"/>
<path d="M379.897 176.875C378.911 178.744 379.627 181.058 381.496 182.043C382.173 182.4 382.941 182.545 383.701 182.461C384.28 182.401 384.294 181.485 383.708 181.546C382.117 181.784 380.635 180.687 380.398 179.096C380.308 178.497 380.408 177.884 380.683 177.344C380.94 176.818 380.156 176.346 379.897 176.875Z" fill="#1C2868"/>
<path d="M362.824 177.973C362.061 180.194 357.661 179.928 356.83 179.851C356.967 179.191 357.139 178.538 357.344 177.896L357.859 176.378L357.884 176.387C358.15 176.481 360.114 177.201 362.824 177.973Z" fill="#1C2868"/>
<path opacity="0.86" d="M400.425 231.07C400.412 231.252 400.55 231.411 400.732 231.423C400.737 231.423 400.74 231.424 400.744 231.424C400.925 231.435 401.081 231.297 401.092 231.116C401.092 231.115 401.092 231.114 401.092 231.114C401.105 230.931 400.967 230.772 400.784 230.76C400.78 230.76 400.776 230.759 400.772 230.759C400.591 230.748 400.436 230.886 400.425 231.066C400.425 231.067 400.425 231.069 400.425 231.07ZM403.714 262.586C403.579 262.712 403.569 262.923 403.693 263.061C403.806 263.199 404.009 263.218 404.147 263.105C404.151 263.101 404.157 263.098 404.161 263.093C404.296 262.967 404.306 262.756 404.182 262.618C404.061 262.479 403.852 262.466 403.714 262.586C403.714 262.586 403.714 262.586 403.714 262.586ZM409.749 257.188C409.611 257.313 409.602 257.526 409.727 257.663C409.852 257.8 410.065 257.81 410.202 257.685C410.34 257.565 410.354 257.355 410.234 257.217C410.105 257.083 409.894 257.07 409.749 257.188ZM398.196 246.168C398.262 246.339 398.455 246.424 398.626 246.358C398.798 246.292 398.883 246.099 398.817 245.928C398.751 245.76 398.565 245.674 398.396 245.734C398.222 245.801 398.133 245.993 398.196 246.168ZM405.847 243.49C405.913 243.661 406.106 243.746 406.277 243.68C406.449 243.614 406.534 243.421 406.468 243.25C406.403 243.081 406.216 242.996 406.047 243.056C405.873 243.123 405.785 243.315 405.847 243.49ZM418.677 269.209C418.601 269.377 418.673 269.576 418.84 269.656C419.002 269.736 419.199 269.669 419.279 269.507C419.279 269.506 419.279 269.504 419.28 269.503C419.367 269.349 419.312 269.153 419.158 269.066C419.15 269.062 419.142 269.058 419.135 269.054C418.964 268.979 418.767 269.047 418.677 269.209ZM395.77 238.598C395.809 238.758 395.97 238.855 396.129 238.818C396.289 238.781 396.39 238.621 396.353 238.461C396.316 238.301 396.157 238.2 395.996 238.237C395.994 238.238 395.991 238.238 395.988 238.239C395.831 238.279 395.734 238.439 395.77 238.598ZM402.795 236.873C402.835 237.031 402.995 237.129 403.154 237.092C403.315 237.059 403.419 236.901 403.386 236.74C403.352 236.579 403.194 236.475 403.033 236.508C403.027 236.51 403.02 236.511 403.014 236.513C402.857 236.547 402.758 236.702 402.792 236.859C402.793 236.864 402.794 236.869 402.795 236.873ZM413.837 262.9C413.756 263.047 413.803 263.231 413.945 263.321C414.08 263.405 414.259 263.363 414.343 263.228C414.345 263.224 414.347 263.22 414.349 263.217C414.437 263.078 414.396 262.893 414.257 262.806C414.255 262.805 414.253 262.804 414.253 262.803C414.109 262.722 413.928 262.764 413.837 262.9ZM405.668 224.077C405.642 224.238 405.752 224.388 405.912 224.414C405.916 224.414 405.921 224.415 405.926 224.415C406.08 224.443 406.227 224.34 406.254 224.185C406.255 224.179 406.256 224.173 406.257 224.167C406.286 224.005 406.179 223.851 406.017 223.822C406.013 223.821 406.01 223.821 406.006 223.82C405.843 223.801 405.693 223.915 405.668 224.077ZM405.015 249.722C404.886 249.824 404.861 250.01 404.959 250.143C405.055 250.275 405.241 250.304 405.373 250.208C405.504 250.107 405.536 249.923 405.446 249.785C405.343 249.65 405.152 249.623 405.015 249.722ZM410.853 245.443C410.722 245.532 410.688 245.711 410.777 245.842C410.78 245.847 410.784 245.851 410.787 245.857C410.883 245.989 411.068 246.018 411.201 245.922C411.332 245.821 411.363 245.637 411.273 245.499C411.171 245.369 410.984 245.345 410.853 245.443ZM403.471 226.985C403.495 227.089 403.598 227.154 403.702 227.131C403.704 227.13 403.706 227.13 403.708 227.129C403.814 227.108 403.884 227.005 403.862 226.898C403.862 226.893 403.86 226.888 403.859 226.883C403.836 226.779 403.732 226.714 403.628 226.737C403.627 226.738 403.624 226.738 403.622 226.739C403.513 226.767 403.447 226.876 403.471 226.985ZM415.459 243.487C415.4 243.572 415.421 243.689 415.506 243.748C415.513 243.752 415.519 243.756 415.526 243.76C415.62 243.816 415.741 243.786 415.799 243.692C415.852 243.596 415.826 243.475 415.739 243.41C415.641 243.354 415.516 243.388 415.459 243.485C415.46 243.486 415.459 243.487 415.459 243.487ZM405.747 216.682C405.724 216.791 405.795 216.898 405.903 216.92C405.906 216.921 405.909 216.921 405.912 216.922C406.022 216.932 406.122 216.858 406.143 216.75C406.161 216.641 406.086 216.537 405.977 216.52C405.975 216.52 405.973 216.519 405.97 216.519C405.864 216.503 405.765 216.576 405.747 216.682ZM390.31 244.002C390.161 244.123 390.134 244.339 390.247 244.492C390.361 244.645 390.576 244.677 390.73 244.564C390.88 244.445 390.907 244.227 390.793 244.075C390.679 243.922 390.463 243.89 390.31 244.002ZM396.996 238.994C396.843 239.107 396.811 239.323 396.924 239.476C397.037 239.63 397.253 239.662 397.407 239.548C397.56 239.435 397.592 239.219 397.479 239.066C397.366 238.913 397.15 238.881 396.996 238.994ZM403.673 233.978C403.523 234.097 403.495 234.315 403.61 234.467C403.729 234.616 403.945 234.639 404.093 234.521C404.241 234.402 404.265 234.186 404.146 234.038C404.031 233.894 403.821 233.866 403.673 233.978ZM402.237 222.776C402.284 222.963 402.474 223.076 402.661 223.028C402.848 222.981 402.961 222.79 402.913 222.603C402.866 222.416 402.676 222.303 402.489 222.351C402.304 222.402 402.193 222.589 402.237 222.776ZM405.063 252.39C404.975 252.558 405.029 252.765 405.187 252.869C405.354 252.959 405.561 252.9 405.656 252.737C405.755 252.577 405.707 252.368 405.548 252.269C405.546 252.268 405.543 252.267 405.542 252.266C405.375 252.168 405.161 252.223 405.063 252.39C405.063 252.389 405.063 252.39 405.063 252.39ZM409.323 245.196C409.226 245.363 409.281 245.576 409.447 245.674H409.448C409.609 245.767 409.816 245.713 409.909 245.552C409.909 245.552 409.909 245.552 409.909 245.551C410.008 245.389 409.956 245.178 409.794 245.08C409.633 244.984 409.422 245.035 409.323 245.196ZM404.105 216.993C404.152 217.176 404.329 217.292 404.515 217.265C404.7 217.219 404.816 217.034 404.777 216.847C404.746 216.667 404.575 216.547 404.395 216.579C404.389 216.58 404.383 216.582 404.376 216.582C404.189 216.618 404.067 216.798 404.103 216.985C404.104 216.988 404.105 216.991 404.105 216.993ZM399.562 250.787C399.463 250.948 399.515 251.159 399.676 251.256C399.837 251.355 400.048 251.304 400.146 251.142C400.242 250.985 400.196 250.781 400.042 250.678C399.88 250.576 399.665 250.624 399.562 250.787ZM404.095 243.809C403.992 243.972 404.04 244.186 404.203 244.29C404.362 244.387 404.569 244.344 404.676 244.192C404.777 244.027 404.733 243.813 404.576 243.701C404.412 243.603 404.201 243.65 404.095 243.809ZM408.628 236.831C408.525 236.994 408.573 237.208 408.736 237.312C408.892 237.418 409.105 237.377 409.211 237.221C409.317 237.065 409.276 236.852 409.12 236.746C409.118 236.744 409.114 236.742 409.112 236.74C408.952 236.636 408.739 236.676 408.628 236.831ZM397.244 230.68C397.09 230.789 397.053 231 397.161 231.154C397.162 231.155 397.162 231.156 397.162 231.156C397.268 231.315 397.481 231.359 397.64 231.255C397.796 231.144 397.836 230.929 397.728 230.77C397.617 230.615 397.404 230.577 397.244 230.68ZM404.114 225.97C403.956 226.075 403.913 226.288 404.018 226.446C404.122 226.604 404.336 226.647 404.494 226.542C404.496 226.54 404.498 226.539 404.501 226.538C404.655 226.425 404.693 226.212 404.59 226.052C404.482 225.899 404.271 225.861 404.116 225.969C404.115 225.969 404.115 225.969 404.114 225.97ZM409.703 240.611C409.653 240.746 409.72 240.896 409.854 240.946C409.985 240.996 410.133 240.932 410.187 240.802C410.242 240.676 410.183 240.529 410.057 240.475C410.049 240.471 410.041 240.468 410.033 240.465C409.902 240.418 409.756 240.482 409.703 240.611ZM400.603 230.888C400.507 230.993 400.513 231.156 400.616 231.255C400.723 231.346 400.882 231.34 400.983 231.242C401.081 231.138 401.075 230.975 400.972 230.877C400.971 230.876 400.971 230.876 400.97 230.875C400.872 230.777 400.714 230.777 400.616 230.874C400.611 230.879 400.607 230.883 400.603 230.888ZM404.922 226.327C404.826 226.435 404.828 226.599 404.928 226.703C405.032 226.801 405.196 226.796 405.294 226.692C405.295 226.691 405.295 226.691 405.295 226.69C405.394 226.593 405.395 226.436 405.299 226.337C405.296 226.334 405.295 226.333 405.292 226.33C405.193 226.227 405.029 226.225 404.926 226.323C404.924 226.324 404.923 226.326 404.922 226.327Z" fill="white"/>
<path d="M89.0377 159.243C86.9479 169.536 86.4625 182.313 89.8773 197.287C99.7168 240.472 100.483 234.408 98.9681 264.71C97.446 295.011 102.374 284.784 103.888 316.599C105.401 348.423 103.46 364.128 123.913 384.211H148.867C148.867 384.211 150.891 287.195 150.447 259.773C150.134 240.587 144.103 221.146 140.624 205.267L132.934 162.949" fill="url(#paint10_linear)"/>
<path d="M130.988 216.367C130.988 216.367 123.799 173.511 124.37 163.519L78.1272 156.097L77.5312 158.993C72.3911 178.146 73.0446 198.393 79.4101 217.175C95.1084 264.29 84.3205 262.058 79.2335 276.315C74.1182 290.563 71.3844 299.277 72.5463 312.744C73.7272 326.22 67.8495 322.649 64.6972 340.058C61.5628 357.487 65.5624 384.188 65.5624 384.188H90.524C90.524 384.188 129.864 289.382 131.826 268.792C133.378 252.424 132.709 233.563 130.988 216.367Z" fill="#23286B"/>
<path opacity="0.86" d="M105.103 180.004C105.184 180.058 105.292 180.036 105.346 179.956C105.4 179.875 105.377 179.767 105.298 179.713C105.218 179.659 105.109 179.681 105.055 179.761C105.002 179.842 105.023 179.95 105.103 180.004ZM107.451 176.435C107.535 176.487 107.646 176.467 107.706 176.388C107.755 176.304 107.729 176.195 107.646 176.145C107.573 176.09 107.47 176.104 107.414 176.177C107.41 176.182 107.406 176.188 107.403 176.193C107.349 176.273 107.37 176.381 107.451 176.435ZM109.811 172.866C109.891 172.92 109.999 172.898 110.054 172.818C110.106 172.734 110.085 172.623 110.006 172.563C109.919 172.515 109.809 172.541 109.752 172.622C109.701 172.707 109.728 172.815 109.811 172.866ZM122.706 183.281C122.724 183.378 122.818 183.442 122.915 183.424C123.004 183.409 123.065 183.326 123.051 183.237C123.05 183.229 123.048 183.221 123.045 183.215C123.03 183.121 122.942 183.058 122.848 183.073C122.75 183.09 122.687 183.185 122.706 183.281ZM100.344 172.065C100.397 172.144 100.503 172.165 100.582 172.113C100.661 172.06 100.682 171.954 100.63 171.875C100.578 171.796 100.471 171.775 100.392 171.827C100.315 171.873 100.289 171.973 100.335 172.05C100.337 172.055 100.341 172.06 100.344 172.065ZM103.883 169.67C103.924 169.733 104.004 169.757 104.072 169.728L104.084 169.729C104.097 169.731 104.111 169.727 104.121 169.718C104.169 169.688 104.198 169.635 104.2 169.579C104.201 169.54 104.19 169.501 104.169 169.469C104.116 169.391 104.01 169.369 103.931 169.421C103.85 169.473 103.826 169.581 103.878 169.663C103.879 169.665 103.881 169.668 103.883 169.67ZM113.898 181.048C113.886 181.145 113.948 181.236 114.044 181.259C114.142 181.277 114.237 181.212 114.255 181.114C114.273 181.015 114.207 180.921 114.109 180.903C114.012 180.891 113.921 180.953 113.898 181.048ZM114.704 176.851C114.689 176.946 114.755 177.035 114.85 177.05C114.94 177.074 115.032 177.02 115.057 176.93C115.058 176.925 115.06 176.921 115.061 176.916C115.076 176.818 115.012 176.725 114.915 176.705C114.818 176.694 114.727 176.756 114.704 176.851ZM82.016 176.721C82.106 176.881 82.3084 176.936 82.4679 176.846C82.4713 176.845 82.4748 176.842 82.4782 176.84C82.6351 176.749 82.6883 176.549 82.5974 176.393C82.5965 176.392 82.5965 176.391 82.5957 176.39C82.5056 176.231 82.3032 176.175 82.1437 176.265C82.1403 176.267 82.1369 176.269 82.1335 176.271C81.9765 176.362 81.9233 176.562 82.0134 176.719C82.0151 176.719 82.016 176.72 82.016 176.721ZM89.0101 172.636C89.1053 172.796 89.312 172.849 89.4723 172.754C89.6327 172.659 89.6859 172.452 89.5907 172.292C89.4998 172.135 89.2991 172.082 89.1431 172.173C89.1422 172.174 89.1413 172.174 89.1405 172.174C88.981 172.269 88.9235 172.472 89.0101 172.636ZM96.0163 168.551C96.1115 168.712 96.3182 168.765 96.4785 168.67C96.6389 168.574 96.6921 168.368 96.5969 168.207C96.5017 168.047 96.295 167.994 96.1346 168.089C95.9751 168.179 95.9194 168.382 96.0094 168.541C96.012 168.544 96.0137 168.548 96.0163 168.551ZM102.154 201.187C102.11 201.367 102.219 201.548 102.397 201.595C102.568 201.648 102.748 201.551 102.8 201.381C102.802 201.375 102.804 201.369 102.806 201.364C102.849 201.184 102.74 201.003 102.561 200.955C102.385 200.907 102.203 201.01 102.154 201.187C102.155 201.187 102.155 201.187 102.154 201.187ZM104.208 193.354C104.163 193.534 104.274 193.717 104.454 193.761C104.633 193.804 104.813 193.696 104.859 193.518C104.908 193.341 104.804 193.16 104.628 193.111C104.628 193.111 104.628 193.111 104.627 193.111C104.445 193.07 104.262 193.177 104.208 193.354ZM106.273 185.51C106.225 185.686 106.329 185.868 106.505 185.915C106.508 185.916 106.513 185.917 106.516 185.918C106.687 185.97 106.867 185.874 106.919 185.703C106.921 185.697 106.923 185.691 106.924 185.686C106.965 185.504 106.859 185.322 106.681 185.266C106.502 185.223 106.32 185.332 106.273 185.51ZM108.326 177.678C108.281 177.858 108.391 178.041 108.571 178.086C108.751 178.132 108.934 178.022 108.979 177.842C109.028 177.665 108.924 177.484 108.747 177.435C108.747 177.435 108.747 177.435 108.747 177.435C108.568 177.383 108.381 177.486 108.33 177.664C108.328 177.669 108.327 177.673 108.326 177.678ZM80.9715 162.315C80.9989 162.499 81.1704 162.626 81.3539 162.598C81.5375 162.571 81.6644 162.399 81.6369 162.216C81.6078 162.033 81.438 161.907 81.2545 161.933C81.0727 161.958 80.9449 162.127 80.9706 162.308C80.9706 162.311 80.9715 162.314 80.9715 162.315ZM88.4905 190.542C88.6405 190.649 88.8481 190.613 88.9544 190.463C89.0607 190.313 89.0256 190.106 88.8755 189.999C88.7289 189.896 88.5256 189.927 88.4176 190.071C88.3104 190.222 88.3421 190.431 88.4905 190.542ZM93.3922 184.086C93.5423 184.192 93.7498 184.157 93.8562 184.007C93.9625 183.857 93.9273 183.649 93.7773 183.543C93.6306 183.439 93.4274 183.47 93.3193 183.614C93.2121 183.765 93.2447 183.974 93.3922 184.086ZM98.294 177.641C98.4466 177.751 98.6601 177.717 98.7699 177.564C98.8762 177.416 98.8479 177.211 98.7047 177.098C98.5572 176.981 98.3428 177.006 98.2262 177.153C98.1096 177.301 98.1344 177.515 98.2819 177.632C98.2862 177.635 98.2897 177.638 98.294 177.641ZM103.197 171.173C103.34 171.287 103.547 171.263 103.661 171.12C103.663 171.117 103.666 171.115 103.667 171.112C103.781 170.968 103.756 170.759 103.612 170.645C103.468 170.531 103.258 170.556 103.144 170.7C103.141 170.705 103.137 170.709 103.135 170.713C103.024 170.849 103.044 171.048 103.179 171.159C103.185 171.164 103.191 171.169 103.197 171.173ZM118.288 198.451C118.317 198.633 118.487 198.759 118.67 198.734C118.849 198.71 118.976 198.547 118.953 198.367C118.953 198.367 118.953 198.365 118.952 198.364C118.939 198.187 118.785 198.054 118.608 198.066C118.6 198.067 118.591 198.068 118.583 198.069C118.4 198.102 118.272 198.267 118.288 198.451ZM117.194 190.415C117.226 190.597 117.392 190.726 117.576 190.71C117.759 190.681 117.885 190.511 117.859 190.328C117.833 190.146 117.665 190.018 117.483 190.044C117.482 190.044 117.479 190.045 117.477 190.045C117.298 190.068 117.171 190.232 117.194 190.411C117.193 190.413 117.193 190.415 117.194 190.415ZM116.1 182.392C116.12 182.569 116.278 182.696 116.454 182.677C116.459 182.676 116.465 182.676 116.47 182.675C116.652 182.656 116.785 182.493 116.766 182.311C116.766 182.305 116.765 182.3 116.764 182.294C116.736 182.11 116.565 181.983 116.381 182.011C116.198 182.038 116.073 182.209 116.1 182.392ZM114.995 174.357C115.024 174.54 115.194 174.666 115.377 174.64C115.554 174.62 115.681 174.462 115.662 174.286C115.661 174.281 115.661 174.275 115.66 174.27C115.637 174.089 115.473 173.957 115.291 173.976C115.104 174.003 114.974 174.171 114.995 174.357ZM77.158 157.615C77.2171 157.561 77.2514 157.484 77.2523 157.403C77.2471 157.354 77.2291 157.308 77.1991 157.269C77.1931 157.377 77.176 157.496 77.158 157.615ZM82.2895 185.569C82.4104 185.679 82.5974 185.672 82.7106 185.553C82.8229 185.433 82.8178 185.245 82.6977 185.132C82.5777 185.019 82.3899 185.025 82.2767 185.145C82.2758 185.146 82.275 185.147 82.2741 185.147C82.1643 185.269 82.1712 185.455 82.2895 185.569ZM87.1956 180.253C87.3165 180.362 87.5034 180.356 87.6166 180.237C87.7324 180.121 87.7315 179.932 87.614 179.816C87.4974 179.7 87.3088 179.701 87.193 179.819C87.1887 179.823 87.1844 179.827 87.1801 179.832C87.0678 179.948 87.0704 180.133 87.1861 180.244C87.1896 180.247 87.1921 180.25 87.1956 180.253ZM92.015 174.74C92.0133 174.816 92.045 174.888 92.1016 174.937C92.2225 175.046 92.4094 175.04 92.5226 174.921C92.6384 174.799 92.6324 174.606 92.5107 174.491C92.5098 174.49 92.5089 174.489 92.5081 174.488C92.4352 174.42 92.3331 174.392 92.2354 174.414L92.2234 174.414C92.1676 174.424 92.1187 174.456 92.087 174.503C92.0244 174.565 91.997 174.654 92.015 174.74ZM97.0076 169.621C97.1311 169.733 97.3223 169.724 97.4347 169.599C97.547 169.475 97.5376 169.285 97.4132 169.172C97.2923 169.062 97.1045 169.068 96.9922 169.188C96.8764 169.31 96.8824 169.503 97.0051 169.618C97.0059 169.619 97.0068 169.62 97.0076 169.621ZM110.77 195.862C110.782 196.029 110.924 196.157 111.091 196.153C111.251 196.148 111.376 196.015 111.371 195.856C111.371 195.851 111.371 195.847 111.37 195.843C111.366 195.678 111.23 195.548 111.065 195.551C111.064 195.551 111.062 195.551 111.06 195.551C110.897 195.562 110.77 195.698 110.77 195.862ZM110.487 188.646C110.497 188.808 110.635 188.934 110.798 188.926C110.957 188.921 111.083 188.788 111.078 188.628C111.078 188.624 111.078 188.62 111.077 188.615C111.074 188.451 110.938 188.32 110.773 188.324C110.771 188.324 110.77 188.324 110.767 188.324C110.602 188.338 110.479 188.481 110.487 188.646ZM110.195 181.406C110.198 181.571 110.335 181.701 110.499 181.698C110.501 181.698 110.503 181.698 110.505 181.698C110.661 181.698 110.787 181.571 110.786 181.415C110.786 181.406 110.785 181.397 110.784 181.387C110.781 181.222 110.644 181.092 110.48 181.096C110.478 181.096 110.476 181.096 110.475 181.096C110.313 181.108 110.191 181.245 110.195 181.406ZM109.902 174.191C109.914 174.357 110.058 174.481 110.224 174.469C110.385 174.457 110.508 174.321 110.504 174.16C110.493 173.997 110.357 173.87 110.194 173.868C110.026 173.882 109.898 174.023 109.902 174.191ZM82.5288 167.997C82.5957 168.145 82.7698 168.21 82.9181 168.143C82.9224 168.141 82.9267 168.14 82.9301 168.137C83.0733 168.075 83.1394 167.908 83.0768 167.764C83.0742 167.758 83.0716 167.753 83.069 167.748C83.0039 167.597 82.8289 167.527 82.678 167.592C82.6746 167.593 82.6711 167.594 82.6686 167.596C82.5219 167.671 82.4602 167.847 82.5288 167.997ZM89.0993 164.959C89.1662 165.107 89.3386 165.174 89.4878 165.11C89.6396 165.041 89.7073 164.862 89.6396 164.71C89.5658 164.562 89.3918 164.496 89.2391 164.558C89.0899 164.63 89.0273 164.808 89.0985 164.957C89.0985 164.958 89.0993 164.959 89.0993 164.959ZM96.1389 189.741C96.0866 189.897 96.169 190.067 96.3242 190.122C96.4768 190.179 96.6475 190.102 96.7049 189.949C96.7589 189.793 96.6835 189.621 96.5325 189.556C96.373 189.501 96.1981 189.584 96.1389 189.741ZM98.6456 182.951C98.5855 183.098 98.6558 183.265 98.8025 183.325C98.8076 183.328 98.8136 183.329 98.8196 183.331C98.9723 183.388 99.1429 183.311 99.2004 183.158C99.2544 183.002 99.1789 182.83 99.028 182.765C98.8702 182.714 98.7004 182.796 98.6456 182.951ZM101.139 176.16C101.082 176.313 101.16 176.484 101.313 176.541C101.465 176.599 101.636 176.521 101.693 176.368C101.751 176.215 101.673 176.045 101.52 175.987C101.367 175.93 101.197 176.008 101.139 176.16ZM103.633 169.37C103.576 169.523 103.654 169.694 103.806 169.751C103.893 169.787 103.992 169.778 104.071 169.728L104.083 169.729C104.136 169.691 104.175 169.639 104.199 169.579C104.251 169.423 104.169 169.253 104.014 169.198C103.861 169.14 103.69 169.217 103.633 169.37ZM123.825 189.085C123.887 189.229 124.054 189.295 124.197 189.232C124.203 189.229 124.208 189.227 124.213 189.224C124.364 189.159 124.435 188.984 124.369 188.833C124.368 188.83 124.367 188.826 124.365 188.824C124.291 188.677 124.114 188.615 123.964 188.684C123.816 188.751 123.751 188.925 123.818 189.073C123.821 189.078 123.822 189.081 123.825 189.085ZM120.787 182.515C120.857 182.665 121.034 182.733 121.187 182.667C121.337 182.593 121.399 182.411 121.324 182.261C121.254 182.119 121.085 182.054 120.938 182.114C120.787 182.177 120.716 182.348 120.779 182.499C120.781 182.505 120.784 182.51 120.787 182.515ZM86.079 168.039C86.1382 168.118 86.2506 168.135 86.3294 168.075C86.4083 168.016 86.4246 167.904 86.3655 167.825C86.3063 167.746 86.194 167.73 86.1151 167.789C86.0396 167.85 86.0233 167.96 86.079 168.039ZM89.5161 165.52C89.5753 165.599 89.6876 165.615 89.7665 165.556C89.8454 165.497 89.8617 165.384 89.8025 165.306C89.7433 165.227 89.631 165.21 89.5521 165.269C89.4766 165.33 89.4604 165.439 89.5161 165.52ZM101.411 177.219C101.397 177.314 101.462 177.403 101.558 177.418C101.653 177.432 101.742 177.367 101.757 177.271C101.771 177.176 101.706 177.087 101.61 177.072C101.515 177.057 101.426 177.123 101.411 177.219C101.411 177.218 101.411 177.218 101.411 177.219ZM102.051 173.001C102.041 173.1 102.112 173.187 102.21 173.201C102.305 173.216 102.394 173.15 102.408 173.055C102.426 172.964 102.366 172.876 102.276 172.858C102.271 172.857 102.267 172.856 102.263 172.856C102.166 172.837 102.071 172.901 102.053 172.998C102.051 172.998 102.051 172.999 102.051 173.001ZM93.9282 172.205C94.0131 172.249 94.1168 172.223 94.1709 172.145C94.2223 172.066 94.1992 171.959 94.1194 171.908C94.1168 171.906 94.1134 171.904 94.1108 171.903C94.0337 171.85 93.929 171.871 93.8767 171.948C93.8733 171.952 93.8707 171.958 93.8681 171.963C93.8184 172.047 93.845 172.155 93.9282 172.205ZM96.1475 168.558C96.2324 168.602 96.3362 168.576 96.3902 168.498C96.4374 168.414 96.4116 168.308 96.3302 168.255C96.2547 168.201 96.1484 168.218 96.0943 168.294C96.0918 168.297 96.0901 168.3 96.0875 168.303C96.0326 168.386 96.0549 168.497 96.1364 168.552C96.1407 168.554 96.1441 168.556 96.1475 168.558ZM109.973 174.698C109.995 174.792 110.089 174.85 110.182 174.829C110.276 174.807 110.334 174.713 110.312 174.619C110.298 174.53 110.215 174.469 110.126 174.484C110.118 174.485 110.11 174.486 110.103 174.489C110.011 174.509 109.951 174.6 109.971 174.693C109.972 174.694 109.972 174.697 109.973 174.698ZM108.952 170.555C108.978 170.652 109.077 170.71 109.174 170.687C109.264 170.662 109.317 170.568 109.292 170.477C109.292 170.477 109.292 170.477 109.292 170.476C109.277 170.386 109.194 170.326 109.105 170.34C109.097 170.341 109.09 170.343 109.083 170.345C108.99 170.365 108.931 170.457 108.951 170.549C108.951 170.551 108.952 170.554 108.952 170.555ZM82.3024 171.634C82.3796 171.708 82.5013 171.705 82.5751 171.628C82.5768 171.626 82.5777 171.626 82.5794 171.624C82.6566 171.548 82.6574 171.423 82.5802 171.346C82.5768 171.343 82.5725 171.339 82.5691 171.336C82.4919 171.262 82.3701 171.265 82.2964 171.342C82.2947 171.344 82.2938 171.344 82.2921 171.346C82.2166 171.429 82.2209 171.557 82.3024 171.634ZM85.6331 168.09C85.7154 168.167 85.8449 168.163 85.9212 168.081C85.9984 167.998 85.9941 167.869 85.9118 167.792C85.8346 167.719 85.7129 167.721 85.6391 167.798C85.6374 167.8 85.6365 167.802 85.6348 167.803C85.5551 167.876 85.5491 167.999 85.622 168.08C85.6254 168.082 85.6288 168.086 85.6331 168.09ZM88.9758 164.545C89.0504 164.608 89.1585 164.613 89.2391 164.558C89.252 164.547 89.264 164.547 89.264 164.535C89.3412 164.452 89.3369 164.323 89.2537 164.246C89.1714 164.169 89.0419 164.174 88.9656 164.257C88.8884 164.339 88.8935 164.469 88.9758 164.545ZM101.407 178.778C101.404 178.882 101.487 178.967 101.59 178.97C101.598 178.97 101.606 178.97 101.614 178.969C101.722 178.964 101.807 178.871 101.804 178.762C101.795 178.652 101.707 178.567 101.598 178.56C101.486 178.567 101.4 178.664 101.407 178.777C101.407 178.778 101.407 178.778 101.407 178.778ZM101.25 173.909C101.257 174.022 101.355 174.107 101.467 174.101C101.468 174.101 101.468 174.101 101.469 174.101C101.578 174.095 101.662 174.003 101.659 173.894C101.65 173.784 101.562 173.698 101.453 173.691C101.339 173.702 101.252 173.796 101.25 173.909ZM101.118 169.031C101.11 169.135 101.189 169.225 101.293 169.233C101.303 169.234 101.313 169.234 101.324 169.233C101.433 169.228 101.517 169.135 101.514 169.026C101.505 168.917 101.417 168.831 101.308 168.824C101.198 168.829 101.114 168.921 101.118 169.031ZM78.5129 161.787C78.554 161.891 78.6707 161.941 78.7744 161.9C78.7779 161.899 78.7804 161.898 78.7839 161.896C78.8808 161.844 78.9237 161.727 78.8816 161.625C78.8362 161.524 78.717 161.479 78.6166 161.525C78.6149 161.525 78.6124 161.526 78.6106 161.527C78.512 161.573 78.4691 161.688 78.5129 161.787ZM92.015 174.74C92.0347 174.762 92.0587 174.779 92.0845 174.792C92.1865 174.831 92.3006 174.781 92.34 174.679C92.3409 174.676 92.3417 174.674 92.3426 174.672C92.3786 174.571 92.3323 174.459 92.2354 174.414L92.2234 174.414C92.1213 174.374 92.0073 174.425 91.9678 174.527C91.967 174.529 91.9661 174.531 91.9652 174.534C91.9361 174.606 91.9567 174.689 92.015 174.74ZM93.7018 169.974C93.6598 170.073 93.7069 170.188 93.8064 170.23C93.8073 170.23 93.8081 170.231 93.809 170.231C93.9127 170.271 94.0294 170.224 94.0782 170.124C94.1134 170.017 94.062 169.901 93.9591 169.854C93.8553 169.817 93.7404 169.87 93.7018 169.974ZM110.605 174.285C110.65 174.386 110.769 174.431 110.87 174.385C110.872 174.384 110.874 174.384 110.876 174.383C110.974 174.337 111.017 174.221 110.973 174.124C110.936 174.024 110.826 173.974 110.727 174.01C110.722 174.011 110.718 174.013 110.714 174.015C110.61 174.06 110.561 174.18 110.605 174.285ZM77.2917 159.039C77.3801 159.21 77.591 159.277 77.7617 159.188C77.9272 159.102 77.9958 158.902 77.9186 158.733C77.8363 158.563 77.6322 158.488 77.459 158.567C77.2875 158.654 77.2137 158.861 77.2917 159.039ZM80.7202 193.089C80.6636 193.271 80.7597 193.467 80.938 193.532C81.1173 193.596 81.3145 193.504 81.3805 193.325C81.4397 193.142 81.3428 192.946 81.1619 192.883C80.9835 192.818 80.7854 192.91 80.7202 193.089ZM83.5313 185.221C83.4661 185.4 83.5587 185.599 83.7379 185.664C83.9172 185.729 84.1152 185.636 84.1804 185.457C84.2456 185.278 84.153 185.08 83.9738 185.015C83.7945 184.951 83.5964 185.043 83.5313 185.221ZM86.3303 177.353C86.2711 177.536 86.368 177.732 86.549 177.796C86.7299 177.854 86.9229 177.755 86.9812 177.574C87.0395 177.393 86.94 177.2 86.7591 177.141C86.5816 177.086 86.3921 177.179 86.3303 177.353ZM89.1405 169.486C89.0753 169.665 89.1679 169.863 89.3471 169.929C89.5264 169.994 89.7245 169.901 89.7897 169.722C89.8548 169.543 89.7622 169.345 89.583 169.279C89.4038 169.214 89.2056 169.307 89.1405 169.486ZM115.852 191.586C115.941 191.758 116.147 191.831 116.324 191.753C116.495 191.665 116.562 191.454 116.473 191.283C116.387 191.118 116.188 191.049 116.019 191.126C115.849 191.21 115.776 191.413 115.852 191.586ZM112.275 184.041C112.359 184.211 112.561 184.284 112.734 184.208C112.907 184.127 112.982 183.92 112.901 183.748C112.82 183.575 112.613 183.5 112.441 183.582C112.269 183.664 112.196 183.868 112.275 184.041ZM108.696 176.496C108.778 176.666 108.982 176.741 109.156 176.662C109.328 176.574 109.401 176.367 109.323 176.19C109.235 176.02 109.024 175.953 108.853 176.041C108.688 176.127 108.619 176.327 108.696 176.496ZM78.9485 168.805C79.0909 168.935 79.3121 168.924 79.4416 168.781C79.5711 168.639 79.5608 168.418 79.4176 168.288C79.2753 168.159 79.054 168.169 78.9245 168.312C78.7993 168.456 78.8096 168.674 78.9485 168.805ZM84.5466 162.599C84.6821 162.732 84.8991 162.73 85.032 162.595C85.0345 162.592 85.0363 162.59 85.0388 162.588C85.1649 162.444 85.1546 162.226 85.0148 162.095C84.875 161.965 84.6564 161.973 84.526 162.114C84.5243 162.115 84.5226 162.117 84.5209 162.119C84.3965 162.258 84.4077 162.473 84.5466 162.599ZM97.6517 191.94C97.6705 192.129 97.83 192.271 98.0195 192.27C98.2082 192.254 98.3488 192.09 98.3377 191.902C98.3325 191.714 98.1765 191.566 97.9887 191.571C97.9861 191.571 97.9844 191.571 97.9818 191.571C97.7888 191.583 97.6414 191.747 97.6517 191.94ZM97.234 183.59C97.2443 183.783 97.4081 183.931 97.601 183.92H97.6019C97.788 183.91 97.9303 183.751 97.9192 183.564C97.9192 183.564 97.9192 183.564 97.9192 183.564C97.9115 183.374 97.7511 183.227 97.5625 183.235C97.3738 183.244 97.2272 183.401 97.234 183.59ZM96.8147 175.252C96.8198 175.44 96.9759 175.588 97.1637 175.582C97.1663 175.582 97.168 175.582 97.1706 175.582C97.3635 175.578 97.5161 175.419 97.5119 175.226C97.5076 175.033 97.3481 174.88 97.1551 174.884C96.9622 174.889 96.8095 175.048 96.8138 175.241C96.8147 175.244 96.8147 175.248 96.8147 175.252ZM77.3157 162.952C77.4555 163.078 77.6682 163.078 77.808 162.952C77.9366 162.812 77.9315 162.594 77.796 162.459C77.6708 162.327 77.4615 162.321 77.3295 162.446C77.3252 162.451 77.3209 162.455 77.3157 162.46C77.1794 162.593 77.1777 162.811 77.3106 162.947C77.3123 162.949 77.314 162.951 77.3157 162.952ZM92.1788 193.64C92.1856 193.828 92.3451 193.976 92.5338 193.969C92.7225 193.962 92.87 193.803 92.8631 193.614C92.8562 193.43 92.7045 193.285 92.5201 193.285C92.328 193.288 92.1753 193.448 92.1788 193.64ZM92.1076 185.319C92.1119 185.511 92.2705 185.664 92.4626 185.66C92.6487 185.653 92.7979 185.503 92.8039 185.317C92.7971 185.124 92.6418 184.97 92.4489 184.964C92.2585 184.972 92.1085 185.129 92.1076 185.319ZM92.0364 176.997C92.0407 177.189 92.1994 177.342 92.3915 177.339C92.5801 177.34 92.7353 177.189 92.737 177C92.7387 176.811 92.5878 176.656 92.3983 176.654C92.3949 176.654 92.3915 176.654 92.388 176.654C92.1994 176.657 92.0433 176.808 92.0364 176.997ZM91.9773 168.677C91.9721 168.86 92.1162 169.013 92.2988 169.019C92.3057 169.019 92.3134 169.019 92.3203 169.019C92.5089 169.016 92.6599 168.863 92.6607 168.676C92.659 168.487 92.5046 168.335 92.3151 168.337C92.1282 168.338 91.9773 168.49 91.9773 168.677ZM79.1492 178.153C79.0806 178.328 79.1663 178.525 79.3413 178.594C79.3421 178.594 79.343 178.595 79.3439 178.595C79.5188 178.669 79.7212 178.588 79.7966 178.413C79.8661 178.235 79.7804 178.033 79.6028 177.959C79.4245 177.893 79.2246 177.977 79.1492 178.153ZM82.2767 170.433C82.2029 170.608 82.2852 170.808 82.4593 170.882C82.6334 170.956 82.8349 170.874 82.9087 170.699C82.9095 170.697 82.9104 170.694 82.9113 170.692C82.9782 170.513 82.8924 170.314 82.7174 170.238C82.5425 170.17 82.3453 170.255 82.2767 170.43C82.2775 170.431 82.2775 170.432 82.2767 170.433ZM85.3921 162.724C85.3261 162.905 85.4196 163.106 85.6005 163.172C85.7729 163.235 85.965 163.153 86.0396 162.984C86.1116 162.806 86.025 162.603 85.8458 162.53C85.6674 162.459 85.4642 162.546 85.3921 162.724ZM107.874 186.129C107.953 186.304 108.157 186.384 108.334 186.308C108.507 186.233 108.586 186.033 108.512 185.86C108.447 185.687 108.254 185.599 108.079 185.665C108.075 185.666 108.07 185.668 108.066 185.671C107.888 185.741 107.801 185.942 107.871 186.119C107.872 186.122 107.874 186.126 107.874 186.129ZM104.626 178.468C104.705 178.643 104.909 178.723 105.086 178.646C105.258 178.572 105.338 178.372 105.264 178.199C105.199 178.026 105.005 177.937 104.831 178.003C104.827 178.005 104.822 178.007 104.817 178.009C104.64 178.08 104.552 178.28 104.623 178.458C104.624 178.461 104.625 178.465 104.626 178.468ZM101.379 170.808C101.457 170.982 101.662 171.062 101.838 170.986C102.011 170.911 102.09 170.711 102.017 170.538C101.944 170.362 101.741 170.278 101.565 170.35C101.388 170.423 101.304 170.626 101.377 170.802C101.377 170.804 101.378 170.806 101.379 170.808ZM79.2367 159.266C79.3584 159.346 79.5214 159.312 79.6011 159.19C79.6809 159.069 79.6474 158.906 79.5256 158.826C79.5248 158.825 79.5231 158.824 79.5222 158.823C79.4047 158.748 79.2478 158.781 79.1723 158.9C79.1715 158.9 79.1715 158.901 79.1706 158.902C79.0917 159.021 79.1209 159.182 79.2367 159.266ZM95.019 179.557C95.0507 179.697 95.1905 179.785 95.3303 179.753C95.4675 179.723 95.5549 179.588 95.5284 179.451C95.5043 179.315 95.3749 179.225 95.2402 179.249C95.2316 179.251 95.2231 179.253 95.2145 179.255C95.0781 179.286 94.9924 179.42 95.019 179.557ZM93.6632 173.441C93.6958 173.582 93.8364 173.669 93.9779 173.637C94.1186 173.604 94.206 173.463 94.1734 173.322C94.1434 173.183 94.0071 173.095 93.8681 173.125C93.8647 173.125 93.8622 173.126 93.8596 173.126C93.7198 173.162 93.6332 173.3 93.6632 173.441ZM92.3083 167.313C92.3408 167.454 92.4815 167.541 92.623 167.509C92.7636 167.476 92.8511 167.335 92.8185 167.194C92.7859 167.053 92.6453 166.966 92.5038 166.998C92.3649 167.034 92.2782 167.173 92.3083 167.313ZM82.064 176.472C82.0426 176.612 82.1369 176.745 82.2775 176.77C82.4173 176.786 82.5468 176.694 82.5759 176.557C82.6 176.416 82.5056 176.282 82.365 176.258C82.3641 176.258 82.3633 176.258 82.3624 176.258C82.2269 176.231 82.0949 176.317 82.0674 176.453C82.0666 176.46 82.0649 176.466 82.064 176.472ZM83.1488 170.284C83.1273 170.427 83.2208 170.562 83.3615 170.594C83.5021 170.618 83.6359 170.524 83.6599 170.383C83.6599 170.382 83.6599 170.381 83.6599 170.38C83.689 170.246 83.6024 170.113 83.4678 170.085C83.4644 170.084 83.4618 170.084 83.4584 170.083C83.3186 170.052 83.1805 170.14 83.1496 170.28C83.1488 170.281 83.1488 170.283 83.1488 170.284ZM84.2439 164.108C84.2164 164.244 84.303 164.376 84.4385 164.404C84.4445 164.405 84.4505 164.407 84.4565 164.408C84.5903 164.437 84.7224 164.353 84.7516 164.219C84.7524 164.215 84.7533 164.21 84.7541 164.206C84.7756 164.063 84.6821 163.927 84.5414 163.896C84.4008 163.872 84.267 163.966 84.243 164.107C84.2447 164.107 84.2439 164.108 84.2439 164.108ZM105.585 171.663C105.662 171.778 105.819 171.81 105.935 171.733C105.937 171.731 105.939 171.729 105.942 171.728C106.06 171.652 106.095 171.494 106.02 171.375C106.016 171.369 106.012 171.364 106.008 171.358C105.92 171.244 105.756 171.223 105.642 171.31C105.534 171.395 105.508 171.548 105.585 171.663ZM83.0828 162.587C83.0802 162.666 83.1402 162.733 83.2191 162.738C83.2989 162.741 83.3658 162.68 83.3692 162.6C83.3726 162.52 83.3109 162.453 83.2311 162.45C83.2277 162.45 83.2243 162.45 83.2208 162.45C83.1462 162.452 83.0862 162.512 83.0828 162.587ZM85.9959 168.767C86.0464 168.886 86.1837 168.941 86.302 168.89C86.4135 168.851 86.4727 168.729 86.4332 168.617C86.4306 168.61 86.4281 168.603 86.4246 168.596C86.3878 168.481 86.2643 168.418 86.1485 168.455C86.1425 168.457 86.1365 168.46 86.1305 168.462C86.0113 168.503 85.9487 168.634 85.9899 168.753C85.9916 168.757 85.9933 168.762 85.9959 168.767ZM83.9266 163.481C83.9635 163.596 84.0869 163.659 84.2027 163.621C84.2087 163.62 84.2147 163.617 84.2207 163.614C84.3399 163.573 84.4025 163.443 84.3614 163.324C84.3596 163.319 84.3579 163.313 84.3554 163.309C84.3073 163.188 84.1718 163.128 84.0501 163.174C83.9334 163.22 83.876 163.352 83.9214 163.469C83.9232 163.473 83.9249 163.477 83.9266 163.481Z" fill="white"/>
<path d="M251.754 217.24C244.089 216.061 234.067 213.408 231.709 210.166C229.351 206.923 237.016 205.449 238.784 200.437C240.552 195.426 237.31 194.837 235.836 196.605C232.427 200.381 228.677 203.835 224.634 206.922C220.213 210.165 219.328 210.755 210.485 205.743C201.642 200.732 191.619 190.414 191.619 190.414C191.619 190.414 174.669 174.239 172.888 170.676L155.074 205.71C155.074 205.71 171.079 209.383 175.398 210.07C183.029 210.927 198.398 212.523 217.854 225.788C237.311 239.054 246.449 235.221 254.997 227.262C263.545 219.304 259.418 218.419 251.754 217.24Z" fill="url(#paint11_linear)"/>
<path d="M167.402 90.3299C167.402 90.3299 150.287 122.129 186.128 152.455L157.771 183.569C157.771 183.569 105.925 142.217 156.07 76.05C156.07 76.0509 156.554 88.0694 167.402 90.3299Z" fill="url(#paint12_linear)"/>
<path d="M156.07 76.051C156.07 76.051 93.1804 89.0472 63.2485 143.397C63.2485 143.397 90.0298 181.6 139.261 167.421C139.261 167.421 141.195 117.213 167.403 90.3301C167.402 90.3301 159.881 91.4114 156.07 76.051Z" fill="url(#paint13_linear)"/>
<path d="M167.402 90.3301C167.402 90.3301 150.357 134.092 176.262 168.538L152.634 211.81C152.634 211.81 119.962 204.049 117.992 141.822C116.022 79.5944 156.069 76.051 156.069 76.051C156.069 76.051 158.13 88.4632 167.402 90.3301Z" fill="#A1C3FC"/>
<path d="M177.465 70.5395C176.942 71.3542 168.503 84.509 167.406 90.3317C167.406 90.3317 158.676 90.3318 156.069 76.0536C156.069 76.0536 161.926 72.2804 164.336 66.7749C165.699 68.4042 169.772 69.459 172.551 69.9993C174.169 70.3277 175.814 70.5087 177.465 70.5395Z" fill="url(#paint14_linear)"/>
<path d="M199.375 54.4947C197.231 56.0555 196.562 55.1293 195.988 56.5443C195.567 57.5905 194.95 63.5676 190.293 67.1779L190.148 67.2722C190.129 67.2842 190.112 67.2988 190.096 67.3151C190.079 67.3322 190.062 67.358 190.036 67.3837C189.573 67.7867 187.721 69.2703 183.939 69.802C183.931 69.8063 183.922 69.8088 183.913 69.8106C181.461 70.1622 178.554 71.1655 172.551 69.9992C169.97 69.4933 166.265 68.55 164.661 67.1093C165.708 65.257 166.265 63.2332 164.55 62.3156C160.982 60.4204 158.899 59.8544 159.499 55.2151C159.996 51.3218 164.704 50.9102 167.937 51.2189C170.724 51.4848 182.498 45.602 185.74 30.7578C187.299 31.461 188.695 32.4798 189.839 33.7506C191.149 35.1236 192.184 36.7366 192.883 38.5015C194.17 41.7087 196.879 47.9088 199.118 49.5724C200.53 50.5123 200.912 52.4178 199.973 53.8302C199.807 54.0797 199.606 54.3035 199.375 54.4947Z" fill="#FFBEB5"/>
<path d="M203.498 45.8004C203.814 43.0991 202.448 40.4278 200.454 39.8421H200.453C198.457 39.2598 196.576 40.9835 196.259 43.6839C196.223 43.9969 196.21 44.3125 196.218 44.6272C195 44.6289 193.85 45.1949 193.106 46.1605C193.044 46.0122 192.996 45.857 192.924 45.7146C192.394 44.508 191.383 43.5776 190.138 43.1463C187.83 42.4722 185.653 44.472 185.285 47.6046C185.106 49.0908 185.361 50.5975 186.019 51.9421C186.461 52.894 187.185 53.6872 188.092 54.2155C188.318 54.339 188.558 54.4376 188.805 54.5105C189.937 54.8424 191.16 54.5259 191.989 53.6872C192.953 52.7079 193.543 51.4216 193.657 50.0521C193.775 49.0076 193.684 47.9502 193.389 46.9409C194.126 46.1288 195.103 45.2249 196.279 45.3656C196.288 45.429 196.302 45.4908 196.313 45.5534C196.352 45.6117 196.376 45.6794 196.381 45.7498C196.381 45.7575 196.384 45.7652 196.384 45.7729C196.387 45.7806 196.392 45.7849 196.396 45.7935C196.704 46.6974 197.179 47.536 197.794 48.2667C198.077 48.5694 198.38 48.8489 198.684 49.1285C198.757 49.1877 198.823 49.2597 198.894 49.324C198.99 49.4132 199.087 49.5024 199.182 49.5924C199.223 49.6079 199.262 49.6302 199.304 49.643C201.3 50.2253 203.181 48.5016 203.498 45.8004ZM192.999 49.8583C192.9 51.0751 192.379 52.22 191.525 53.0921C190.841 53.7919 189.83 54.0611 188.89 53.7927C187.857 53.4291 187.023 52.6522 186.587 51.648C186.006 50.4534 185.782 49.1156 185.944 47.7967C186.265 45.0577 188.108 43.2929 190.053 43.8623C190.252 43.9206 190.445 44.0004 190.627 44.0998C191.384 44.5441 191.987 45.2095 192.355 46.007C192.937 47.2016 193.16 48.5394 192.999 49.8583ZM199.389 48.9253C197.751 48.4459 196.647 46.1828 196.918 43.8769C197.188 41.5701 198.737 40.0814 200.37 40.5582C202.007 41.0358 203.111 43.3023 202.84 45.6065C202.569 47.9142 201.021 49.4029 199.389 48.9253Z" fill="#3E8AF8"/>
<path d="M131.616 65.0153C131.387 65.1971 131.172 65.3686 130.95 65.5444C128.479 66.9722 126.248 68.912 123.495 70.2138C115.73 73.8841 108.039 68.0236 100.222 67.6334C87.8328 67.016 77.3613 75.805 74.9747 87.7781C74.8941 88.182 75.5141 88.3552 75.5947 87.9487C76.821 81.2075 80.8335 75.2964 86.646 71.6682C93.5124 67.5073 101.006 67.6969 108.43 70.0165C113.113 71.4795 117.931 73.0891 122.75 71.2368C123.693 70.8655 124.601 70.4118 125.464 69.881C117.832 75.7424 116.462 75.167 104.9 71.9657C90.7819 68.0562 81.2246 80.0018 79.9211 91.0796C79.9211 91.0796 91.2158 101.288 101.207 101.723C101.207 101.723 121.297 86.0878 156.069 76.0511C158.646 74.2957 160.938 72.1544 162.866 69.7035C162.867 69.7035 145.3 54.1553 131.616 65.0153Z" fill="#E94A47"/>
<path d="M192.883 38.5016C192.883 38.5016 190.391 31.3265 185.899 30.0384L185.67 31.1026L185.667 31.0992C185.748 30.7493 185.828 30.3986 185.9 30.0384C185.9 30.0384 171.717 24.5252 157.849 31.6326C143.982 38.74 144.23 66.901 161.867 70.8972C161.867 70.8972 168.112 64.2091 164.548 62.3165C160.983 60.4239 158.897 59.8554 159.497 55.2195C159.947 51.7387 163.738 51.0406 166.847 51.153C168.228 51.6066 169.656 51.8999 171.104 52.0285C174.08 52.0671 176.985 51.1247 179.371 49.347C184.883 45.3508 186.483 38.481 185.838 32.0279C187.112 32.6265 191.767 35.0216 192.883 38.5016ZM169.835 51.195C169.614 51.1641 169.387 51.1221 169.159 51.0792C173.001 50.1376 181.867 44.5953 185.245 32.7526C185.762 41.8752 180.616 52.7086 169.835 51.195Z" fill="#E94A47"/>
</g>
<defs>
<linearGradient id="paint0_linear" x1="126.23" y1="1010.09" x2="-185.392" y2="256.949" gradientUnits="userSpaceOnUse">
<stop stop-color="#370AEB"/>
<stop offset="1" stop-color="#8B6FFF"/>
</linearGradient>
<linearGradient id="paint1_linear" x1="227.781" y1="184.055" x2="127.343" y2="189.554" gradientUnits="userSpaceOnUse">
<stop stop-color="#FFBEB6"/>
<stop offset="1" stop-color="#F2A19C"/>
</linearGradient>
<linearGradient id="paint2_linear" x1="251.597" y1="182.017" x2="152.453" y2="366.999" gradientUnits="userSpaceOnUse">
<stop stop-color="#EEEEEE"/>
<stop offset="1" stop-color="#CFD1D3"/>
</linearGradient>
<linearGradient id="paint3_linear" x1="304.167" y1="168.963" x2="175.983" y2="359.587" gradientUnits="userSpaceOnUse">
<stop stop-color="#EEEEEE"/>
<stop offset="1" stop-color="#CFD1D3"/>
</linearGradient>
<linearGradient id="paint4_linear" x1="303.297" y1="217.727" x2="140.634" y2="484.257" gradientUnits="userSpaceOnUse">
<stop stop-color="#EEEEEE"/>
<stop offset="1" stop-color="#CFD1D3"/>
</linearGradient>
<linearGradient id="paint5_linear" x1="324.59" y1="245.135" x2="229.623" y2="371.92" gradientUnits="userSpaceOnUse">
<stop stop-color="#EEEEEE"/>
<stop offset="1" stop-color="#CFD1D3"/>
</linearGradient>
<linearGradient id="paint6_linear" x1="314.171" y1="219.958" x2="389.008" y2="219.958" gradientUnits="userSpaceOnUse">
<stop stop-color="#A1C3FC"/>
<stop offset="0.6955" stop-color="#81AEF2"/>
<stop offset="1" stop-color="#78A9EF"/>
</linearGradient>
<linearGradient id="paint7_linear" x1="425.455" y1="367.437" x2="467.193" y2="367.437" gradientUnits="userSpaceOnUse">
<stop stop-color="#A1C3FC"/>
<stop offset="0.6955" stop-color="#81AEF2"/>
<stop offset="1" stop-color="#78A9EF"/>
</linearGradient>
<linearGradient id="paint8_linear" x1="363.098" y1="200.235" x2="378.02" y2="200.235" gradientUnits="userSpaceOnUse">
<stop stop-color="#A1C3FC"/>
<stop offset="0.6955" stop-color="#81AEF2"/>
<stop offset="1" stop-color="#78A9EF"/>
</linearGradient>
<linearGradient id="paint9_linear" x1="347.937" y1="206.844" x2="409.558" y2="206.844" gradientUnits="userSpaceOnUse">
<stop stop-color="#23286B"/>
<stop offset="1" stop-color="#151A4F"/>
</linearGradient>
<linearGradient id="paint10_linear" x1="210.392" y1="369.459" x2="114.991" y2="258.158" gradientUnits="userSpaceOnUse">
<stop stop-color="#23286B"/>
<stop offset="1" stop-color="#151A4F"/>
</linearGradient>
<linearGradient id="paint11_linear" x1="188.255" y1="204.401" x2="285.395" y2="194.87" gradientUnits="userSpaceOnUse">
<stop stop-color="#FFBEB6"/>
<stop offset="1" stop-color="#F2A19C"/>
</linearGradient>
<linearGradient id="paint12_linear" x1="165.084" y1="122.08" x2="117.798" y2="183.609" gradientUnits="userSpaceOnUse">
<stop stop-color="#A1C3FC"/>
<stop offset="0.6955" stop-color="#81AEF2"/>
<stop offset="1" stop-color="#78A9EF"/>
</linearGradient>
<linearGradient id="paint13_linear" x1="110.44" y1="102.76" x2="153.864" y2="228.117" gradientUnits="userSpaceOnUse">
<stop stop-color="#A1C3FC"/>
<stop offset="0.6955" stop-color="#81AEF2"/>
<stop offset="1" stop-color="#78A9EF"/>
</linearGradient>
<linearGradient id="paint14_linear" x1="164.235" y1="92.9532" x2="167.735" y2="65.7816" gradientUnits="userSpaceOnUse">
<stop stop-color="#FFBEB6"/>
<stop offset="1" stop-color="#F2A19C"/>
</linearGradient>
</defs>
</svg>
