<svg width="48" height="48" viewBox="0 0 48 48" fill="none" xmlns="http://www.w3.org/2000/svg">
<path fill-rule="evenodd" clip-rule="evenodd" d="M11 8C11 6.89543 11.8954 6 13 6H25.5V15.5V17.5H27.5H37V40C37 41.1046 36.1046 42 35 42H13C11.8954 42 11 41.1046 11 40V8ZM34.1716 13.5L29.5 8.82843V13.5H34.1716ZM13 2C9.68629 2 7 4.68629 7 8V40C7 43.3137 9.68629 46 13 46H35C38.3137 46 41 43.3137 41 40V15.5V14.6716L40.4142 14.0858L28.9142 2.58579L28.3284 2H27.5H13ZM33 22H15V25H33V22ZM15 28H33V31H15V28ZM33 34H15V37H33V34Z" fill="#F96600"/>
</svg>
