<svg width="214" height="61" viewBox="0 0 214 61" fill="none" xmlns="http://www.w3.org/2000/svg">
<path d="M42.7643 46.1243C42.2709 45.5944 41.4276 45.3201 40.322 45.3201C30.4902 45.264 29.0722 36.6979 28.3102 32.0907C28.3102 32.0907 23.819 9.92734 23.7628 9.78395C23.4942 9.07323 22.932 8.10689 21.3892 8.31263C20.2024 8.46849 19.4153 9.22285 19.3466 10.3014C19.3404 10.3949 22.626 32.0283 22.626 32.0283C22.7009 32.4959 22.3824 32.9323 21.9139 33.0071C21.8702 33.0134 21.8264 33.0196 21.7827 33.0196C21.3705 33.0196 21.0019 32.7204 20.9395 32.2964L17.0792 7.50215C16.8793 6.57946 15.6675 5.90614 14.362 6.05577C13.1315 6.21163 12.1508 7.07821 12.0821 8.07572C12.0758 8.16924 12.0883 8.26899 12.0946 8.37497L15.9423 33.3376C16.0173 33.8051 15.6987 34.2416 15.2303 34.3164C15.1865 34.3226 15.1428 34.3288 15.0991 34.3288C14.6868 34.3288 14.3183 34.0296 14.2558 33.6056L10.8453 11.5857C10.6017 10.5944 9.4586 9.93981 8.19058 10.0957C6.9538 10.2515 5.97312 11.1181 5.91065 12.1156C5.90441 12.2091 5.9169 12.3027 5.92314 12.4024L9.34616 34.7528C9.42112 35.2204 9.09631 35.6568 8.62783 35.7253C8.5841 35.7316 8.54038 35.7378 8.49666 35.7378C8.07815 35.7378 7.71586 35.4323 7.64715 35.0084C7.64715 35.0084 5.14235 19.7091 5.11111 19.5346C4.88625 18.3625 3.77439 17.658 2.41268 17.8326C1.21337 17.9822 0.145239 19.0982 0.26392 20.0894C0.557501 21.8101 5.00493 46.6854 7.5472 60.5757H31.3459L31.3897 50.7066C31.3897 50.476 31.4833 50.2578 31.6458 50.1019C31.8082 49.9398 32.0018 49.865 32.2579 49.8588C32.2579 49.8588 37.7297 49.9211 40.1471 49.9336C40.1658 49.9336 40.1908 49.9336 40.2095 49.9336C42.6456 49.9336 43.1953 49.1169 43.2765 47.8076C43.3265 47.3276 43.2578 46.648 42.7643 46.1243Z" fill="#0099C6"/>
<path opacity="0.2" d="M42.7643 46.1243C42.2709 45.5944 41.4276 45.3201 40.322 45.3201C30.4902 45.264 29.0722 36.6979 28.3102 32.0907C28.3102 32.0907 23.819 9.92734 23.7628 9.78395C23.4942 9.07323 22.932 8.10689 21.3892 8.31263C20.2024 8.46849 19.4153 9.22285 19.3466 10.3014C19.3404 10.3949 22.626 32.0283 22.626 32.0283C22.7009 32.4959 22.3824 32.9323 21.9139 33.0071C21.8702 33.0134 21.8264 33.0196 21.7827 33.0196C21.3705 33.0196 21.0019 32.7204 20.9395 32.2964L17.0792 7.50215C16.8793 6.57946 15.6675 5.90614 14.362 6.05577C13.1315 6.21163 12.1508 7.07821 12.0821 8.07572C12.0758 8.16924 12.0883 8.26899 12.0946 8.37497L15.9423 33.3376C16.0173 33.8051 15.6987 34.2416 15.2303 34.3164C15.1865 34.3226 15.1428 34.3288 15.0991 34.3288C14.6868 34.3288 14.3183 34.0296 14.2558 33.6056L10.8453 11.5857C10.6017 10.5944 9.4586 9.93981 8.19058 10.0957C6.9538 10.2515 5.97312 11.1181 5.91065 12.1156C5.90441 12.2091 5.9169 12.3027 5.92314 12.4024L9.34616 34.7528C9.42112 35.2204 9.09631 35.6568 8.62783 35.7253C8.5841 35.7316 8.54038 35.7378 8.49666 35.7378C8.07815 35.7378 7.71586 35.4323 7.64715 35.0084C7.64715 35.0084 5.14235 19.7091 5.11111 19.5346C4.88625 18.3625 3.77439 17.658 2.41268 17.8326C1.21337 17.9822 0.145239 19.0982 0.26392 20.0894C0.557501 21.8101 5.00493 46.6854 7.5472 60.5757H31.3459L31.3897 50.7066C31.3897 50.476 31.4833 50.2578 31.6458 50.1019C31.8082 49.9398 32.0018 49.865 32.2579 49.8588C32.2579 49.8588 37.7297 49.9211 40.1471 49.9336C40.1658 49.9336 40.1908 49.9336 40.2095 49.9336C42.6456 49.9336 43.1953 49.1169 43.2765 47.8076C43.3265 47.3276 43.2578 46.648 42.7643 46.1243Z" fill="url(#paint0_radial_1102_1075)"/>
<path opacity="0.77" d="M17.9847 60.5758H7.55325C5.01097 46.6793 0.563544 21.8102 0.269964 20.0833C0.151283 19.092 1.21317 17.976 2.41872 17.8264C2.41872 17.8264 6.03538 35.6942 7.24093 42.0845C8.44648 48.4748 12.5753 52.5895 16.7729 54.6469L17.9847 60.5758Z" fill="url(#paint1_linear_1102_1075)"/>
<path d="M18.2597 56.193C16.1922 50.4386 17.4852 44.8962 21.6203 42.5895C24.1938 41.1556 27.1983 40.8999 29.878 41.5047L18.2597 56.193Z" fill="url(#paint2_linear_1102_1075)"/>
<path opacity="0.6" d="M15.942 33.3377C16.0357 33.9549 15.4798 34.4225 14.9051 34.304C15.2424 34.7903 16.1544 35.1332 16.7041 35.1332C18.503 35.1332 19.0215 33.4499 18.8216 32.1407L14.3617 6.05591C13.1311 6.21177 12.1505 7.07835 12.0817 8.07586C12.0755 8.16937 12.088 8.26913 12.0942 8.37511L15.942 33.3377Z" fill="url(#paint3_linear_1102_1075)"/>
<path opacity="0.6" d="M21.7329 33.0134C22.1389 33.3999 22.8698 33.6742 23.3445 33.6742C24.8561 33.6742 25.6931 32.365 25.4995 30.9747L21.3894 8.3064C20.2026 8.44979 19.4155 9.21662 19.3468 10.2952C19.3406 10.37 21.8641 26.9722 22.6261 32.0221C22.7011 32.6019 22.2701 33.0321 21.7329 33.0134Z" fill="url(#paint4_linear_1102_1075)"/>
<path opacity="0.6" d="M9.34633 34.7903C9.4088 35.2143 9.04026 35.7692 8.42187 35.7317C9.03401 36.0996 9.37132 36.2492 10.0647 36.2492C11.5513 36.2492 11.9886 34.7218 11.9136 34.2542L8.19075 10.0896C6.95397 10.2455 5.97328 11.112 5.91082 12.1095C5.90457 12.2031 5.91707 12.2966 5.92331 12.3901L9.34633 34.7903Z" fill="url(#paint5_linear_1102_1075)"/>
<path d="M26.2492 21.8413C26.2804 21.9847 28.3105 32.0907 28.3105 32.0907C28.9476 35.9373 30.047 42.552 36.1247 44.6593C37.3178 45.0707 38.7045 45.3139 40.316 45.3201C40.316 45.3201 33.5762 45.9997 30.1656 42.7141C27.867 40.4947 26.7239 36.2677 26.4241 32.3712C26.1492 28.8239 26.2492 21.8413 26.2492 21.8413Z" fill="url(#paint6_linear_1102_1075)"/>
<path d="M71.4358 5.38253C71.4358 5.38253 65.7016 0.582031 48.1243 0.582031C30.5469 0.582031 24.5879 5.4137 24.5879 5.4137L25.1188 7.83265L25.7622 10.8189C25.8122 10.9997 25.8684 11.1743 25.9121 11.3676C25.9246 11.4237 26.3306 13.3439 26.8866 16.0122L27.2176 17.5396C27.2239 17.5646 27.2863 17.9012 27.3988 18.4686C28.3295 22.9698 29.4351 28.4312 29.8911 31.0995L30.0098 31.8102C30.0347 31.9536 30.0597 32.1095 30.0847 32.2591C30.2534 33.1007 30.397 33.8302 30.5095 34.3788L30.5532 34.5845C30.6032 34.8277 30.6531 35.0833 30.7093 35.3514C30.8093 35.7441 30.6281 35.0957 31.0404 36.5297C31.4527 37.9573 32.8956 40.2765 32.8956 40.2765C34.3697 42.2092 36.6622 43.5808 40.335 43.5995C42.3339 43.5995 43.4457 44.3352 44.0204 44.9461C44.7325 45.7067 45.0823 46.7541 45.0073 47.9012C44.8449 50.3701 43.2333 51.6232 40.2163 51.6232C40.1976 51.6232 40.1726 51.6232 40.1539 51.6232C38.3237 51.6107 34.757 51.5733 33.1142 51.5546L33.0955 56.112L33.2704 60.5571H62.7158L62.9657 56.112L62.9469 51.5546C61.3041 51.5733 57.7374 51.6107 55.9073 51.6232C55.8823 51.6232 55.8635 51.6232 55.8448 51.6232C52.8278 51.6232 51.2162 50.3701 51.0538 47.9012C50.9789 46.7541 51.3287 45.7005 52.0408 44.9461C52.6154 44.3289 53.7273 43.5995 55.7324 43.5995C59.3365 43.5808 61.604 42.2529 63.0844 40.3763C63.0844 40.3763 64.6147 38.5247 65.077 36.3551C65.6828 33.4997 65.1519 36.112 65.1831 35.9873C65.2956 35.4885 65.3893 35.0147 65.4767 34.5908L65.5204 34.3663C65.6829 33.5808 65.9077 32.4337 66.1701 31.0995V31.087C66.5324 28.9798 67.2944 25.1332 68.0565 21.3925L70.9548 7.58951L71.4358 5.38253Z" fill="url(#paint7_linear_1102_1075)"/>
<path d="M71.4358 5.38253C71.4358 5.38253 65.7016 0.582031 48.1243 0.582031C30.5469 0.582031 24.5879 5.4137 24.5879 5.4137L25.1188 7.83265L25.7622 10.8189C25.8122 10.9997 25.8684 11.1743 25.9121 11.3676C25.9246 11.4237 26.3306 13.3439 26.8866 16.0122L27.2176 17.5396C27.2239 17.5646 27.2863 17.9012 27.3988 18.4686C28.3295 22.9698 29.4351 28.4312 29.8911 31.0995L30.0098 31.8102C30.0347 31.9536 30.0597 32.1095 30.0847 32.2591C30.2534 33.1007 30.397 33.8302 30.5095 34.3788L30.5532 34.5845C30.6032 34.8277 30.6531 35.0833 30.7093 35.3514C30.8093 35.7441 30.6281 35.0957 31.0404 36.5297C31.4527 37.9573 32.8956 40.2765 32.8956 40.2765C34.3697 42.2092 36.6622 43.5808 40.335 43.5995C42.3339 43.5995 43.4457 44.3352 44.0204 44.9461C44.7325 45.7067 45.0823 46.7541 45.0073 47.9012C44.8449 50.3701 43.2333 51.6232 40.2163 51.6232C40.1976 51.6232 40.1726 51.6232 40.1539 51.6232C38.3237 51.6107 34.757 51.5733 33.1142 51.5546L33.0955 56.112L33.2704 60.5571H62.7158L62.9657 56.112L62.9469 51.5546C61.3041 51.5733 57.7374 51.6107 55.9073 51.6232C55.8823 51.6232 55.8635 51.6232 55.8448 51.6232C52.8278 51.6232 51.2162 50.3701 51.0538 47.9012C50.9789 46.7541 51.3287 45.7005 52.0408 44.9461C52.6154 44.3289 53.7273 43.5995 55.7324 43.5995C59.3365 43.5808 61.604 42.2529 63.0844 40.3763C63.0844 40.3763 64.6147 38.5247 65.077 36.3551C65.6828 33.4997 65.1519 36.112 65.1831 35.9873C65.2956 35.4885 65.3893 35.0147 65.4767 34.5908L65.5204 34.3663C65.6829 33.5808 65.9077 32.4337 66.1701 31.0995V31.087C66.5324 28.9798 67.2944 25.1332 68.0565 21.3925L70.9548 7.58951L71.4358 5.38253Z" fill="url(#paint8_linear_1102_1075)"/>
<path d="M24.7568 6.08074C24.788 6.16803 24.8005 6.26154 24.7943 6.35506L25.7562 10.8251C25.8062 11.0059 25.8624 11.1805 25.9061 11.3738C25.9186 11.4299 26.3246 13.3501 26.8806 16.0184L27.2116 17.5458C27.2179 17.5708 27.2803 17.9074 27.3928 18.4748C28.3235 22.976 29.4291 28.4374 29.8851 31.1057L30.0038 31.8164C30.0288 31.9598 30.0537 32.1157 30.0787 32.2653C30.2474 33.1069 30.391 33.8364 30.5035 34.385L30.5472 34.5907C30.5972 34.8339 30.6471 35.0895 30.7034 35.3576C30.8033 35.7503 30.6222 35.1019 31.0344 36.5359C31.4467 37.9635 32.8896 40.2827 32.8896 40.2827C34.3637 42.2154 36.6562 43.587 40.329 43.6057C42.3279 43.6057 43.4397 44.3413 44.0144 44.9523C44.7265 45.7129 45.0763 46.7603 45.0013 47.9074C44.8389 50.3763 43.2274 51.6294 40.2104 51.6294C40.1916 51.6294 40.1666 51.6294 40.1479 51.6294C38.3177 51.6169 34.751 51.5795 33.1082 51.5608L33.0895 56.1182L33.2644 60.5633H62.7098L62.9597 56.1182L62.941 51.5608C61.2982 51.5795 57.7315 51.6169 55.9013 51.6294C55.8763 51.6294 55.8576 51.6294 55.8388 51.6294C52.8218 51.6294 51.2102 50.3763 51.0478 47.9074C50.9729 46.7603 51.3227 45.7067 52.0348 44.9523C52.6094 44.3351 53.7213 43.6057 55.7264 43.6057C59.3305 43.587 61.598 42.259 63.0784 40.3825C63.0784 40.3825 64.6087 38.5309 65.071 36.3613C65.6769 33.5059 65.1459 36.1181 65.1772 35.9935C65.2896 35.4947 65.3833 35.0209 65.4707 34.597L65.5145 34.3725C65.6769 33.587 65.9017 32.4398 66.1641 31.1057V31.0932C66.5264 28.986 67.2884 25.1393 68.0505 21.3987L71.2549 6.14932C71.2549 6.14932 65.6956 1.38623 48.1183 1.38623C30.541 1.38623 24.7568 6.08074 24.7568 6.08074Z" fill="url(#paint9_linear_1102_1075)"/>
<path d="M25.1179 7.83889C28.1224 6.39874 35.5368 3.94861 48.2545 3.94861C60.691 3.94861 68.0368 6.14313 70.9538 7.60822L71.4348 5.38253C71.4348 5.38253 65.7006 0.582031 48.1233 0.582031C30.546 0.582031 24.5869 5.4137 24.5869 5.4137L25.1179 7.83889Z" fill="url(#paint10_linear_1102_1075)"/>
<path d="M36.2314 53.7554H59.8178L59.5804 60.5758H36.4313L36.2314 53.7554Z" fill="url(#paint11_linear_1102_1075)"/>
<path d="M59.8174 53.7552L59.5801 60.5756H62.7095L62.9594 56.1305L62.9406 51.5669L59.8174 53.7552Z" fill="#F56423"/>
<path d="M36.2306 53.7553L36.4305 60.5758H33.2636L33.0887 56.1306L33.1012 51.5608L36.2306 53.7553Z" fill="#FA7C00"/>
<g opacity="0.4">
<path d="M34.7567 24.1605C35.0815 11.0558 35.5313 1.58569 35.5313 1.58569C33.7885 1.88495 31.5898 2.41487 29.9658 2.93856C29.9658 2.93856 31.1151 10.0957 34.7567 24.1605Z" fill="url(#paint12_linear_1102_1075)"/>
</g>
<path d="M44.8202 53.7554H36.2314L36.3876 59.5534L44.8202 53.7554Z" fill="url(#paint13_linear_1102_1075)"/>
<path d="M48.0056 40.4635L50.0794 29.3787L60.3672 36.8351L52.1532 24.8526L61.5977 12.4024L50.0794 19.8588L48.0056 7.85132L45.938 19.8588L34.4197 12.4024L43.8642 24.8526L35.6502 36.8351L45.938 29.3787L48.0056 40.4635Z" fill="white"/>
<path d="M48.0118 40.4635L50.0794 29.3787L60.3672 36.8351L52.1532 24.8526L61.5977 12.4024L50.0794 19.8588L48.0118 7.85132L45.938 19.8588L34.4197 12.4024L43.8642 24.8526L35.6565 36.8351L45.938 29.3787L48.0118 40.4635Z" fill="url(#paint14_linear_1102_1075)"/>
<path d="M53.3702 46.1246C53.8637 45.5947 54.707 45.3204 55.8126 45.3204C65.6444 45.2642 67.0623 36.6982 67.8244 32.0909C67.8244 32.0909 72.3155 9.92758 72.3717 9.78419C72.6403 9.07347 73.2025 8.10713 74.7454 8.31287C75.9322 8.46873 76.7192 9.2231 76.7879 10.3016C76.7942 10.3952 73.5086 32.0286 73.5086 32.0286C73.4336 32.4962 73.7522 32.9326 74.2207 33.0074C74.2644 33.0136 74.3081 33.0199 74.3519 33.0199C74.7641 33.0199 75.1326 32.7206 75.1951 32.2967L79.0554 7.5024C79.2553 6.5797 80.4671 5.90639 81.7726 6.05601C83.0031 6.21187 83.9838 7.07846 84.0525 8.07596C84.0587 8.16948 84.0462 8.26923 84.04 8.37521L80.1922 33.3378C80.1173 33.8054 80.4358 34.2418 80.9043 34.3166C80.948 34.3228 80.9918 34.3291 81.0355 34.3291C81.4477 34.3291 81.8163 34.0298 81.8787 33.6059L85.2768 11.5922C85.5204 10.6009 86.6635 9.94629 87.9315 10.1021C89.1683 10.258 90.149 11.1246 90.2114 12.1221C90.2177 12.2156 90.2052 12.3091 90.1989 12.4089L86.7759 34.7593C86.7009 35.2268 87.0258 35.6632 87.4942 35.7318C87.538 35.7381 87.5817 35.7443 87.6254 35.7443C88.0439 35.7443 88.4062 35.4388 88.4749 35.0149C88.4749 35.0149 90.9797 19.7156 91.011 19.541C91.2358 18.369 92.3477 17.6645 93.7094 17.8391C94.9087 17.9887 95.9768 19.1046 95.8582 20.0959C95.5646 21.8166 91.1171 46.6919 88.5749 60.5822H64.7761L64.7324 50.7131C64.7324 50.4824 64.6387 50.2642 64.4763 50.1084C64.3139 49.9463 64.1203 49.8715 63.8642 49.8652C63.8642 49.8652 58.3923 49.9276 55.975 49.9401C55.9562 49.9401 55.9313 49.9401 55.9125 49.9401C53.4764 49.9401 52.9268 49.1233 52.8455 47.8141C52.8081 47.3278 52.8768 46.6483 53.3702 46.1246Z" fill="#0099C6"/>
<path opacity="0.2" d="M53.3702 46.1246C53.8637 45.5947 54.707 45.3204 55.8126 45.3204C65.6444 45.2642 67.0623 36.6982 67.8244 32.0909C67.8244 32.0909 72.3155 9.92758 72.3717 9.78419C72.6403 9.07347 73.2025 8.10713 74.7454 8.31287C75.9322 8.46873 76.7192 9.2231 76.7879 10.3016C76.7942 10.3952 73.5086 32.0286 73.5086 32.0286C73.4336 32.4962 73.7522 32.9326 74.2207 33.0074C74.2644 33.0136 74.3081 33.0199 74.3519 33.0199C74.7641 33.0199 75.1326 32.7206 75.1951 32.2967L79.0554 7.5024C79.2553 6.5797 80.4671 5.90639 81.7726 6.05601C83.0031 6.21187 83.9838 7.07846 84.0525 8.07596C84.0587 8.16948 84.0462 8.26923 84.04 8.37521L80.1922 33.3378C80.1173 33.8054 80.4358 34.2418 80.9043 34.3166C80.948 34.3228 80.9918 34.3291 81.0355 34.3291C81.4477 34.3291 81.8163 34.0298 81.8787 33.6059L85.2768 11.5922C85.5204 10.6009 86.6635 9.94629 87.9315 10.1021C89.1683 10.258 90.149 11.1246 90.2114 12.1221C90.2177 12.2156 90.2052 12.3091 90.1989 12.4089L86.7759 34.7593C86.7009 35.2268 87.0258 35.6632 87.4942 35.7318C87.538 35.7381 87.5817 35.7443 87.6254 35.7443C88.0439 35.7443 88.4062 35.4388 88.4749 35.0149C88.4749 35.0149 90.9797 19.7156 91.011 19.541C91.2358 18.369 92.3477 17.6645 93.7094 17.8391C94.9087 17.9887 95.9768 19.1046 95.8582 20.0959C95.5646 21.8166 91.1171 46.6919 88.5749 60.5822H64.7761L64.7324 50.7131C64.7324 50.4824 64.6387 50.2642 64.4763 50.1084C64.3139 49.9463 64.1203 49.8715 63.8642 49.8652C63.8642 49.8652 58.3923 49.9276 55.975 49.9401C55.9562 49.9401 55.9313 49.9401 55.9125 49.9401C53.4764 49.9401 52.9268 49.1233 52.8455 47.8141C52.8081 47.3278 52.8768 46.6483 53.3702 46.1246Z" fill="url(#paint15_radial_1102_1075)"/>
<path opacity="0.77" d="M78.1434 60.5759H88.5749C91.1171 46.6856 95.5708 21.8103 95.8581 20.0896C95.9768 19.0984 94.9149 17.9824 93.7094 17.8328C93.7094 17.8328 90.0927 35.7006 88.8872 42.0909C87.6816 48.4811 83.5528 52.5959 79.3552 54.6532L78.1434 60.5759Z" fill="url(#paint16_linear_1102_1075)"/>
<path d="M77.8693 56.1932C79.9368 50.4388 78.6438 44.8964 74.5087 42.5897C71.9352 41.1558 68.9307 40.9002 66.251 41.5049L77.8693 56.1932Z" fill="url(#paint17_linear_1102_1075)"/>
<path opacity="0.6" d="M80.1913 33.3379C80.0976 33.9552 80.6535 34.4227 81.2282 34.3043C80.8909 34.7906 79.9789 35.1335 79.4292 35.1335C77.6303 35.1335 77.1118 33.4502 77.3117 32.1409L81.7716 6.05615C83.0022 6.21201 83.9828 7.0786 84.0516 8.0761C84.0578 8.16962 84.0453 8.26937 84.0391 8.37535L80.1913 33.3379Z" fill="url(#paint18_linear_1102_1075)"/>
<path opacity="0.6" d="M74.3947 33.0136C73.9887 33.4002 73.2579 33.6745 72.7832 33.6745C71.2715 33.6745 70.4345 32.3652 70.6282 30.975L74.7383 8.30664C75.9251 8.45003 76.7121 9.21687 76.7809 10.2954C76.7871 10.3702 74.2636 26.9725 73.5015 32.0224C73.4328 32.6022 73.8576 33.0323 74.3947 33.0136Z" fill="url(#paint19_linear_1102_1075)"/>
<path opacity="0.6" d="M86.7872 34.7906C86.7247 35.2145 87.0933 35.7694 87.7117 35.732C87.0995 36.0998 86.7622 36.2494 86.0689 36.2494C84.5822 36.2494 84.145 34.722 84.2199 34.2544L87.9428 10.0898C89.1796 10.2457 90.1603 11.1123 90.2227 12.1098C90.229 12.2033 90.2165 12.2968 90.2102 12.3903L86.7872 34.7906Z" fill="url(#paint20_linear_1102_1075)"/>
<path d="M69.8793 21.8416C69.8481 21.9849 67.818 32.0909 67.818 32.0909C67.1809 35.9376 66.0815 42.5523 60.0038 44.6595C58.8107 45.071 57.424 45.3141 55.8125 45.3204C55.8125 45.3204 62.5523 45.9999 65.9628 42.7144C68.2615 40.4949 69.4046 36.268 69.7044 32.3715C69.9793 28.8241 69.8793 21.8416 69.8793 21.8416Z" fill="url(#paint21_linear_1102_1075)"/>
<path d="M160.947 55.1141C160.947 53.4557 159.872 52.5767 158.404 52.5767H155.956V60.2886H157.617V57.6515H157.911L159.379 60.2886H161.334L159.473 57.3834C160.709 56.8784 160.947 56.0742 160.947 55.1141ZM158.404 56.4856H157.624V53.8485H158.404C158.992 53.8485 159.285 54.1415 159.285 55.1203C159.285 55.7001 158.992 56.4856 158.404 56.4856Z" fill="#F96600"/>
<path d="M151.752 57.0717H154.195V55.7001H151.752V53.942H154.488V52.5767H150.185V60.2886H154.588V58.9233H151.752V57.0717Z" fill="#F96600"/>
<path d="M112.513 60.2513V55.3885H113.843V54.3286H109.852V55.3885H111.269V60.2513H112.513Z" fill="#F96600"/>
<path d="M168.967 60.2886H173.177V58.9233H170.634V57.0717H172.783V55.7001H170.634V53.8485H173.177V52.5767H168.967V60.2886Z" fill="#F96600"/>
<path d="M164.763 52.4771C162.808 52.4771 161.827 53.7489 161.827 56.3798C161.827 59.1167 162.708 60.3823 164.663 60.3823C166.618 60.3823 167.599 59.1105 167.599 56.3798C167.599 53.7489 166.718 52.4771 164.763 52.4771ZM164.663 58.9234C163.882 58.9234 163.489 58.1441 163.489 56.386C163.489 54.6279 163.882 53.8486 164.663 53.8486C165.35 53.8486 165.737 54.6279 165.737 56.386C165.737 58.1441 165.35 58.9234 164.663 58.9234Z" fill="#F96600"/>
<path d="M177.674 55.8L177.087 55.507C176.106 55.0207 175.913 54.8212 175.913 54.3349C175.913 53.8486 176.306 53.6491 176.6 53.6491C177.087 53.6491 177.38 54.0419 177.38 54.9209H178.948C178.948 53.5556 178.361 52.4771 176.6 52.4771C175.425 52.4771 174.251 53.0631 174.251 54.5282C174.251 55.6005 174.838 56.1865 175.819 56.679L176.406 56.9721C177.187 57.3648 177.58 57.7514 177.58 58.3374C177.58 58.7302 177.387 59.1167 176.8 59.1167C176.212 59.1167 175.819 58.7239 175.725 58.0444H174.157C174.157 59.5095 175.038 60.3885 176.606 60.3885C177.88 60.3885 179.248 59.9958 179.248 58.1441C179.242 57.5581 179.042 56.4858 177.674 55.8Z" fill="#F96600"/>
<path d="M146.761 55.7999H144.999V52.5767H143.338V60.2886H144.999V57.1652H146.761V60.2886H148.423V52.5767H146.761V55.7999Z" fill="#F96600"/>
<path d="M124.848 52.5767H123.187V60.2886H124.848V52.5767Z" fill="#F96600"/>
<path d="M116.922 53.942H118.683V60.2886H120.351V53.942H122.013V52.5767H116.922V53.942Z" fill="#F96600"/>
<path d="M130.233 56.523L128.765 52.5767H126.903V60.2886H128.565V58.1378C128.565 57.8447 128.371 55.5006 128.371 55.4008H128.465L129.933 58.9171H130.52L132.088 55.4008H132.188C131.994 56.5729 131.994 57.745 131.994 58.1378V60.2886H133.656V52.5767H131.794L130.233 56.523Z" fill="#F96600"/>
<path d="M109.408 57.2465C109.408 55.1205 108.696 54.1479 107.19 54.1479C105.685 54.1479 104.973 55.1205 104.973 57.2465C104.973 59.3724 105.685 60.345 107.19 60.345C108.702 60.345 109.408 59.3662 109.408 57.2465ZM106.309 57.2465C106.309 55.8312 106.578 55.214 107.196 55.214C107.815 55.214 108.083 55.8312 108.083 57.2465C108.083 58.6617 107.815 59.2789 107.196 59.2789C106.572 59.2789 106.309 58.6617 106.309 57.2465Z" fill="#F96600"/>
<path d="M135.411 60.2886H139.715V58.9233H137.079V57.0717H139.428V55.7001H137.079V53.8485H139.715V52.5767H135.411V60.2886Z" fill="#F96600"/>
<path d="M123.83 28.8987C119.445 28.8987 118.146 31.6855 117.946 37.6019L121.581 37.7017C121.881 31.8787 122.731 31.3363 123.424 31.3363C124.523 31.3363 124.767 32.4835 124.767 35.5134V37.7017V39.1855C118.67 39.2977 117.59 42.9074 117.59 45.2141C117.59 48.1506 119.333 49.89 121.375 49.89C122.856 49.89 124.124 48.961 124.817 47.4523L124.967 49.5907H128.259L128.409 34.7653C128.465 30.7378 127.472 28.8987 123.83 28.8987ZM122.437 47.3525C121.737 47.3525 121.044 46.6044 121.044 44.8151C121.044 42.87 121.919 41.6668 124.704 41.5421L124.686 42.1281C124.58 44.5159 123.83 47.3525 122.437 47.3525Z" fill="#0099C6"/>
<path d="M210.348 40.8376C210.398 41.885 210.398 41.2865 210.398 42.4273C210.398 45.3638 209.948 46.9037 208.855 46.9037C207.806 46.9037 206.813 45.663 206.813 40.0894V38.9922L213.64 38.7927C213.64 31.8787 212.691 28.9922 208.955 28.9922C205.414 28.9922 203.321 31.6293 203.321 39.3413C203.321 48.1443 206.063 49.8899 208.755 49.8899C212.047 49.8899 213.69 47.3525 213.69 40.9373L210.348 40.8376ZM208.749 31.6792C209.699 31.6792 209.948 32.9199 210.142 36.4548L206.95 36.5545C207.256 32.9261 207.806 31.6792 208.749 31.6792Z" fill="#0099C6"/>
<path d="M124.136 17.8079C122.818 14.4912 122.269 10.364 122.187 5.51367L118.452 5.61342C118.839 12.1907 119.47 17.6895 122.762 21.9164C122.194 23.4376 121.594 24.8217 120.994 26.0062L124.436 26.7543C126.978 20.8815 129.521 13.6184 130.514 5.61342L126.778 5.51367C126.229 9.7032 125.279 13.9925 124.136 17.8079Z" fill="#0099C6"/>
<path d="M170.634 26.3115C172.164 26.3115 173.42 25.3202 174.063 23.7242L174.219 26.0122H177.511L177.661 11.1868C177.711 7.15935 176.712 5.31396 173.076 5.31396C168.791 5.31396 167.542 8.10075 167.342 14.0172L170.977 14.117C171.277 8.29401 172.027 7.75162 172.72 7.75162C173.77 7.75162 174.013 8.94863 174.013 11.9287V14.117V15.6007C167.917 15.713 166.836 19.3227 166.836 21.6294C166.842 24.5658 168.591 26.3115 170.634 26.3115ZM173.876 17.9636L173.869 18.0509C173.72 20.4387 173.22 23.7741 171.677 23.7741C170.977 23.7741 170.284 23.0259 170.284 21.2367C170.284 19.304 171.146 18.107 173.876 17.9636Z" fill="#0099C6"/>
<path d="M159.471 26.0122H163.207L163.656 8.49971L166.892 8.59946L167.192 5.61318L157.079 5.51343V8.49971H160.015L159.471 26.0122Z" fill="#0099C6"/>
<path d="M109.126 17.1094L110.956 16.9411L114.26 25.9187L118.395 25.6194L113.948 14.7902C116.103 12.496 117.359 8.38127 117.446 5.61942L113.711 5.51967C113.611 7.85758 112.761 11.7853 110.819 14.173L109.126 14.2728L109.226 5.41992L105.584 5.61942L105.484 26.0184H109.026L109.126 17.1094Z" fill="#0099C6"/>
<path d="M112.368 37.3028H108.932L108.832 28.9985L105.091 29.198V49.7903L108.632 49.5409L108.932 40.0896H112.368V49.7903L115.809 49.5409L116.203 28.9985L112.368 29.0983V37.3028Z" fill="#0099C6"/>
<path d="M138.634 26.0123H142.376L143.319 5.61328H131.957V26.0123H135.592V8.49981L139.284 8.54969L138.634 26.0123Z" fill="#0099C6"/>
<path d="M136.591 49.6408H140.183L139.983 32.3777L143.918 32.5273L144.118 29.0984L136.392 29.1981L136.591 49.6408Z" fill="#0099C6"/>
<path d="M156.779 28.8489L156.679 49.6407H160.071L160.059 45.0459C164.425 44.0983 166.299 41.2117 166.299 36.1619C166.299 29.9898 163.507 28.5497 156.779 28.8489ZM160.046 42.228L160.015 31.4362C161.958 31.3364 162.857 33.7242 162.857 36.91C162.857 39.5285 162.207 41.8664 160.046 42.228Z" fill="#0099C6"/>
<path d="M173.569 28.749C169.834 28.749 167.835 31.9847 167.685 39.547C167.585 45.7627 168.785 50.1455 173.07 50.1455C176.611 50.1455 178.804 47.2091 178.954 39.2041C179.054 33.4747 178.054 28.749 173.569 28.749ZM175.112 39.3413C174.962 46.0059 174.213 47.0533 173.17 47.0533C172.02 47.0533 171.427 45.7129 171.527 40.0894C171.627 33.4248 172.576 31.6792 173.619 31.7291C174.762 31.8288 175.212 34.0233 175.112 39.3413Z" fill="#0099C6"/>
<path d="M188.373 40.3888C188.174 45.314 187.174 46.9038 186.081 46.9038C184.882 46.9038 184.638 45.0646 184.738 41.2803L185.038 29.092H181.303L181.103 42.7205C181.003 47.9449 182.745 49.8838 185.038 49.8838C186.799 49.8838 187.955 48.7117 188.567 46.7791L188.779 49.6344H191.672L192.521 29.092H188.836L188.373 40.3888Z" fill="#0099C6"/>
<path d="M154.488 38.799C154.388 32.0846 153.588 28.9985 149.803 28.9985C146.261 28.9985 144.219 31.6357 144.219 39.3477C144.219 48.1507 146.911 49.8963 149.603 49.8963C152.795 49.8963 154.488 47.4088 154.488 40.9437L151.146 40.8439C151.196 41.4923 151.196 42.1344 151.196 42.6831C151.196 45.5197 150.646 46.91 149.653 46.91C148.604 46.91 147.66 45.5696 147.66 40.0958V38.9985L154.488 38.799ZM149.653 31.6793C150.503 31.6793 150.852 32.92 150.946 36.4549L147.754 36.5546C148.054 32.9262 148.704 31.6793 149.653 31.6793Z" fill="#0099C6"/>
<path d="M193.508 29.0984V32.0784H196.494L196 49.6408H199.736L200.235 32.0784L203.477 32.1782L203.721 29.1981L193.508 29.0984Z" fill="#0099C6"/>
<path d="M151.245 5.31396C146.86 5.31396 145.561 8.10075 145.361 14.0172L149.003 14.117C149.303 8.29401 150.152 7.75162 150.846 7.75162C151.945 7.75162 152.188 8.89875 152.188 11.9287V14.117V15.6007C146.092 15.713 145.011 19.3227 145.011 21.6294C145.011 24.5658 146.754 26.3052 148.797 26.3052C150.327 26.3052 151.583 25.314 152.226 23.718L152.382 26.006H155.674L155.824 11.1805C155.88 7.15935 154.881 5.31396 151.245 5.31396ZM149.852 23.7741C149.153 23.7741 148.459 23.0259 148.459 21.2367C148.459 19.304 149.321 18.107 152.051 17.9636L152.045 18.0509C151.895 20.4387 151.395 23.7741 149.852 23.7741Z" fill="#0099C6"/>
<defs>
<radialGradient id="paint0_radial_1102_1075" cx="0" cy="0" r="1" gradientUnits="userSpaceOnUse" gradientTransform="translate(34.2105 35.5841) scale(28.6692 28.6143)">
<stop offset="0.1339" stop-color="#FFF44F" stop-opacity="0.84"/>
<stop offset="0.3042" stop-color="#FFF44F" stop-opacity="0.634"/>
<stop offset="0.5175" stop-color="#FFF44F" stop-opacity="0.217"/>
<stop offset="0.669" stop-color="#FFF44F" stop-opacity="0"/>
</radialGradient>
<linearGradient id="paint1_linear_1102_1075" x1="3.68074" y1="40.3746" x2="13.7887" y2="38.5454" gradientUnits="userSpaceOnUse">
<stop stop-color="#032392"/>
<stop offset="0.3496" stop-color="#015DD0" stop-opacity="0.3"/>
<stop offset="1" stop-color="#015FD2" stop-opacity="0"/>
</linearGradient>
<linearGradient id="paint2_linear_1102_1075" x1="18.8736" y1="44.483" x2="23.8655" y2="48.695" gradientUnits="userSpaceOnUse">
<stop stop-color="#032392" stop-opacity="0.4"/>
<stop offset="0.3292" stop-color="#0233A3" stop-opacity="0.2683"/>
<stop offset="0.9827" stop-color="#015ED1" stop-opacity="0.01"/>
<stop offset="1" stop-color="#015FD2" stop-opacity="0"/>
</linearGradient>
<linearGradient id="paint3_linear_1102_1075" x1="12.0791" y1="20.589" x2="18.8601" y2="20.589" gradientUnits="userSpaceOnUse">
<stop stop-color="#032392"/>
<stop offset="0.3746" stop-color="#0234A3" stop-opacity="0.6254"/>
<stop offset="1" stop-color="#0157C9" stop-opacity="0"/>
</linearGradient>
<linearGradient id="paint4_linear_1102_1075" x1="19.3499" y1="20.9934" x2="25.5282" y2="20.9934" gradientUnits="userSpaceOnUse">
<stop stop-color="#032392"/>
<stop offset="0.3746" stop-color="#0234A3" stop-opacity="0.6254"/>
<stop offset="1" stop-color="#0157C9" stop-opacity="0"/>
</linearGradient>
<linearGradient id="paint5_linear_1102_1075" x1="5.90764" y1="23.1733" x2="11.925" y2="23.1733" gradientUnits="userSpaceOnUse">
<stop stop-color="#032392"/>
<stop offset="0.3746" stop-color="#0234A3" stop-opacity="0.6254"/>
<stop offset="1" stop-color="#0157C9" stop-opacity="0"/>
</linearGradient>
<linearGradient id="paint6_linear_1102_1075" x1="28.61" y1="28.2919" x2="35.1962" y2="45.0386" gradientUnits="userSpaceOnUse">
<stop stop-color="#8D69FF" stop-opacity="0"/>
<stop offset="0.0133" stop-color="#8B68FD" stop-opacity="0.01"/>
<stop offset="0.4884" stop-color="#4243C4" stop-opacity="0.1954"/>
<stop offset="0.8292" stop-color="#142CA0" stop-opacity="0.3317"/>
<stop offset="1" stop-color="#032392" stop-opacity="0.4"/>
</linearGradient>
<linearGradient id="paint7_linear_1102_1075" x1="29.3323" y1="33.6953" x2="70.6853" y2="28.1528" gradientUnits="userSpaceOnUse">
<stop offset="0.00348708" stop-color="#F73D00" stop-opacity="0.6"/>
<stop offset="0.0206" stop-color="#F74400" stop-opacity="0.5352"/>
<stop offset="0.0462" stop-color="#F85900" stop-opacity="0.4383"/>
<stop offset="0.077" stop-color="#FA7A00" stop-opacity="0.3217"/>
<stop offset="0.0827" stop-color="#FA8100" stop-opacity="0.3"/>
<stop offset="0.1922" stop-color="#FFDA00" stop-opacity="0"/>
<stop offset="0.9173" stop-color="#FFDA00" stop-opacity="0"/>
</linearGradient>
<linearGradient id="paint8_linear_1102_1075" x1="47.8813" y1="-1.0373" x2="49.0703" y2="59.4215" gradientUnits="userSpaceOnUse">
<stop offset="0.00348708" stop-color="#F73D00" stop-opacity="0"/>
<stop offset="0.0731" stop-color="#F74400" stop-opacity="0"/>
<stop offset="0.1774" stop-color="#F85900" stop-opacity="0"/>
<stop offset="0.3035" stop-color="#FA7A00" stop-opacity="0"/>
<stop offset="0.4451" stop-color="#FCA800" stop-opacity="0"/>
<stop offset="0.5776" stop-color="#FFDA00" stop-opacity="0"/>
<stop offset="1" stop-color="#FFDA00" stop-opacity="0.44"/>
</linearGradient>
<linearGradient id="paint9_linear_1102_1075" x1="24.7586" y1="30.9824" x2="71.2589" y2="30.9824" gradientUnits="userSpaceOnUse">
<stop stop-color="#F7CB39"/>
<stop offset="0.1604" stop-color="#F6C938"/>
<stop offset="0.4705" stop-color="#FA8100"/>
<stop offset="0.9987" stop-color="#F56423"/>
</linearGradient>
<linearGradient id="paint10_linear_1102_1075" x1="24.5841" y1="4.2127" x2="71.4332" y2="4.2127" gradientUnits="userSpaceOnUse">
<stop stop-color="#F56423"/>
<stop offset="0.5295" stop-color="#FA8100"/>
<stop offset="0.8285" stop-color="#FFB300"/>
<stop offset="0.8733" stop-color="#FEAD00"/>
<stop offset="0.9322" stop-color="#FD9D00"/>
<stop offset="0.9987" stop-color="#FA8200"/>
<stop offset="1" stop-color="#FA8100"/>
</linearGradient>
<linearGradient id="paint11_linear_1102_1075" x1="59.8168" y1="57.1646" x2="36.2287" y2="57.1646" gradientUnits="userSpaceOnUse">
<stop stop-color="#FA8100"/>
<stop offset="1" stop-color="#FFDA00"/>
</linearGradient>
<linearGradient id="paint12_linear_1102_1075" x1="29.9653" y1="12.8716" x2="35.531" y2="12.8716" gradientUnits="userSpaceOnUse">
<stop stop-color="#FDFDFD"/>
<stop offset="1" stop-color="#F6F6F6"/>
</linearGradient>
<linearGradient id="paint13_linear_1102_1075" x1="37.7266" y1="52.5697" x2="40.5912" y2="56.6521" gradientUnits="userSpaceOnUse">
<stop stop-color="#FDFDFD" stop-opacity="0.4"/>
<stop offset="1" stop-color="#F6F6F6" stop-opacity="0"/>
</linearGradient>
<linearGradient id="paint14_linear_1102_1075" x1="34.4203" y1="24.1577" x2="61.5978" y2="24.1577" gradientUnits="userSpaceOnUse">
<stop offset="0.5195" stop-color="white"/>
<stop offset="0.561" stop-color="#FFF8F4" stop-opacity="0.9309"/>
<stop offset="0.6342" stop-color="#FEE5D6" stop-opacity="0.809"/>
<stop offset="0.7306" stop-color="#FDC5A6" stop-opacity="0.6485"/>
<stop offset="0.8465" stop-color="#FB9A63" stop-opacity="0.4556"/>
<stop offset="0.9775" stop-color="#F8640F" stop-opacity="0.2374"/>
<stop offset="1" stop-color="#F85A00" stop-opacity="0.2"/>
</linearGradient>
<radialGradient id="paint15_radial_1102_1075" cx="0" cy="0" r="1" gradientUnits="userSpaceOnUse" gradientTransform="translate(61.9206 35.5844) rotate(180) scale(28.6692 28.6143)">
<stop offset="0.1339" stop-color="#FFF44F" stop-opacity="0.84"/>
<stop offset="0.3042" stop-color="#FFF44F" stop-opacity="0.634"/>
<stop offset="0.5175" stop-color="#FFF44F" stop-opacity="0.217"/>
<stop offset="0.669" stop-color="#FFF44F" stop-opacity="0"/>
</radialGradient>
<linearGradient id="paint16_linear_1102_1075" x1="92.4501" y1="40.3747" x2="82.3421" y2="38.5456" gradientUnits="userSpaceOnUse">
<stop stop-color="#032392"/>
<stop offset="0.3496" stop-color="#015DD0" stop-opacity="0.3"/>
<stop offset="1" stop-color="#015FD2" stop-opacity="0"/>
</linearGradient>
<linearGradient id="paint17_linear_1102_1075" x1="77.2583" y1="44.4832" x2="72.2663" y2="48.6952" gradientUnits="userSpaceOnUse">
<stop stop-color="#032392" stop-opacity="0.4"/>
<stop offset="0.3292" stop-color="#0233A3" stop-opacity="0.2683"/>
<stop offset="0.9827" stop-color="#015ED1" stop-opacity="0.01"/>
<stop offset="1" stop-color="#015FD2" stop-opacity="0"/>
</linearGradient>
<linearGradient id="paint18_linear_1102_1075" x1="84.051" y1="20.5893" x2="77.2698" y2="20.5893" gradientUnits="userSpaceOnUse">
<stop stop-color="#032392"/>
<stop offset="0.3746" stop-color="#0234A3" stop-opacity="0.6254"/>
<stop offset="1" stop-color="#0157C9" stop-opacity="0"/>
</linearGradient>
<linearGradient id="paint19_linear_1102_1075" x1="76.7809" y1="20.9937" x2="70.6025" y2="20.9937" gradientUnits="userSpaceOnUse">
<stop stop-color="#032392"/>
<stop offset="0.3746" stop-color="#0234A3" stop-opacity="0.6254"/>
<stop offset="1" stop-color="#0157C9" stop-opacity="0"/>
</linearGradient>
<linearGradient id="paint20_linear_1102_1075" x1="90.2227" y1="23.1736" x2="84.2051" y2="23.1736" gradientUnits="userSpaceOnUse">
<stop stop-color="#032392"/>
<stop offset="0.3746" stop-color="#0234A3" stop-opacity="0.6254"/>
<stop offset="1" stop-color="#0157C9" stop-opacity="0"/>
</linearGradient>
<linearGradient id="paint21_linear_1102_1075" x1="67.5212" y1="28.2922" x2="60.9351" y2="45.0389" gradientUnits="userSpaceOnUse">
<stop stop-color="#8D69FF" stop-opacity="0"/>
<stop offset="0.0133" stop-color="#8B68FD" stop-opacity="0.01"/>
<stop offset="0.4884" stop-color="#4243C4" stop-opacity="0.1954"/>
<stop offset="0.8292" stop-color="#142CA0" stop-opacity="0.3317"/>
<stop offset="1" stop-color="#032392" stop-opacity="0.4"/>
</linearGradient>
</defs>
</svg>
