<svg width="174" height="48" viewBox="0 0 174 48" fill="none" xmlns="http://www.w3.org/2000/svg">
<path fill-rule="evenodd" clip-rule="evenodd" d="M23.0638 43.5H15.2928L14.8672 39.888C20.1803 39.0037 21.2294 36.5342 20.9949 29.976C17.2289 28.9335 15.6043 27.7937 13.5055 24.852C13.5055 24.852 7.29278 24.18 3.29278 19.476C-0.707218 14.772 0.0587384 6.54 0.0587384 6.54L9.33533 6.036V1.5L23.0638 1.5H23.9736H38.6544V6.036L47.9412 6.54C47.9412 6.54 48.708 14.772 44.7036 19.476C40.6992 24.18 34.4796 24.852 34.4796 24.852C32.3786 27.7937 30.7522 28.9335 26.982 29.976C26.7473 36.5342 27.7975 39.0037 33.1164 39.888L32.6904 43.5H23.9736H23.0638ZM3.80343 10.404L9.59065 10.068L9.61481 10.4821C9.8312 14.2002 9.95574 16.3402 11.3779 20.232C5.59065 18.468 4.30315 15.1252 3.80343 10.404ZM44.1924 10.404L38.3988 10.068L38.3749 10.477L38.3746 10.482C38.158 14.2002 38.0333 16.3402 36.6096 20.232C42.4032 18.468 43.6921 15.1252 44.1924 10.404ZM26.3638 11.8838L24 7.5L21.6362 11.8838L16.5 12.6565L20.1753 16.1386L19.3647 21L24 18.7683L28.6353 21L27.8247 16.1386L31.5 12.6565L26.3638 11.8838Z" fill="#FEBD17"/>
<path d="M56.688 14H60.018V9.14H61.584L64.644 14H68.334L64.194 7.538L68.154 1.4H64.464L61.602 6.17H60.018V1.4H56.688V14ZM76.039 11.12L80.593 1.4H76.903L74.635 7.142L71.863 1.4H68.173L73.087 10.13L72.889 10.562C72.601 11.21 72.043 11.426 71.251 11.426C70.765 11.426 70.225 11.336 69.793 11.174V13.928C70.477 14.126 71.161 14.27 71.809 14.27C73.519 14.27 74.905 13.55 76.039 11.12ZM81.7192 14H85.0493V4.37H89.7293V14H93.0593V1.4H81.7192V14ZM94.2602 14H97.6802L98.4002 12.02H103.62L104.34 14H107.76L102.81 1.4H99.2102L94.2602 14ZM99.3902 9.32L100.686 5.684C100.794 5.378 100.902 5.072 101.01 4.406C101.118 5.072 101.226 5.378 101.334 5.684L102.63 9.32H99.3902ZM116.992 1.4H106.552V4.37H110.116V14H113.446V4.37H116.992V1.4ZM115.793 14H119.213L119.933 12.02H125.153L125.873 14H129.293L124.343 1.4H120.743L115.793 14ZM120.923 9.32L122.219 5.684C122.327 5.378 122.435 5.072 122.543 4.406C122.651 5.072 122.759 5.378 122.867 5.684L124.163 9.32H120.923ZM68.028 19.4H64.698V24.224H60.018V19.4H56.688V32H60.018V27.194H64.698V32H68.028V19.4ZM69.2289 32H72.6489L73.3689 30.02H78.5889L79.3089 32H82.7289L77.7789 19.4H74.1789L69.2289 32ZM74.3589 27.32L75.6549 23.684C75.7629 23.378 75.8709 23.072 75.9789 22.406C76.0869 23.072 76.1949 23.378 76.3029 23.684L77.5989 27.32H74.3589ZM87.6782 32H91.0082V22.37H96.7682V19.4H87.6782V32ZM107.227 19.4H98.1548V32H107.335V29.12H101.485V27.068H106.687V24.206H101.485V22.28H107.227V19.4ZM114.25 19.4H109.264V32H112.594V28.04H114.25C117.364 28.022 119.74 27.032 119.74 23.72C119.74 20.408 117.364 19.4 114.25 19.4ZM116.32 23.72C116.32 24.854 115.42 25.16 114.412 25.16H112.594V22.28H114.412C115.42 22.28 116.32 22.586 116.32 23.72ZM120.693 25.7C120.693 29.21 122.943 32.27 127.443 32.27C131.943 32.27 134.193 29.21 134.193 25.7C134.193 22.19 131.943 19.13 127.443 19.13C122.943 19.13 120.693 22.19 120.693 25.7ZM130.773 25.7C130.773 27.716 129.621 29.21 127.443 29.21C125.265 29.21 124.113 27.716 124.113 25.7C124.113 23.684 125.265 22.19 127.443 22.19C129.621 22.19 130.773 23.684 130.773 25.7ZM143.94 32H147.27V19.4H144.12L139.188 26.636C139.242 26.042 139.26 25.25 139.26 24.548V19.4H135.93V32H139.08L144.012 24.782C143.958 25.376 143.94 26.168 143.94 26.852V32ZM159.127 19.4H148.687V22.37H152.251V32H155.581V22.37H159.127V19.4ZM169.629 19.4H160.557V32H169.737V29.12H163.887V27.068H169.089V24.206H163.887V22.28H169.629V19.4Z" fill="#1C1E21"/>
<path d="M55.7835 42.98C55.7835 44.765 57.1065 45.6575 58.6185 45.6575C60.1305 45.6575 61.4535 44.765 61.4535 42.98C61.4535 41.195 60.1305 40.3025 58.6185 40.3025C57.1065 40.3025 55.7835 41.195 55.7835 42.98ZM59.616 42.98C59.616 43.547 59.3535 44.0825 58.6185 44.0825C57.8835 44.0825 57.621 43.547 57.621 42.98C57.621 42.413 57.8835 41.8775 58.6185 41.8775C59.3535 41.8775 59.616 42.413 59.616 42.98ZM63.6998 45.5H65.4848V41.93H66.9548V40.46H62.2298V41.93H63.6998V45.5ZM76.0705 38.15H69.9805V39.8825H72.0595V45.5H74.002V39.8825H76.0705V38.15ZM79.0887 38.759C79.0887 38.0765 78.6162 37.7825 78.0702 37.7825C77.5347 37.7825 77.0517 38.0765 77.0517 38.759C77.0517 39.452 77.5347 39.746 78.0702 39.746C78.6162 39.746 79.0887 39.452 79.0887 38.759ZM77.1777 45.5H78.9627V40.46H77.1777V45.5ZM80.4685 45.5H82.2535V42.266C82.4845 41.972 82.81 41.825 83.0935 41.825C83.4085 41.825 83.671 42.0245 83.671 42.4235V45.5H85.456V42.266V42.1505C85.6765 41.93 85.9495 41.825 86.191 41.825C86.506 41.825 86.7685 42.0245 86.7685 42.4235V45.5H88.5535V42.266C88.5535 41.5205 88.207 40.3025 86.695 40.3025C86.0335 40.3025 85.498 40.6175 85.0885 40.9955C84.8155 40.607 84.3535 40.3025 83.5975 40.3025C82.873 40.3025 82.306 40.6805 82.0435 40.9955V40.46H80.4685V45.5ZM89.742 42.98C89.742 44.7125 91.0755 45.6575 92.7345 45.6575C93.5325 45.6575 94.131 45.542 94.6035 45.374V44.051C94.1835 44.2085 93.7215 44.2925 93.1545 44.2925C92.43 44.2925 91.7475 44.072 91.548 43.5155H94.845C95.202 41.9825 94.551 40.3025 92.388 40.3025C91.2855 40.3025 89.742 41.006 89.742 42.98ZM93.2175 42.4445H91.527C91.527 41.9195 91.9365 41.594 92.43 41.594C93.144 41.594 93.27 42.203 93.2175 42.4445ZM102.857 38.15H100.914V40.964H98.1844V38.15H96.2419V45.5H98.1844V42.6965H100.914V45.5H102.857V38.15ZM104.138 42.98C104.138 44.7125 105.471 45.6575 107.13 45.6575C107.928 45.6575 108.527 45.542 108.999 45.374V44.051C108.579 44.2085 108.117 44.2925 107.55 44.2925C106.826 44.2925 106.143 44.072 105.944 43.5155H109.241C109.598 41.9825 108.947 40.3025 106.784 40.3025C105.681 40.3025 104.138 41.006 104.138 42.98ZM107.613 42.4445H105.923C105.923 41.9195 106.332 41.594 106.826 41.594C107.54 41.594 107.666 42.203 107.613 42.4445ZM112.137 41.1425V40.46H110.562V45.5H112.347V42.6335C112.662 42.1505 113.408 41.93 114.111 42.0875V40.355C113.124 40.25 112.484 40.6385 112.137 41.1425ZM114.893 42.98C114.893 44.765 116.216 45.6575 117.728 45.6575C119.24 45.6575 120.563 44.765 120.563 42.98C120.563 41.195 119.24 40.3025 117.728 40.3025C116.216 40.3025 114.893 41.195 114.893 42.98ZM118.726 42.98C118.726 43.547 118.463 44.0825 117.728 44.0825C116.993 44.0825 116.731 43.547 116.731 42.98C116.731 42.413 116.993 41.8775 117.728 41.8775C118.463 41.8775 118.726 42.413 118.726 42.98ZM121.548 42.98C121.548 44.7125 122.881 45.6575 124.54 45.6575C125.338 45.6575 125.937 45.542 126.409 45.374V44.051C125.989 44.2085 125.527 44.2925 124.96 44.2925C124.236 44.2925 123.553 44.072 123.354 43.5155H126.651C127.008 41.9825 126.357 40.3025 124.194 40.3025C123.091 40.3025 121.548 41.006 121.548 42.98ZM125.023 42.4445H123.333C123.333 41.9195 123.742 41.594 124.236 41.594C124.95 41.594 125.076 42.203 125.023 42.4445ZM127.793 41.909C127.793 43.7255 130.439 43.4 130.439 44.0615C130.439 44.24 130.219 44.3135 129.778 44.3135C129.179 44.3135 128.402 44.1455 127.846 43.778V45.1955C128.381 45.5 129.085 45.6575 129.872 45.6575C131.143 45.6575 132.277 45.29 132.277 44.03C132.277 42.161 129.631 42.5705 129.631 41.867C129.631 41.657 129.893 41.615 130.114 41.615C130.702 41.615 131.447 41.846 131.888 42.1505V40.733C131.353 40.481 130.723 40.3025 129.988 40.3025C128.864 40.3025 127.793 40.6805 127.793 41.909Z" fill="#AEA896"/>
</svg>
