<svg width="150" height="42" viewBox="0 0 150 42" fill="none" xmlns="http://www.w3.org/2000/svg">
<path d="M29.7567 31.8799C29.4113 31.5089 28.821 31.3169 28.0471 31.3169C21.1648 31.2776 20.1722 25.2813 19.6388 22.0562C19.6388 22.0562 16.495 6.54185 16.4556 6.44147C16.2676 5.94397 15.8741 5.26753 14.7941 5.41154C13.9633 5.52065 13.4124 6.0487 13.3643 6.80369C13.3599 6.86916 15.6598 22.0126 15.6598 22.0126C15.7123 22.3399 15.4893 22.6454 15.1614 22.6978C15.1308 22.7021 15.1001 22.7065 15.0695 22.7065C14.781 22.7065 14.523 22.497 14.4793 22.2003L11.7771 4.84421C11.6371 4.19832 10.7889 3.727 9.87503 3.83174C9.01365 3.94084 8.32717 4.54745 8.27907 5.24571C8.2747 5.31117 8.28344 5.381 8.28781 5.45519L10.9813 22.9291C11.0337 23.2564 10.8107 23.5619 10.4828 23.6142C10.4522 23.6186 10.4216 23.623 10.391 23.623C10.1024 23.623 9.84442 23.4135 9.80069 23.1167L7.41332 7.7027C7.24279 7.00881 6.44263 6.55058 5.55501 6.65968C4.68926 6.76878 4.00278 7.37539 3.95905 8.07365C3.95468 8.13911 3.96343 8.20457 3.9678 8.2744L6.36392 23.9197C6.41639 24.247 6.18902 24.5525 5.86108 24.6005C5.83048 24.6049 5.79987 24.6092 5.76926 24.6092C5.47631 24.6092 5.2227 24.3954 5.1746 24.0986C5.1746 24.0986 3.42124 13.3891 3.39938 13.2669C3.24197 12.4465 2.46366 11.9533 1.51046 12.0755C0.670944 12.1803 -0.0767508 12.9614 0.00632639 13.6553C0.211833 14.8598 3.32504 32.2726 5.10464 41.9958H21.7638L21.7944 35.0875C21.7944 34.926 21.86 34.7733 21.9737 34.6642C22.0874 34.5507 22.2229 34.4983 22.4022 34.4939C22.4022 34.4939 26.2325 34.5376 27.9246 34.5463C27.9378 34.5463 27.9553 34.5463 27.9684 34.5463C29.6736 34.5463 30.0584 33.9746 30.1153 33.0582C30.1502 32.7221 30.1021 32.2464 29.7567 31.8799Z" fill="#0099C6"/>
<path opacity="0.2" d="M29.7567 31.8799C29.4113 31.5089 28.821 31.3169 28.0471 31.3169C21.1648 31.2776 20.1722 25.2813 19.6388 22.0562C19.6388 22.0562 16.495 6.54185 16.4556 6.44147C16.2676 5.94397 15.8741 5.26753 14.7941 5.41154C13.9633 5.52065 13.4124 6.0487 13.3643 6.80369C13.3599 6.86916 15.6598 22.0126 15.6598 22.0126C15.7123 22.3399 15.4893 22.6454 15.1614 22.6978C15.1308 22.7021 15.1001 22.7065 15.0695 22.7065C14.781 22.7065 14.523 22.497 14.4793 22.2003L11.7771 4.84421C11.6371 4.19832 10.7889 3.727 9.87503 3.83174C9.01365 3.94084 8.32717 4.54745 8.27907 5.24571C8.2747 5.31117 8.28344 5.381 8.28781 5.45519L10.9813 22.9291C11.0337 23.2564 10.8107 23.5619 10.4828 23.6142C10.4522 23.6186 10.4216 23.623 10.391 23.623C10.1024 23.623 9.84442 23.4135 9.80069 23.1167L7.41332 7.7027C7.24279 7.00881 6.44263 6.55058 5.55501 6.65968C4.68926 6.76878 4.00278 7.37539 3.95905 8.07365C3.95468 8.13911 3.96343 8.20457 3.9678 8.2744L6.36392 23.9197C6.41639 24.247 6.18902 24.5525 5.86108 24.6005C5.83048 24.6049 5.79987 24.6092 5.76926 24.6092C5.47631 24.6092 5.2227 24.3954 5.1746 24.0986C5.1746 24.0986 3.42124 13.3891 3.39938 13.2669C3.24197 12.4465 2.46366 11.9533 1.51046 12.0755C0.670944 12.1803 -0.0767508 12.9614 0.00632639 13.6553C0.211833 14.8598 3.32504 32.2726 5.10464 41.9958H21.7638L21.7944 35.0875C21.7944 34.926 21.86 34.7733 21.9737 34.6642C22.0874 34.5507 22.2229 34.4983 22.4022 34.4939C22.4022 34.4939 26.2325 34.5376 27.9246 34.5463C27.9378 34.5463 27.9553 34.5463 27.9684 34.5463C29.6736 34.5463 30.0584 33.9746 30.1153 33.0582C30.1502 32.7221 30.1021 32.2464 29.7567 31.8799Z" fill="url(#paint0_radial_1102_123)"/>
<path opacity="0.77" d="M12.4106 41.996H5.10858C3.32898 32.2684 0.215772 14.86 0.0102654 13.6511C-0.0728118 12.9572 0.670511 12.176 1.5144 12.0713C1.5144 12.0713 4.04607 24.5788 4.88996 29.052C5.73385 33.5252 8.62406 36.4055 11.5624 37.8457L12.4106 41.996Z" fill="url(#paint1_linear_1102_123)"/>
<path d="M12.6041 38.9281C11.1568 34.9 12.0619 31.0203 14.9565 29.4056C16.7579 28.4018 18.8611 28.2229 20.7369 28.6462L12.6041 38.9281Z" fill="url(#paint2_linear_1102_123)"/>
<path opacity="0.6" d="M10.9807 22.9294C11.0463 23.3614 10.6572 23.6887 10.2549 23.6058C10.491 23.9462 11.1294 24.1862 11.5142 24.1862C12.7735 24.1862 13.1364 23.0079 12.9964 22.0915L9.87449 3.83203C9.01311 3.94113 8.32663 4.54775 8.27854 5.246C8.27416 5.31146 8.28291 5.38129 8.28728 5.45548L10.9807 22.9294Z" fill="url(#paint3_linear_1102_123)"/>
<path opacity="0.6" d="M15.0341 22.7022C15.3183 22.9728 15.8299 23.1648 16.1622 23.1648C17.2203 23.1648 17.8062 22.2483 17.6707 21.2751L14.7936 5.40723C13.9628 5.5076 13.4119 6.04439 13.3638 6.79938C13.3594 6.85175 15.1259 18.4734 15.6593 22.0083C15.7118 22.4142 15.4101 22.7153 15.0341 22.7022Z" fill="url(#paint4_linear_1102_123)"/>
<path opacity="0.6" d="M6.36407 23.9461C6.40779 24.2429 6.14981 24.6313 5.71694 24.6051C6.14544 24.8626 6.38156 24.9673 6.8669 24.9673C7.90755 24.9673 8.21363 23.8981 8.16116 23.5708L5.55516 6.65552C4.6894 6.76462 4.00292 7.37123 3.9592 8.06949C3.95483 8.13495 3.96357 8.20041 3.96794 8.26587L6.36407 23.9461Z" fill="url(#paint5_linear_1102_123)"/>
<path d="M18.1965 14.8818C18.2183 14.9822 19.6394 22.0564 19.6394 22.0564C20.0854 24.7491 20.855 29.3794 25.1094 30.8545C25.9445 31.1425 26.9152 31.3127 28.0433 31.3171C28.0433 31.3171 23.3254 31.7927 20.938 29.4929C19.329 27.9392 18.5288 24.9804 18.3189 22.2528C18.1265 19.7696 18.1965 14.8818 18.1965 14.8818Z" fill="url(#paint6_linear_1102_123)"/>
<path d="M49.8273 3.36061C49.8273 3.36061 45.8134 0.000244141 33.5092 0.000244141C21.205 0.000244141 17.0337 3.38243 17.0337 3.38243L17.4054 5.0757L17.8557 7.16611C17.8907 7.29267 17.9301 7.41486 17.9607 7.55015C17.9694 7.58942 18.2536 8.93357 18.6428 10.8014L18.8745 11.8706C18.8789 11.8881 18.9226 12.1237 19.0013 12.5209C19.6528 15.6717 20.4267 19.4947 20.7459 21.3625L20.829 21.8601C20.8465 21.9604 20.864 22.0695 20.8815 22.1743C20.9995 22.7634 21.1001 23.274 21.1788 23.6581L21.2094 23.8021C21.2444 23.9723 21.2794 24.1512 21.3187 24.3389C21.3887 24.6138 21.2619 24.1599 21.5505 25.1637C21.8391 26.1631 22.8491 27.7865 22.8491 27.7865C23.881 29.1394 25.4857 30.0995 28.0567 30.1126C29.4559 30.1126 30.2342 30.6275 30.6365 31.0552C31.135 31.5876 31.3798 32.3208 31.3273 33.1238C31.2137 34.852 30.0856 35.7292 27.9737 35.7292C27.9605 35.7292 27.943 35.7292 27.9299 35.7292C26.6488 35.7205 24.1521 35.6943 23.0021 35.6812L22.989 38.8713L23.1114 41.9829H43.7233L43.8982 38.8713L43.8851 35.6812C42.7352 35.6943 40.2385 35.7205 38.9573 35.7292C38.9398 35.7292 38.9267 35.7292 38.9136 35.7292C36.8017 35.7292 35.6736 34.852 35.5599 33.1238C35.5074 32.3208 35.7523 31.5833 36.2508 31.0552C36.653 30.6232 37.4313 30.1126 38.8349 30.1126C41.3578 30.0995 42.945 29.1699 43.9813 27.8563C43.9813 27.8563 45.0526 26.5602 45.3761 25.0415C45.8003 23.0427 45.4286 24.8713 45.4505 24.784C45.5292 24.4349 45.5948 24.1032 45.656 23.8064L45.6866 23.6493C45.8003 23.0995 45.9577 22.2965 46.1413 21.3625V21.3538C46.3949 19.8787 46.9284 17.1861 47.4618 14.5676L49.4907 4.9055L49.8273 3.36061Z" fill="url(#paint7_linear_1102_123)"/>
<path d="M49.8273 3.36061C49.8273 3.36061 45.8134 0.000244141 33.5092 0.000244141C21.205 0.000244141 17.0337 3.38243 17.0337 3.38243L17.4054 5.0757L17.8557 7.16611C17.8907 7.29267 17.9301 7.41486 17.9607 7.55015C17.9694 7.58942 18.2536 8.93357 18.6428 10.8014L18.8745 11.8706C18.8789 11.8881 18.9226 12.1237 19.0013 12.5209C19.6528 15.6717 20.4267 19.4947 20.7459 21.3625L20.829 21.8601C20.8465 21.9604 20.864 22.0695 20.8815 22.1743C20.9995 22.7634 21.1001 23.274 21.1788 23.6581L21.2094 23.8021C21.2444 23.9723 21.2794 24.1512 21.3187 24.3389C21.3887 24.6138 21.2619 24.1599 21.5505 25.1637C21.8391 26.1631 22.8491 27.7865 22.8491 27.7865C23.881 29.1394 25.4857 30.0995 28.0567 30.1126C29.4559 30.1126 30.2342 30.6275 30.6365 31.0552C31.135 31.5876 31.3798 32.3208 31.3273 33.1238C31.2137 34.852 30.0856 35.7292 27.9737 35.7292C27.9605 35.7292 27.943 35.7292 27.9299 35.7292C26.6488 35.7205 24.1521 35.6943 23.0021 35.6812L22.989 38.8713L23.1114 41.9829H43.7233L43.8982 38.8713L43.8851 35.6812C42.7352 35.6943 40.2385 35.7205 38.9573 35.7292C38.9398 35.7292 38.9267 35.7292 38.9136 35.7292C36.8017 35.7292 35.6736 34.852 35.5599 33.1238C35.5074 32.3208 35.7523 31.5833 36.2508 31.0552C36.653 30.6232 37.4313 30.1126 38.8349 30.1126C41.3578 30.0995 42.945 29.1699 43.9813 27.8563C43.9813 27.8563 45.0526 26.5602 45.3761 25.0415C45.8003 23.0427 45.4286 24.8713 45.4505 24.784C45.5292 24.4349 45.5948 24.1032 45.656 23.8064L45.6866 23.6493C45.8003 23.0995 45.9577 22.2965 46.1413 21.3625V21.3538C46.3949 19.8787 46.9284 17.1861 47.4618 14.5676L49.4907 4.9055L49.8273 3.36061Z" fill="url(#paint8_linear_1102_123)"/>
<path d="M17.1509 3.84941C17.1727 3.9105 17.1815 3.97596 17.1771 4.04143L17.8505 7.17049C17.8855 7.29705 17.9248 7.41924 17.9554 7.55453C17.9642 7.59381 18.2484 8.93795 18.6375 10.8058L18.8693 11.875C18.8736 11.8925 18.9174 12.1281 18.9961 12.5253C19.6476 15.6761 20.4215 19.4991 20.7407 21.3669L20.8238 21.8644C20.8413 21.9648 20.8587 22.0739 20.8762 22.1787C20.9943 22.7678 21.0949 23.2784 21.1736 23.6625L21.2042 23.8065C21.2392 23.9767 21.2741 24.1556 21.3135 24.3433C21.3834 24.6182 21.2566 24.1643 21.5452 25.1681C21.8338 26.1674 22.8439 27.7909 22.8439 27.7909C23.8758 29.1438 25.4805 30.1039 28.0515 30.117C29.4507 30.117 30.229 30.6319 30.6313 31.0596C31.1297 31.592 31.3746 32.3252 31.3221 33.1282C31.2084 34.8564 30.0803 35.7336 27.9684 35.7336C27.9553 35.7336 27.9378 35.7336 27.9247 35.7336C26.6435 35.7248 24.1469 35.6987 22.9969 35.6856L22.9838 38.8757L23.1062 41.9873H43.7181L43.893 38.8757L43.8799 35.6856C42.7299 35.6987 40.2332 35.7248 38.9521 35.7336C38.9346 35.7336 38.9215 35.7336 38.9084 35.7336C36.7965 35.7336 35.6684 34.8564 35.5547 33.1282C35.5022 32.3252 35.7471 31.5877 36.2455 31.0596C36.6478 30.6276 37.4261 30.117 38.8297 30.117C41.3526 30.1039 42.9398 29.1743 43.9761 27.8607C43.9761 27.8607 45.0473 26.5646 45.3709 25.0459C45.795 23.0471 45.4234 24.8757 45.4452 24.7884C45.5239 24.4393 45.5895 24.1076 45.6507 23.8108L45.6813 23.6537C45.795 23.1038 45.9524 22.3008 46.1361 21.3669V21.3582C46.3897 19.8831 46.9231 17.1905 47.4566 14.572L49.6997 3.89741C49.6997 3.89741 45.8082 0.563232 33.504 0.563232C21.1998 0.563232 17.1509 3.84941 17.1509 3.84941Z" fill="url(#paint9_linear_1102_123)"/>
<path d="M17.4044 5.08006C19.5075 4.07196 24.6977 2.35686 33.6001 2.35686C42.3057 2.35686 47.4477 3.89303 49.4897 4.91859L49.8264 3.36061C49.8264 3.36061 45.8124 0.000244141 33.5082 0.000244141C21.2041 0.000244141 17.0327 3.38243 17.0327 3.38243L17.4044 5.08006Z" fill="url(#paint10_linear_1102_123)"/>
<path d="M25.1836 37.2219H41.6941L41.5279 41.9963H25.3235L25.1836 37.2219Z" fill="url(#paint11_linear_1102_123)"/>
<path d="M41.6935 37.2215L41.5273 41.9958H43.718L43.8929 38.8842L43.8797 35.6897L41.6935 37.2215Z" fill="#F56423"/>
<path d="M25.1832 37.2217L25.3232 41.996H23.1063L22.9839 38.8844L22.9926 35.6855L25.1832 37.2217Z" fill="#FA7C00"/>
<g opacity="0.4">
<path d="M24.152 16.5053C24.3794 7.33196 24.6942 0.702881 24.6942 0.702881C23.4743 0.912358 21.9352 1.28331 20.7983 1.64989C20.7983 1.64989 21.6029 6.65989 24.152 16.5053Z" fill="url(#paint12_linear_1102_123)"/>
</g>
<path d="M31.1958 37.2219H25.1836L25.2929 41.2805L31.1958 37.2219Z" fill="url(#paint13_linear_1102_123)"/>
<path d="M33.4257 27.9173L34.8774 20.1579L42.0788 25.3774L36.329 16.9895L42.9402 8.27442L34.8774 13.4939L33.4257 5.08862L31.9784 13.4939L23.9155 8.27442L30.5267 16.9895L24.7769 25.3774L31.9784 20.1579L33.4257 27.9173Z" fill="white"/>
<path d="M33.4301 27.9173L34.8774 20.1579L42.0788 25.3774L36.329 16.9895L42.9402 8.27442L34.8774 13.4939L33.4301 5.08862L31.9784 13.4939L23.9155 8.27442L30.5267 16.9895L24.7813 25.3774L31.9784 20.1579L33.4301 27.9173Z" fill="url(#paint14_linear_1102_123)"/>
<path d="M37.18 31.8798C37.5254 31.5089 38.1157 31.3169 38.8896 31.3169C45.7719 31.2776 46.7645 25.2813 47.2979 22.0562C47.2979 22.0562 50.4417 6.54185 50.4811 6.44147C50.6691 5.94397 51.0626 5.26753 52.1426 5.41154C52.9734 5.52065 53.5243 6.0487 53.5724 6.80369C53.5768 6.86916 51.2769 22.0126 51.2769 22.0126C51.2244 22.3399 51.4474 22.6454 51.7753 22.6978C51.8059 22.7021 51.8365 22.7065 51.8672 22.7065C52.1557 22.7065 52.4137 22.497 52.4574 22.2003L55.1596 4.84421C55.2996 4.19832 56.1478 3.727 57.0617 3.83174C57.923 3.94084 58.6095 4.54745 58.6576 5.24571C58.662 5.31117 58.6533 5.381 58.6489 5.45519L55.9554 22.9291C55.903 23.2564 56.126 23.5619 56.4539 23.6142C56.4845 23.6186 56.5151 23.623 56.5457 23.623C56.8343 23.623 57.0923 23.4135 57.136 23.1167L59.5146 7.70706C59.6852 7.01317 60.4853 6.55494 61.3729 6.66404C62.2387 6.77315 62.9252 7.37976 62.9689 8.07801C62.9733 8.14348 62.9645 8.20894 62.9602 8.27876L60.564 23.9241C60.5116 24.2514 60.7389 24.5569 61.0669 24.6049C61.0975 24.6092 61.1281 24.6136 61.1587 24.6136C61.4516 24.6136 61.7052 24.3998 61.7533 24.103C61.7533 24.103 63.5067 13.3935 63.5286 13.2713C63.686 12.4508 64.4643 11.9577 65.4175 12.0799C66.257 12.1846 67.0047 12.9658 66.9216 13.6597C66.7161 14.8642 63.6029 32.277 61.8233 42.0002H45.1641L45.1335 35.0918C45.1335 34.9304 45.0679 34.7776 44.9543 34.6685C44.8406 34.555 44.705 34.5027 44.5257 34.4983C44.5257 34.4983 40.6954 34.542 39.0033 34.5507C38.9902 34.5507 38.9727 34.5507 38.9596 34.5507C37.2543 34.5507 36.8695 33.979 36.8127 33.0625C36.7864 32.7221 36.8345 32.2464 37.18 31.8798Z" fill="#0099C6"/>
<path opacity="0.2" d="M37.18 31.8798C37.5254 31.5089 38.1157 31.3169 38.8896 31.3169C45.7719 31.2776 46.7645 25.2813 47.2979 22.0562C47.2979 22.0562 50.4417 6.54185 50.4811 6.44147C50.6691 5.94397 51.0626 5.26753 52.1426 5.41154C52.9734 5.52065 53.5243 6.0487 53.5724 6.80369C53.5768 6.86916 51.2769 22.0126 51.2769 22.0126C51.2244 22.3399 51.4474 22.6454 51.7753 22.6978C51.8059 22.7021 51.8365 22.7065 51.8672 22.7065C52.1557 22.7065 52.4137 22.497 52.4574 22.2003L55.1596 4.84421C55.2996 4.19832 56.1478 3.727 57.0617 3.83174C57.923 3.94084 58.6095 4.54745 58.6576 5.24571C58.662 5.31117 58.6533 5.381 58.6489 5.45519L55.9554 22.9291C55.903 23.2564 56.126 23.5619 56.4539 23.6142C56.4845 23.6186 56.5151 23.623 56.5457 23.623C56.8343 23.623 57.0923 23.4135 57.136 23.1167L59.5146 7.70706C59.6852 7.01317 60.4853 6.55494 61.3729 6.66404C62.2387 6.77315 62.9252 7.37976 62.9689 8.07801C62.9733 8.14348 62.9645 8.20894 62.9602 8.27876L60.564 23.9241C60.5116 24.2514 60.7389 24.5569 61.0669 24.6049C61.0975 24.6092 61.1281 24.6136 61.1587 24.6136C61.4516 24.6136 61.7052 24.3998 61.7533 24.103C61.7533 24.103 63.5067 13.3935 63.5286 13.2713C63.686 12.4508 64.4643 11.9577 65.4175 12.0799C66.257 12.1846 67.0047 12.9658 66.9216 13.6597C66.7161 14.8642 63.6029 32.277 61.8233 42.0002H45.1641L45.1335 35.0918C45.1335 34.9304 45.0679 34.7776 44.9543 34.6685C44.8406 34.555 44.705 34.5027 44.5257 34.4983C44.5257 34.4983 40.6954 34.542 39.0033 34.5507C38.9902 34.5507 38.9727 34.5507 38.9596 34.5507C37.2543 34.5507 36.8695 33.979 36.8127 33.0625C36.7864 32.7221 36.8345 32.2464 37.18 31.8798Z" fill="url(#paint15_radial_1102_123)"/>
<path opacity="0.77" d="M54.521 41.9958H61.823C63.6026 32.2725 66.7202 14.8597 66.9214 13.6552C67.0044 12.9614 66.2611 12.1802 65.4172 12.0754C65.4172 12.0754 62.8856 24.583 62.0417 29.0562C61.1978 33.5294 58.3076 36.4097 55.3693 37.8499L54.521 41.9958Z" fill="url(#paint16_linear_1102_123)"/>
<path d="M54.3301 38.9278C55.7774 34.8997 54.8723 31.02 51.9777 29.4053C50.1762 28.4016 48.0731 28.2227 46.1973 28.646L54.3301 38.9278Z" fill="url(#paint17_linear_1102_123)"/>
<path opacity="0.6" d="M55.9565 22.9291C55.8909 23.3612 56.2801 23.6885 56.6824 23.6056C56.4463 23.946 55.8079 24.186 55.4231 24.186C54.1638 24.186 53.8009 23.0077 53.9408 22.0912L57.0628 3.83179C57.9242 3.94089 58.6106 4.5475 58.6587 5.24576C58.6631 5.31122 58.6544 5.38105 58.65 5.45524L55.9565 22.9291Z" fill="url(#paint18_linear_1102_123)"/>
<path opacity="0.6" d="M51.8981 22.7022C51.6139 22.9728 51.1023 23.1648 50.77 23.1648C49.7119 23.1648 49.126 22.2483 49.2615 21.2751L52.1386 5.40723C52.9694 5.5076 53.5203 6.04439 53.5684 6.79938C53.5728 6.85175 51.8063 18.4734 51.2728 22.0083C51.2247 22.4142 51.5221 22.7153 51.8981 22.7022Z" fill="url(#paint19_linear_1102_123)"/>
<path opacity="0.6" d="M60.5737 23.9459C60.53 24.2426 60.788 24.631 61.2208 24.6048C60.7923 24.8623 60.5562 24.9671 60.0709 24.9671C59.0302 24.9671 58.7241 23.8979 58.7766 23.5705L61.3826 6.65527C62.2484 6.76438 62.9348 7.37099 62.9786 8.06924C62.9829 8.13471 62.9742 8.20017 62.9698 8.26563L60.5737 23.9459Z" fill="url(#paint20_linear_1102_123)"/>
<path d="M48.7365 14.8816C48.7146 14.982 47.2936 22.0562 47.2936 22.0562C46.8476 24.7488 46.078 29.3792 41.8236 30.8542C40.9884 31.1423 40.0177 31.3125 38.8896 31.3168C38.8896 31.3168 43.6076 31.7925 45.9949 29.4926C47.604 27.939 48.4042 24.9801 48.6141 22.2526C48.8064 19.7694 48.7365 14.8816 48.7365 14.8816Z" fill="url(#paint21_linear_1102_123)"/>
<path d="M112.483 38.1729C112.483 37.0121 111.731 36.3967 110.704 36.3967H108.99V41.7951H110.153V39.9491H110.358L111.386 41.7951H112.754L111.451 39.7615C112.317 39.408 112.483 38.845 112.483 38.1729ZM110.704 39.133H110.157V37.287H110.704C111.115 37.287 111.32 37.4921 111.32 38.1773C111.32 38.5831 111.115 39.133 110.704 39.133Z" fill="#F96600"/>
<path d="M106.048 39.5432H107.758V38.5831H106.048V37.3525H107.963V36.3967H104.951V41.7951H108.033V40.8394H106.048V39.5432Z" fill="#F96600"/>
<path d="M78.579 41.7689V38.3649H79.5103V37.623H76.7163V38.3649H77.7089V41.7689H78.579Z" fill="#F96600"/>
<path d="M118.097 41.7951H121.044V40.8394H119.264V39.5432H120.768V38.5831H119.264V37.287H121.044V36.3967H118.097V41.7951Z" fill="#F96600"/>
<path d="M115.155 36.3269C113.787 36.3269 113.1 37.2172 113.1 39.0588C113.1 40.9747 113.717 41.8606 115.085 41.8606C116.454 41.8606 117.14 40.9703 117.14 39.0588C117.14 37.2172 116.524 36.3269 115.155 36.3269ZM115.085 40.8394C114.539 40.8394 114.263 40.2939 114.263 39.0632C114.263 37.8325 114.539 37.287 115.085 37.287C115.566 37.287 115.837 37.8325 115.837 39.0632C115.837 40.2939 115.566 40.8394 115.085 40.8394Z" fill="#F96600"/>
<path d="M124.193 38.653L123.782 38.4479C123.096 38.1075 122.96 37.9678 122.96 37.6274C122.96 37.287 123.236 37.1474 123.441 37.1474C123.782 37.1474 123.988 37.4223 123.988 38.0376H125.085C125.085 37.0819 124.674 36.3269 123.441 36.3269C122.619 36.3269 121.797 36.7371 121.797 37.7627C121.797 38.5133 122.208 38.9235 122.895 39.2683L123.306 39.4734C123.852 39.7484 124.128 40.0189 124.128 40.4292C124.128 40.7041 123.992 40.9747 123.581 40.9747C123.17 40.9747 122.895 40.6997 122.829 40.2241H121.731C121.731 41.2496 122.348 41.865 123.445 41.865C124.337 41.865 125.295 41.59 125.295 40.2939C125.291 39.8836 125.151 39.133 124.193 38.653Z" fill="#F96600"/>
<path d="M102.553 38.653H101.32V36.3967H100.157V41.7951H101.32V39.6087H102.553V41.7951H103.716V36.3967H102.553V38.653Z" fill="#F96600"/>
<path d="M87.2134 36.3967H86.0503V41.7951H87.2134V36.3967Z" fill="#F96600"/>
<path d="M81.6665 37.3525H82.8995V41.7951H84.067V37.3525H85.2301V36.3967H81.6665V37.3525Z" fill="#F96600"/>
<path d="M90.9834 39.1592L89.9558 36.3967H88.6528V41.7951H89.8159V40.2895C89.8159 40.0844 89.6804 38.4435 89.6804 38.3737H89.746L90.7735 40.835H91.1845L92.282 38.3737H92.352C92.2164 39.1941 92.2164 40.0146 92.2164 40.2895V41.7951H93.3795V36.3967H92.0765L90.9834 39.1592Z" fill="#F96600"/>
<path d="M76.4057 39.6653C76.4057 38.1771 75.9073 37.4963 74.8535 37.4963C73.7997 37.4963 73.3013 38.1771 73.3013 39.6653C73.3013 41.1535 73.7997 41.8343 74.8535 41.8343C75.9116 41.8343 76.4057 41.1491 76.4057 39.6653ZM74.237 39.6653C74.237 38.6746 74.425 38.2426 74.8579 38.2426C75.2907 38.2426 75.4788 38.6746 75.4788 39.6653C75.4788 40.656 75.2907 41.088 74.8579 41.088C74.4206 41.088 74.237 40.656 74.237 39.6653Z" fill="#F96600"/>
<path d="M94.6094 41.7951H97.622V40.8394H95.7768V39.5432H97.4209V38.5831H95.7768V37.287H97.622V36.3967H94.6094V41.7951Z" fill="#F96600"/>
<path d="M86.5019 19.822C83.4324 19.822 82.5229 21.7728 82.383 25.9143L84.9278 25.9841C85.1377 21.9081 85.7323 21.5284 86.2177 21.5284C86.9872 21.5284 87.1578 22.3314 87.1578 24.4523V25.9841V27.0228C82.8902 27.1014 82.1338 29.6282 82.1338 31.2429C82.1338 33.2984 83.3537 34.516 84.7835 34.516C85.8198 34.516 86.7074 33.8657 87.1928 32.8096L87.2977 34.3065H89.602L89.7069 23.9286C89.7463 21.1094 89.0511 19.822 86.5019 19.822ZM85.5268 32.7398C85.0371 32.7398 84.5518 32.2161 84.5518 30.9636C84.5518 29.602 85.1639 28.7597 87.114 28.6724L87.1009 29.0827C87.0266 30.7541 86.5019 32.7398 85.5268 32.7398Z" fill="#0099C6"/>
<path d="M147.065 28.1793C147.1 28.9124 147.1 28.4935 147.1 29.2921C147.1 31.3476 146.785 32.4255 146.02 32.4255C145.285 32.4255 144.59 31.5571 144.59 27.6556V26.8875L149.369 26.7478C149.369 21.908 148.704 19.8875 146.089 19.8875C143.61 19.8875 142.146 21.7335 142.146 27.1319C142.146 33.294 144.065 34.5159 145.95 34.5159C148.254 34.5159 149.404 32.7397 149.404 28.2491L147.065 28.1793ZM145.945 21.7684C146.61 21.7684 146.785 22.6368 146.92 25.1113L144.686 25.1811C144.9 22.6412 145.285 21.7684 145.945 21.7684Z" fill="#0099C6"/>
<path d="M86.7158 12.0582C85.7932 9.73646 85.4084 6.84742 85.3516 3.45215L82.7368 3.52197C83.0079 8.12611 83.4495 11.9752 85.7538 14.9341C85.3559 15.999 84.9362 16.9678 84.5164 17.797L86.9257 18.3207C88.7053 14.2097 90.4849 9.12549 91.1801 3.52197L88.5653 3.45215C88.1806 6.38483 87.5159 9.38733 86.7158 12.0582Z" fill="#0099C6"/>
<path d="M119.265 18.0108C120.337 18.0108 121.216 17.3169 121.666 16.1997L121.775 17.8013H124.08L124.184 7.42349C124.219 4.60428 123.52 3.3125 120.975 3.3125C117.976 3.3125 117.101 5.26326 116.961 9.40479L119.506 9.47462C119.716 5.39854 120.24 5.01887 120.726 5.01887C121.46 5.01887 121.631 5.85677 121.631 7.94282V9.47462V10.5133C117.363 10.5918 116.607 13.1186 116.607 14.7334C116.611 16.7889 117.836 18.0108 119.265 18.0108ZM121.535 12.1673L121.53 12.2284C121.425 13.8998 121.076 16.2346 119.996 16.2346C119.506 16.2346 119.021 15.7109 119.021 14.4584C119.021 13.1056 119.624 12.2676 121.535 12.1673Z" fill="#0099C6"/>
<path d="M111.451 17.8013H114.066L114.381 5.54256L116.646 5.61238L116.855 3.52197L109.776 3.45215V5.54256H111.831L111.451 17.8013Z" fill="#0099C6"/>
<path d="M76.2088 11.5694L77.49 11.4516L79.803 17.7359L82.6976 17.5264L79.5844 9.94597C81.0929 8.33998 81.9718 5.45967 82.033 3.52637L79.4182 3.45654C79.3483 5.09308 78.7536 7.84247 77.3938 9.51392L76.2088 9.58375L76.2788 3.38672L73.7296 3.52637L73.6597 17.8057H76.1389L76.2088 11.5694Z" fill="#0099C6"/>
<path d="M78.4787 25.7046H76.0738L76.0039 19.8916L73.3848 20.0313V34.4459L75.864 34.2713L76.0738 27.6553H78.4787V34.4459L80.888 34.2713L81.1634 19.8916L78.4787 19.9614V25.7046Z" fill="#0099C6"/>
<path d="M96.8646 17.8013H99.4837L100.144 3.52197H92.1904V17.8013H94.7352V5.54255L97.3194 5.57747L96.8646 17.8013Z" fill="#0099C6"/>
<path d="M95.4363 34.3414H97.9505L97.8106 22.2572L100.565 22.3619L100.705 19.9617L95.2964 20.0315L95.4363 34.3414Z" fill="#0099C6"/>
<path d="M109.568 19.7871L109.498 34.3414H111.872L111.863 31.125C114.919 30.4617 116.231 28.4411 116.231 24.9062C116.231 20.5857 114.277 19.5776 109.568 19.7871ZM111.854 29.1524L111.832 21.5982C113.192 21.5283 113.822 23.1998 113.822 25.4298C113.822 27.2628 113.367 28.8993 111.854 29.1524Z" fill="#0099C6"/>
<path d="M121.32 19.717C118.705 19.717 117.306 21.982 117.201 27.2757C117.131 31.6267 117.971 34.6947 120.97 34.6947C123.45 34.6947 124.984 32.6392 125.089 27.0356C125.159 23.025 124.46 19.717 121.32 19.717ZM122.4 27.1317C122.295 31.7969 121.77 32.5301 121.04 32.5301C120.236 32.5301 119.82 31.5918 119.89 27.6554C119.96 22.9901 120.625 21.7682 121.355 21.8031C122.155 21.8729 122.47 23.4091 122.4 27.1317Z" fill="#0099C6"/>
<path d="M131.684 27.865C131.544 31.3127 130.844 32.4255 130.079 32.4255C129.24 32.4255 129.069 31.1381 129.139 28.4891L129.349 19.9573H126.734L126.594 29.4972C126.524 33.1543 127.744 34.5116 129.349 34.5116C130.582 34.5116 131.391 33.6911 131.819 32.3382L131.968 34.337H133.992L134.587 19.9573H132.007L131.684 27.865Z" fill="#0099C6"/>
<path d="M107.962 26.752C107.892 22.0518 107.332 19.8916 104.682 19.8916C102.203 19.8916 100.773 21.7376 100.773 27.136C100.773 33.2981 102.658 34.5201 104.543 34.5201C106.777 34.5201 107.962 32.7788 107.962 28.2532L105.623 28.1834C105.658 28.6373 105.658 29.0868 105.658 29.4708C105.658 31.4565 105.273 32.4297 104.577 32.4297C103.843 32.4297 103.183 31.4914 103.183 27.6597V26.8916L107.962 26.752ZM104.577 21.7682C105.172 21.7682 105.417 22.6366 105.483 25.1111L103.248 25.1809C103.458 22.641 103.913 21.7682 104.577 21.7682Z" fill="#0099C6"/>
<path d="M135.276 19.9617V22.0477H137.366L137.021 34.3414H139.636L139.986 22.0477L142.255 22.1175L142.425 20.0315L135.276 19.9617Z" fill="#0099C6"/>
<path d="M105.694 3.3125C102.624 3.3125 101.715 5.26326 101.575 9.40479L104.124 9.47462C104.334 5.39854 104.929 5.01887 105.414 5.01887C106.184 5.01887 106.354 5.82186 106.354 7.94282V9.47462V10.5133C102.087 10.5918 101.33 13.1186 101.33 14.7334C101.33 16.7889 102.55 18.0064 103.98 18.0064C105.051 18.0064 105.93 17.3126 106.38 16.1953L106.49 17.797H108.794L108.899 7.41912C108.938 4.60428 108.239 3.3125 105.694 3.3125ZM104.719 16.2346C104.229 16.2346 103.744 15.7109 103.744 14.4584C103.744 13.1056 104.347 12.2676 106.258 12.1673L106.253 12.2284C106.149 13.8998 105.799 16.2346 104.719 16.2346Z" fill="#0099C6"/>
<defs>
<radialGradient id="paint0_radial_1102_123" cx="0" cy="0" r="1" gradientUnits="userSpaceOnUse" gradientTransform="translate(23.769 24.5017) scale(20.0685 20.0301)">
<stop offset="0.1339" stop-color="#FFF44F" stop-opacity="0.84"/>
<stop offset="0.3042" stop-color="#FFF44F" stop-opacity="0.634"/>
<stop offset="0.5175" stop-color="#FFF44F" stop-opacity="0.217"/>
<stop offset="0.669" stop-color="#FFF44F" stop-opacity="0"/>
</radialGradient>
<linearGradient id="paint1_linear_1102_123" x1="2.39782" y1="27.8551" x2="9.47343" y2="26.5747" gradientUnits="userSpaceOnUse">
<stop stop-color="#032392"/>
<stop offset="0.3496" stop-color="#015DD0" stop-opacity="0.3"/>
<stop offset="1" stop-color="#015FD2" stop-opacity="0"/>
</linearGradient>
<linearGradient id="paint2_linear_1102_123" x1="13.0338" y1="30.731" x2="16.5281" y2="33.6794" gradientUnits="userSpaceOnUse">
<stop stop-color="#032392" stop-opacity="0.4"/>
<stop offset="0.3292" stop-color="#0233A3" stop-opacity="0.2683"/>
<stop offset="0.9827" stop-color="#015ED1" stop-opacity="0.01"/>
<stop offset="1" stop-color="#015FD2" stop-opacity="0"/>
</linearGradient>
<linearGradient id="paint3_linear_1102_123" x1="8.27666" y1="14.0052" x2="13.0234" y2="14.0052" gradientUnits="userSpaceOnUse">
<stop stop-color="#032392"/>
<stop offset="0.3746" stop-color="#0234A3" stop-opacity="0.6254"/>
<stop offset="1" stop-color="#0157C9" stop-opacity="0"/>
</linearGradient>
<linearGradient id="paint4_linear_1102_123" x1="13.3659" y1="14.2882" x2="17.6908" y2="14.2882" gradientUnits="userSpaceOnUse">
<stop stop-color="#032392"/>
<stop offset="0.3746" stop-color="#0234A3" stop-opacity="0.6254"/>
<stop offset="1" stop-color="#0157C9" stop-opacity="0"/>
</linearGradient>
<linearGradient id="paint5_linear_1102_123" x1="3.95697" y1="15.8142" x2="8.16912" y2="15.8142" gradientUnits="userSpaceOnUse">
<stop stop-color="#032392"/>
<stop offset="0.3746" stop-color="#0234A3" stop-opacity="0.6254"/>
<stop offset="1" stop-color="#0157C9" stop-opacity="0"/>
</linearGradient>
<linearGradient id="paint6_linear_1102_123" x1="19.8491" y1="19.3973" x2="24.4595" y2="31.12" gradientUnits="userSpaceOnUse">
<stop stop-color="#8D69FF" stop-opacity="0"/>
<stop offset="0.0133" stop-color="#8B68FD" stop-opacity="0.01"/>
<stop offset="0.4884" stop-color="#4243C4" stop-opacity="0.1954"/>
<stop offset="0.8292" stop-color="#142CA0" stop-opacity="0.3317"/>
<stop offset="1" stop-color="#032392" stop-opacity="0.4"/>
</linearGradient>
<linearGradient id="paint7_linear_1102_123" x1="20.3548" y1="23.1796" x2="49.302" y2="19.2999" gradientUnits="userSpaceOnUse">
<stop offset="0.00348708" stop-color="#F73D00" stop-opacity="0.6"/>
<stop offset="0.0206" stop-color="#F74400" stop-opacity="0.5352"/>
<stop offset="0.0462" stop-color="#F85900" stop-opacity="0.4383"/>
<stop offset="0.077" stop-color="#FA7A00" stop-opacity="0.3217"/>
<stop offset="0.0827" stop-color="#FA8100" stop-opacity="0.3"/>
<stop offset="0.1922" stop-color="#FFDA00" stop-opacity="0"/>
<stop offset="0.9173" stop-color="#FFDA00" stop-opacity="0"/>
</linearGradient>
<linearGradient id="paint8_linear_1102_123" x1="33.3392" y1="-1.13329" x2="34.1715" y2="41.188" gradientUnits="userSpaceOnUse">
<stop offset="0.00348708" stop-color="#F73D00" stop-opacity="0"/>
<stop offset="0.0731" stop-color="#F74400" stop-opacity="0"/>
<stop offset="0.1774" stop-color="#F85900" stop-opacity="0"/>
<stop offset="0.3035" stop-color="#FA7A00" stop-opacity="0"/>
<stop offset="0.4451" stop-color="#FCA800" stop-opacity="0"/>
<stop offset="0.5776" stop-color="#FFDA00" stop-opacity="0"/>
<stop offset="1" stop-color="#FFDA00" stop-opacity="0.44"/>
</linearGradient>
<linearGradient id="paint9_linear_1102_123" x1="17.1521" y1="21.2807" x2="49.7025" y2="21.2807" gradientUnits="userSpaceOnUse">
<stop stop-color="#F7CB39"/>
<stop offset="0.1604" stop-color="#F6C938"/>
<stop offset="0.4705" stop-color="#FA8100"/>
<stop offset="0.9987" stop-color="#F56423"/>
</linearGradient>
<linearGradient id="paint10_linear_1102_123" x1="17.0307" y1="2.54173" x2="49.8252" y2="2.54173" gradientUnits="userSpaceOnUse">
<stop stop-color="#F56423"/>
<stop offset="0.5295" stop-color="#FA8100"/>
<stop offset="0.8285" stop-color="#FFB300"/>
<stop offset="0.8733" stop-color="#FEAD00"/>
<stop offset="0.9322" stop-color="#FD9D00"/>
<stop offset="0.9987" stop-color="#FA8200"/>
<stop offset="1" stop-color="#FA8100"/>
</linearGradient>
<linearGradient id="paint11_linear_1102_123" x1="41.6934" y1="39.6084" x2="25.1817" y2="39.6084" gradientUnits="userSpaceOnUse">
<stop stop-color="#FA8100"/>
<stop offset="1" stop-color="#FFDA00"/>
</linearGradient>
<linearGradient id="paint12_linear_1102_123" x1="20.798" y1="8.60305" x2="24.694" y2="8.60305" gradientUnits="userSpaceOnUse">
<stop stop-color="#FDFDFD"/>
<stop offset="1" stop-color="#F6F6F6"/>
</linearGradient>
<linearGradient id="paint13_linear_1102_123" x1="26.2302" y1="36.392" x2="28.2355" y2="39.2497" gradientUnits="userSpaceOnUse">
<stop stop-color="#FDFDFD" stop-opacity="0.4"/>
<stop offset="1" stop-color="#F6F6F6" stop-opacity="0"/>
</linearGradient>
<linearGradient id="paint14_linear_1102_123" x1="23.916" y1="16.5032" x2="42.9403" y2="16.5032" gradientUnits="userSpaceOnUse">
<stop offset="0.5195" stop-color="white"/>
<stop offset="0.561" stop-color="#FFF8F4" stop-opacity="0.9309"/>
<stop offset="0.6342" stop-color="#FEE5D6" stop-opacity="0.809"/>
<stop offset="0.7306" stop-color="#FDC5A6" stop-opacity="0.6485"/>
<stop offset="0.8465" stop-color="#FB9A63" stop-opacity="0.4556"/>
<stop offset="0.9775" stop-color="#F8640F" stop-opacity="0.2374"/>
<stop offset="1" stop-color="#F85A00" stop-opacity="0.2"/>
</linearGradient>
<radialGradient id="paint15_radial_1102_123" cx="0" cy="0" r="1" gradientUnits="userSpaceOnUse" gradientTransform="translate(43.1652 24.5017) rotate(180) scale(20.0685 20.0301)">
<stop offset="0.1339" stop-color="#FFF44F" stop-opacity="0.84"/>
<stop offset="0.3042" stop-color="#FFF44F" stop-opacity="0.634"/>
<stop offset="0.5175" stop-color="#FFF44F" stop-opacity="0.217"/>
<stop offset="0.669" stop-color="#FFF44F" stop-opacity="0"/>
</radialGradient>
<linearGradient id="paint16_linear_1102_123" x1="64.5357" y1="27.8549" x2="57.4601" y2="26.5744" gradientUnits="userSpaceOnUse">
<stop stop-color="#032392"/>
<stop offset="0.3496" stop-color="#015DD0" stop-opacity="0.3"/>
<stop offset="1" stop-color="#015FD2" stop-opacity="0"/>
</linearGradient>
<linearGradient id="paint17_linear_1102_123" x1="53.9024" y1="30.7308" x2="50.408" y2="33.6792" gradientUnits="userSpaceOnUse">
<stop stop-color="#032392" stop-opacity="0.4"/>
<stop offset="0.3292" stop-color="#0233A3" stop-opacity="0.2683"/>
<stop offset="0.9827" stop-color="#015ED1" stop-opacity="0.01"/>
<stop offset="1" stop-color="#015FD2" stop-opacity="0"/>
</linearGradient>
<linearGradient id="paint18_linear_1102_123" x1="58.6583" y1="14.005" x2="53.9115" y2="14.005" gradientUnits="userSpaceOnUse">
<stop stop-color="#032392"/>
<stop offset="0.3746" stop-color="#0234A3" stop-opacity="0.6254"/>
<stop offset="1" stop-color="#0157C9" stop-opacity="0"/>
</linearGradient>
<linearGradient id="paint19_linear_1102_123" x1="53.5684" y1="14.2882" x2="49.2435" y2="14.2882" gradientUnits="userSpaceOnUse">
<stop stop-color="#032392"/>
<stop offset="0.3746" stop-color="#0234A3" stop-opacity="0.6254"/>
<stop offset="1" stop-color="#0157C9" stop-opacity="0"/>
</linearGradient>
<linearGradient id="paint20_linear_1102_123" x1="62.9786" y1="15.8139" x2="58.7662" y2="15.8139" gradientUnits="userSpaceOnUse">
<stop stop-color="#032392"/>
<stop offset="0.3746" stop-color="#0234A3" stop-opacity="0.6254"/>
<stop offset="1" stop-color="#0157C9" stop-opacity="0"/>
</linearGradient>
<linearGradient id="paint21_linear_1102_123" x1="47.0858" y1="19.397" x2="42.4755" y2="31.1198" gradientUnits="userSpaceOnUse">
<stop stop-color="#8D69FF" stop-opacity="0"/>
<stop offset="0.0133" stop-color="#8B68FD" stop-opacity="0.01"/>
<stop offset="0.4884" stop-color="#4243C4" stop-opacity="0.1954"/>
<stop offset="0.8292" stop-color="#142CA0" stop-opacity="0.3317"/>
<stop offset="1" stop-color="#032392" stop-opacity="0.4"/>
</linearGradient>
</defs>
</svg>
