<svg width="232" height="64" viewBox="0 0 232 64" fill="none" xmlns="http://www.w3.org/2000/svg">
<path fill-rule="evenodd" clip-rule="evenodd" d="M30.7518 58H20.3904L19.823 53.184C26.907 52.005 28.3059 48.7122 27.9932 39.968C22.9718 38.578 20.8057 37.0583 18.0074 33.136C18.0074 33.136 9.72371 32.24 4.39038 25.968C-0.942958 19.696 0.0783179 8.72 0.0783179 8.72L12.4471 8.048V2L30.7518 2H31.9648L51.5392 2V8.048L63.9216 8.72C63.9216 8.72 64.944 19.696 59.6048 25.968C54.2656 32.24 45.9728 33.136 45.9728 33.136C43.1714 37.0583 41.0029 38.578 35.976 39.968C35.663 48.7122 37.0634 52.005 44.1552 53.184L43.5872 58H31.9648H30.7518ZM5.07124 13.872L12.7875 13.424L12.8197 13.9761C13.1083 18.9336 13.2743 21.7869 15.1705 26.976C7.45421 24.624 5.73753 20.1669 5.07124 13.872ZM58.9232 13.872L51.1984 13.424L51.1665 13.9694L51.1661 13.9761C50.8773 18.9336 50.7111 21.7869 48.8128 26.976C56.5376 24.624 58.2562 20.1669 58.9232 13.872ZM35.1518 15.845L32 10L28.8482 15.845L22 16.8754L26.9003 21.5182L25.8197 28L32 25.0244L38.1803 28L37.0997 21.5182L42 16.8754L35.1518 15.845Z" fill="#FEBD17"/>
<path d="M75.584 19H80.024V12.52H82.112L86.192 19H91.112L85.592 10.384L90.872 2.2H85.952L82.136 8.56H80.024V2.2H75.584V19ZM101.385 15.16L107.457 2.2H102.537L99.5133 9.856L95.8173 2.2H90.8973L97.4493 13.84L97.1853 14.416C96.8013 15.28 96.0573 15.568 95.0013 15.568C94.3533 15.568 93.6333 15.448 93.0573 15.232V18.904C93.9693 19.168 94.8813 19.36 95.7453 19.36C98.0253 19.36 99.8733 18.4 101.385 15.16ZM108.959 19H113.399V6.16H119.639V19H124.079V2.2H108.959V19ZM125.68 19H130.24L131.2 16.36H138.16L139.12 19H143.68L137.08 2.2H132.28L125.68 19ZM132.52 12.76L134.248 7.912C134.392 7.504 134.536 7.096 134.68 6.208C134.824 7.096 134.968 7.504 135.112 7.912L136.84 12.76H132.52ZM155.99 2.2H142.07V6.16H146.822V19H151.262V6.16H155.99V2.2ZM154.391 19H158.951L159.911 16.36H166.871L167.831 19H172.391L165.791 2.2H160.991L154.391 19ZM161.231 12.76L162.959 7.912C163.103 7.504 163.247 7.096 163.391 6.208C163.535 7.096 163.679 7.504 163.823 7.912L165.551 12.76H161.231ZM90.704 26.2H86.264V32.632H80.024V26.2H75.584V43H80.024V36.592H86.264V43H90.704V26.2ZM92.3053 43H96.8653L97.8253 40.36H104.785L105.745 43H110.305L103.705 26.2H98.9053L92.3053 43ZM99.1453 36.76L100.873 31.912C101.017 31.504 101.161 31.096 101.305 30.208C101.449 31.096 101.593 31.504 101.737 31.912L103.465 36.76H99.1453ZM116.904 43H121.344V30.16H129.024V26.2H116.904V43ZM142.969 26.2H130.873V43H143.113V39.16H135.313V36.424H142.249V32.608H135.313V30.04H142.969V26.2ZM152.334 26.2H145.686V43H150.126V37.72H152.334C156.486 37.696 159.654 36.376 159.654 31.96C159.654 27.544 156.486 26.2 152.334 26.2ZM155.094 31.96C155.094 33.472 153.894 33.88 152.55 33.88H150.126V30.04H152.55C153.894 30.04 155.094 30.448 155.094 31.96ZM160.924 34.6C160.924 39.28 163.924 43.36 169.924 43.36C175.924 43.36 178.924 39.28 178.924 34.6C178.924 29.92 175.924 25.84 169.924 25.84C163.924 25.84 160.924 29.92 160.924 34.6ZM174.364 34.6C174.364 37.288 172.828 39.28 169.924 39.28C167.02 39.28 165.484 37.288 165.484 34.6C165.484 31.912 167.02 29.92 169.924 29.92C172.828 29.92 174.364 31.912 174.364 34.6ZM191.92 43H196.36V26.2H192.16L185.584 35.848C185.656 35.056 185.68 34 185.68 33.064V26.2H181.24V43H185.44L192.016 33.376C191.944 34.168 191.92 35.224 191.92 36.136V43ZM212.17 26.2H198.25V30.16H203.002V43H207.442V30.16H212.17V26.2ZM226.172 26.2H214.076V43H226.316V39.16H218.516V36.424H225.452V32.608H218.516V30.04H226.172V26.2Z" fill="#1C1E21"/>
<path d="M74.378 57.64C74.378 60.02 76.142 61.21 78.158 61.21C80.174 61.21 81.938 60.02 81.938 57.64C81.938 55.26 80.174 54.07 78.158 54.07C76.142 54.07 74.378 55.26 74.378 57.64ZM79.488 57.64C79.488 58.396 79.138 59.11 78.158 59.11C77.178 59.11 76.828 58.396 76.828 57.64C76.828 56.884 77.178 56.17 78.158 56.17C79.138 56.17 79.488 56.884 79.488 57.64ZM84.9331 61H87.3131V56.24H89.2731V54.28H82.9731V56.24H84.9331V61ZM101.427 51.2H93.3073V53.51H96.0793V61H98.6693V53.51H101.427V51.2ZM105.452 52.012C105.452 51.102 104.822 50.71 104.094 50.71C103.38 50.71 102.736 51.102 102.736 52.012C102.736 52.936 103.38 53.328 104.094 53.328C104.822 53.328 105.452 52.936 105.452 52.012ZM102.904 61H105.284V54.28H102.904V61ZM107.291 61H109.671V56.688C109.979 56.296 110.413 56.1 110.791 56.1C111.211 56.1 111.561 56.366 111.561 56.898V61H113.941V56.688V56.534C114.235 56.24 114.599 56.1 114.921 56.1C115.341 56.1 115.691 56.366 115.691 56.898V61H118.071V56.688C118.071 55.694 117.609 54.07 115.593 54.07C114.711 54.07 113.997 54.49 113.451 54.994C113.087 54.476 112.471 54.07 111.463 54.07C110.497 54.07 109.741 54.574 109.391 54.994V54.28H107.291V61ZM119.656 57.64C119.656 59.95 121.434 61.21 123.646 61.21C124.71 61.21 125.508 61.056 126.138 60.832V59.068C125.578 59.278 124.962 59.39 124.206 59.39C123.24 59.39 122.33 59.096 122.064 58.354H126.46C126.936 56.31 126.068 54.07 123.184 54.07C121.714 54.07 119.656 55.008 119.656 57.64ZM124.29 56.926H122.036C122.036 56.226 122.582 55.792 123.24 55.792C124.192 55.792 124.36 56.604 124.29 56.926ZM137.143 51.2H134.553V54.952H130.913V51.2H128.323V61H130.913V57.262H134.553V61H137.143V51.2ZM138.85 57.64C138.85 59.95 140.628 61.21 142.84 61.21C143.904 61.21 144.702 61.056 145.332 60.832V59.068C144.772 59.278 144.156 59.39 143.4 59.39C142.434 59.39 141.524 59.096 141.258 58.354H145.654C146.13 56.31 145.262 54.07 142.378 54.07C140.908 54.07 138.85 55.008 138.85 57.64ZM143.484 56.926H141.23C141.23 56.226 141.776 55.792 142.434 55.792C143.386 55.792 143.554 56.604 143.484 56.926ZM149.516 55.19V54.28H147.416V61H149.796V57.178C150.216 56.534 151.21 56.24 152.148 56.45V54.14C150.832 54 149.978 54.518 149.516 55.19ZM153.191 57.64C153.191 60.02 154.955 61.21 156.971 61.21C158.987 61.21 160.751 60.02 160.751 57.64C160.751 55.26 158.987 54.07 156.971 54.07C154.955 54.07 153.191 55.26 153.191 57.64ZM158.301 57.64C158.301 58.396 157.951 59.11 156.971 59.11C155.991 59.11 155.641 58.396 155.641 57.64C155.641 56.884 155.991 56.17 156.971 56.17C157.951 56.17 158.301 56.884 158.301 57.64ZM162.063 57.64C162.063 59.95 163.841 61.21 166.053 61.21C167.117 61.21 167.915 61.056 168.545 60.832V59.068C167.985 59.278 167.369 59.39 166.613 59.39C165.647 59.39 164.737 59.096 164.471 58.354H168.867C169.343 56.31 168.475 54.07 165.591 54.07C164.121 54.07 162.063 55.008 162.063 57.64ZM166.697 56.926H164.443C164.443 56.226 164.989 55.792 165.647 55.792C166.599 55.792 166.767 56.604 166.697 56.926ZM170.391 56.212C170.391 58.634 173.919 58.2 173.919 59.082C173.919 59.32 173.625 59.418 173.037 59.418C172.239 59.418 171.203 59.194 170.461 58.704V60.594C171.175 61 172.113 61.21 173.163 61.21C174.857 61.21 176.369 60.72 176.369 59.04C176.369 56.548 172.841 57.094 172.841 56.156C172.841 55.876 173.191 55.82 173.485 55.82C174.269 55.82 175.263 56.128 175.851 56.534V54.644C175.137 54.308 174.297 54.07 173.317 54.07C171.819 54.07 170.391 54.574 170.391 56.212Z" fill="#AEA896"/>
</svg>
