<svg width="48" height="48" viewBox="0 0 48 48" fill="none" xmlns="http://www.w3.org/2000/svg">
<path fill-rule="evenodd" clip-rule="evenodd" d="M11 8C11 6.89543 11.8954 6 13 6H25.5V15.5V17.5H27.5H37V40C37 41.1046 36.1046 42 35 42H13C11.8954 42 11 41.1046 11 40V8ZM34.1716 13.5L29.5 8.82843V13.5H34.1716ZM13 2C9.68629 2 7 4.68629 7 8V40C7 43.3137 9.68629 46 13 46H35C38.3137 46 41 43.3137 41 40V15.5V14.6716L40.4142 14.0858L28.9142 2.58579L28.3284 2H27.5H13ZM17.0437 32C17.6461 32 18.1692 32.1067 18.6131 32.32C19.057 32.5267 19.3994 32.8267 19.6403 33.22C19.8813 33.6067 20.0018 34.0633 20.0018 34.59C20.0018 35.1167 19.8813 35.5733 19.6403 35.96C19.3994 36.3467 19.057 36.6467 18.6131 36.86C18.1692 37.0667 17.6461 37.17 17.0437 37.17H15.8833V39H14V32H17.0437ZM16.9296 35.61C17.3164 35.61 17.608 35.5233 17.8046 35.35C18.0012 35.17 18.0995 34.9167 18.0995 34.59C18.0995 34.2633 18.0012 34.01 17.8046 33.83C17.608 33.65 17.3164 33.56 16.9296 33.56H15.8833V35.61H16.9296ZM20.92 32H24.0683C24.7975 32 25.4443 32.1433 26.0087 32.43C26.573 32.7167 27.0106 33.1233 27.3213 33.65C27.632 34.1767 27.7873 34.7933 27.7873 35.5C27.7873 36.2067 27.632 36.8233 27.3213 37.35C27.0106 37.8767 26.573 38.2833 26.0087 38.57C25.4443 38.8567 24.7975 39 24.0683 39H20.92V32ZM23.9922 37.42C24.5629 37.42 25.0195 37.25 25.3619 36.91C25.7107 36.57 25.885 36.1 25.885 35.5C25.885 34.9 25.7107 34.43 25.3619 34.09C25.0195 33.75 24.5629 33.58 23.9922 33.58H22.8033V37.42H23.9922ZM30.6615 35.07V33.53H34V32H28.7782V39H30.6615V36.6H33.6005V35.07H30.6615Z" fill="#FE5E17"/>
</svg>
