<svg width="496" height="340" viewBox="0 0 496 340" fill="none" xmlns="http://www.w3.org/2000/svg">
<mask id="mask0" mask-type="alpha" maskUnits="userSpaceOnUse" x="0" y="0" width="496" height="340">
<rect width="496" height="340" fill="#C4C4C4"/>
</mask>
<g mask="url(#mask0)">
<path d="M407.205 312.615H402.949L393.023 202.815H397.23L397.265 202.688L407.205 312.615Z" fill="url(#paint0_linear)"/>
<path d="M297.764 203.795L397.446 203.81L400.504 192.66H297.764V203.795Z" fill="url(#paint1_linear)"/>
<path d="M400.28 192.742H343.889L373.582 97.5234H429.973L400.28 192.742Z" fill="url(#paint2_linear)"/>
<path d="M263.718 138.918H209.078V144.867H263.718V138.918Z" fill="url(#paint3_linear)"/>
<path d="M209.077 138.881H146.576V144.865H209.077V138.881Z" fill="url(#paint4_linear)"/>
<path d="M221.138 138.882H146.575L122.693 92.7402H197.257L221.138 138.882Z" fill="url(#paint5_linear)"/>
<path d="M70.2419 312.413L66 312.411L66.041 144.059H291.888V148.3H70.2822L70.2419 312.413Z" fill="url(#paint6_linear)"/>
<path d="M293.891 127.601C293.891 127.601 281.464 129.914 274.9 127.561C268.336 125.208 258.886 119.175 255.666 121.404C252.446 123.633 242.713 130.466 242.713 130.466C242.713 130.466 245.438 133.439 251.383 129.723C257.329 126.008 258.159 128.428 261.38 130.781C264.601 133.135 270.937 139.823 276.759 137.841C282.58 135.859 285.676 136.479 290.878 139.946C296.08 143.414 303.883 147.997 303.883 147.997L299.424 130.534L293.891 127.601Z" fill="url(#paint7_linear)"/>
<path d="M262.719 284.848H241.398C241.398 284.848 245.722 212.205 247.744 192.048C249.776 171.79 251.015 164.554 278.711 161.844C310.338 158.751 329.562 158.811 329.562 158.811L297.693 185.7C290.244 191.985 287.01 201.953 289.35 211.414L289.724 212.927C291.106 218.518 290.564 224.41 288.185 229.654L276.997 254.307C276.998 254.307 278.814 274.912 262.719 284.848Z" fill="url(#paint8_linear)"/>
<path d="M377.632 164.572C376.551 168.765 376.857 187.667 355.294 191.814C330.3 196.622 315.225 195.633 308 197.604C302.127 199.205 300.438 201.447 301.06 205.611C301.682 209.768 307.64 214.595 309.513 222.499C311.387 230.403 307.857 235.358 315.449 245.126C322.855 254.655 327.351 264.108 320.523 284.849L297.852 284.85C297.852 284.85 257.08 206.406 255.001 189.976C252.923 173.545 265.245 169.872 271.071 168.204C273.276 167.567 280.628 165.541 295.56 161.879C298.755 164.028 305.903 168.051 312.499 166.255C321.322 163.844 323.322 160.437 333.552 162.847C339.618 164.276 350.414 166.199 359.067 163.081C365.207 164.069 371.415 164.568 377.632 164.572Z" fill="#428DFC"/>
<path d="M341.854 98.8906C341.621 99.845 341.409 100.842 341.225 101.86C337.018 124.914 327.744 130.586 314.36 131.737C307.158 132.356 300.123 133.306 295.075 132.783L293.891 127.6C331.579 124.786 338.644 105.869 341.854 98.8906Z" fill="url(#paint9_linear)"/>
<path d="M288.843 133.005C288.843 133.005 270.884 132.386 264.32 130.033C257.756 127.679 247.599 122.353 244.379 124.583C241.159 126.812 230.012 136.473 230.012 136.473C230.012 136.473 232.736 139.446 238.682 135.73C244.628 132.014 244.751 130.899 247.972 133.253C251.193 135.606 260.357 142.294 266.178 140.313C272 138.331 275.096 138.95 280.298 142.418C285.5 145.886 293.303 150.469 293.303 150.469L288.843 133.005Z" fill="#FFBEB6"/>
<path d="M360.715 71.7463C357.087 73.781 353.83 76.418 351.086 79.5443L350.775 79.7846C350.374 75.6842 349.364 71.6671 347.777 67.865C351.114 67.6388 355.08 66.2602 359.647 62.8809C359.174 65.8777 359.544 68.9474 360.715 71.7463Z" fill="url(#paint10_linear)"/>
<path d="M362.25 54.9695C362.045 56.3834 360.256 59.0558 359.648 62.8805C344.835 75.3982 334.657 61.2969 334.657 61.2969C332.507 61.9261 329.884 59.9989 330.726 58.264C334.13 51.2479 333.639 50.2751 334.423 46.8322C334.628 45.9343 334.798 45.1213 334.939 44.4284C334.961 44.3365 334.982 44.2446 334.996 44.1598C335.109 43.5871 335.201 43.1135 335.265 42.76L335.385 42.0742C335.385 42.0742 343.26 49.759 352.692 48.7622C362.123 47.7724 362.625 52.3607 362.25 54.9695Z" fill="#FFBEB6"/>
<path opacity="0.71" d="M365.205 165.634C365.154 165.599 365.085 165.612 365.049 165.662C365.014 165.707 365.021 165.772 365.066 165.807C365.068 165.809 365.069 165.809 365.07 165.811C365.121 165.845 365.191 165.833 365.226 165.782C365.256 165.734 365.247 165.671 365.205 165.634ZM355.752 171.361C355.695 171.374 355.658 171.43 355.668 171.488C355.68 171.546 355.736 171.583 355.795 171.571C355.85 171.56 355.887 171.508 355.88 171.452C355.872 171.394 355.818 171.352 355.759 171.359C355.757 171.36 355.755 171.36 355.752 171.361ZM355.349 168.787C355.289 168.793 355.245 168.847 355.25 168.907C355.264 168.969 355.323 169.009 355.385 168.999C355.443 168.988 355.482 168.931 355.47 168.872C355.463 168.818 355.412 168.779 355.358 168.786C355.355 168.786 355.352 168.786 355.349 168.787ZM354.932 166.2C354.874 166.216 354.837 166.274 354.848 166.334C354.857 166.39 354.911 166.428 354.968 166.419C355.026 166.41 355.066 166.357 355.06 166.299C355.05 166.237 354.995 166.193 354.932 166.2ZM345.148 168.815C345.1 168.789 345.04 168.801 345.006 168.844C344.969 168.889 344.975 168.955 345.02 168.994C345.065 169.031 345.132 169.025 345.17 168.98C345.172 168.977 345.175 168.974 345.176 168.971C345.211 168.92 345.198 168.851 345.148 168.815ZM360.468 168.207C360.438 168.159 360.375 168.144 360.327 168.174C360.324 168.176 360.322 168.178 360.319 168.179C360.274 168.205 360.258 168.264 360.284 168.31C360.286 168.313 360.288 168.317 360.291 168.321C360.316 168.368 360.375 168.387 360.423 168.362C360.426 168.36 360.43 168.359 360.433 168.356C360.483 168.328 360.5 168.265 360.472 168.214C360.471 168.212 360.469 168.21 360.468 168.207ZM359.104 165.98C359.072 165.934 359.012 165.92 358.962 165.945C358.941 165.966 358.92 165.98 358.913 166.002V166.016C358.9 166.044 358.906 166.078 358.927 166.101C358.927 166.108 358.933 166.114 358.941 166.115H358.948C358.955 166.122 358.962 166.136 358.976 166.143C359.007 166.152 359.039 166.149 359.068 166.136C359.12 166.103 359.136 166.033 359.104 165.98ZM357.739 163.761C357.707 163.712 357.642 163.698 357.593 163.73C357.545 163.762 357.531 163.827 357.563 163.876C357.593 163.922 357.655 163.937 357.703 163.909C357.753 163.879 357.77 163.814 357.74 163.763C357.74 163.762 357.74 163.761 357.739 163.761ZM350.556 169.805C350.496 169.795 350.438 169.831 350.422 169.89C350.406 169.948 350.44 170.008 350.497 170.024C350.555 170.041 350.616 170.007 350.632 169.949C350.633 169.946 350.633 169.942 350.634 169.94C350.642 169.882 350.611 169.826 350.556 169.805ZM351.164 167.274C351.106 167.26 351.047 167.295 351.03 167.352C351.019 167.412 351.059 167.469 351.118 167.48C351.171 167.49 351.224 167.459 351.242 167.409C351.255 167.351 351.221 167.293 351.164 167.274ZM369.503 175.27C369.435 175.178 369.307 175.156 369.213 175.221C369.123 175.289 369.106 175.418 369.174 175.508C369.24 175.595 369.363 175.615 369.454 175.553C369.545 175.493 369.57 175.37 369.509 175.279C369.507 175.276 369.505 175.273 369.503 175.27ZM366.64 171.233C366.575 171.142 366.449 171.12 366.357 171.184C366.264 171.244 366.238 171.368 366.298 171.46C366.301 171.465 366.304 171.469 366.308 171.474C366.372 171.566 366.498 171.587 366.59 171.523C366.682 171.455 366.703 171.327 366.64 171.233ZM363.777 167.203C363.709 167.112 363.581 167.09 363.487 167.154C363.396 167.215 363.371 167.338 363.432 167.429C363.433 167.432 363.435 167.434 363.437 167.437C363.502 167.53 363.631 167.552 363.724 167.487C363.816 167.423 363.84 167.297 363.777 167.203ZM351.935 183.867C351.824 183.849 351.719 183.921 351.694 184.03C351.676 184.14 351.75 184.244 351.861 184.262C351.862 184.262 351.863 184.262 351.864 184.263C351.977 184.283 352.085 184.207 352.104 184.094C352.104 184.094 352.104 184.094 352.104 184.093C352.123 183.987 352.052 183.887 351.946 183.868C351.943 183.868 351.938 183.868 351.935 183.867ZM352.762 178.982C352.652 178.963 352.548 179.036 352.529 179.146C352.529 179.148 352.529 179.15 352.529 179.152C352.509 179.263 352.581 179.37 352.691 179.392C352.804 179.409 352.91 179.334 352.932 179.223C352.945 179.11 352.872 179.006 352.762 178.982ZM353.589 174.104C353.477 174.09 353.373 174.164 353.349 174.273C353.331 174.385 353.407 174.49 353.519 174.507C353.628 174.524 353.73 174.452 353.752 174.345C353.774 174.235 353.704 174.128 353.593 174.105C353.592 174.104 353.591 174.104 353.589 174.104ZM354.409 169.225C354.3 169.214 354.199 169.288 354.176 169.395C354.156 169.508 354.231 169.616 354.344 169.636C354.457 169.656 354.565 169.581 354.585 169.468C354.606 169.355 354.53 169.247 354.417 169.227C354.414 169.226 354.412 169.226 354.409 169.225ZM355.243 164.347C355.133 164.329 355.029 164.403 355.011 164.513C355.011 164.515 355.011 164.516 355.01 164.517C354.986 164.624 355.054 164.731 355.161 164.755C355.165 164.756 355.169 164.757 355.173 164.757C355.28 164.778 355.383 164.708 355.404 164.6C355.405 164.596 355.405 164.592 355.406 164.588C355.426 164.477 355.354 164.371 355.243 164.347ZM373.597 167.522C373.502 167.459 373.375 167.484 373.312 167.578C373.249 167.672 373.275 167.799 373.369 167.862C373.372 167.865 373.375 167.866 373.377 167.868C373.473 167.925 373.597 167.897 373.66 167.804C373.722 167.714 373.698 167.591 373.609 167.529C373.604 167.527 373.601 167.524 373.597 167.522ZM362.292 181.216C362.182 181.239 362.113 181.347 362.136 181.456C362.16 181.566 362.267 181.635 362.377 181.612C362.49 181.588 362.563 181.477 362.539 181.364C362.51 181.256 362.401 181.191 362.292 181.216ZM361.189 176.394C361.084 176.412 361.012 176.512 361.03 176.617C361.031 176.623 361.032 176.629 361.034 176.635C361.057 176.743 361.164 176.813 361.273 176.79C361.273 176.79 361.273 176.79 361.274 176.79C361.387 176.766 361.46 176.656 361.437 176.543C361.41 176.434 361.301 176.367 361.193 176.393C361.191 176.393 361.191 176.394 361.189 176.394ZM360.079 171.566C359.97 171.593 359.904 171.703 359.931 171.813C359.954 171.922 360.061 171.992 360.17 171.969C360.17 171.969 360.17 171.969 360.171 171.969C360.283 171.943 360.355 171.833 360.334 171.721C360.304 171.61 360.192 171.542 360.079 171.566ZM358.976 166.744C358.867 166.77 358.801 166.88 358.827 166.988C358.827 166.989 358.828 166.99 358.828 166.991C358.848 167.095 358.949 167.164 359.053 167.143C359.058 167.143 359.063 167.141 359.068 167.14C359.175 167.12 359.246 167.018 359.226 166.911C359.225 166.907 359.224 166.903 359.224 166.899C359.196 166.79 359.087 166.721 358.976 166.744ZM343.748 178.232C343.662 178.173 343.545 178.194 343.486 178.28C343.481 178.287 343.476 178.295 343.472 178.303C343.414 178.396 343.44 178.519 343.533 178.577C343.534 178.578 343.534 178.579 343.536 178.579C343.629 178.64 343.753 178.615 343.814 178.522C343.816 178.52 343.817 178.517 343.819 178.515C343.877 178.418 343.845 178.292 343.748 178.232ZM346.385 174.047C346.295 173.986 346.172 174.009 346.109 174.099C346.106 174.103 346.104 174.107 346.102 174.111C346.041 174.205 346.065 174.331 346.159 174.393C346.26 174.444 346.382 174.414 346.449 174.323C346.504 174.229 346.476 174.107 346.385 174.047ZM349.015 169.855C348.922 169.792 348.796 169.816 348.734 169.908C348.733 169.909 348.732 169.91 348.732 169.911C348.669 170.006 348.695 170.134 348.789 170.197C348.792 170.198 348.794 170.2 348.796 170.201C348.886 170.26 349.008 170.235 349.067 170.145C349.069 170.142 349.07 170.14 349.072 170.137C349.134 170.044 349.109 169.918 349.015 169.855ZM351.638 165.662C351.544 165.605 351.422 165.635 351.364 165.729C351.364 165.731 351.363 165.732 351.362 165.733C351.302 165.82 351.324 165.939 351.411 166C351.416 166.003 351.421 166.006 351.426 166.009C351.522 166.065 351.646 166.037 351.709 165.945C351.768 165.852 351.741 165.728 351.648 165.669C351.645 165.667 351.641 165.664 351.638 165.662ZM366.965 180.063C366.876 180.086 366.822 180.176 366.844 180.266C366.846 180.274 366.849 180.282 366.852 180.29C366.88 180.382 366.976 180.434 367.068 180.406C367.072 180.406 367.075 180.404 367.078 180.403C367.171 180.371 367.222 180.27 367.191 180.176C367.165 180.085 367.07 180.033 366.98 180.058C366.974 180.06 366.97 180.061 366.965 180.063ZM365.572 175.864C365.479 175.892 365.427 175.99 365.454 176.083C365.456 176.088 365.457 176.092 365.459 176.097C365.491 176.191 365.59 176.244 365.685 176.217C365.782 176.183 365.832 176.076 365.797 175.98C365.764 175.888 365.666 175.838 365.572 175.864ZM364.413 171.785C364.408 171.749 364.387 171.718 364.356 171.7H364.349C364.301 171.662 364.238 171.651 364.18 171.672C364.083 171.706 364.031 171.812 364.065 171.908C364.066 171.91 364.066 171.911 364.066 171.912C364.099 172.005 364.199 172.054 364.293 172.025C364.339 172.013 364.376 171.978 364.392 171.933C364.428 171.892 364.436 171.834 364.413 171.785ZM362.794 167.479C362.694 167.512 362.641 167.62 362.674 167.72C362.711 167.811 362.812 167.86 362.907 167.833C363 167.804 363.053 167.706 363.025 167.614C363.024 167.609 363.022 167.604 363.02 167.599C362.99 167.505 362.889 167.451 362.794 167.479ZM348.57 178.72C348.478 178.676 348.367 178.714 348.322 178.805C348.275 178.895 348.31 179.006 348.4 179.052C348.494 179.094 348.604 179.057 348.654 178.968C348.688 178.876 348.652 178.772 348.57 178.72ZM350.549 174.775C350.457 174.731 350.347 174.769 350.302 174.86C350.256 174.946 350.288 175.052 350.374 175.098C350.376 175.098 350.377 175.1 350.379 175.1C350.461 175.147 350.565 175.119 350.612 175.038C350.615 175.033 350.618 175.028 350.62 175.023C350.669 174.937 350.64 174.828 350.555 174.778C350.553 174.777 350.551 174.776 350.549 174.775ZM352.529 170.83C352.437 170.786 352.326 170.824 352.281 170.915C352.235 170.996 352.262 171.1 352.343 171.148C352.348 171.151 352.353 171.153 352.359 171.156C352.451 171.199 352.561 171.162 352.606 171.071C352.65 170.983 352.616 170.876 352.529 170.83ZM354.501 166.878C354.409 166.845 354.306 166.88 354.254 166.963C354.21 167.055 354.247 167.165 354.339 167.211C354.428 167.254 354.536 167.22 354.586 167.133C354.628 167.039 354.591 166.928 354.501 166.878ZM371.391 170.314C371.329 170.239 371.218 170.227 371.143 170.288C371.138 170.292 371.133 170.296 371.129 170.3C371.056 170.354 371.04 170.458 371.095 170.532C371.099 170.538 371.104 170.543 371.108 170.547C371.163 170.623 371.269 170.639 371.345 170.584C371.351 170.579 371.357 170.574 371.362 170.569C371.44 170.506 371.453 170.393 371.391 170.314ZM368.499 166.97C368.429 166.899 368.315 166.893 368.238 166.956C368.163 167.025 368.156 167.141 368.224 167.218C368.289 167.289 368.398 167.295 368.471 167.232C368.551 167.17 368.566 167.056 368.504 166.977C368.503 166.974 368.501 166.972 368.499 166.97ZM358.156 179.038C358.054 179.036 357.967 179.113 357.958 179.215C357.955 179.317 358.034 179.402 358.136 179.406C358.233 179.409 358.315 179.339 358.326 179.243C358.333 179.141 358.258 179.051 358.156 179.038ZM358.474 174.641C358.375 174.635 358.29 174.711 358.283 174.811C358.278 174.91 358.353 174.996 358.453 175.002C358.55 175.008 358.635 174.936 358.644 174.839C358.65 174.738 358.575 174.651 358.474 174.641ZM358.792 170.243C358.701 170.231 358.616 170.294 358.603 170.386C358.602 170.393 358.602 170.4 358.602 170.406C358.596 170.506 358.672 170.591 358.771 170.597C358.869 170.605 358.954 170.533 358.962 170.435C358.97 170.338 358.898 170.252 358.8 170.244C358.797 170.244 358.795 170.243 358.792 170.243ZM359.111 165.839C359.011 165.83 358.923 165.903 358.913 166.002V166.016C358.915 166.05 358.924 166.084 358.941 166.115H358.948C358.955 166.122 358.962 166.136 358.976 166.143C359.007 166.174 359.046 166.194 359.089 166.2C359.189 166.205 359.274 166.128 359.28 166.029C359.285 165.93 359.21 165.845 359.111 165.839ZM343.119 171.657C343.05 171.584 342.937 171.575 342.857 171.636C342.782 171.706 342.777 171.821 342.843 171.898C342.907 171.974 343.02 171.984 343.096 171.92C343.097 171.92 343.097 171.92 343.098 171.919C343.174 171.852 343.183 171.736 343.119 171.657ZM346.456 168.766C346.388 168.695 346.277 168.689 346.201 168.752C346.123 168.809 346.107 168.919 346.164 168.996C346.167 168.999 346.17 169.003 346.173 169.006C346.24 169.083 346.356 169.092 346.435 169.027C346.512 168.965 346.524 168.85 346.461 168.772C346.459 168.77 346.458 168.768 346.456 168.766ZM369.425 169.551C369.392 169.504 369.33 169.486 369.277 169.508C369.225 169.537 369.205 169.604 369.234 169.656V169.657C369.258 169.706 369.317 169.727 369.367 169.704C369.369 169.703 369.373 169.701 369.376 169.699C369.43 169.672 369.452 169.605 369.425 169.551ZM368.146 167.288C368.115 167.238 368.05 167.22 367.997 167.246C367.944 167.275 367.926 167.341 367.955 167.394C367.984 167.447 368.05 167.466 368.103 167.437C368.153 167.406 368.171 167.341 368.146 167.288ZM358.467 170.823C358.413 170.807 358.357 170.837 358.341 170.89C358.341 170.892 358.34 170.892 358.34 170.894C358.323 170.95 358.355 171.01 358.411 171.028C358.469 171.042 358.528 171.008 358.545 170.95C358.558 170.894 358.524 170.837 358.467 170.823ZM359.167 168.313C359.117 168.295 359.062 168.321 359.043 168.371C359.042 168.375 359.041 168.379 359.04 168.384C359.021 168.438 359.049 168.497 359.103 168.516C359.106 168.517 359.108 168.518 359.111 168.518C359.169 168.532 359.228 168.502 359.252 168.448C359.266 168.388 359.229 168.328 359.169 168.313C359.168 168.313 359.168 168.313 359.167 168.313ZM359.874 165.804C359.818 165.787 359.757 165.82 359.741 165.877C359.74 165.878 359.741 165.88 359.74 165.881C359.726 165.938 359.761 165.995 359.818 166.009C359.871 166.025 359.928 165.995 359.944 165.942C359.944 165.94 359.945 165.939 359.945 165.938C359.962 165.881 359.93 165.822 359.874 165.804ZM363.939 169.833C363.885 169.836 363.842 169.882 363.845 169.937C363.845 169.942 363.846 169.948 363.847 169.954C363.859 170.009 363.91 170.049 363.968 170.046C364.025 170.036 364.066 169.983 364.059 169.925C364.053 169.868 364.001 169.826 363.943 169.833C363.942 169.833 363.941 169.833 363.939 169.833ZM363.621 167.246C363.565 167.246 363.529 167.302 363.529 167.366C363.541 167.422 363.592 167.462 363.649 167.458C363.711 167.451 363.755 167.395 363.749 167.334C363.749 167.333 363.749 167.331 363.749 167.331C363.74 167.273 363.686 167.235 363.629 167.245C363.626 167.245 363.623 167.245 363.621 167.246ZM354.395 167.246C354.354 167.21 354.292 167.214 354.256 167.255C354.252 167.259 354.249 167.263 354.247 167.267C354.211 167.314 354.221 167.38 354.268 167.416C354.314 167.451 354.381 167.441 354.416 167.394C354.452 167.348 354.442 167.281 354.395 167.246ZM356.007 165.203C355.967 165.167 355.904 165.17 355.868 165.211C355.865 165.215 355.861 165.219 355.858 165.224C355.823 165.263 355.825 165.323 355.864 165.358C355.867 165.361 355.87 165.363 355.873 165.365C355.92 165.404 355.989 165.397 356.028 165.351C356.064 165.307 356.056 165.242 356.011 165.206C356.01 165.205 356.008 165.203 356.007 165.203ZM370.5 172.421C370.438 172.437 370.401 172.501 370.418 172.563C370.419 172.567 370.421 172.572 370.422 172.577C370.446 172.639 370.513 172.673 370.578 172.654C370.642 172.629 370.677 172.558 370.655 172.492C370.632 172.429 370.563 172.398 370.501 172.421H370.5ZM369.538 169.607C369.473 169.628 369.436 169.696 369.454 169.763C369.48 169.826 369.55 169.86 369.616 169.841C369.677 169.821 369.71 169.756 369.691 169.696C369.69 169.693 369.688 169.689 369.687 169.685C369.669 169.623 369.604 169.588 369.543 169.606C369.541 169.607 369.54 169.607 369.538 169.607ZM368.57 166.793C368.504 166.816 368.469 166.887 368.491 166.953C368.491 166.954 368.492 166.955 368.492 166.956C368.492 166.963 368.492 166.963 368.499 166.97C368.53 167.021 368.59 167.047 368.648 167.034C368.711 167.008 368.745 166.937 368.725 166.871C368.704 166.807 368.634 166.773 368.57 166.793ZM358.107 171.65C358.042 171.626 357.97 171.653 357.937 171.714C357.908 171.775 357.933 171.847 357.994 171.877C358.048 171.908 358.117 171.889 358.149 171.835C358.152 171.83 358.154 171.825 358.156 171.82C358.189 171.759 358.167 171.684 358.107 171.65ZM359.408 168.978C359.345 168.957 359.276 168.984 359.245 169.042C359.213 169.099 359.234 169.171 359.291 169.202C359.292 169.203 359.293 169.204 359.294 169.204C359.353 169.238 359.428 169.218 359.462 169.159C359.463 169.158 359.463 169.156 359.464 169.155C359.492 169.09 359.468 169.015 359.408 168.978ZM360.715 166.313C360.652 166.287 360.58 166.311 360.546 166.369C360.52 166.43 360.544 166.501 360.602 166.532C360.657 166.563 360.726 166.545 360.758 166.49C360.761 166.485 360.763 166.48 360.765 166.475C360.797 166.419 360.778 166.349 360.722 166.316C360.72 166.315 360.718 166.314 360.715 166.313ZM375.173 167.96C375.129 167.908 375.051 167.901 374.998 167.944C374.998 167.945 374.997 167.945 374.996 167.946C374.946 167.992 374.94 168.069 374.982 168.123C375.028 168.173 375.107 168.177 375.158 168.131C375.158 168.13 375.159 168.13 375.159 168.13C375.208 168.086 375.215 168.011 375.173 167.96ZM364.356 171.7H364.349C364.284 171.702 364.231 171.754 364.229 171.82C364.222 171.883 364.268 171.94 364.332 171.947C364.335 171.947 364.339 171.947 364.342 171.947C364.36 171.949 364.378 171.944 364.392 171.933C364.44 171.928 364.475 171.883 364.469 171.834C364.477 171.768 364.429 171.708 364.363 171.701C364.361 171.7 364.358 171.7 364.356 171.7ZM364.54 168.731C364.472 168.725 364.411 168.775 364.406 168.843C364.4 168.911 364.45 168.972 364.518 168.977C364.521 168.977 364.523 168.978 364.526 168.978C364.592 168.982 364.649 168.933 364.653 168.867C364.653 168.866 364.653 168.866 364.653 168.865C364.66 168.798 364.613 168.738 364.546 168.731C364.544 168.731 364.542 168.731 364.54 168.731ZM364.724 165.768C364.663 165.76 364.607 165.802 364.598 165.863C364.597 165.869 364.597 165.875 364.597 165.881C364.59 165.948 364.637 166.008 364.703 166.015C364.706 166.015 364.708 166.016 364.71 166.016C364.778 166.017 364.834 165.963 364.837 165.896C364.844 165.833 364.798 165.775 364.735 165.769C364.731 165.768 364.728 165.768 364.724 165.768ZM354.176 166.829C354.133 166.782 354.059 166.779 354.013 166.822C354.01 166.825 354.008 166.827 354.006 166.829C353.956 166.872 353.95 166.948 353.992 166.998C354.037 167.052 354.116 167.058 354.169 167.013C354.222 166.969 354.228 166.89 354.184 166.837C354.181 166.834 354.179 166.832 354.176 166.829ZM356.403 164.863C356.358 164.813 356.28 164.808 356.23 164.854C356.228 164.854 356.228 164.856 356.226 164.856C356.179 164.899 356.177 164.972 356.22 165.02C356.222 165.022 356.224 165.024 356.226 165.026C356.261 165.074 356.329 165.085 356.377 165.05C356.382 165.047 356.385 165.044 356.389 165.04C356.441 164.996 356.449 164.919 356.405 164.866C356.404 164.865 356.404 164.864 356.403 164.863ZM365.869 184.758C365.754 184.744 365.65 184.827 365.637 184.942C365.637 184.944 365.636 184.946 365.636 184.949C365.628 185.063 365.712 185.163 365.827 185.175C365.943 185.184 366.046 185.1 366.06 184.984C366.071 184.869 365.986 184.768 365.872 184.758C365.871 184.758 365.87 184.758 365.869 184.758ZM366.279 179.675C366.166 179.664 366.064 179.747 366.053 179.861C366.053 179.863 366.053 179.864 366.053 179.865C366.048 179.981 366.135 180.081 366.251 180.092C366.366 180.102 366.467 180.016 366.477 179.901C366.486 179.786 366.401 179.684 366.286 179.675C366.284 179.675 366.281 179.675 366.279 179.675ZM366.703 174.591C366.589 174.578 366.484 174.661 366.472 174.775C366.458 174.89 366.54 174.994 366.655 175.007C366.66 175.008 366.664 175.008 366.668 175.009C366.786 175.02 366.889 174.934 366.901 174.818C366.904 174.702 366.818 174.604 366.703 174.591ZM367.121 169.508C367.005 169.503 366.905 169.59 366.894 169.706C366.887 169.821 366.971 169.921 367.085 169.932C367.203 169.94 367.304 169.852 367.312 169.734C367.32 169.62 367.235 169.52 367.121 169.508ZM346.922 175.016C346.85 174.928 346.721 174.915 346.633 174.988C346.63 174.99 346.628 174.992 346.625 174.994C346.538 175.06 346.521 175.184 346.586 175.271C346.589 175.276 346.593 175.28 346.597 175.284C346.675 175.373 346.808 175.385 346.901 175.312C346.985 175.235 346.994 175.105 346.922 175.016ZM350.811 171.721C350.739 171.631 350.608 171.617 350.518 171.689C350.428 171.761 350.414 171.892 350.486 171.982C350.488 171.985 350.49 171.987 350.493 171.99C350.569 172.076 350.698 172.088 350.789 172.018C350.876 171.942 350.886 171.809 350.811 171.721ZM354.699 168.419C354.624 168.33 354.492 168.318 354.402 168.391C354.317 168.47 354.305 168.601 354.374 168.695C354.45 168.782 354.582 168.791 354.671 168.716C354.761 168.646 354.775 168.516 354.705 168.427C354.703 168.424 354.701 168.422 354.699 168.419ZM358.587 165.125C358.517 165.035 358.387 165.02 358.298 165.09C358.295 165.092 358.293 165.095 358.29 165.097C358.205 165.176 358.192 165.307 358.262 165.401C358.339 165.488 358.471 165.497 358.559 165.422C358.649 165.351 358.664 165.222 358.594 165.133C358.592 165.13 358.59 165.127 358.587 165.125ZM373.024 171.516C372.912 171.549 372.848 171.666 372.88 171.778C372.913 171.891 373.031 171.954 373.143 171.922C373.145 171.921 373.148 171.92 373.151 171.919C373.263 171.887 373.327 171.769 373.295 171.657C373.262 171.544 373.144 171.481 373.032 171.513C373.029 171.514 373.027 171.515 373.024 171.516ZM371.596 166.666C371.554 166.657 371.51 166.657 371.469 166.666C371.356 166.702 371.294 166.822 371.327 166.935C371.369 167.047 371.493 167.103 371.605 167.061C371.71 167.022 371.768 166.909 371.737 166.801C371.715 166.735 371.662 166.685 371.596 166.666ZM356.841 179.795C356.736 179.744 356.609 179.788 356.558 179.894C356.508 179.996 356.546 180.119 356.643 180.176C356.749 180.225 356.874 180.185 356.933 180.085C356.988 179.981 356.949 179.851 356.845 179.796C356.843 179.796 356.843 179.795 356.841 179.795ZM359.174 175.263C359.073 175.211 358.949 175.25 358.896 175.351C358.894 175.355 358.893 175.358 358.891 175.362C358.838 175.46 358.875 175.583 358.973 175.636C358.974 175.637 358.976 175.637 358.976 175.638C359.08 175.693 359.21 175.653 359.265 175.549C359.265 175.548 359.266 175.547 359.266 175.546C359.321 175.448 359.285 175.324 359.187 175.269C359.183 175.267 359.178 175.265 359.174 175.263ZM361.5 170.724C361.396 170.678 361.275 170.722 361.224 170.823C361.171 170.924 361.21 171.049 361.311 171.103C361.313 171.104 361.314 171.105 361.316 171.106C361.415 171.158 361.536 171.12 361.589 171.022C361.59 171.019 361.591 171.017 361.592 171.014C361.647 170.91 361.608 170.781 361.503 170.726C361.502 170.725 361.501 170.725 361.5 170.724ZM363.833 166.193C363.728 166.144 363.603 166.188 363.55 166.292C363.502 166.398 363.55 166.522 363.655 166.57C363.754 166.615 363.871 166.577 363.925 166.482C363.98 166.378 363.941 166.249 363.837 166.194C363.835 166.194 363.835 166.193 363.833 166.193ZM375.392 168.681C375.283 168.72 375.223 168.839 375.258 168.95C375.305 169.055 375.423 169.11 375.534 169.077C375.642 169.037 375.697 168.917 375.657 168.809C375.656 168.806 375.654 168.804 375.654 168.801C375.616 168.697 375.501 168.642 375.396 168.68C375.395 168.68 375.394 168.68 375.392 168.681ZM359.45 182.121C359.34 182.076 359.215 182.126 359.167 182.234C359.124 182.339 359.171 182.46 359.273 182.51C359.374 182.558 359.496 182.515 359.545 182.414C359.546 182.411 359.547 182.407 359.549 182.403C359.6 182.298 359.555 182.172 359.45 182.121ZM361.578 177.511C361.468 177.466 361.343 177.516 361.295 177.624C361.25 177.732 361.301 177.857 361.409 177.902C361.515 177.947 361.637 177.899 361.684 177.794C361.729 177.687 361.682 177.563 361.578 177.511ZM363.706 172.909C363.603 172.86 363.48 172.903 363.431 173.006C363.431 173.006 363.43 173.007 363.43 173.008C363.379 173.112 363.422 173.238 363.526 173.289C363.631 173.34 363.757 173.297 363.808 173.193C363.859 173.089 363.816 172.963 363.712 172.912C363.71 172.911 363.708 172.909 363.706 172.909ZM365.834 168.299C365.733 168.25 365.61 168.292 365.561 168.393C365.56 168.395 365.559 168.397 365.558 168.398C365.512 168.504 365.559 168.627 365.664 168.674C365.76 168.726 365.879 168.69 365.931 168.595C365.934 168.588 365.937 168.582 365.94 168.575C365.987 168.471 365.941 168.348 365.837 168.301C365.837 168.301 365.835 168.3 365.834 168.299ZM370.486 176.847C370.37 176.845 370.273 176.936 370.267 177.052C370.267 177.169 370.363 177.264 370.48 177.264C370.589 177.263 370.68 177.181 370.691 177.073C370.695 176.954 370.604 176.854 370.486 176.847ZM370.698 171.771C370.579 171.766 370.479 171.858 370.472 171.976C370.47 172.089 370.557 172.185 370.67 172.195C370.785 172.2 370.882 172.112 370.889 171.997C370.889 171.995 370.889 171.992 370.889 171.99C370.897 171.877 370.811 171.778 370.698 171.771ZM370.896 166.694C370.778 166.693 370.68 166.782 370.67 166.899C370.667 167.018 370.761 167.116 370.879 167.119C370.88 167.119 370.881 167.119 370.882 167.119C370.996 167.123 371.094 167.035 371.101 166.921C371.102 166.803 371.013 166.704 370.896 166.694ZM352.72 173.983C352.648 173.9 352.522 173.89 352.438 173.961C352.433 173.966 352.428 173.971 352.423 173.976C352.338 174.051 352.331 174.179 352.405 174.263C352.406 174.264 352.407 174.265 352.408 174.266C352.483 174.352 352.613 174.361 352.698 174.287C352.7 174.285 352.703 174.282 352.705 174.28C352.791 174.21 352.804 174.085 352.734 174C352.729 173.994 352.724 173.988 352.72 173.983ZM356.452 170.533C356.372 170.448 356.237 170.443 356.152 170.523C356.066 170.603 356.061 170.738 356.141 170.823C356.22 170.907 356.352 170.914 356.438 170.837C356.526 170.763 356.536 170.632 356.463 170.545C356.459 170.54 356.456 170.537 356.452 170.533ZM360.185 167.09C360.105 167.005 359.97 167 359.885 167.08C359.799 167.16 359.794 167.295 359.874 167.38C359.953 167.464 360.085 167.471 360.171 167.394C360.259 167.32 360.269 167.189 360.196 167.102C360.192 167.098 360.189 167.094 360.185 167.09ZM361.479 173.644C361.415 173.589 361.318 173.596 361.262 173.66C361.258 173.665 361.256 173.668 361.253 173.672C361.203 173.743 361.219 173.841 361.288 173.891C361.354 173.947 361.453 173.937 361.508 173.871C361.563 173.805 361.554 173.706 361.487 173.651C361.485 173.649 361.482 173.646 361.479 173.644ZM363.777 170.576C363.707 170.521 363.605 170.534 363.55 170.604C363.496 170.674 363.509 170.776 363.579 170.83C363.649 170.885 363.75 170.872 363.805 170.802C363.859 170.732 363.847 170.63 363.777 170.576ZM366.067 167.508C365.995 167.459 365.898 167.471 365.841 167.536C365.79 167.609 365.806 167.708 365.876 167.762C365.946 167.811 366.041 167.799 366.096 167.734C366.151 167.666 366.14 167.567 366.073 167.512C366.071 167.51 366.069 167.509 366.067 167.508ZM369.383 175.206C369.297 175.186 369.211 175.235 369.185 175.32C369.168 175.404 369.216 175.489 369.298 175.518C369.382 175.535 369.464 175.486 369.489 175.404C369.517 175.324 369.473 175.237 369.393 175.209C369.389 175.209 369.386 175.207 369.383 175.206ZM370.323 171.495C370.244 171.474 370.163 171.522 370.142 171.601C370.141 171.606 370.14 171.61 370.139 171.615C370.115 171.695 370.16 171.78 370.24 171.805C370.242 171.805 370.244 171.805 370.245 171.806C370.333 171.827 370.421 171.773 370.443 171.686C370.462 171.6 370.409 171.515 370.323 171.495ZM371.278 167.783C371.19 167.764 371.103 167.817 371.08 167.903C371.057 167.98 371.102 168.062 371.179 168.084C371.184 168.085 371.189 168.086 371.193 168.087C371.273 168.114 371.36 168.071 371.388 167.99C371.389 167.988 371.39 167.984 371.391 167.981C371.411 167.896 371.362 167.809 371.278 167.783ZM357.675 166.596C357.634 166.522 357.54 166.496 357.467 166.537C357.465 166.538 357.465 166.538 357.463 166.539C357.389 166.576 357.359 166.666 357.396 166.74C357.399 166.747 357.403 166.752 357.407 166.758C357.448 166.832 357.542 166.858 357.615 166.817C357.617 166.816 357.617 166.815 357.619 166.815C357.695 166.77 357.721 166.672 357.675 166.596ZM360.97 164.644C360.925 164.569 360.827 164.544 360.751 164.588C360.677 164.629 360.651 164.723 360.692 164.796C360.693 164.798 360.694 164.798 360.694 164.8C360.735 164.877 360.83 164.907 360.907 164.867C360.909 164.866 360.911 164.865 360.913 164.863C360.989 164.818 361.014 164.721 360.97 164.644ZM372.373 167.31C372.328 167.297 372.28 167.314 372.253 167.352C372.238 167.399 372.259 167.45 372.303 167.472C372.347 167.49 372.397 167.469 372.415 167.425C372.415 167.424 372.416 167.423 372.416 167.423C372.432 167.38 372.414 167.331 372.373 167.31ZM369.242 169.925C369.194 169.872 369.113 169.869 369.06 169.916C369.056 169.919 369.053 169.923 369.051 169.925C368.994 169.971 368.986 170.053 369.031 170.11C369.034 170.115 369.039 170.119 369.044 170.123C369.097 170.178 369.184 170.181 369.242 170.13C369.298 170.083 369.305 169.998 369.258 169.942C369.253 169.936 369.247 169.93 369.242 169.925ZM371.73 167.508C371.674 167.451 371.582 167.451 371.525 167.508C371.469 167.564 371.469 167.656 371.525 167.713C371.586 167.765 371.678 167.758 371.73 167.698C371.777 167.643 371.777 167.562 371.73 167.508Z" fill="white"/>
<path opacity="0.51" d="M174.91 96.5164C174.84 96.4111 174.697 96.3835 174.592 96.4549C174.589 96.4563 174.587 96.4577 174.584 96.4599C174.482 96.532 174.457 96.6734 174.529 96.7759C174.53 96.7766 174.53 96.7766 174.531 96.7773C174.601 96.8826 174.744 96.9102 174.85 96.8388C174.852 96.8374 174.854 96.836 174.857 96.8338C174.959 96.7617 174.984 96.6203 174.912 96.5178C174.911 96.5178 174.91 96.5171 174.91 96.5164ZM154.973 106.267C154.846 106.245 154.726 106.329 154.702 106.455C154.68 106.577 154.759 106.693 154.881 106.716C154.885 106.717 154.89 106.717 154.894 106.718C155.02 106.74 155.141 106.656 155.165 106.53C155.184 106.405 155.099 106.288 154.973 106.267ZM155.908 100.726C155.782 100.707 155.665 100.792 155.645 100.917C155.622 101.044 155.706 101.165 155.833 101.188C155.959 101.211 156.08 101.127 156.103 101C156.119 100.872 156.034 100.753 155.908 100.726ZM156.85 95.1894C156.722 95.1732 156.603 95.2587 156.576 95.3853C156.554 95.5069 156.634 95.6235 156.755 95.6461C156.759 95.6468 156.764 95.6475 156.768 95.6482C156.892 95.673 157.013 95.5924 157.037 95.4687C157.037 95.4658 157.037 95.463 157.038 95.4602C157.059 95.3336 156.976 95.2135 156.85 95.1894ZM167.006 103.433C166.981 103.306 166.856 103.223 166.729 103.248C166.601 103.274 166.518 103.398 166.543 103.526C166.569 103.654 166.693 103.737 166.821 103.711C166.823 103.711 166.824 103.711 166.825 103.711C166.951 103.682 167.031 103.559 167.006 103.433ZM165.755 97.9594C165.73 97.8314 165.605 97.7487 165.477 97.7741C165.349 97.7996 165.267 97.924 165.292 98.052C165.317 98.1799 165.442 98.2627 165.57 98.2372C165.571 98.2372 165.573 98.2365 165.575 98.2365C165.7 98.2082 165.78 98.0852 165.755 97.9594ZM145.685 99.8738C145.581 99.8067 145.444 99.8357 145.376 99.9389C145.373 99.9438 145.37 99.9488 145.367 99.9544C145.3 100.06 145.332 100.2 145.437 100.267C145.438 100.268 145.439 100.268 145.439 100.268C145.548 100.337 145.691 100.306 145.761 100.199C145.824 100.087 145.79 99.946 145.685 99.8738ZM148.672 95.1251C148.566 95.0551 148.423 95.0848 148.353 95.1908C148.352 95.1922 148.351 95.193 148.351 95.1944C148.282 95.3025 148.313 95.4461 148.42 95.5161C148.532 95.5783 148.673 95.545 148.745 95.439C148.812 95.3329 148.781 95.193 148.675 95.1265C148.674 95.1265 148.673 95.1258 148.672 95.1251ZM172.289 102.079C172.253 101.971 172.135 101.913 172.027 101.949C171.919 101.985 171.861 102.102 171.897 102.21C171.933 102.319 172.051 102.377 172.159 102.34C172.267 102.304 172.325 102.187 172.289 102.079ZM170.71 97.3238C170.673 97.2156 170.556 97.1576 170.448 97.1937C170.34 97.2298 170.282 97.3471 170.318 97.4553C170.354 97.5634 170.471 97.6214 170.579 97.5854C170.685 97.5521 170.745 97.439 170.712 97.333C170.711 97.3294 170.71 97.3266 170.71 97.3238ZM151.15 100.431C151.049 100.38 150.925 100.421 150.873 100.523C150.872 100.524 150.872 100.525 150.872 100.526C150.819 100.623 150.855 100.745 150.952 100.798C150.955 100.799 150.957 100.801 150.959 100.802C151.064 100.852 151.19 100.811 151.246 100.709C151.292 100.606 151.25 100.485 151.15 100.431ZM153.398 95.953C153.296 95.902 153.172 95.9431 153.121 96.0449C153.12 96.0463 153.119 96.047 153.119 96.0484C153.066 96.1453 153.102 96.2669 153.199 96.3199C153.202 96.3213 153.204 96.3227 153.207 96.3241C153.307 96.375 153.43 96.3361 153.483 96.2364C153.536 96.1346 153.498 96.0088 153.398 95.953ZM162.031 100.794C161.917 100.792 161.821 100.878 161.81 100.992C161.803 101.105 161.888 101.203 162.001 101.21C162.115 101.219 162.215 101.136 162.227 101.022C162.234 100.905 162.147 100.804 162.031 100.794ZM162.395 95.7953C162.28 95.7932 162.184 95.8801 162.173 95.994C162.166 96.1071 162.251 96.2039 162.364 96.2117C162.474 96.2223 162.571 96.1424 162.581 96.0336C162.582 96.0293 162.582 96.0251 162.582 96.0208C162.592 95.9077 162.509 95.8073 162.395 95.7953ZM176.216 93.3626C176.194 93.2926 176.119 93.2537 176.049 93.2756C176.047 93.2764 176.046 93.2763 176.044 93.277C175.972 93.2983 175.931 93.3739 175.952 93.446C175.953 93.4496 175.955 93.4531 175.956 93.4559C175.979 93.5259 176.054 93.5648 176.124 93.5429C176.125 93.5422 176.126 93.5422 176.128 93.5415C176.201 93.516 176.24 93.4368 176.216 93.3626ZM170.784 107.279C170.652 107.267 170.534 107.364 170.519 107.496C170.51 107.627 170.608 107.742 170.74 107.752C170.872 107.762 170.988 107.666 171.004 107.535C171.014 107.404 170.915 107.289 170.784 107.279ZM171.255 101.51C171.123 101.501 171.008 101.599 170.998 101.731C170.988 101.863 171.086 101.978 171.219 101.988C171.35 101.998 171.465 101.899 171.475 101.768C171.484 101.636 171.386 101.521 171.255 101.51ZM171.733 95.7458C171.602 95.731 171.485 95.8243 171.47 95.9551C171.455 96.0859 171.549 96.2032 171.679 96.2188C171.683 96.2195 171.687 96.2195 171.689 96.2195C171.822 96.2308 171.939 96.1346 171.954 96.0024C171.963 95.8709 171.864 95.7564 171.733 95.7458ZM149.284 96.223C149.196 96.1226 149.044 96.112 148.943 96.1997C148.846 96.2845 148.832 96.4309 148.913 96.532C149.002 96.6316 149.154 96.6444 149.258 96.561C149.355 96.4733 149.367 96.3248 149.284 96.223ZM160.541 101.652C160.425 101.592 160.284 101.638 160.224 101.754C160.224 101.756 160.223 101.757 160.222 101.759C160.161 101.875 160.204 102.018 160.318 102.082C160.437 102.137 160.578 102.092 160.644 101.979C160.707 101.86 160.66 101.714 160.541 101.652C160.541 101.652 160.542 101.652 160.541 101.652ZM163.184 96.5086C163.073 96.4478 162.934 96.4896 162.873 96.6013C162.87 96.6055 162.868 96.6104 162.866 96.6154C162.806 96.7299 162.85 96.8706 162.964 96.9307C163.083 96.9922 163.228 96.9463 163.29 96.8275C163.29 96.8275 163.29 96.8275 163.29 96.8268C163.351 96.7151 163.309 96.5758 163.197 96.515C163.194 96.5129 163.189 96.5108 163.184 96.5086ZM163.5 104.291C163.38 104.234 163.235 104.285 163.178 104.406C163.121 104.526 163.172 104.67 163.293 104.727C163.413 104.784 163.556 104.734 163.614 104.613C163.671 104.493 163.62 104.348 163.5 104.291ZM165.919 99.0594C165.795 99.0085 165.654 99.0615 165.595 99.181C165.545 99.3005 165.596 99.4376 165.712 99.4949C165.832 99.5522 165.976 99.5013 166.034 99.3811C166.087 99.2602 166.037 99.1188 165.919 99.0594ZM168.328 93.832C168.209 93.7776 168.068 93.8299 168.014 93.9494C167.959 94.0689 168.012 94.2089 168.131 94.2633C168.251 94.3206 168.396 94.2696 168.453 94.1495C168.502 94.0272 168.448 93.8879 168.328 93.832ZM176.027 98.3044C175.894 98.3001 175.782 98.4026 175.775 98.5355C175.773 98.667 175.878 98.7759 176.009 98.7794C176.139 98.7872 176.25 98.6882 176.258 98.5582C176.258 98.5574 176.258 98.5567 176.258 98.556C176.26 98.4238 176.158 98.3136 176.027 98.3044ZM155.861 95.0494C155.774 94.9547 155.627 94.9484 155.532 95.0346C155.529 95.0367 155.527 95.0395 155.524 95.0417C155.428 95.1293 155.421 95.2785 155.509 95.3746C155.599 95.4729 155.75 95.4807 155.85 95.393C155.947 95.304 155.954 95.1527 155.866 95.0551C155.864 95.053 155.862 95.0516 155.861 95.0494ZM165.803 94.667C165.731 94.6055 165.622 94.6139 165.56 94.6861C165.556 94.691 165.552 94.696 165.549 94.7009C165.489 94.7801 165.504 94.8932 165.583 94.9533C165.662 95.0134 165.776 94.9978 165.836 94.9187C165.896 94.8395 165.881 94.7271 165.803 94.667ZM174.77 96.4429C174.674 96.4167 174.576 96.4733 174.551 96.5687C174.551 96.5694 174.551 96.5702 174.55 96.5702C174.529 96.6656 174.584 96.7603 174.677 96.79C174.773 96.8141 174.87 96.7575 174.897 96.6628C174.925 96.5708 174.874 96.474 174.782 96.4464C174.778 96.445 174.774 96.4443 174.77 96.4429Z" fill="white"/>
<path d="M396.694 165.808C396.694 165.808 384.746 171.648 358.22 163.369C351.702 161.309 345.328 158.82 339.139 155.918L347.757 83.7921C348.767 82.3047 349.877 80.8872 351.079 79.5503C351.079 79.5503 351.072 79.5432 351.087 79.5432C351.313 79.2887 351.539 79.0413 351.765 78.8009C351.801 78.7549 351.842 78.7125 351.885 78.6736C352.119 78.4332 352.345 78.1929 352.571 77.9666C353.066 77.4718 353.547 77.0122 354.028 76.5739C354.261 76.3618 354.501 76.1497 354.735 75.9518C355.434 75.3367 356.113 74.7994 356.742 74.3257C356.954 74.1702 357.159 74.0147 357.364 73.8662C358.375 73.138 359.259 72.5795 359.959 72.1695C360.242 72.0069 360.496 71.8655 360.716 71.7453C360.659 71.6039 360.602 71.4625 360.56 71.3211C360.624 71.2787 360.694 71.2292 360.758 71.1797C368.885 76.7302 375.764 83.9151 380.956 92.2758C389.772 106.338 387.468 111.527 392.254 119.813C397.033 128.098 411.985 145.907 396.694 165.808Z" fill="url(#paint11_linear)"/>
<path d="M371.645 147.81C369.849 156.859 364.526 161.369 358.22 163.37C349.715 166.071 339.421 164.226 333.553 162.847C323.323 160.436 321.323 163.844 312.5 166.255C303.677 168.658 294.74 164.805 294.74 164.805L287.678 132.836C287.678 132.836 300.34 132.397 313.701 131.57C327.113 130.743 336.36 124.748 340.567 101.694C341.672 95.2856 344.123 89.1851 347.757 83.793C348.767 82.3055 349.877 80.888 351.079 79.5511C351.079 79.5511 351.072 79.544 351.086 79.544C351.313 79.2895 351.539 79.0421 351.765 78.8017C351.801 78.7558 351.841 78.7133 351.885 78.6744C352.119 78.4341 352.345 78.1937 352.571 77.9675C353.066 77.4655 353.547 77.006 354.027 76.5747C354.261 76.3626 354.501 76.1505 354.734 75.9526C355.434 75.3375 356.113 74.8002 356.742 74.3265C356.954 74.171 357.159 74.0155 357.364 73.867C358.375 73.1388 359.259 72.5803 359.959 72.1703C360.242 72.0077 360.496 71.8663 360.715 71.7461C361.178 72.8992 361.733 74.0134 362.377 75.076C368.704 85.6311 366.845 89.5972 366.845 89.5972L371.44 88.3176C373.957 104.783 374.685 132.468 371.645 147.81Z" fill="#23286B"/>
<path d="M262.72 284.848H241.399C241.399 284.848 230.27 295.293 218.349 300.403C206.427 305.512 202.85 312.411 202.85 312.411L272.6 312.408L262.72 284.848Z" fill="url(#paint12_linear)"/>
<path d="M320.523 284.848L297.851 284.848C297.851 284.848 288.074 295.293 276.151 300.403C264.229 305.513 260.652 312.411 260.652 312.411L330.403 312.408L320.523 284.848Z" fill="#28306D"/>
<path d="M332.635 50.133C333.987 52.3168 337.017 51.9513 338.106 49.5497C338.238 49.2599 337.802 49.0944 337.671 49.3829C337.179 50.7283 335.688 51.4197 334.343 50.9262C333.784 50.7212 333.312 50.3302 333.007 49.8184C332.846 49.5582 332.475 49.8749 332.635 50.133Z" fill="#1C2868"/>
<path d="M397.573 68.8327C395.276 64.9316 391.705 62.4225 388.253 59.6307C384.554 56.5681 381.469 52.8303 379.162 48.6174C378.563 46.6987 377.917 44.4017 377.145 41.5646C372.925 26.0465 356.912 25.4314 345.367 28.4078C333.956 31.3488 331.227 38.7438 334.423 46.8316C334.833 45.0429 335.116 43.5724 335.264 42.7594L335.384 42.0736C335.384 42.0736 343.26 49.7585 352.691 48.7616C357.012 48.3085 359.455 49.0267 360.802 50.1883C361.48 51.6015 361.698 53.1929 361.422 54.7363C361.066 56.9562 359.991 58.9223 359.079 60.9534C357.915 63.5466 357.084 66.1101 357.534 68.9755C358.655 76.123 367.429 83.1256 362.286 90.4661C361.959 90.9327 362.725 91.3753 363.049 90.9122C369.275 82.0262 356.447 73.8621 358.591 64.7775C358.966 63.3776 359.486 62.021 360.142 60.7286C359.933 61.4349 359.767 62.1539 359.648 62.8806C359.125 66.1327 359.464 70.2261 362.377 75.076C368.704 85.6311 366.845 89.5972 366.845 89.5972L398.864 80.6611C398.864 80.6611 400.483 73.4641 391.172 65.0228C385.03 59.4546 382.724 57.7756 380.655 52.8253C381.539 54.1 382.502 55.3174 383.539 56.4719C386.573 59.8385 390.551 62.0938 393.722 65.2999C397.73 69.3777 399.842 74.9494 399.546 80.6596C399.525 81.2288 400.409 81.2273 400.43 80.6596C400.636 76.5238 399.645 72.4177 397.573 68.8327Z" fill="#E94A47"/>
</g>
<defs>
<linearGradient id="paint0_linear" x1="393.023" y1="257.651" x2="407.205" y2="257.651" gradientUnits="userSpaceOnUse">
<stop stop-color="#A1C3FC"/>
<stop offset="0.6955" stop-color="#81AEF2"/>
<stop offset="1" stop-color="#78A9EF"/>
</linearGradient>
<linearGradient id="paint1_linear" x1="297.764" y1="198.235" x2="400.504" y2="198.235" gradientUnits="userSpaceOnUse">
<stop stop-color="#A1C3FC"/>
<stop offset="0.6955" stop-color="#81AEF2"/>
<stop offset="1" stop-color="#78A9EF"/>
</linearGradient>
<linearGradient id="paint2_linear" x1="343.889" y1="145.133" x2="429.973" y2="145.133" gradientUnits="userSpaceOnUse">
<stop stop-color="#A1C3FC"/>
<stop offset="0.6955" stop-color="#81AEF2"/>
<stop offset="1" stop-color="#78A9EF"/>
</linearGradient>
<linearGradient id="paint3_linear" x1="188.561" y1="141.892" x2="243.201" y2="141.892" gradientUnits="userSpaceOnUse">
<stop stop-color="#EEEEEE"/>
<stop offset="1" stop-color="#B0C5DA"/>
</linearGradient>
<linearGradient id="paint4_linear" x1="109.273" y1="141.873" x2="171.774" y2="141.873" gradientUnits="userSpaceOnUse">
<stop stop-color="#EEEEEE"/>
<stop offset="1" stop-color="#BBCCDD"/>
</linearGradient>
<linearGradient id="paint5_linear" x1="178.611" y1="131.688" x2="210.037" y2="206.214" gradientUnits="userSpaceOnUse">
<stop stop-color="#D0E0EE"/>
<stop offset="0.927083" stop-color="#C2D5E9"/>
</linearGradient>
<linearGradient id="paint6_linear" x1="66" y1="228.236" x2="291.888" y2="228.236" gradientUnits="userSpaceOnUse">
<stop stop-color="#A1C3FC"/>
<stop offset="0.6955" stop-color="#81AEF2"/>
<stop offset="1" stop-color="#78A9EF"/>
</linearGradient>
<linearGradient id="paint7_linear" x1="242.712" y1="134.457" x2="303.883" y2="134.457" gradientUnits="userSpaceOnUse">
<stop stop-color="#FFBEB6"/>
<stop offset="1" stop-color="#F2A19C"/>
</linearGradient>
<linearGradient id="paint8_linear" x1="206.185" y1="287.316" x2="268.793" y2="216.487" gradientUnits="userSpaceOnUse">
<stop stop-color="#3E8AF8"/>
<stop offset="0.4648" stop-color="#2A82F5"/>
<stop offset="1" stop-color="#1479F2"/>
</linearGradient>
<linearGradient id="paint9_linear" x1="293.891" y1="115.913" x2="341.854" y2="115.913" gradientUnits="userSpaceOnUse">
<stop stop-color="#28306D"/>
<stop offset="1" stop-color="#13194C"/>
</linearGradient>
<linearGradient id="paint10_linear" x1="354.246" y1="82.4961" x2="354.246" y2="62.78" gradientUnits="userSpaceOnUse">
<stop stop-color="#FFBEB6"/>
<stop offset="1" stop-color="#F2A19C"/>
</linearGradient>
<linearGradient id="paint11_linear" x1="382.11" y1="78.2599" x2="365.94" y2="173.661" gradientUnits="userSpaceOnUse">
<stop stop-color="#23286B"/>
<stop offset="1" stop-color="#151A4F"/>
</linearGradient>
<linearGradient id="paint12_linear" x1="202.85" y1="298.629" x2="272.6" y2="298.629" gradientUnits="userSpaceOnUse">
<stop stop-color="#28306D"/>
<stop offset="0.51" stop-color="#1F275F"/>
<stop offset="1" stop-color="#171F51"/>
</linearGradient>
</defs>
</svg>
