<svg width="48" height="48" viewBox="0 0 48 48" fill="none" xmlns="http://www.w3.org/2000/svg">
<path fill-rule="evenodd" clip-rule="evenodd" d="M24 1.71289L24.9713 2.25249L42.9713 12.2525L44 12.824V14.0008V44.0008V46.0008H42H32H30H18H16H6H4V44.0008V14.0008V12.824L5.02871 12.2525L23.0287 2.25249L24 1.71289ZM40 42.0008H32V30.0008V28.0008H30H24H18H16V30.0008V42.0008H8V15.1776L24 6.28873L40 15.1776V42.0008ZM28 32.0008V42.0008H20V32.0008H24H28ZM21.5 18.0008C21.5 16.6201 22.6193 15.5008 24 15.5008C25.3807 15.5008 26.5 16.6201 26.5 18.0008C26.5 19.3815 25.3807 20.5008 24 20.5008C22.6193 20.5008 21.5 19.3815 21.5 18.0008ZM24 12.5008C20.9624 12.5008 18.5 14.9632 18.5 18.0008C18.5 21.0384 20.9624 23.5008 24 23.5008C27.0376 23.5008 29.5 21.0384 29.5 18.0008C29.5 14.9632 27.0376 12.5008 24 12.5008Z" fill="#FE5E17"/>
</svg>
