<svg width="496" height="380" viewBox="0 0 496 380" fill="none" xmlns="http://www.w3.org/2000/svg">
<mask id="mask0" mask-type="alpha" maskUnits="userSpaceOnUse" x="0" y="0" width="496" height="380">
<rect width="496" height="380" fill="#C4C4C4"/>
</mask>
<g mask="url(#mask0)">
<ellipse cx="247.5" cy="320" rx="212.5" ry="51" fill="#FFE89E"/>
<path d="M202.343 104.538C202.343 104.538 212.665 98.8861 213.418 90.9344C214.17 82.9826 214.115 84.1909 213.382 80.7922C212.648 77.3936 214.165 76.7737 216.218 79.2446C218.271 81.7155 216.42 85.7628 217.908 85.5088C219.397 85.2548 221.195 85.2813 223.158 79.7732C225.121 74.2652 226.356 72.5224 227.986 73.7851C229.616 75.0479 233.892 82.0969 229.318 88.6181C224.743 95.1392 222.69 92.1912 218.789 97.5888C214.888 102.986 212.274 112.57 208.643 116.898L202.343 104.538Z" fill="url(#paint0_linear)"/>
<path d="M303.087 88.5864C303.087 88.5864 290.306 85.5993 287.121 77.2802C283.936 68.9611 284.357 70.2429 284.128 66.3716C283.9 62.5003 282.085 62.2883 280.618 65.5566C279.15 68.8249 282.35 72.6204 280.674 72.7926C278.998 72.9649 277.074 73.5311 273.319 68.199C269.564 62.867 267.716 61.3635 266.342 63.2079C264.967 65.0522 262.48 73.9044 269.345 79.5442C276.21 85.1841 277.534 81.4026 283.339 86.036C289.144 90.6693 294.818 100.185 300.013 103.751L303.087 88.5864Z" fill="url(#paint1_linear)"/>
<path d="M303.087 88.5864C303.087 88.5864 290.306 85.5993 287.121 77.2802C283.936 68.9611 284.357 70.2429 284.128 66.3716C283.9 62.5003 282.085 62.2883 280.618 65.5566C279.15 68.8249 282.35 72.6204 280.674 72.7926C278.998 72.9649 277.074 73.5311 273.319 68.199C269.564 62.867 267.716 61.3635 266.342 63.2079C264.967 65.0522 262.48 73.9044 269.345 79.5442C276.21 85.1841 277.534 81.4026 283.339 86.036C289.144 90.6693 294.818 100.185 300.013 103.751L303.087 88.5864Z" fill="#401919" fill-opacity="0.6"/>
<path d="M349.266 305.688L358.421 331.228L293.786 331.23C293.786 331.23 297.1 324.838 308.149 320.103C319.197 315.368 329.509 305.688 329.509 305.688H349.266Z" fill="url(#paint2_linear)"/>
<path d="M395.457 305.674L404.613 331.214L339.978 331.216C339.978 331.216 343.292 324.824 354.34 320.089C365.388 315.354 375.7 305.674 375.7 305.674H395.457Z" fill="#F1B505"/>
<path d="M376.207 157.704C368.417 191.897 367.813 187.096 369.013 211.084C370.221 235.071 366.318 226.98 365.118 252.168C363.918 277.356 365.457 289.791 349.266 305.695H329.512C329.512 305.695 327.907 228.887 328.261 207.174C328.504 191.985 333.282 176.597 336.036 164.029L339.054 151.424C341.961 151.263 344.809 150.541 347.44 149.296C354.302 151.593 366.392 152.079 377.304 151.954C377.016 153.824 376.656 155.738 376.207 157.704Z" fill="url(#paint3_linear)"/>
<path d="M395.46 305.673H375.698C375.698 305.673 344.554 230.618 343.001 214.316C341.771 201.358 342.301 186.427 343.663 172.813L346.387 148.921C355.333 152.462 375.558 152.219 388.613 151.616C388.252 159.05 386.868 166.398 384.497 173.453C372.068 210.753 380.609 208.986 384.637 220.273C388.686 231.553 390.851 238.451 389.93 249.113C388.995 259.781 393.649 256.954 396.145 270.737C398.626 284.535 395.46 305.673 395.46 305.673Z" fill="#23286B"/>
<path d="M354.384 74.9373C354.384 74.9373 352.046 87.557 334.485 91.8951C316.925 96.2332 301.016 87.7632 301.016 87.7632L289.826 116.189C289.826 116.189 295.071 121.728 305.814 121.108C316.556 120.488 321.883 118.96 326.635 120.2C331.386 121.439 353.08 122.266 357.625 107.804C362.17 93.3419 366.341 71.5601 366.341 71.5601C366.341 71.5601 361.267 76.5733 354.384 74.9373Z" fill="url(#paint4_linear)"/>
<path d="M304.675 113.461C304.675 113.461 277.406 109.025 273.462 105.504C269.518 101.982 270.081 99.8691 265.15 97.3333C260.22 94.7976 256.698 92.8251 254.867 91.276C253.036 89.7269 251.627 93.5298 255.29 97.1927C258.953 100.856 264.899 104.338 260.954 107.015C260.954 107.015 251.29 106.975 235.443 107.048C234.647 107.052 243.598 113.535 254.304 113.676C265.01 113.816 265.151 110.858 271.491 115.789C277.83 120.719 294.271 133.62 294.271 133.62L303.765 116.601" fill="url(#paint5_linear)"/>
<path d="M304.675 113.461C304.675 113.461 277.406 109.025 273.462 105.504C269.518 101.982 270.081 99.8691 265.15 97.3333C260.22 94.7976 256.698 92.8251 254.867 91.276C253.036 89.7269 251.627 93.5298 255.29 97.1927C258.953 100.856 264.899 104.338 260.954 107.015C260.954 107.015 251.29 106.975 235.443 107.048C234.647 107.052 243.598 113.535 254.304 113.676C265.01 113.816 265.151 110.858 271.491 115.789C277.83 120.719 294.271 133.62 294.271 133.62L303.765 116.601" fill="#401919" fill-opacity="0.6"/>
<path opacity="0.86" d="M366.293 154.146C366.26 154.069 366.171 154.034 366.094 154.066C366.017 154.099 365.982 154.188 366.014 154.265C366.046 154.342 366.136 154.378 366.213 154.345C366.29 154.313 366.325 154.224 366.293 154.146ZM350.577 154.104C350.5 154.076 350.415 154.116 350.387 154.194C350.35 154.263 350.376 154.349 350.446 154.386C350.451 154.389 350.457 154.392 350.464 154.394C350.543 154.426 350.634 154.388 350.666 154.308C350.699 154.229 350.66 154.138 350.581 154.106C350.579 154.105 350.578 154.105 350.577 154.104ZM358.384 153.661C358.297 153.66 358.226 153.731 358.226 153.818C358.225 153.905 358.296 153.976 358.382 153.976C358.469 153.977 358.54 153.906 358.541 153.82C358.541 153.733 358.471 153.661 358.384 153.661ZM386.413 154.861C386.295 154.754 386.113 154.762 386.007 154.88C386.004 154.882 386.002 154.885 386 154.888C385.896 155.006 385.908 155.186 386.027 155.29C386.027 155.291 386.028 155.291 386.029 155.291C386.147 155.398 386.328 155.39 386.435 155.272C386.437 155.27 386.44 155.267 386.442 155.264C386.546 155.146 386.534 154.966 386.415 154.863C386.414 154.861 386.414 154.861 386.413 154.861ZM365.006 172.632C364.845 172.643 364.724 172.781 364.732 172.941C364.74 173.096 364.872 173.214 365.027 173.206C365.032 173.206 365.037 173.206 365.042 173.205C365.203 173.194 365.324 173.056 365.316 172.896C365.303 172.737 365.165 172.619 365.006 172.632ZM364.507 165.606C364.348 165.618 364.231 165.757 364.243 165.916C364.243 165.916 364.243 165.916 364.243 165.916C364.254 166.078 364.393 166.199 364.554 166.189C364.714 166.179 364.834 166.042 364.826 165.882C364.808 165.721 364.669 165.601 364.507 165.606ZM364.019 158.582C363.857 158.6 363.738 158.739 363.743 158.901C363.751 159.056 363.883 159.174 364.038 159.166C364.043 159.166 364.048 159.166 364.053 159.165C364.212 159.158 364.335 159.024 364.328 158.866C364.328 158.862 364.328 158.859 364.327 158.856C364.316 158.695 364.179 158.574 364.019 158.582ZM378.828 165.623C378.759 165.475 378.583 165.41 378.435 165.479C378.287 165.548 378.222 165.724 378.291 165.872C378.36 166.02 378.536 166.085 378.684 166.016C378.686 166.015 378.688 166.014 378.69 166.014C378.835 165.942 378.896 165.769 378.828 165.623ZM375.686 159.324C375.616 159.176 375.44 159.111 375.292 159.18C375.144 159.25 375.08 159.425 375.149 159.573C375.218 159.721 375.394 159.786 375.542 159.717C375.544 159.716 375.546 159.716 375.547 159.715C375.691 159.643 375.753 159.47 375.686 159.324ZM372.543 153.025C372.464 152.883 372.288 152.826 372.14 152.895C371.995 152.971 371.939 153.149 372.015 153.295C372.088 153.435 372.26 153.493 372.403 153.426C372.548 153.35 372.609 153.175 372.543 153.025ZM351.801 167.589C351.656 167.537 351.496 167.614 351.445 167.759C351.442 167.766 351.44 167.773 351.438 167.78C351.388 167.929 351.467 168.09 351.616 168.14C351.617 168.14 351.618 168.141 351.619 168.141C351.772 168.192 351.936 168.112 351.991 167.961C352.034 167.806 351.951 167.645 351.801 167.589ZM354.037 160.92C353.887 160.866 353.721 160.944 353.667 161.095C353.667 161.096 353.666 161.098 353.666 161.1C353.614 161.252 353.695 161.417 353.846 161.472C354 161.514 354.162 161.432 354.219 161.282C354.269 161.133 354.189 160.972 354.041 160.922C354.039 160.921 354.039 160.921 354.037 160.92ZM356.265 154.24C356.113 154.188 355.948 154.269 355.893 154.42C355.84 154.57 355.919 154.735 356.069 154.788C356.074 154.789 356.079 154.791 356.083 154.792C356.228 154.844 356.388 154.769 356.44 154.624C356.442 154.62 356.443 154.615 356.445 154.611C356.496 154.459 356.416 154.294 356.265 154.24ZM384.863 162.412C384.787 162.291 384.628 162.255 384.507 162.331C384.386 162.407 384.35 162.566 384.426 162.687C384.502 162.808 384.661 162.844 384.782 162.768C384.903 162.692 384.94 162.533 384.863 162.412ZM381.534 157.086C381.458 156.965 381.298 156.929 381.177 157.005C381.057 157.08 381.021 157.24 381.096 157.361C381.172 157.482 381.332 157.518 381.453 157.442C381.573 157.37 381.612 157.214 381.54 157.095C381.537 157.092 381.535 157.089 381.534 157.086ZM358.625 166.652C358.486 166.62 358.346 166.706 358.315 166.846C358.315 166.847 358.314 166.849 358.314 166.85C358.278 166.984 358.357 167.122 358.491 167.157C358.495 167.158 358.499 167.159 358.503 167.16C358.645 167.19 358.786 167.103 358.824 166.963C358.849 166.824 358.762 166.687 358.625 166.652ZM360.039 160.532C359.9 160.5 359.761 160.587 359.729 160.726C359.729 160.727 359.728 160.729 359.728 160.73C359.692 160.864 359.772 161.002 359.906 161.037C359.91 161.038 359.913 161.039 359.917 161.04C360.055 161.073 360.192 160.989 360.227 160.852C360.26 160.712 360.178 160.57 360.039 160.532ZM361.453 154.411C361.314 154.379 361.175 154.466 361.144 154.606C361.144 154.607 361.143 154.609 361.143 154.61C361.104 154.74 361.178 154.876 361.308 154.914C361.316 154.917 361.323 154.919 361.331 154.92C361.47 154.953 361.61 154.866 361.641 154.727C361.641 154.725 361.642 154.724 361.642 154.721C361.672 154.584 361.589 154.448 361.453 154.411ZM371.987 163.877C371.847 163.908 371.755 164.043 371.777 164.184C371.801 164.324 371.934 164.417 372.073 164.393C372.215 164.371 372.312 164.239 372.293 164.098C372.268 163.954 372.132 163.856 371.987 163.877ZM370.953 157.681C370.813 157.712 370.721 157.847 370.742 157.988C370.767 158.128 370.899 158.222 371.039 158.197C371.175 158.178 371.27 158.052 371.251 157.916C371.25 157.911 371.25 157.906 371.248 157.901C371.226 157.759 371.095 157.661 370.953 157.681ZM348.72 158.713C348.604 158.63 348.443 158.655 348.355 158.767C348.271 158.883 348.297 159.044 348.413 159.128C348.415 159.129 348.418 159.132 348.42 159.133C348.527 159.216 348.681 159.197 348.765 159.09C348.768 159.085 348.772 159.081 348.775 159.076C348.861 158.965 348.841 158.805 348.73 158.719C348.727 158.718 348.723 158.716 348.72 158.713ZM352.361 153.595C352.238 153.516 352.076 153.551 351.997 153.673C351.922 153.789 351.949 153.943 352.059 154.026C352.179 154.107 352.341 154.079 352.425 153.962C352.509 153.848 352.486 153.688 352.373 153.604C352.369 153.601 352.365 153.598 352.361 153.595ZM369.665 152.406C369.581 152.403 369.511 152.468 369.508 152.552C369.505 152.636 369.571 152.706 369.655 152.709C369.739 152.712 369.809 152.647 369.812 152.563C369.815 152.479 369.749 152.409 369.665 152.406ZM369.437 153.677C369.343 153.665 369.254 153.725 369.229 153.817C369.208 153.909 369.265 154.001 369.357 154.023C369.443 154.049 369.534 154.001 369.56 153.914C369.562 153.908 369.564 153.901 369.564 153.895C369.589 153.8 369.533 153.702 369.438 153.677H369.437ZM384.566 169.191C384.402 169.217 384.287 169.369 384.309 169.534C384.336 169.696 384.49 169.807 384.653 169.781C384.816 169.754 384.929 169.603 384.91 169.439C384.883 169.275 384.729 169.165 384.566 169.191ZM383.435 162.025C383.271 162.052 383.161 162.206 383.187 162.369C383.214 162.532 383.369 162.643 383.531 162.616C383.695 162.59 383.805 162.435 383.779 162.273C383.752 162.11 383.598 161.999 383.435 162.025ZM382.314 154.861C382.151 154.88 382.034 155.03 382.055 155.193C382.076 155.357 382.224 155.473 382.388 155.453C382.392 155.452 382.397 155.451 382.401 155.45C382.566 155.425 382.68 155.273 382.659 155.108C382.631 154.945 382.478 154.835 382.314 154.861ZM355.107 162.077C354.971 161.98 354.781 162.012 354.684 162.149C354.591 162.281 354.617 162.463 354.745 162.563C354.884 162.658 355.072 162.629 355.175 162.496C355.268 162.361 355.238 162.176 355.107 162.077ZM359.375 156.215C359.241 156.117 359.053 156.147 358.955 156.281C358.857 156.415 358.887 156.603 359.021 156.701C359.022 156.701 359.022 156.702 359.023 156.702C359.157 156.8 359.345 156.77 359.443 156.636C359.541 156.502 359.511 156.315 359.377 156.217C359.377 156.217 359.376 156.216 359.375 156.215ZM370.426 165.363C370.267 165.325 370.108 165.423 370.07 165.581C370.069 165.584 370.069 165.585 370.069 165.587C370.029 165.746 370.122 165.909 370.281 165.953C370.442 165.985 370.601 165.888 370.648 165.731C370.688 165.568 370.588 165.404 370.426 165.363ZM372.126 158.317C371.972 158.276 371.814 158.367 371.773 158.521C371.772 158.528 371.77 158.534 371.769 158.54C371.73 158.697 371.825 158.856 371.981 158.895C371.981 158.895 371.981 158.895 371.982 158.895C372.145 158.935 372.309 158.836 372.349 158.674V158.673C372.389 158.519 372.298 158.362 372.144 158.32C372.139 158.319 372.132 158.317 372.126 158.317ZM374.809 167.704C374.646 167.67 374.485 167.775 374.452 167.938C374.418 168.102 374.522 168.262 374.686 168.296C374.849 168.33 375.009 168.225 375.044 168.063C375.078 167.899 374.974 167.739 374.809 167.704ZM376.211 160.615C376.046 160.59 375.889 160.696 375.852 160.86C375.827 161.02 375.93 161.172 376.088 161.207C376.251 161.241 376.412 161.137 376.445 160.973C376.475 160.811 376.372 160.654 376.211 160.615ZM377.601 153.536C377.439 153.505 377.284 153.61 377.253 153.772C377.222 153.933 377.327 154.088 377.489 154.119C377.652 154.153 377.813 154.048 377.847 153.885C377.871 153.722 377.763 153.568 377.601 153.536ZM388.301 156.709C388.138 156.743 388.032 156.901 388.062 157.064C388.098 157.226 388.258 157.327 388.419 157.293C388.58 157.263 388.686 157.11 388.657 156.949C388.657 156.949 388.657 156.948 388.657 156.947C388.62 156.785 388.464 156.681 388.301 156.709ZM362.772 158.703C362.638 158.613 362.457 158.649 362.367 158.783C362.365 158.786 362.363 158.79 362.36 158.794C362.269 158.929 362.305 159.113 362.439 159.204C362.578 159.297 362.765 159.262 362.86 159.126C362.953 158.988 362.916 158.802 362.78 158.709C362.777 158.707 362.775 158.705 362.772 158.703ZM366.778 152.689C366.644 152.6 366.463 152.635 366.373 152.769C366.371 152.773 366.369 152.776 366.366 152.78C366.275 152.915 366.311 153.099 366.445 153.19C366.584 153.283 366.771 153.248 366.866 153.112C366.959 152.974 366.922 152.788 366.785 152.695C366.783 152.693 366.781 152.692 366.778 152.689ZM374.772 155.299C374.665 155.245 374.536 155.287 374.482 155.394C374.478 155.4 374.475 155.408 374.472 155.415C374.422 155.529 374.475 155.662 374.589 155.712C374.704 155.763 374.837 155.71 374.887 155.595C374.935 155.481 374.885 155.349 374.772 155.299ZM386.22 154.813C386.096 154.81 385.993 154.907 385.99 155.031C385.99 155.031 385.99 155.032 385.99 155.033C385.993 155.155 386.088 155.254 386.21 155.263C386.334 155.264 386.436 155.167 386.44 155.043C386.448 154.923 386.356 154.821 386.236 154.813C386.23 154.813 386.225 154.813 386.22 154.813Z" fill="white"/>
<path d="M366.226 70.9258C374.48 76.6415 381.451 84.0159 386.694 92.5788C395.593 106.984 393.211 112.264 398.035 120.749C402.86 129.233 409.558 139.686 400.578 150.863C400.578 150.863 356.584 154.676 344.758 148.166L354.385 74.9385C354.384 74.9377 359.967 75.5834 366.226 70.9258Z" fill="url(#paint6_linear)"/>
<path d="M354.384 74.9375C354.384 74.9375 348.25 91.1899 340.247 101.831C332.244 112.473 328.884 112.842 317.891 109.626C306.898 106.41 304.793 105.077 304.793 105.077L289.128 145.766C289.128 145.766 297.509 154.282 309.796 151.669C322.083 149.057 326.156 149.048 332.203 150.728C338.25 152.407 352.67 152.667 361.068 134.156C369.466 115.646 371.928 99.001 366.874 71.2524" fill="#A1C3FC"/>
<path d="M354.567 65.4454C355.223 68.5827 355.161 71.8282 354.384 74.9382C354.384 74.9382 359.769 77.7677 366.341 71.5609C366.341 71.5609 364.973 68.001 363.968 64.2593L354.567 65.4454Z" fill="url(#paint7_linear)"/>
<path d="M354.567 65.4454C355.223 68.5827 355.161 71.8282 354.384 74.9382C354.384 74.9382 359.769 77.7677 366.341 71.5609C366.341 71.5609 364.973 68.001 363.968 64.2593L354.567 65.4454Z" fill="#401919" fill-opacity="0.6"/>
<path d="M346.542 43.4054C346.542 43.4054 345.555 47.1354 343.47 49.3294C341.386 51.5235 339.74 52.84 344.238 55.2535C344.238 55.2535 346.871 70.0628 363.216 64.7978C363.216 64.7978 375.722 59.532 373.857 54.3766C371.992 49.2212 363.874 41.9807 363.874 41.9807L353.891 39.1284L346.542 43.4054Z" fill="#FFBEB6"/>
<path d="M346.542 43.4054C346.542 43.4054 345.555 47.1354 343.47 49.3294C341.386 51.5235 339.74 52.84 344.238 55.2535C344.238 55.2535 346.871 70.0628 363.216 64.7978C363.216 64.7978 375.722 59.532 373.857 54.3766C371.992 49.2212 363.874 41.9807 363.874 41.9807L353.891 39.1284L346.542 43.4054Z" fill="#401919" fill-opacity="0.6"/>
<path d="M344.416 58.6341C345.025 60.0028 346.628 60.6176 347.997 60.0087C348.492 59.7879 348.911 59.4241 349.197 58.9632C349.418 58.6142 348.914 58.2049 348.69 58.5583C348.124 59.5493 346.863 59.8939 345.873 59.3292C345.499 59.1164 345.201 58.7917 345.021 58.4014C344.841 58.0274 344.235 58.2571 344.416 58.6341Z" fill="#1C2868"/>
<path d="M340.555 26.1025C339.004 36.668 343.255 41.5672 348.11 43.8113C341.42 41.5981 337.485 34.6875 338.995 27.8048C339.066 27.458 338.534 27.3093 338.463 27.6583C336.75 35.3633 341.608 42.9977 349.313 44.7103C350.104 44.8863 350.909 44.9945 351.718 45.0335C354.24 45.6012 356.834 45.775 359.408 45.5482C359.408 45.5482 360.508 50.412 362.837 52.3366C365.167 54.2612 367.395 51.4251 368.712 54.4637C370.028 57.5023 367.193 59.1228 364.154 59.6294C361.116 60.1359 361.521 64.086 361.521 64.086C363.85 65.0991 371.447 63.7819 377.018 58.5154C382.588 53.2489 383.906 45.7536 383.906 45.7536L340.555 26.1025Z" fill="#23286B"/>
<path d="M210.651 123.942C210.651 123.942 208.891 128.551 200.623 128.411C192.362 128.278 189.925 130.038 182.746 133.425C179.498 134.958 175.969 135.807 172.379 135.921C166.511 136.053 160.393 133.822 156.866 126.519C151.44 115.276 141.765 93.4379 140.484 90.537C143.458 87.1803 146.725 84.0953 150.247 81.3188C153.678 84.4406 156.424 84.9339 158.221 84.7278C159.086 85.7225 159.851 86.7996 160.503 87.9453C160.621 88.1662 160.746 88.3944 160.864 88.6227C160.864 88.6227 168.654 111.616 182.069 109.989C190.229 108.972 198.128 106.445 205.364 102.538L210.651 123.942Z" fill="url(#paint8_linear)"/>
<path d="M207.887 111.441C207.887 111.441 219.274 108.47 221.938 100.94C224.603 93.4102 224.256 94.5691 224.371 91.0939C224.487 87.6187 226.109 87.3868 227.499 90.2833C228.889 93.1798 226.109 96.6542 227.614 96.7705C229.12 96.8869 230.635 94.8651 234.227 91.2588C238.353 87.1158 238.967 86.2294 240.241 87.8514C241.516 89.4734 243.949 97.35 237.924 102.563C231.9 107.776 231.352 105.082 226.256 109.368C221.159 113.655 218.268 123.929 213.694 127.245C209.119 130.56 210.991 124.964 210.991 124.964L207.887 111.441Z" fill="url(#paint9_linear)"/>
<path d="M160.857 74.9492C160.335 77.8972 160.242 80.9049 160.581 83.8794C160.581 83.8794 156.58 87.0807 150.246 81.3187L153.447 70.522L160.857 74.9492Z" fill="url(#paint10_linear)"/>
<path d="M169.769 53.7243C169.801 53.7957 169.822 53.8502 169.838 53.8811C169.847 53.89 169.848 53.8988 169.853 53.9121C169.98 54.1992 170.098 54.4952 170.212 54.8059C171.443 58.1449 174.558 60.2278 174.774 61.1754C174.989 62.123 173.285 63.1861 172.419 63.4747C171.553 63.7634 171.499 68.4173 168.484 71.7976C165.656 74.9702 160.518 75.8389 156.743 74.7596C153.728 67.6995 152.744 62.4543 159.106 57.5029C166.047 52.0957 165.794 48.5977 165.794 48.5977C167.486 49.9877 168.844 51.7393 169.769 53.7243Z" fill="#FFBEB6"/>
<path d="M138.073 49.0862C142.239 49.0862 145.616 45.709 145.616 41.5431C145.616 37.3772 142.239 34 138.073 34C133.907 34 130.53 37.3772 130.53 41.5431C130.53 45.709 133.907 49.0862 138.073 49.0862Z" fill="url(#paint11_linear)"/>
<path d="M167.745 56.9981C168.951 57.8867 170.649 57.629 171.538 56.423C171.859 55.9864 172.043 55.4629 172.064 54.921C172.083 54.5087 171.443 54.4019 171.423 54.8194C171.421 55.9599 170.495 56.8832 169.355 56.8817C168.925 56.881 168.505 56.7462 168.155 56.4959C167.815 56.2603 167.401 56.7602 167.745 56.9981Z" fill="#1C2868"/>
<path d="M156.86 308.202H174.243C174.243 308.202 183.316 316.719 193.037 320.884C202.758 325.05 205.674 330.675 205.674 330.675L148.804 330.673L156.86 308.202Z" fill="url(#paint12_linear)"/>
<path d="M120.056 308.202L138.54 308.203C138.54 308.203 146.512 316.719 156.233 320.884C165.954 325.05 168.87 330.675 168.87 330.675L112 330.673L120.056 308.202Z" fill="#28306D"/>
<path d="M174.25 308.203L156.859 308.188C144.011 295.583 146.485 274.526 145.535 254.543C144.585 234.568 145.999 242.49 143.466 223.612C140.286 199.794 141.324 203.888 135.146 176.763C133.547 170.225 132.764 163.513 132.812 156.781C132.879 156.155 132.938 155.588 132.996 155.073C134.675 155.191 136.442 155.264 138.283 155.272C147.278 155.329 156.222 153.924 164.767 151.112C165.834 160.72 167.8 178.612 167.852 178.943C168.522 183.456 168.897 186.151 170.267 193.955C170.377 194.581 170.465 195.207 170.532 195.84C171.665 206.848 173.182 224.341 173.425 239.288C173.72 256.509 174.25 308.203 174.25 308.203Z" fill="url(#paint13_linear)"/>
<path d="M171.267 226.44C169.846 240.26 138.54 308.203 138.54 308.203H120.06C120.06 308.203 120.7 285.96 122.953 274.268C125.221 262.576 129.447 264.976 128.601 255.935C127.761 246.901 129.734 241.047 133.408 231.498C137.075 221.926 145.557 217.413 134.255 185.798C130.559 175.46 128.129 162.37 128.807 154.683C131.951 155.064 135.115 155.26 138.283 155.272C147.797 155.334 157.251 153.761 166.231 150.619L168.963 177.794C169.14 179.488 169.331 180.968 169.567 182.602C171.547 196.164 172.674 212.627 171.267 226.44Z" fill="url(#paint14_linear)"/>
<path opacity="0.86" d="M131.357 162.269C131.329 162.204 131.254 162.174 131.189 162.201C131.124 162.228 131.094 162.304 131.121 162.369C131.148 162.433 131.224 162.464 131.289 162.436C131.355 162.409 131.385 162.334 131.357 162.269ZM130.152 159.379C130.129 159.317 130.06 159.284 129.997 159.306C129.992 159.307 129.988 159.31 129.984 159.312C129.917 159.337 129.883 159.411 129.907 159.478C129.939 159.544 130.016 159.573 130.084 159.547C130.149 159.52 130.179 159.445 130.152 159.379C130.152 159.38 130.152 159.38 130.152 159.379ZM128.947 156.491C128.917 156.424 128.841 156.391 128.772 156.414C128.706 156.446 128.677 156.523 128.703 156.59C128.731 156.655 128.806 156.686 128.871 156.658C128.937 156.632 128.971 156.558 128.947 156.491ZM135.793 157.19C135.743 157.141 135.664 157.142 135.615 157.192C135.567 157.241 135.568 157.321 135.618 157.369C135.667 157.418 135.746 157.417 135.795 157.367C135.844 157.322 135.847 157.247 135.802 157.199C135.799 157.196 135.796 157.193 135.793 157.19ZM148.333 162.872C148.234 162.781 148.08 162.788 147.99 162.888C147.988 162.89 147.986 162.892 147.984 162.894C147.896 162.994 147.907 163.146 148.006 163.233C148.007 163.234 148.007 163.234 148.008 163.235C148.107 163.325 148.26 163.318 148.351 163.218C148.353 163.216 148.354 163.214 148.357 163.212C148.444 163.112 148.434 162.961 148.334 162.873C148.334 162.872 148.334 162.872 148.333 162.872ZM143.845 158.969C143.746 158.882 143.594 158.892 143.507 158.991C143.506 158.992 143.506 158.992 143.505 158.993C143.415 159.095 143.424 159.251 143.527 159.342C143.629 159.432 143.785 159.423 143.876 159.321C143.876 159.32 143.876 159.32 143.877 159.319C143.962 159.213 143.948 159.059 143.845 158.969ZM130.272 177.866C130.136 177.875 130.034 177.991 130.04 178.126C130.047 178.257 130.158 178.357 130.288 178.35C130.293 178.35 130.297 178.349 130.302 178.349C130.437 178.34 130.54 178.224 130.533 178.089C130.523 177.955 130.406 177.855 130.272 177.866ZM129.85 171.938C129.716 171.949 129.617 172.066 129.628 172.199C129.635 172.335 129.752 172.439 129.888 172.431C130.024 172.423 130.128 172.308 130.12 172.171C130.12 172.171 130.12 172.17 130.12 172.17C130.104 172.034 129.987 171.933 129.85 171.938ZM129.438 166.011C129.303 166.027 129.201 166.144 129.205 166.281C129.212 166.411 129.323 166.511 129.454 166.504C129.458 166.504 129.462 166.504 129.467 166.504C129.6 166.498 129.704 166.385 129.699 166.252C129.699 166.249 129.699 166.246 129.698 166.243C129.689 166.107 129.574 166.004 129.438 166.011ZM141.934 171.952C141.876 171.827 141.727 171.773 141.602 171.831C141.477 171.889 141.423 172.038 141.481 172.163C141.539 172.288 141.688 172.342 141.813 172.284C141.815 172.283 141.816 172.283 141.818 172.282C141.939 172.221 141.991 172.075 141.934 171.952ZM139.282 166.638C139.224 166.512 139.075 166.459 138.95 166.517C138.825 166.575 138.77 166.724 138.829 166.849C138.887 166.974 139.036 167.028 139.161 166.97C139.163 166.969 139.164 166.968 139.166 166.967C139.287 166.907 139.339 166.761 139.282 166.638ZM136.631 161.322C136.564 161.202 136.416 161.155 136.291 161.213C136.169 161.278 136.123 161.428 136.187 161.551C136.249 161.669 136.392 161.717 136.513 161.661C136.634 161.596 136.686 161.449 136.631 161.322ZM133.969 156.015C133.913 155.893 133.768 155.839 133.646 155.895C133.524 155.951 133.47 156.096 133.526 156.219C133.527 156.222 133.53 156.226 133.531 156.23C133.59 156.35 133.735 156.4 133.855 156.341C133.857 156.34 133.859 156.339 133.862 156.337C133.978 156.283 134.029 156.146 133.975 156.029C133.974 156.025 133.971 156.02 133.969 156.015ZM147.026 169.243C146.962 169.142 146.827 169.111 146.725 169.175C146.623 169.239 146.592 169.374 146.657 169.476C146.721 169.578 146.855 169.608 146.958 169.544C147.06 169.48 147.09 169.345 147.026 169.243ZM144.217 164.749C144.152 164.647 144.018 164.617 143.915 164.681C143.814 164.745 143.783 164.879 143.847 164.982C143.911 165.083 144.046 165.114 144.148 165.05C144.249 164.99 144.282 164.859 144.222 164.757C144.219 164.754 144.218 164.751 144.217 164.749ZM141.408 160.246C141.391 160.208 141.361 160.178 141.322 160.164L141.313 160.162C141.246 160.133 141.169 160.139 141.107 160.178C141.003 160.243 140.971 160.381 141.037 160.485C141.037 160.486 141.037 160.487 141.038 160.488C141.103 160.588 141.237 160.619 141.339 160.556C141.387 160.528 141.419 160.481 141.428 160.426C141.453 160.367 141.445 160.299 141.408 160.246ZM138.599 155.752C138.534 155.651 138.4 155.62 138.298 155.683C138.194 155.747 138.161 155.884 138.225 155.988C138.29 156.091 138.425 156.124 138.529 156.061C138.633 155.996 138.665 155.858 138.599 155.753C138.599 155.753 138.599 155.753 138.599 155.752ZM128.459 157.327C128.341 157.306 128.226 157.379 128.196 157.495C128.17 157.615 128.245 157.732 128.365 157.758C128.48 157.783 128.595 157.713 128.625 157.599C128.65 157.479 128.577 157.36 128.459 157.327ZM149.128 156.553C149.031 156.482 148.894 156.504 148.823 156.602C148.822 156.604 148.82 156.606 148.819 156.608C148.748 156.699 148.765 156.829 148.855 156.9C148.859 156.903 148.862 156.905 148.866 156.908C148.96 156.981 149.095 156.964 149.168 156.869C149.17 156.867 149.172 156.864 149.174 156.861C149.244 156.763 149.223 156.627 149.128 156.553ZM136.162 170.479C136.044 170.506 135.966 170.619 135.984 170.739C136.005 170.856 136.117 170.935 136.235 170.915C136.354 170.896 136.436 170.786 136.42 170.666C136.399 170.544 136.284 170.461 136.162 170.479ZM135.289 165.251C135.171 165.278 135.093 165.39 135.112 165.51C135.132 165.628 135.244 165.707 135.362 165.687C135.477 165.671 135.557 165.565 135.541 165.449C135.54 165.445 135.54 165.44 135.539 165.436C135.52 165.317 135.408 165.235 135.289 165.251ZM134.415 160.032C134.3 160.048 134.22 160.154 134.236 160.27C134.237 160.274 134.238 160.278 134.239 160.283C134.259 160.401 134.372 160.479 134.49 160.459C134.607 160.438 134.685 160.326 134.666 160.209C134.649 160.094 134.543 160.014 134.429 160.03C134.424 160.03 134.42 160.031 134.415 160.032ZM146.62 156.224C146.571 156.171 146.488 156.167 146.435 156.216C146.382 156.264 146.378 156.347 146.427 156.4C146.475 156.454 146.559 156.457 146.612 156.409C146.663 156.359 146.667 156.278 146.62 156.224ZM134.202 160.8C134.132 160.798 134.073 160.853 134.07 160.924C134.067 160.995 134.123 161.054 134.194 161.057C134.264 161.059 134.323 161.004 134.326 160.933C134.328 160.862 134.273 160.803 134.202 160.8ZM134.307 157.676C134.239 157.671 134.18 157.722 134.175 157.791C134.175 157.794 134.175 157.797 134.175 157.8C134.173 157.871 134.228 157.93 134.299 157.933C134.371 157.936 134.434 157.883 134.44 157.81C134.442 157.738 134.384 157.678 134.311 157.677C134.309 157.676 134.308 157.676 134.307 157.676ZM140.471 158.175C140.45 158.11 140.381 158.074 140.316 158.095C140.312 158.096 140.308 158.098 140.304 158.099C140.238 158.121 140.203 158.193 140.225 158.259C140.226 158.261 140.227 158.263 140.227 158.265C140.256 158.329 140.328 158.362 140.395 158.342C140.462 158.316 140.495 158.242 140.471 158.175ZM128.44 157.786C128.382 157.755 128.309 157.777 128.278 157.836C128.275 157.841 128.273 157.847 128.271 157.852C128.242 157.916 128.272 157.992 128.337 158.02C128.401 158.049 128.476 158.02 128.505 157.955C128.533 157.89 128.504 157.815 128.44 157.786ZM129.738 154.943C129.68 154.912 129.607 154.934 129.576 154.993C129.573 154.998 129.571 155.003 129.569 155.008C129.538 155.07 129.563 155.144 129.625 155.175C129.625 155.175 129.626 155.175 129.626 155.176C129.693 155.206 129.772 155.178 129.803 155.112C129.833 155.049 129.805 154.974 129.742 154.945C129.741 154.943 129.739 154.943 129.738 154.943ZM148.889 159.304C148.848 159.237 148.761 159.217 148.695 159.256C148.694 159.257 148.693 159.258 148.692 159.259C148.623 159.298 148.6 159.387 148.639 159.455C148.641 159.458 148.643 159.462 148.645 159.465C148.686 159.532 148.773 159.552 148.839 159.513C148.84 159.512 148.841 159.511 148.842 159.511C148.912 159.466 148.932 159.374 148.889 159.304ZM146.964 156.298C146.924 156.231 146.837 156.211 146.771 156.251C146.769 156.252 146.768 156.252 146.767 156.253C146.697 156.297 146.676 156.389 146.719 156.459C146.763 156.529 146.855 156.551 146.925 156.507C146.926 156.507 146.927 156.507 146.927 156.506C146.994 156.463 147.014 156.375 146.972 156.308C146.969 156.304 146.966 156.301 146.964 156.298ZM134.01 161.873C133.93 161.863 133.855 161.913 133.834 161.991C133.816 162.069 133.865 162.147 133.943 162.165C134.015 162.188 134.091 162.146 134.113 162.073C134.115 162.068 134.116 162.062 134.117 162.057C134.138 161.976 134.091 161.895 134.01 161.873H134.01ZM134.776 158.388C134.697 158.378 134.621 158.428 134.6 158.506C134.582 158.584 134.631 158.662 134.709 158.681C134.789 158.702 134.871 158.654 134.892 158.574V158.573C134.906 158.491 134.856 158.411 134.776 158.388ZM141.492 160.284C141.48 160.206 141.406 160.151 141.327 160.163C141.326 160.163 141.324 160.164 141.322 160.164L141.313 160.162C141.238 160.181 141.188 160.256 141.201 160.333C141.213 160.412 141.286 160.466 141.365 160.454C141.366 160.454 141.369 160.454 141.37 160.454C141.391 160.448 141.41 160.438 141.427 160.426C141.477 160.397 141.503 160.34 141.492 160.284ZM140.692 156.644C140.612 156.664 140.559 156.741 140.57 156.822C140.591 156.901 140.669 156.95 140.749 156.936C140.827 156.92 140.878 156.844 140.862 156.767C140.862 156.766 140.862 156.766 140.861 156.765C140.847 156.685 140.772 156.632 140.692 156.644ZM146.775 174.963C146.636 174.984 146.539 175.112 146.558 175.252C146.581 175.39 146.71 175.482 146.848 175.46C146.986 175.438 147.081 175.31 147.065 175.171C147.042 175.034 146.913 174.941 146.775 174.963ZM145.821 168.916C145.683 168.939 145.59 169.069 145.612 169.206C145.635 169.344 145.765 169.438 145.903 169.415C146.04 169.392 146.134 169.262 146.111 169.125C146.088 168.988 145.959 168.894 145.821 168.916ZM144.875 162.872C144.738 162.889 144.64 163.014 144.657 163.152C144.674 163.29 144.8 163.388 144.937 163.371C144.941 163.37 144.945 163.37 144.948 163.369C145.088 163.348 145.184 163.22 145.166 163.08C145.143 162.943 145.012 162.849 144.875 162.872ZM143.921 156.825C143.784 156.846 143.69 156.974 143.711 157.11C143.711 157.112 143.711 157.114 143.711 157.115C143.734 157.253 143.864 157.347 144.001 157.324C144.139 157.301 144.233 157.171 144.21 157.034C144.189 156.897 144.061 156.803 143.925 156.825C143.924 156.825 143.923 156.825 143.921 156.825ZM151.726 157.578C151.652 157.457 151.495 157.419 151.374 157.494C151.253 157.567 151.215 157.725 151.29 157.846C151.363 157.967 151.521 158.004 151.642 157.93C151.76 157.854 151.797 157.699 151.726 157.578ZM134.844 171.733C134.71 171.702 134.576 171.783 134.544 171.917C134.543 171.919 134.543 171.92 134.543 171.923C134.509 172.057 134.588 172.194 134.722 172.231C134.858 172.258 134.992 172.177 135.032 172.043C135.065 171.906 134.981 171.767 134.844 171.733C134.845 171.733 134.844 171.733 134.844 171.733ZM136.279 165.787C136.149 165.753 136.016 165.83 135.981 165.96C135.98 165.965 135.978 165.971 135.978 165.976C135.944 166.109 136.025 166.243 136.157 166.276C136.294 166.31 136.433 166.226 136.467 166.089V166.088C136.501 165.959 136.424 165.825 136.293 165.791C136.29 165.789 136.284 165.788 136.279 165.787ZM137.714 159.832C137.576 159.804 137.441 159.892 137.412 160.03C137.384 160.165 137.467 160.298 137.601 160.331C137.734 160.364 137.869 160.281 137.901 160.147C137.902 160.146 137.901 160.144 137.902 160.142C137.936 160.005 137.852 159.866 137.714 159.832C137.715 159.832 137.714 159.832 137.714 159.832ZM138.543 173.708C138.405 173.679 138.27 173.768 138.241 173.905C138.212 174.043 138.301 174.178 138.438 174.207C138.576 174.236 138.711 174.148 138.74 174.01C138.77 173.872 138.681 173.737 138.543 173.708ZM139.725 167.727C139.585 167.706 139.453 167.796 139.422 167.933C139.401 168.068 139.487 168.197 139.621 168.227C139.758 168.256 139.894 168.168 139.923 168.03C139.948 167.892 139.861 167.759 139.725 167.727ZM140.898 161.754C140.762 161.727 140.631 161.816 140.604 161.953C140.579 162.089 140.667 162.22 140.803 162.246C140.941 162.275 141.076 162.187 141.105 162.049C141.126 161.911 141.034 161.78 140.898 161.754ZM142.081 155.772C141.947 155.745 141.816 155.831 141.788 155.965C141.788 155.968 141.788 155.969 141.787 155.971C141.762 156.107 141.85 156.238 141.986 156.265C142.117 156.294 142.246 156.213 142.276 156.082C142.278 156.077 142.279 156.071 142.279 156.066C142.307 155.932 142.22 155.801 142.086 155.774C142.084 155.773 142.082 155.773 142.081 155.772ZM149.926 164.431C149.789 164.46 149.7 164.593 149.725 164.731C149.756 164.868 149.89 164.953 150.026 164.924C150.162 164.899 150.252 164.77 150.227 164.634C150.227 164.633 150.227 164.633 150.226 164.632C150.196 164.496 150.064 164.407 149.926 164.431ZM148.732 158.449C148.596 158.479 148.507 158.612 148.531 158.749C148.557 158.885 148.689 158.975 148.825 158.949C148.961 158.923 149.051 158.791 149.024 158.655C149.024 158.653 149.024 158.651 149.023 158.649C148.999 158.514 148.869 158.424 148.734 158.449C148.734 158.449 148.733 158.449 148.732 158.449ZM131.766 161.04C131.654 160.964 131.5 160.994 131.425 161.107C131.422 161.11 131.421 161.113 131.419 161.116C131.342 161.23 131.372 161.386 131.486 161.462C131.602 161.541 131.76 161.512 131.841 161.396C131.919 161.281 131.888 161.123 131.773 161.044C131.771 161.043 131.769 161.041 131.766 161.04ZM135.146 155.965C135.029 155.892 134.875 155.926 134.799 156.041C134.722 156.155 134.752 156.31 134.866 156.387C134.982 156.466 135.14 156.437 135.221 156.321C135.299 156.205 135.269 156.048 135.153 155.969C135.151 155.968 135.149 155.967 135.146 155.965ZM138.511 163.241C138.421 163.196 138.312 163.232 138.266 163.321C138.263 163.327 138.26 163.333 138.258 163.339C138.216 163.436 138.26 163.548 138.357 163.59C138.453 163.632 138.566 163.588 138.608 163.492C138.65 163.395 138.606 163.284 138.511 163.241ZM140.319 159.014C140.225 158.97 140.113 159.011 140.069 159.106C140.068 159.108 140.067 159.11 140.066 159.111C140.023 159.209 140.067 159.321 140.164 159.365C140.261 159.407 140.374 159.364 140.417 159.267C140.46 159.17 140.417 159.056 140.319 159.014ZM148.17 162.831C148.066 162.828 147.979 162.911 147.976 163.015C147.976 163.016 147.976 163.017 147.976 163.017C147.979 163.12 148.059 163.204 148.162 163.211C148.267 163.212 148.353 163.129 148.357 163.025C148.362 162.924 148.285 162.837 148.184 162.831C148.179 162.831 148.175 162.831 148.17 162.831ZM148.221 158.236C148.12 158.235 148.037 158.316 148.036 158.416C148.036 158.419 148.036 158.421 148.036 158.423C148.033 158.528 148.115 158.614 148.22 158.617C148.22 158.617 148.221 158.617 148.221 158.617C148.327 158.614 148.412 158.529 148.416 158.423C148.415 158.318 148.329 158.235 148.223 158.236C148.223 158.236 148.222 158.236 148.221 158.236ZM132.078 156.099C132.01 156.024 131.894 156.017 131.818 156.085C131.817 156.086 131.815 156.088 131.813 156.09C131.737 156.159 131.731 156.278 131.8 156.353C131.804 156.357 131.807 156.361 131.81 156.364C131.883 156.437 132.002 156.438 132.076 156.365C132.15 156.292 132.15 156.174 132.078 156.099ZM146.517 156.706C146.444 156.657 146.344 156.677 146.295 156.751C146.293 156.755 146.29 156.759 146.288 156.763C146.237 156.833 146.252 156.931 146.321 156.982C146.326 156.986 146.331 156.989 146.335 156.992C146.414 157.044 146.52 157.023 146.573 156.945C146.624 156.868 146.603 156.764 146.527 156.713C146.524 156.71 146.521 156.708 146.517 156.706Z" fill="white"/>
<path d="M176.223 146.39C164.456 152.309 151.454 155.352 138.283 155.27C123.756 155.196 114.067 151.39 114.067 151.39C114.067 151.39 111.291 142.046 117.689 130.958C128.387 112.434 121.496 122.528 129.521 106.492C132.51 100.746 136.192 95.3875 140.484 90.537C143.458 87.1803 146.726 84.0953 150.247 81.3188C155.563 86.1635 159.244 84.6762 160.283 84.0799C160.327 85.3683 160.4 86.6568 160.503 87.9453C161.858 105.365 168.161 122.992 171.776 134.095C171.982 134.721 172.181 135.332 172.38 135.921C174.566 142.415 176.223 146.39 176.223 146.39Z" fill="url(#paint15_linear)"/>
<path d="M222.63 140.507C222.63 140.507 211.011 152.884 199.666 150.351C189.314 148.039 188.386 150.8 183.497 151.92C183.033 152.03 182.555 152.148 182.054 152.28C176.444 153.775 163.088 153.878 155.497 136.657C148.119 119.973 145.925 105.593 150.313 81.3774C156.608 87.0615 160.584 83.8808 160.584 83.8808C160.555 83.6157 160.533 83.3506 160.511 83.0929C161.91 85.7288 168.58 98.1129 175.074 106.933C182.378 116.858 184.653 117.948 194.895 115.194C196.588 114.745 198.156 114.303 199.599 113.906C205.165 112.323 208.678 111.174 208.678 111.174L222.63 140.507Z" fill="url(#paint16_linear)"/>
<path d="M169.854 53.9155C168.484 42.0762 157.185 41.5778 148.565 43.3677C144.056 44.3042 141.101 46.3893 139.267 48.8161C135.815 50.0898 131.96 48.5194 130.381 45.1958C130.22 44.8785 129.743 45.1583 129.904 45.4749C131.493 48.7807 135.207 50.4896 138.752 49.545C137.554 51.3864 136.864 53.5113 136.75 55.7046C136.637 58.1225 136.2 62.8295 133.491 66.7848C130.781 70.74 130.736 77.728 130.736 77.728C143.882 82.5874 160.838 75.8181 160.838 75.8181C161.05 67.9628 156.807 65.4786 158.852 61.273C158.546 62.3414 158.502 63.4686 158.724 64.5576C159.536 68.4443 163.616 71.4844 161.82 75.7614C161.682 76.0883 162.217 76.2311 162.352 75.9079C163.208 73.8706 162.897 72.0808 161.975 70.1002C161.301 68.6519 160.339 67.3635 159.763 65.8666C158.861 63.5768 159.132 60.991 160.49 58.9391C166.274 52.4098 165.791 48.5981 165.791 48.5981C167.535 50.0353 168.925 51.8547 169.854 53.9155Z" fill="#23286B"/>
<path d="M248 10L260.67 35.3473L289 39.4114L268.5 59.1412L273.339 87L248 73.8473L222.66 87L227.5 59.1412L207 39.4114L235.33 35.3473L248 10Z" fill="#FEBD17"/>
</g>
<defs>
<linearGradient id="paint0_linear" x1="229.542" y1="66.6164" x2="208.266" y2="110.735" gradientUnits="userSpaceOnUse">
<stop stop-color="#FFBEB6"/>
<stop offset="0.5925" stop-color="#F7ADA7"/>
<stop offset="1" stop-color="#F2A19C"/>
</linearGradient>
<linearGradient id="paint1_linear" x1="264.75" y1="83.1026" x2="303.087" y2="83.1026" gradientUnits="userSpaceOnUse">
<stop stop-color="#FFBEB6"/>
<stop offset="1" stop-color="#F2A19C"/>
</linearGradient>
<linearGradient id="paint2_linear" x1="301.226" y1="299.721" x2="382.119" y2="374.391" gradientUnits="userSpaceOnUse">
<stop stop-color="#F1B505"/>
<stop offset="1" stop-color="#D89C05"/>
</linearGradient>
<linearGradient id="paint3_linear" x1="260.422" y1="227.495" x2="380.674" y2="227.495" gradientUnits="userSpaceOnUse">
<stop stop-color="#23286B"/>
<stop offset="0.3535" stop-color="#1E2361"/>
<stop offset="1" stop-color="#151A4F"/>
</linearGradient>
<linearGradient id="paint4_linear" x1="318.708" y1="75.1235" x2="341.156" y2="120.02" gradientUnits="userSpaceOnUse">
<stop stop-color="#A1C3FC"/>
<stop offset="0.6955" stop-color="#81AEF2"/>
<stop offset="1" stop-color="#78A9EF"/>
</linearGradient>
<linearGradient id="paint5_linear" x1="235.393" y1="112.27" x2="304.675" y2="112.27" gradientUnits="userSpaceOnUse">
<stop stop-color="#FFBEB6"/>
<stop offset="1" stop-color="#F2A19C"/>
</linearGradient>
<linearGradient id="paint6_linear" x1="383.309" y1="102.863" x2="337.343" y2="184.639" gradientUnits="userSpaceOnUse">
<stop stop-color="#A1C3FC"/>
<stop offset="0.6955" stop-color="#81AEF2"/>
<stop offset="1" stop-color="#78A9EF"/>
</linearGradient>
<linearGradient id="paint7_linear" x1="354.384" y1="69.9199" x2="366.341" y2="69.9199" gradientUnits="userSpaceOnUse">
<stop stop-color="#EEA89F"/>
<stop offset="1" stop-color="#F2A19C"/>
</linearGradient>
<linearGradient id="paint8_linear" x1="140.484" y1="108.623" x2="210.651" y2="108.623" gradientUnits="userSpaceOnUse">
<stop stop-color="#23286B"/>
<stop offset="0.3535" stop-color="#1E2361"/>
<stop offset="1" stop-color="#151A4F"/>
</linearGradient>
<linearGradient id="paint9_linear" x1="227.558" y1="99.6463" x2="204.091" y2="123.896" gradientUnits="userSpaceOnUse">
<stop stop-color="#FFBEB6"/>
<stop offset="1" stop-color="#F2A19C"/>
</linearGradient>
<linearGradient id="paint10_linear" x1="153.206" y1="96.7913" x2="156.822" y2="73.5412" gradientUnits="userSpaceOnUse">
<stop stop-color="#FFBEB6"/>
<stop offset="1" stop-color="#F2A19C"/>
</linearGradient>
<linearGradient id="paint11_linear" x1="130.53" y1="41.543" x2="145.617" y2="41.543" gradientUnits="userSpaceOnUse">
<stop stop-color="#23286B"/>
<stop offset="0.3535" stop-color="#1E2361"/>
<stop offset="1" stop-color="#151A4F"/>
</linearGradient>
<linearGradient id="paint12_linear" x1="205.673" y1="319.439" x2="148.804" y2="319.439" gradientUnits="userSpaceOnUse">
<stop stop-color="#28306D"/>
<stop offset="0.51" stop-color="#1F275F"/>
<stop offset="1" stop-color="#171F51"/>
</linearGradient>
<linearGradient id="paint13_linear" x1="207.332" y1="296.385" x2="161.076" y2="230.446" gradientUnits="userSpaceOnUse">
<stop stop-color="#A1C3FC"/>
<stop offset="0.6955" stop-color="#81AEF2"/>
<stop offset="1" stop-color="#78A9EF"/>
</linearGradient>
<linearGradient id="paint14_linear" x1="140.624" y1="208.085" x2="127.349" y2="95.7952" gradientUnits="userSpaceOnUse">
<stop stop-color="#A1C3FC"/>
<stop offset="0.6955" stop-color="#81AEF2"/>
<stop offset="1" stop-color="#78A9EF"/>
</linearGradient>
<linearGradient id="paint15_linear" x1="123.363" y1="103.701" x2="214.096" y2="195.896" gradientUnits="userSpaceOnUse">
<stop stop-color="#23286B"/>
<stop offset="0.3535" stop-color="#1E2361"/>
<stop offset="1" stop-color="#151A4F"/>
</linearGradient>
<linearGradient id="paint16_linear" x1="174.002" y1="122.118" x2="268.149" y2="171.874" gradientUnits="userSpaceOnUse">
<stop stop-color="#23286B"/>
<stop offset="0.3535" stop-color="#1E2361"/>
<stop offset="1" stop-color="#151A4F"/>
</linearGradient>
</defs>
</svg>
