<svg width="496" height="380" viewBox="0 0 496 380" fill="none" xmlns="http://www.w3.org/2000/svg">
<mask id="mask0" mask-type="alpha" maskUnits="userSpaceOnUse" x="0" y="0" width="496" height="380">
<rect width="496" height="380" fill="#C4C4C4"/>
</mask>
<g mask="url(#mask0)">
<ellipse cx="247.5" cy="320" rx="212.5" ry="51" fill="#FFE89E"/>
<path d="M329.051 122.353C329.051 122.353 317.136 135.162 310.914 138.256C304.692 141.35 304.719 140.189 301.236 140.111C297.754 140.032 294.691 140.812 292.522 140.983C290.352 141.154 291.015 143.806 294.497 143.884C297.98 143.961 299.856 144.317 296.722 145.472C293.587 146.627 287.749 146.684 286.704 147.069C285.659 147.453 287.574 151.702 295.344 153.76C303.114 155.818 310.503 149.641 313.278 146.281C316.054 142.921 334.533 137.685 340.742 129.536L329.051 122.353Z" fill="#FFBEB6"/>
<path d="M401.995 293.134L409.717 314.677L355.198 314.679C355.198 314.679 357.993 309.287 367.312 305.292C376.632 301.298 385.33 293.134 385.33 293.134H401.995Z" fill="#23286B"/>
<path d="M472.856 246.113L495.287 248.308L472.369 297.777C472.369 297.777 468.652 292.973 468.946 282.839C469.24 272.705 465.273 261.543 465.273 261.543L472.856 246.113Z" fill="#23286B"/>
<path d="M472.829 246.162L465.271 261.546C465.271 261.546 436.083 247.578 409.544 231.286C409.372 231.18 409.19 231.066 409.018 230.96C409.324 228.09 409.706 224.981 410.08 221.46C411.371 209.282 402.904 196.051 401.421 173.865C401.345 172.736 401.288 171.588 401.249 170.411C401.527 171.253 401.852 172.124 402.206 173.013C404.907 179.888 409.517 185.846 415.494 190.186C431.586 201.743 431.481 200.939 437.288 209.387C443.095 217.835 452.193 218.083 456.508 221.221C460.823 224.369 472.475 240.078 472.829 246.162Z" fill="url(#paint0_linear)"/>
<path d="M401.967 293.136L384.459 293.127C384.459 293.127 377.552 247.971 372.261 218.983C371.372 214.104 370.463 208.383 369.583 202.183C368.989 198.069 368.406 193.736 367.851 189.316C366.435 178.161 365.153 166.403 364.196 155.812L371.477 159.983C371.477 159.983 381.943 152.77 381.34 142.208C380.757 131.943 382.622 126.317 383.809 121.275C389.189 120.194 394.502 118.799 399.719 117.095C402.091 124.643 404.071 136.831 401.948 154.769C401.182 161.105 401.006 167.497 401.421 173.865C402.904 196.051 411.371 209.282 410.08 221.461C409.678 225.24 409.266 228.54 408.951 231.582C407.946 240.824 407.63 247.521 410.08 257.509C413.332 270.759 406.846 288.994 401.967 293.136Z" fill="#428DFC"/>
<path opacity="0.51" d="M387.88 121.049C387.786 120.99 387.66 121.016 387.598 121.109C387.572 121.148 387.565 121.196 387.578 121.24C387.569 121.26 387.569 121.26 387.578 121.271C387.594 121.312 387.618 121.349 387.649 121.382C387.742 121.439 387.864 121.418 387.931 121.331C387.96 121.286 387.971 121.233 387.962 121.18C387.943 121.131 387.916 121.087 387.88 121.049ZM385.228 125.024C385.138 124.971 385.023 124.998 384.965 125.084C384.909 125.174 384.931 125.293 385.016 125.357C385.109 125.419 385.233 125.396 385.298 125.306C385.353 125.208 385.322 125.084 385.228 125.024ZM395.023 121.593C394.916 121.579 394.816 121.649 394.792 121.755C394.773 121.863 394.845 121.966 394.953 121.987C395.061 122.005 395.164 121.933 395.185 121.826C395.2 121.718 395.129 121.616 395.023 121.593ZM394.115 126.274C394.006 126.255 393.902 126.328 393.883 126.437C393.865 126.542 393.931 126.644 394.035 126.668C394.136 126.688 394.235 126.621 394.255 126.519C394.256 126.515 394.257 126.511 394.257 126.506C394.286 126.41 394.232 126.308 394.136 126.279C394.13 126.277 394.122 126.276 394.115 126.274ZM393.187 130.966C393.088 130.944 392.988 131.008 392.967 131.108C392.966 131.111 392.966 131.114 392.965 131.117C392.939 131.218 393 131.32 393.1 131.346C393.106 131.347 393.111 131.349 393.116 131.35C393.222 131.371 393.325 131.304 393.348 131.199C393.372 131.096 393.309 130.994 393.206 130.97C393.201 130.968 393.194 130.967 393.187 130.966ZM389.454 121.22C389.386 121.214 389.323 121.256 389.303 121.321C389.299 121.386 389.341 121.444 389.403 121.462C389.469 121.47 389.531 121.426 389.545 121.362C389.558 121.298 389.517 121.236 389.454 121.22ZM388.879 124.045C388.817 124.036 388.759 124.078 388.749 124.14C388.749 124.142 388.748 124.144 388.748 124.146C388.736 124.21 388.776 124.272 388.839 124.287C388.899 124.287 388.97 124.257 388.97 124.196C388.985 124.13 388.945 124.063 388.879 124.045ZM398.171 119.485C398.132 119.429 398.058 119.412 397.999 119.445C397.943 119.482 397.925 119.557 397.959 119.616C398.006 119.666 398.081 119.678 398.141 119.646C398.19 119.608 398.203 119.538 398.171 119.485ZM393.571 119.899C393.512 119.907 393.47 119.96 393.478 120.019C393.478 120.022 393.479 120.026 393.48 120.03C393.491 120.097 393.555 120.142 393.622 120.131C393.683 120.121 393.725 120.064 393.715 120.002C393.714 119.998 393.713 119.994 393.712 119.989C393.7 119.926 393.639 119.885 393.576 119.897C393.574 119.898 393.572 119.898 393.571 119.899ZM394.126 122.714C394.062 122.733 394.025 122.801 394.044 122.865C394.044 122.865 394.044 122.865 394.044 122.866C394.046 122.92 394.092 122.963 394.148 122.961C394.157 122.961 394.167 122.959 394.176 122.957C394.239 122.946 394.28 122.887 394.269 122.826C394.268 122.823 394.268 122.819 394.267 122.816C394.25 122.751 394.191 122.708 394.126 122.714ZM394.69 125.548C394.625 125.563 394.581 125.624 394.59 125.69C394.602 125.756 394.664 125.8 394.731 125.79C394.797 125.772 394.838 125.705 394.822 125.639C394.81 125.578 394.751 125.538 394.69 125.548ZM391.977 121.997C391.869 122.034 391.811 122.152 391.849 122.26C391.851 122.267 391.854 122.273 391.856 122.279C391.893 122.389 392.011 122.45 392.121 122.413C392.124 122.412 392.126 122.411 392.129 122.41C392.242 122.371 392.302 122.248 392.263 122.135C392.262 122.133 392.261 122.13 392.26 122.128C392.215 122.016 392.091 121.958 391.977 121.997ZM393.813 126.94C393.705 126.994 393.649 127.116 393.682 127.233C393.725 127.344 393.849 127.399 393.96 127.355C393.961 127.355 393.963 127.355 393.964 127.354C394.071 127.323 394.133 127.21 394.103 127.103C394.101 127.095 394.098 127.089 394.095 127.082C394.055 126.966 393.93 126.903 393.813 126.94ZM395.649 131.904C395.545 131.936 395.486 132.047 395.519 132.151C395.522 132.16 395.524 132.168 395.528 132.176C395.568 132.292 395.694 132.355 395.81 132.318C395.92 132.266 395.972 132.14 395.932 132.025C395.892 131.915 395.769 131.86 395.66 131.9C395.655 131.901 395.653 131.903 395.649 131.904ZM397.485 136.848C397.371 136.89 397.312 137.016 397.354 137.13C397.396 137.244 397.522 137.303 397.636 137.261C397.75 137.219 397.809 137.093 397.767 136.979C397.726 136.864 397.599 136.806 397.485 136.848ZM387.891 125.437C387.767 125.437 387.665 125.535 387.658 125.659C387.659 125.782 387.758 125.88 387.88 125.881C387.994 125.884 388.089 125.794 388.092 125.679C388.092 125.676 388.092 125.673 388.092 125.669C388.101 125.55 388.012 125.446 387.894 125.437C387.893 125.437 387.892 125.437 387.891 125.437ZM387.689 130.724C387.575 130.716 387.476 130.802 387.467 130.916C387.467 130.919 387.467 130.923 387.467 130.926C387.456 131.042 387.54 131.145 387.656 131.157C387.66 131.157 387.665 131.158 387.669 131.158C387.79 131.166 387.893 131.075 387.901 130.955C387.901 130.952 387.901 130.949 387.901 130.947C387.904 130.828 387.811 130.729 387.692 130.725C387.691 130.724 387.69 130.724 387.689 130.724ZM387.497 136C387.377 135.992 387.274 136.081 387.265 136.2C387.265 136.201 387.265 136.201 387.265 136.202C387.254 136.325 387.344 136.433 387.466 136.444C387.589 136.456 387.697 136.366 387.708 136.243C387.72 136.121 387.63 136.013 387.507 136.001C387.504 136 387.501 136 387.497 136ZM387.305 141.276C387.192 141.262 387.088 141.343 387.075 141.456C387.074 141.467 387.073 141.477 387.073 141.488C387.069 141.607 387.164 141.708 387.283 141.711C387.403 141.715 387.503 141.62 387.506 141.5C387.506 141.499 387.506 141.498 387.506 141.497C387.514 141.384 387.428 141.284 387.314 141.275C387.312 141.276 387.308 141.276 387.305 141.276ZM397.505 121.997C397.423 121.914 397.289 121.909 397.202 121.987C397.111 122.067 397.101 122.207 397.182 122.299C397.263 122.391 397.402 122.401 397.495 122.319C397.587 122.239 397.597 122.099 397.515 122.007C397.511 122.004 397.509 122.001 397.505 121.997ZM388.728 120.524C388.812 120.64 388.974 120.667 389.092 120.584C389.157 120.55 389.202 120.485 389.213 120.413C389.05 120.454 388.89 120.494 388.728 120.524ZM392.935 126.103C392.845 125.971 392.669 125.932 392.531 126.012C392.395 126.096 392.353 126.273 392.436 126.408C392.519 126.543 392.697 126.586 392.832 126.503C392.836 126.501 392.84 126.498 392.844 126.495C392.977 126.412 393.017 126.237 392.935 126.103ZM396.678 132.015C396.598 131.882 396.425 131.839 396.292 131.92C396.29 131.921 396.287 131.923 396.285 131.924C396.153 132.014 396.114 132.19 396.194 132.327C396.28 132.461 396.459 132.5 396.593 132.414C396.726 132.327 396.764 132.149 396.678 132.015ZM400.43 137.937C400.346 137.798 400.166 137.753 400.027 137.836C399.895 137.93 399.855 138.109 399.936 138.249C400.029 138.378 400.205 138.413 400.339 138.33C400.471 138.254 400.517 138.086 400.442 137.955C400.439 137.949 400.435 137.943 400.43 137.937ZM386.852 124.892C386.695 124.921 386.59 125.071 386.619 125.229C386.619 125.231 386.619 125.233 386.619 125.235C386.635 125.341 386.709 125.428 386.811 125.457C386.831 125.447 386.841 125.457 386.851 125.457C386.884 125.465 386.918 125.469 386.951 125.468C387.109 125.439 387.214 125.288 387.185 125.131C387.185 125.129 387.184 125.127 387.184 125.125C387.152 124.97 387.007 124.869 386.852 124.892ZM388.052 131.793C387.897 131.819 387.792 131.967 387.819 132.122C387.819 132.123 387.82 132.125 387.82 132.126C387.845 132.28 387.989 132.384 388.143 132.359C388.146 132.358 388.149 132.358 388.153 132.357C388.303 132.337 388.409 132.198 388.389 132.048C388.388 132.04 388.386 132.032 388.386 132.024C388.351 131.873 388.207 131.773 388.052 131.793ZM389.252 138.693C389.098 138.726 388.994 138.869 389.01 139.026C389.044 139.187 389.201 139.29 389.361 139.257C389.514 139.225 389.617 139.08 389.596 138.926C389.557 138.772 389.409 138.671 389.252 138.693ZM390.453 145.584C390.298 145.622 390.195 145.769 390.211 145.927C390.246 146.083 390.397 146.184 390.554 146.159C390.711 146.132 390.818 145.984 390.796 145.826C390.766 145.667 390.614 145.56 390.453 145.584ZM391.654 152.485C391.497 152.518 391.393 152.67 391.422 152.828C391.453 152.982 391.6 153.085 391.755 153.061C391.911 153.033 392.015 152.884 391.987 152.728C391.968 152.573 391.828 152.464 391.673 152.483C391.666 152.482 391.659 152.483 391.654 152.485ZM393.853 120.635C393.722 120.544 393.542 120.575 393.449 120.706C393.357 120.836 393.388 121.015 393.518 121.108C393.519 121.108 393.519 121.109 393.52 121.109C393.649 121.204 393.831 121.175 393.925 121.046C394.02 120.917 393.991 120.736 393.862 120.641C393.859 120.64 393.856 120.638 393.853 120.635ZM399.584 124.66C399.456 124.57 399.28 124.599 399.19 124.727C399.187 124.731 399.184 124.736 399.181 124.742C399.089 124.873 399.121 125.054 399.252 125.146C399.385 125.227 399.558 125.196 399.655 125.075C399.745 124.94 399.714 124.757 399.584 124.66ZM384.127 130.986C383.973 131.005 383.864 131.146 383.884 131.3C383.884 131.303 383.885 131.307 383.885 131.31C383.897 131.457 384.025 131.568 384.172 131.556C384.184 131.555 384.196 131.553 384.208 131.552C384.36 131.539 384.474 131.405 384.461 131.253C384.461 131.248 384.46 131.244 384.459 131.239C384.438 131.077 384.289 130.964 384.127 130.986ZM385.046 137.947C384.888 137.976 384.779 138.12 384.793 138.28C384.816 138.442 384.964 138.555 385.126 138.533C385.287 138.505 385.395 138.352 385.367 138.191C385.34 138.038 385.201 137.931 385.046 137.947ZM385.964 144.928C385.809 144.942 385.695 145.079 385.71 145.233C385.711 145.239 385.711 145.245 385.712 145.25C385.735 145.406 385.877 145.516 386.034 145.503C386.196 145.48 386.309 145.332 386.287 145.17C386.269 145.018 386.132 144.909 385.979 144.926C385.975 144.927 385.969 144.927 385.964 144.928ZM386.872 151.889C386.714 151.916 386.607 152.063 386.63 152.222C386.654 152.378 386.796 152.488 386.952 152.474C387.108 152.443 387.216 152.3 387.205 152.142C387.182 151.98 387.033 151.868 386.872 151.889ZM387.982 121.19C387.971 121.179 387.971 121.179 387.962 121.179C387.838 121.095 387.67 121.121 387.578 121.239C387.569 121.259 387.569 121.259 387.578 121.27C387.485 121.379 387.499 121.543 387.608 121.634C387.612 121.637 387.614 121.64 387.618 121.643C387.744 121.744 387.926 121.723 388.027 121.598C388.127 121.473 388.107 121.29 387.982 121.19ZM393.56 125.468C393.431 125.37 393.247 125.395 393.15 125.524C393.149 125.526 393.148 125.527 393.147 125.529C393.054 125.661 393.081 125.843 393.207 125.942C393.335 126.035 393.512 126.008 393.604 125.88C393.606 125.877 393.608 125.875 393.61 125.872C393.709 125.752 393.69 125.575 393.571 125.477C393.568 125.474 393.564 125.471 393.56 125.468ZM399.129 129.755C399.01 129.656 398.833 129.675 398.735 129.794C398.732 129.798 398.729 129.802 398.726 129.806C398.626 129.931 398.646 130.115 398.771 130.215C398.773 130.217 398.775 130.218 398.777 130.22C398.907 130.311 399.086 130.29 399.19 130.169C399.284 130.037 399.257 129.854 399.129 129.755ZM387.346 126.184C387.265 126.044 387.086 125.997 386.947 126.077C386.807 126.158 386.76 126.337 386.84 126.476C386.923 126.611 387.097 126.656 387.234 126.577C387.37 126.496 387.419 126.323 387.346 126.184ZM390.857 132.267C390.77 132.132 390.594 132.087 390.453 132.167C390.318 132.249 390.273 132.423 390.353 132.56C390.429 132.699 390.604 132.749 390.744 132.672C390.745 132.672 390.746 132.671 390.747 132.671C390.886 132.589 390.935 132.41 390.857 132.267ZM394.368 138.36C394.287 138.221 394.108 138.174 393.969 138.254C393.829 138.335 393.782 138.513 393.863 138.653C393.941 138.789 394.115 138.836 394.251 138.757C394.253 138.756 394.254 138.755 394.256 138.755C394.395 138.678 394.445 138.503 394.368 138.363C394.369 138.362 394.368 138.361 394.368 138.36ZM397.879 144.444C397.796 144.31 397.622 144.266 397.486 144.344C397.347 144.419 397.296 144.592 397.371 144.73C397.372 144.732 397.374 144.735 397.375 144.737C397.456 144.878 397.636 144.928 397.778 144.848C397.912 144.761 397.957 144.584 397.879 144.444ZM401.399 150.537C401.317 150.397 401.138 150.348 400.996 150.426C400.86 150.511 400.811 150.686 400.885 150.83C400.957 150.964 401.125 151.015 401.259 150.942C401.266 150.938 401.272 150.934 401.278 150.93C401.418 150.853 401.47 150.68 401.399 150.537ZM392.209 119.717C392.047 119.748 391.896 119.788 391.734 119.828C391.723 119.839 391.723 119.839 391.723 119.848C391.683 120.001 391.774 120.159 391.927 120.199C391.93 120.2 391.932 120.2 391.935 120.201C392.085 120.245 392.242 120.159 392.285 120.009C392.286 120.006 392.287 120.002 392.288 119.999C392.32 119.898 392.289 119.787 392.209 119.717ZM398.867 121.462C398.713 121.422 398.555 121.515 398.515 121.669C398.515 121.671 398.514 121.672 398.514 121.674C398.479 121.83 398.572 121.986 398.726 122.027C398.876 122.071 399.033 121.985 399.076 121.834C399.077 121.832 399.078 121.828 399.079 121.825C399.12 121.667 399.025 121.505 398.867 121.462ZM385.036 129.856C384.989 129.776 384.885 129.748 384.804 129.796C384.722 129.844 384.696 129.947 384.743 130.029C384.79 130.109 384.895 130.137 384.976 130.089C385.056 130.043 385.084 129.94 385.038 129.86C385.037 129.858 385.036 129.857 385.036 129.856ZM387.154 133.366C387.11 133.286 387.009 133.257 386.929 133.301C386.928 133.302 386.925 133.304 386.923 133.305C386.843 133.359 386.818 133.463 386.862 133.547C386.921 133.62 387.025 133.637 387.105 133.587C387.179 133.542 387.203 133.446 387.159 133.371C387.157 133.371 387.155 133.369 387.154 133.366ZM389.283 136.877C389.237 136.797 389.135 136.769 389.054 136.815C389.053 136.816 389.052 136.816 389.051 136.817H389.041C388.966 136.87 388.945 136.97 388.99 137.05C389.036 137.13 389.138 137.158 389.219 137.112C389.22 137.111 389.221 137.111 389.222 137.11C389.232 137.09 389.252 137.079 389.272 137.05C389.307 136.998 389.311 136.933 389.283 136.877ZM386.428 121.14C386.337 121.121 386.246 121.173 386.217 121.261C386.192 121.351 386.244 121.445 386.334 121.47C386.339 121.471 386.343 121.472 386.348 121.473C386.436 121.496 386.526 121.443 386.549 121.354C386.549 121.353 386.549 121.352 386.55 121.351C386.575 121.26 386.523 121.166 386.432 121.14C386.43 121.14 386.429 121.14 386.428 121.14ZM390.403 122.118C390.312 122.101 390.224 122.159 390.201 122.249C390.179 122.338 390.233 122.429 390.323 122.451C390.412 122.473 390.503 122.419 390.525 122.329C390.545 122.238 390.492 122.146 390.403 122.118ZM394.388 123.107C394.297 123.081 394.202 123.134 394.176 123.224C394.176 123.225 394.175 123.226 394.175 123.227C394.152 123.319 394.206 123.413 394.297 123.437C394.389 123.461 394.483 123.406 394.506 123.315C394.531 123.225 394.478 123.132 394.388 123.107ZM398.363 124.086C398.274 124.065 398.185 124.119 398.161 124.207C398.14 124.298 398.193 124.391 398.283 124.418C398.375 124.438 398.466 124.378 398.485 124.285C398.503 124.197 398.449 124.109 398.363 124.086ZM381.384 137.624L381.323 137.957H381.343C381.437 137.943 381.504 137.859 381.494 137.765C381.479 137.705 381.439 137.653 381.384 137.624ZM381.908 141.67C381.823 141.693 381.767 141.774 381.777 141.861C381.786 141.949 381.867 142.013 381.955 142.002C381.956 142.002 381.958 142.002 381.958 142.002C382.043 141.998 382.107 141.926 382.102 141.842C382.102 141.835 382.101 141.828 382.099 141.822C382.093 141.731 382.015 141.663 381.925 141.669C381.92 141.668 381.913 141.669 381.908 141.67ZM386.902 125.488C386.888 125.474 386.87 125.463 386.851 125.457C386.84 125.457 386.831 125.447 386.811 125.457C386.752 125.446 386.694 125.47 386.66 125.518C386.598 125.593 386.609 125.704 386.685 125.766C386.76 125.829 386.871 125.817 386.933 125.742C386.994 125.666 386.984 125.555 386.908 125.493C386.906 125.491 386.905 125.489 386.902 125.488ZM390.211 127.908C390.132 127.859 390.027 127.876 389.969 127.949C389.912 128.024 389.926 128.131 389.999 128.191C390.01 128.2 390.01 128.2 390.03 128.2C390.103 128.24 390.195 128.219 390.242 128.15C390.298 128.075 390.285 127.968 390.211 127.908ZM393.5 130.34C393.425 130.288 393.322 130.305 393.269 130.38C393.269 130.38 393.269 130.381 393.269 130.382C393.215 130.46 393.233 130.567 393.309 130.624C393.388 130.671 393.491 130.654 393.551 130.583C393.6 130.501 393.578 130.395 393.5 130.34ZM396.809 132.771C396.737 132.719 396.634 132.731 396.578 132.802C396.518 132.871 396.526 132.975 396.595 133.034C396.599 133.038 396.604 133.041 396.607 133.044C396.676 133.1 396.778 133.09 396.834 133.02C396.836 133.018 396.838 133.015 396.839 133.013C396.891 132.937 396.878 132.834 396.809 132.771ZM384.925 132.338C384.87 132.28 384.778 132.277 384.719 132.332C384.717 132.334 384.715 132.336 384.713 132.338C384.652 132.393 384.647 132.488 384.702 132.549C384.758 132.611 384.852 132.615 384.914 132.56C384.978 132.507 384.986 132.413 384.934 132.349C384.932 132.345 384.928 132.342 384.925 132.338ZM387.316 135.031C387.26 134.971 387.165 134.967 387.104 135.023C387.044 135.079 387.039 135.172 387.094 135.233C387.15 135.291 387.243 135.296 387.305 135.243C387.359 135.184 387.364 135.095 387.316 135.031ZM385.944 122.148C385.868 122.142 385.801 122.197 385.793 122.274C385.793 122.275 385.793 122.277 385.793 122.279C385.783 122.358 385.839 122.429 385.917 122.44C385.923 122.441 385.928 122.441 385.934 122.441C386.014 122.444 386.082 122.381 386.085 122.3C386.085 122.3 386.085 122.3 386.085 122.299C386.084 122.22 386.022 122.155 385.944 122.148ZM389.525 122.361C389.445 122.357 389.376 122.419 389.372 122.499C389.368 122.58 389.43 122.649 389.511 122.652C389.512 122.652 389.513 122.652 389.514 122.652C389.59 122.66 389.658 122.605 389.666 122.529C389.666 122.526 389.666 122.524 389.667 122.521C389.676 122.443 389.621 122.371 389.542 122.361C389.536 122.361 389.531 122.361 389.525 122.361ZM393.116 122.572C393.034 122.565 392.962 122.627 392.956 122.709C392.956 122.71 392.956 122.712 392.956 122.713C392.95 122.796 393.013 122.869 393.097 122.874C393.18 122.88 393.253 122.817 393.259 122.733C393.264 122.65 393.201 122.578 393.116 122.572ZM381.676 140.439C381.602 140.464 381.56 140.545 381.585 140.62V140.621C381.61 140.698 381.693 140.74 381.769 140.715C381.772 140.714 381.775 140.713 381.777 140.712C381.848 140.681 381.886 140.605 381.868 140.53C381.843 140.454 381.76 140.412 381.684 140.436C381.681 140.437 381.679 140.438 381.676 140.439ZM386.64 127.264C386.567 127.232 386.483 127.264 386.448 127.334C386.405 127.393 386.418 127.476 386.476 127.519C386.486 127.527 386.497 127.533 386.509 127.536C386.581 127.568 386.665 127.536 386.7 127.466C386.742 127.402 386.725 127.317 386.662 127.276C386.655 127.27 386.647 127.267 386.64 127.264ZM389.878 128.837C389.802 128.804 389.714 128.836 389.676 128.908C389.637 128.98 389.663 129.069 389.734 129.109C389.735 129.109 389.736 129.11 389.737 129.11C389.813 129.146 389.903 129.115 389.939 129.039C389.978 128.968 389.953 128.879 389.881 128.838C389.88 128.838 389.879 128.837 389.878 128.837ZM393.096 130.411C393.025 130.372 392.936 130.398 392.895 130.47C392.895 130.471 392.894 130.471 392.894 130.472C392.862 130.548 392.893 130.636 392.965 130.674C393.034 130.714 393.123 130.691 393.163 130.622C393.164 130.619 393.166 130.617 393.167 130.614C393.203 130.537 393.172 130.448 393.096 130.411ZM381.929 139.612C381.867 139.494 381.721 139.449 381.604 139.51C381.598 139.513 381.591 139.517 381.585 139.521C381.468 139.596 381.432 139.753 381.508 139.871C381.581 139.985 381.73 140.022 381.847 139.954C381.962 139.881 381.998 139.729 381.929 139.612ZM385.026 144.857C384.958 144.736 384.806 144.691 384.682 144.757C384.562 144.831 384.522 144.987 384.591 145.11C384.663 145.227 384.814 145.267 384.935 145.201C385.054 145.131 385.095 144.978 385.026 144.857ZM388.122 150.093C388.053 149.972 387.898 149.931 387.776 150C387.655 150.07 387.613 150.225 387.683 150.347C387.685 150.35 387.687 150.353 387.689 150.355C387.759 150.472 387.91 150.509 388.027 150.44C388.029 150.439 388.031 150.438 388.033 150.436C388.149 150.366 388.189 150.214 388.122 150.093ZM384.127 126.688C383.991 126.654 383.854 126.735 383.814 126.869C383.791 127.007 383.873 127.141 384.006 127.182C384.142 127.213 384.278 127.129 384.308 126.992C384.308 126.991 384.308 126.991 384.308 126.99C384.346 126.864 384.274 126.731 384.147 126.693C384.142 126.692 384.135 126.69 384.127 126.688ZM390.029 128.201C390.009 128.201 390.009 128.201 389.999 128.192C389.868 128.185 389.752 128.268 389.716 128.394C389.684 128.527 389.766 128.662 389.9 128.695C389.903 128.696 389.905 128.696 389.908 128.697C390.039 128.727 390.17 128.646 390.2 128.515C390.239 128.381 390.162 128.241 390.029 128.201ZM395.921 129.725C395.793 129.689 395.66 129.764 395.624 129.892C395.622 129.9 395.62 129.908 395.618 129.917C395.581 130.038 395.649 130.166 395.77 130.205C395.777 130.206 395.783 130.208 395.789 130.209C395.919 130.25 396.057 130.179 396.098 130.05C396.099 130.046 396.1 130.042 396.102 130.038C396.134 129.902 396.054 129.765 395.921 129.725ZM384.309 133.206C384.194 133.128 384.038 133.155 383.956 133.266C383.874 133.378 383.897 133.535 384.007 133.619C384.12 133.696 384.273 133.674 384.36 133.568C384.446 133.454 384.424 133.292 384.309 133.206ZM389.172 136.868C389.139 136.837 389.096 136.819 389.05 136.817H389.04C388.955 136.816 388.873 136.853 388.818 136.918C388.735 137.034 388.762 137.197 388.878 137.281C388.995 137.359 389.152 137.328 389.229 137.211C389.306 137.099 389.28 136.948 389.172 136.868ZM394.044 140.54C393.935 140.454 393.777 140.472 393.691 140.58C393.605 140.694 393.627 140.856 393.741 140.943C393.854 141.019 394.007 140.997 394.094 140.892C394.178 140.782 394.156 140.624 394.044 140.54C394.045 140.54 394.044 140.54 394.044 140.54ZM398.907 144.191C398.795 144.109 398.638 144.132 398.554 144.242C398.47 144.348 398.488 144.503 398.594 144.588C398.597 144.59 398.601 144.592 398.604 144.595C398.715 144.678 398.874 144.656 398.957 144.544C399.041 144.433 399.019 144.276 398.907 144.191ZM387.033 121.886C386.897 121.905 386.801 122.031 386.82 122.167V122.168C386.837 122.302 386.957 122.398 387.091 122.382C387.095 122.382 387.099 122.381 387.103 122.38C387.232 122.369 387.327 122.255 387.317 122.126C387.316 122.12 387.316 122.114 387.314 122.107C387.299 121.969 387.175 121.87 387.038 121.884C387.038 121.885 387.035 121.886 387.033 121.886ZM393.066 121.038C392.938 121.047 392.84 121.158 392.849 121.286C392.85 121.298 392.851 121.309 392.853 121.321C392.861 121.447 392.97 121.544 393.096 121.536C393.106 121.535 393.115 121.534 393.125 121.532C393.259 121.517 393.355 121.395 393.338 121.261C393.338 121.258 393.337 121.254 393.336 121.25C393.326 121.121 393.212 121.025 393.083 121.036C393.079 121.037 393.072 121.037 393.066 121.038ZM384.491 139.995C384.374 139.889 384.193 139.899 384.087 140.015C383.981 140.132 383.99 140.313 384.107 140.419C384.222 140.528 384.403 140.523 384.511 140.409C384.619 140.294 384.615 140.113 384.5 140.005C384.498 140.001 384.495 139.998 384.491 139.995ZM389.535 144.595C389.417 144.495 389.24 144.503 389.132 144.615C389.023 144.727 389.026 144.905 389.137 145.014C389.248 145.123 389.426 145.12 389.535 145.009C389.538 145.006 389.542 145.003 389.545 144.999C389.644 144.881 389.639 144.709 389.535 144.595ZM394.57 149.205C394.46 149.099 394.284 149.103 394.177 149.213C394.174 149.217 394.17 149.222 394.166 149.226C394.06 149.327 394.056 149.495 394.157 149.602C394.163 149.607 394.17 149.613 394.175 149.619C394.286 149.725 394.462 149.721 394.569 149.61C394.572 149.606 394.576 149.602 394.579 149.599C394.682 149.487 394.678 149.313 394.57 149.205ZM389.424 125.135C389.28 125.134 389.161 125.251 389.16 125.395C389.16 125.406 389.161 125.417 389.162 125.428C389.162 125.579 389.285 125.701 389.436 125.701C389.587 125.701 389.71 125.579 389.71 125.428C389.71 125.417 389.709 125.408 389.708 125.397C389.71 125.254 389.596 125.136 389.452 125.134C389.442 125.133 389.433 125.134 389.424 125.135ZM396.244 124.822C396.087 124.83 395.964 124.958 395.962 125.115C395.966 125.27 396.097 125.392 396.252 125.388C396.253 125.388 396.254 125.388 396.254 125.388C396.401 125.392 396.523 125.279 396.528 125.132C396.528 125.12 396.528 125.107 396.527 125.095C396.526 124.944 396.404 124.822 396.252 124.822C396.25 124.822 396.247 124.822 396.244 124.822ZM381.989 154.31C381.918 154.171 381.751 154.109 381.605 154.169C381.467 154.236 381.408 154.403 381.474 154.542C381.539 154.683 381.706 154.746 381.847 154.683C381.988 154.623 382.053 154.461 381.993 154.32C381.992 154.317 381.99 154.314 381.989 154.31ZM384.874 160.485C384.813 160.347 384.652 160.286 384.514 160.348C384.509 160.35 384.505 160.352 384.501 160.354C384.361 160.419 384.298 160.585 384.36 160.727C384.426 160.866 384.591 160.925 384.731 160.859C384.732 160.859 384.733 160.858 384.734 160.858C384.874 160.793 384.937 160.627 384.874 160.485ZM384.854 132.167C384.707 132.117 384.546 132.193 384.491 132.338C384.437 132.482 384.509 132.644 384.653 132.702C384.797 132.758 384.959 132.686 385.015 132.542C385.015 132.541 385.015 132.541 385.016 132.54C385.074 132.393 385.003 132.226 384.855 132.167C384.854 132.167 384.854 132.167 384.854 132.167ZM391.26 134.497C391.115 134.446 390.955 134.521 390.904 134.667C390.853 134.81 390.926 134.968 391.068 135.021C391.215 135.078 391.382 135.006 391.441 134.86C391.485 134.71 391.407 134.552 391.26 134.497ZM397.677 136.828C397.534 136.772 397.375 136.843 397.319 136.985C397.317 136.989 397.315 136.994 397.314 136.999C397.263 137.142 397.336 137.298 397.479 137.349C397.482 137.35 397.484 137.351 397.487 137.352C397.629 137.407 397.789 137.337 397.844 137.195C397.846 137.19 397.848 137.186 397.849 137.181C397.901 137.038 397.827 136.881 397.685 136.831C397.682 136.829 397.679 136.828 397.677 136.828ZM381.888 135.909C381.82 135.88 381.741 135.909 381.711 135.977C381.709 135.981 381.707 135.986 381.706 135.991C381.671 136.051 381.693 136.127 381.752 136.162C381.759 136.167 381.768 136.17 381.776 136.172C381.84 136.209 381.92 136.188 381.957 136.124C381.961 136.117 381.965 136.109 381.968 136.102C382 136.028 381.966 135.944 381.892 135.912C381.891 135.91 381.89 135.91 381.888 135.909ZM385.237 129.271C385.155 129.273 385.088 129.34 385.086 129.422C385.083 129.502 385.146 129.57 385.228 129.573C385.31 129.575 385.378 129.509 385.379 129.428C385.379 129.426 385.379 129.424 385.379 129.422C385.381 129.342 385.318 129.274 385.237 129.271Z" fill="white"/>
<path d="M342.638 65.269C342.638 65.269 346.657 75.6998 345.69 91.3686C345.101 100.915 337.082 112.011 330.533 119.649C325.178 125.897 323.97 127.144 323.97 127.144L347.389 146.662C347.389 146.662 357.248 142.172 358.316 133.212C359.383 124.251 361.903 119.81 363.655 115.656C366.795 108.208 369.257 102.876 364.339 89.128C359.803 76.4528 354.925 61.9914 349.879 58.4478" fill="url(#paint1_linear)"/>
<path d="M412.865 112.516C412.865 112.516 395.668 119.205 382.886 121.46C384.175 113.985 386.177 105.819 378.83 92.958C370.213 77.8814 353.708 61.5631 346.5 58.2051C356.366 59.3598 365.869 62.6164 374.369 67.7577C388.668 76.345 388.963 82.0469 397.028 87.2953C405.085 92.5447 415.681 98.6695 412.865 112.516Z" fill="url(#paint2_linear)"/>
<path d="M342.638 65.268C345.501 74.7804 347.853 84.4383 349.686 94.2004C351.808 105.219 349.143 122.651 345.057 131.397C340.971 140.143 339.591 141.724 339.591 141.724L371.479 159.981C371.479 159.981 381.947 152.774 381.344 142.205C380.742 131.637 382.743 125.99 383.915 120.833C386.016 111.586 387.768 104.922 379.269 90.0493C371.433 76.337 356.435 61.5063 349.88 58.4468" fill="#23286B"/>
<path d="M297.322 120.198L258 163.411L301.214 202.733L340.536 159.52L297.322 120.198Z" fill="url(#paint3_linear)"/>
<path d="M355.433 150.79C349.601 156.09 343.296 160.846 336.596 164.997C330.042 168.795 322.685 171.713 319.194 174.717C313.941 179.223 309.033 180.524 302.777 180.161C296.529 179.807 292.865 172.651 293.497 171.742C294.128 170.823 301.284 171.809 303.571 171.053C305.848 170.307 306.402 170.641 302.174 166.939C297.945 163.246 300.815 162.624 303.198 164.212C305.589 165.81 310.66 166.183 313.406 166.738C317.29 167.513 319.758 164.786 326.321 159.094C329.775 156.1 335.295 148.408 339.734 141.807L355.433 150.79Z" fill="#FFBEB6"/>
<path d="M319.627 45.6572C319.646 45.7338 319.662 45.7893 319.669 45.8237C319.668 45.8352 319.671 45.8477 319.675 45.8582C319.752 46.1634 319.841 46.4714 319.941 46.7881C321.023 50.1929 319.836 53.7624 320.249 54.6473C320.663 55.5323 322.668 55.3247 323.532 55.0195C324.396 54.7143 327.306 58.3708 331.778 59.1935C335.974 59.9666 340.582 57.4897 342.91 54.3086C340.95 46.8541 338.378 44.1026 330.285 44.0959C321.452 44.0854 319.619 39.145 319.619 39.145C319.136 41.289 319.138 43.5143 319.627 45.6572Z" fill="#FFBEB6"/>
<path d="M349.874 58.4493C347.358 66.0455 342.642 65.2705 342.642 65.2705C341.822 63.383 340.823 61.5796 339.657 59.8843C341.685 59.0616 344.507 57.8275 347.578 56.2202L349.874 58.4493Z" fill="url(#paint4_linear)"/>
<path d="M365.325 38.8974C363.885 37.9168 362.3 37.1696 360.627 36.6845C357.367 35.6829 354.439 33.8202 352.15 31.2926C350.625 29.5026 348.888 27.9059 346.977 26.5359C342.319 22.733 335.897 21.9275 330.444 24.4608C322.365 28.3192 313.524 35.679 319.704 46.106C319.188 43.8664 319.193 41.5378 319.719 39.3001C319.719 39.3001 319.347 43.4225 326.67 45.0451C329.491 45.8726 331.933 47.6655 333.567 50.1098C335.894 53.9117 335.111 58.7985 330.966 60.8621C330.552 61.0678 330.915 61.6868 331.328 61.4821C334.932 59.671 336.569 55.4166 335.108 51.6568C334.168 49.1569 332.359 47.079 330.014 45.8018C335.737 47.8166 336.709 54.4303 336.467 61.0898C336.467 61.0898 357.124 54.171 364.775 42.1434C363.214 39.8454 360.915 38.1492 358.258 37.336C354.789 36.187 351.389 32.1412 349.264 29.3706C350.905 31.0018 352.391 32.8558 354.259 34.3818C357.465 37.0002 361.668 37.1361 364.965 39.5163C365.338 39.788 365.696 39.1652 365.325 38.8974Z" fill="#E94A47"/>
<path d="M321.866 47.8915C322.813 48.9658 324.453 49.0692 325.528 48.1211C325.917 47.7776 326.193 47.326 326.324 46.8238C326.425 46.4421 325.848 46.2125 325.745 46.599C325.512 47.6647 324.46 48.3401 323.395 48.1077C322.993 48.0197 322.629 47.8092 322.352 47.5049C322.081 47.216 321.593 47.5997 321.866 47.8915Z" fill="#1C2868"/>
<path d="M312.646 317.68C299.004 317.68 287.944 306.619 287.944 292.977C287.945 279.334 299.005 268.274 312.647 268.275C326.29 268.276 337.35 279.335 337.349 292.978C337.335 306.614 326.283 317.664 312.646 317.68ZM312.646 281.668C306.401 281.668 301.337 286.731 301.338 292.977C301.339 299.222 306.402 304.286 312.647 304.285C318.893 304.285 323.955 299.222 323.955 292.977C323.95 286.734 318.89 281.674 312.646 281.668Z" fill="#23286B"/>
<path d="M212.325 312.298C208.325 312.281 204.498 310.665 201.695 307.81C196.794 302.993 195.612 295.539 198.782 289.442L210.482 266.235L214.753 268.387L203.054 291.595C200.843 295.854 201.664 301.056 205.078 304.427C208.165 307.644 212.999 308.446 216.959 306.4L288.063 265.979L290.427 270.139L219.166 310.646C217.046 311.725 214.703 312.29 212.325 312.298Z" fill="#A1C3FC"/>
<path d="M136.924 158.493L133.046 161.295L210.696 268.73L214.574 265.928L136.924 158.493Z" fill="#A1C3FC"/>
<path d="M332.215 314.533C331.571 314.534 330.953 314.274 330.503 313.811L288.223 270.438C282.333 270.359 250.915 269.957 212.603 269.702C211.282 269.694 210.219 268.616 210.227 267.295V267.294C210.236 265.973 210.393 262.476 211.755 262.504C254.121 262.785 288.94 265.662 289.278 265.667C289.911 265.676 290.515 265.936 290.958 266.389L333.93 310.471C334.852 311.417 334.833 312.93 333.887 313.853C333.438 314.289 332.839 314.533 332.215 314.533Z" fill="#A1C3FC"/>
<path d="M116.352 154.652H133.285C135.4 154.652 137.115 156.366 137.115 158.481C137.115 160.597 135.4 162.311 133.285 162.311H116.352C114.236 162.311 112.522 160.597 112.522 158.481C112.522 156.367 114.236 154.652 116.352 154.652Z" fill="#23286B"/>
<path d="M312.647 297.841C315.334 297.841 317.512 295.663 317.512 292.977C317.512 290.29 315.334 288.112 312.647 288.112C309.961 288.112 307.782 290.29 307.782 292.977C307.782 295.663 309.961 297.841 312.647 297.841Z" fill="#23286B"/>
<path d="M204.941 218.483H332.149C332.149 218.483 299.38 264.59 283.104 265.172C269.388 265.662 235.459 265.239 218.678 265.153C213.288 265.125 209.819 261.487 208.694 256.797L204.941 218.483Z" fill="url(#paint5_linear)"/>
<path d="M14.0568 293.466L5.85986 316.332L63.7284 316.334C63.7284 316.334 60.7608 310.611 50.8695 306.372C40.9782 302.133 31.7452 293.466 31.7452 293.466H14.0568Z" fill="url(#paint6_linear)"/>
<path d="M63.6539 293.39L55.4569 316.256L113.325 316.258C113.325 316.258 110.358 310.535 100.467 306.296C90.5753 302.056 81.3422 293.39 81.3422 293.39H63.6539Z" fill="#A1C3FC"/>
<path d="M56.4987 170.087C63.6548 179.147 68.046 186.236 70.2464 192.732C67.5964 201.638 64.5541 210.89 61.2344 219.28C49.7827 248.22 33.4998 293.452 33.4998 293.452H1.5366C1.5366 293.452 -1.7066 283.828 1.23045 274.453C2.74203 269.65 5.24858 270.463 7.42985 254.611C9.1519 242.04 12.2994 237.333 18.03 227.986C23.7606 218.639 32.036 214.535 40.1297 186.111C46.0708 165.227 45.1045 152.971 43.9565 147.432C46.7998 155.65 51.0437 163.314 56.4987 170.087Z" fill="url(#paint7_linear)"/>
<path d="M105.443 219.347C103.444 231.152 81.4111 293.452 81.4111 293.452L49.3905 293.366C47.9746 277.992 49.1418 278.078 53.4373 268.865C57.7425 259.643 51.7918 252.238 59.0244 239.868C64.1427 231.133 66.3718 228.378 70.3708 213.941C74.3602 199.495 71.5571 189.144 56.4987 170.086C44.3679 154.741 41.9091 141.06 41.4021 136.325C44.7572 137.392 48.1765 138.25 51.6387 138.889C53.753 143.079 56.0587 145.385 61.0335 150.015C64.2193 152.99 70.5909 155.248 75.2213 160.625C79.1533 165.188 85.7832 167.723 85.7832 167.723L89.0934 158.568C93.6951 167.417 98.8899 177.357 102.458 184.026C110.255 198.634 107.443 207.541 105.443 219.347Z" fill="url(#paint8_linear)"/>
<path opacity="0.39" d="M52.2185 152.59C52.1228 152.493 51.9669 152.492 51.8702 152.588C51.8664 152.592 51.8635 152.595 51.8607 152.599C51.7669 152.694 51.7679 152.848 51.8645 152.943C51.8664 152.945 51.8683 152.947 51.8702 152.948C51.9659 153.044 52.1218 153.045 52.2185 152.95C52.2223 152.946 52.2252 152.943 52.228 152.939C52.3218 152.843 52.3208 152.689 52.2242 152.595C52.2223 152.594 52.2204 152.592 52.2185 152.59ZM56.3361 148.149C56.2337 148.06 56.0797 148.069 55.9869 148.167C55.895 148.27 55.8989 148.426 55.9955 148.525C56.0998 148.619 56.2596 148.61 56.3533 148.507C56.4471 148.408 56.4442 148.251 56.3447 148.158C56.3428 148.155 56.3399 148.152 56.3361 148.149ZM71.7714 165.867C71.6327 165.872 71.5246 165.988 71.5294 166.126C71.5294 166.126 71.5294 166.126 71.5294 166.127C71.5418 166.264 71.6604 166.366 71.7982 166.36C71.9293 166.363 72.0374 166.258 72.0402 166.126C72.0402 166.12 72.0402 166.115 72.0402 166.109C72.0307 165.968 71.9111 165.861 71.7714 165.867ZM71.5648 159.815C71.4251 159.824 71.317 159.943 71.3227 160.084C71.3284 160.218 71.4413 160.322 71.5753 160.317C71.5772 160.317 71.5801 160.317 71.582 160.317C71.7207 160.307 71.824 160.186 71.8135 160.048C71.8049 159.916 71.6958 159.815 71.5648 159.815ZM48.4845 142.653C48.4175 142.532 48.2711 142.482 48.1439 142.536C48.0205 142.595 47.9688 142.744 48.0272 142.867C48.0817 142.99 48.2262 143.047 48.3505 142.991C48.3563 142.989 48.362 142.986 48.3678 142.983C48.4893 142.93 48.5448 142.789 48.4921 142.668C48.4902 142.663 48.4874 142.658 48.4845 142.653ZM59.6405 160.978C59.5171 160.928 59.3755 160.987 59.3258 161.111C59.3229 161.118 59.321 161.125 59.3191 161.131C59.277 161.26 59.3439 161.398 59.4712 161.445C59.5955 161.496 59.7362 161.436 59.7869 161.311C59.7897 161.305 59.7917 161.299 59.7936 161.293C59.8414 161.172 59.7821 161.035 59.6606 160.986C59.6529 160.983 59.6462 160.98 59.6405 160.978ZM61.7615 155.302C61.6285 155.257 61.4831 155.324 61.4305 155.454C61.398 155.586 61.4659 155.723 61.5912 155.777C61.7223 155.824 61.8667 155.756 61.9136 155.625C61.9624 155.498 61.9002 155.356 61.7739 155.307C61.7701 155.305 61.7663 155.304 61.7615 155.302ZM49.004 138.364C48.9743 138.419 48.9705 138.485 48.9954 138.543C49.0403 138.657 49.1656 138.716 49.2814 138.677C49.3799 138.646 49.4383 138.545 49.4154 138.444C49.2814 138.417 49.1389 138.391 49.004 138.364ZM54.1606 158.812C54.0496 158.763 53.9185 158.81 53.8649 158.919C53.8114 159.028 53.8554 159.16 53.9635 159.215C54.0754 159.267 54.2074 159.224 54.2677 159.117C54.3232 159.003 54.2744 158.867 54.1606 158.812ZM56.5246 153.96C56.4136 153.908 56.2806 153.956 56.2289 154.067C56.1773 154.178 56.2251 154.311 56.3361 154.363C56.4451 154.413 56.5743 154.37 56.6317 154.264C56.6872 154.154 56.6441 154.02 56.5341 153.965C56.5312 153.963 56.5274 153.961 56.5246 153.96ZM58.8972 149.098C58.8283 149.065 58.7479 149.068 58.6819 149.107H58.6733C58.6398 149.128 58.6149 149.159 58.6015 149.197C58.5719 149.255 58.569 149.324 58.5929 149.384C58.614 149.437 58.6561 149.479 58.7096 149.501C58.8044 149.557 58.9259 149.526 58.9823 149.431C58.988 149.421 58.9928 149.412 58.9967 149.402C59.0541 149.294 59.0139 149.159 58.9058 149.102C58.9019 149.101 58.8991 149.1 58.8972 149.098ZM50.6964 146.305C50.6275 146.213 50.4955 146.193 50.4027 146.262C50.396 146.267 50.3893 146.273 50.3835 146.279C50.2936 146.365 50.2859 146.505 50.3653 146.601C50.4448 146.69 50.5816 146.698 50.6705 146.618C50.6734 146.615 50.6763 146.613 50.6791 146.611C50.7681 146.539 50.7815 146.409 50.7098 146.32C50.705 146.314 50.7002 146.309 50.6964 146.305ZM65.0114 159.009C64.887 159.006 64.7808 159.1 64.7694 159.225C64.7627 159.345 64.8545 159.449 64.975 159.457C65.0937 159.471 65.2008 159.388 65.2161 159.27C65.2161 159.267 65.2171 159.263 65.2171 159.26C65.2228 159.136 65.1338 159.028 65.0114 159.009ZM65.3338 153.619C65.2104 153.616 65.108 153.711 65.1013 153.835C65.0946 153.957 65.1893 154.061 65.3118 154.067C65.3137 154.067 65.3147 154.067 65.3166 154.067C65.4362 154.071 65.5385 153.981 65.5491 153.861C65.5529 153.736 65.4582 153.63 65.3338 153.619ZM53.0776 145.642C53.0154 145.603 52.9331 145.619 52.8901 145.678C52.8451 145.734 52.8547 145.817 52.9111 145.862C52.913 145.863 52.9149 145.864 52.9168 145.865C52.9666 145.906 53.0403 145.9 53.0824 145.85C53.0881 145.843 53.0919 145.837 53.0958 145.829C53.1388 145.773 53.1311 145.691 53.0776 145.642ZM49.8908 139.537C49.8573 139.476 49.7798 139.454 49.7196 139.488C49.7167 139.489 49.7148 139.491 49.7119 139.493C49.6526 139.535 49.6306 139.613 49.6584 139.681C49.7024 139.74 49.7808 139.759 49.8468 139.726C49.909 139.684 49.9291 139.601 49.8908 139.537ZM51.1077 148.973C51.0331 148.941 50.947 148.973 50.9107 149.044C50.8762 149.121 50.9078 149.212 50.9824 149.25C51.0532 149.286 51.1393 149.258 51.1747 149.188C51.1766 149.185 51.1776 149.182 51.1795 149.178C51.2187 149.108 51.1938 149.019 51.123 148.979C51.1183 148.977 51.1135 148.976 51.1077 148.973ZM52.7466 145.723C52.6719 145.689 52.5839 145.716 52.5409 145.786C52.5026 145.863 52.5303 145.956 52.604 146.001C52.6805 146.03 52.7676 146 52.8097 145.929C52.8422 145.855 52.8154 145.767 52.7466 145.723ZM46.3807 142.822C46.3271 142.764 46.2372 142.755 46.175 142.804C46.1119 142.858 46.1042 142.954 46.1568 143.019C46.2075 143.083 46.2994 143.094 46.3635 143.044C46.3664 143.042 46.3692 143.039 46.3711 143.037C46.4324 142.98 46.4362 142.884 46.3807 142.822ZM49.1389 140.441C49.0872 140.38 48.9944 140.371 48.9332 140.424C48.9303 140.427 48.9265 140.429 48.9236 140.432C48.8624 140.477 48.849 140.562 48.893 140.624C48.8968 140.628 48.9006 140.633 48.9054 140.638C48.9552 140.699 49.0461 140.709 49.1082 140.659C49.1092 140.658 49.1102 140.657 49.1121 140.656C49.1781 140.607 49.1924 140.515 49.1446 140.449C49.1417 140.446 49.1408 140.443 49.1389 140.441ZM58.6819 149.108H58.6733C58.59 149.105 58.5193 149.168 58.5126 149.251C58.5126 149.308 58.5441 149.358 58.5929 149.385C58.6197 149.394 58.6379 149.394 58.6551 149.412C58.7383 149.418 58.8101 149.354 58.8158 149.271C58.8158 149.27 58.8158 149.269 58.8158 149.268C58.8206 149.188 58.7623 149.118 58.6819 149.108ZM45.0825 140.96C44.9858 140.854 44.8213 140.847 44.7151 140.942C44.6089 141.039 44.6013 141.203 44.6969 141.31C44.7792 141.413 44.9304 141.429 45.0337 141.347C45.0413 141.341 45.048 141.334 45.0547 141.328C45.1619 141.232 45.1743 141.07 45.0825 140.96ZM54.7336 164.685C54.5892 164.683 54.4677 164.793 54.4562 164.936C54.4562 165.08 54.5729 165.195 54.7154 165.195C54.8465 165.212 54.9661 165.119 54.9824 164.987C54.9833 164.978 54.9843 164.971 54.9843 164.962C54.9843 164.819 54.8762 164.701 54.7336 164.685ZM55.0474 158.463C54.9068 158.457 54.7872 158.565 54.7786 158.705C54.7681 158.849 54.8762 158.973 55.0197 158.983C55.1632 158.992 55.2875 158.885 55.2971 158.741C55.2971 158.739 55.2971 158.735 55.2981 158.732C55.3057 158.591 55.1986 158.472 55.0579 158.464C55.0541 158.463 55.0512 158.463 55.0474 158.463ZM55.3602 152.232C55.2215 152.223 55.101 152.328 55.0924 152.467C55.0924 152.469 55.0924 152.471 55.0924 152.474C55.0905 152.617 55.2014 152.735 55.343 152.743C55.4837 152.751 55.6042 152.643 55.6119 152.502C55.6195 152.361 55.5114 152.241 55.3708 152.233C55.3669 152.232 55.3641 152.232 55.3602 152.232ZM55.6922 146C55.5478 145.994 55.4234 146.099 55.4062 146.242C55.4071 146.385 55.5152 146.504 55.6568 146.52C55.8003 146.524 55.9209 146.412 55.9257 146.268C55.9295 146.131 55.8271 146.015 55.6922 146ZM48.1984 147.477C48.076 147.414 47.9258 147.462 47.8626 147.585C47.8607 147.587 47.8598 147.59 47.8578 147.593C47.7899 147.719 47.8368 147.877 47.964 147.946C48.0903 148.014 48.2482 147.967 48.3171 147.84C48.3199 147.835 48.3218 147.83 48.3238 147.826C48.3869 147.697 48.3343 147.543 48.2061 147.48C48.2032 147.48 48.2013 147.479 48.1984 147.477ZM50.8753 141.846C50.749 141.781 50.594 141.831 50.5289 141.957C50.528 141.959 50.527 141.961 50.5261 141.963C50.4639 142.084 50.5108 142.232 50.6323 142.294C50.639 142.297 50.6447 142.301 50.6514 142.303C50.7777 142.369 50.9336 142.321 51.0006 142.195C51.059 142.064 51.0044 141.91 50.8753 141.846ZM66.4799 160.137C66.3469 160.187 66.2752 160.332 66.3192 160.468C66.3747 160.601 66.5211 160.67 66.6598 160.629C66.7861 160.577 66.8521 160.438 66.8119 160.307C66.7641 160.171 66.6177 160.095 66.4799 160.137ZM64.3943 154.273C64.2652 154.309 64.1896 154.444 64.2259 154.573C64.2279 154.581 64.2307 154.588 64.2326 154.594C64.2805 154.729 64.4278 154.801 64.5637 154.755C64.6919 154.7 64.7579 154.557 64.7158 154.424C64.6785 154.298 64.5455 154.225 64.4182 154.263C64.4106 154.266 64.402 154.27 64.3943 154.273ZM45.7904 143.655C45.6737 143.585 45.5206 143.622 45.4498 143.739C45.447 143.743 45.4441 143.749 45.4412 143.754C45.3752 143.885 45.4269 144.045 45.5579 144.112C45.6823 144.169 45.8297 144.122 45.8985 144.005C45.9655 143.88 45.9196 143.724 45.7943 143.657C45.7923 143.656 45.7914 143.655 45.7904 143.655ZM48.8251 138.319C48.673 138.292 48.5294 138.256 48.3773 138.229C48.3611 138.236 48.3486 138.249 48.3419 138.264C48.2788 138.393 48.3305 138.549 48.4587 138.614C48.5926 138.673 48.7495 138.612 48.8088 138.478C48.8299 138.429 48.8356 138.373 48.8251 138.319ZM62.944 162.537C62.8091 162.581 62.7364 162.725 62.7804 162.86C62.7813 162.863 62.7823 162.866 62.7832 162.868C62.8234 163.001 62.9631 163.077 63.097 163.038C63.231 162.994 63.3066 162.851 63.2673 162.716C63.2233 162.58 63.0817 162.5 62.944 162.537ZM61.1081 156.6C60.9694 156.645 60.8909 156.791 60.9292 156.931C60.976 157.071 61.1272 157.147 61.2659 157.1C61.3989 157.055 61.4745 156.915 61.4391 156.779C61.3893 156.645 61.2478 156.57 61.1081 156.6ZM59.2731 150.674C59.1401 150.72 59.0627 150.858 59.0942 150.996C59.144 151.129 59.2894 151.2 59.4253 151.157C59.5601 151.117 59.6367 150.975 59.5965 150.839C59.5955 150.837 59.5955 150.835 59.5946 150.834C59.5448 150.707 59.4061 150.637 59.2731 150.674ZM50.4093 154.345C50.2668 154.338 50.1443 154.444 50.1319 154.587C50.1147 154.721 50.2104 154.845 50.3453 154.862C50.352 154.863 50.3577 154.863 50.3644 154.864C50.5031 154.873 50.6256 154.777 50.6504 154.64C50.6591 154.494 50.5548 154.366 50.4093 154.345ZM50.9824 148.167C50.8437 148.152 50.7203 148.252 50.705 148.391C50.6916 148.535 50.7978 148.664 50.9413 148.677C50.9432 148.677 50.9441 148.677 50.9461 148.677C51.0867 148.685 51.2072 148.577 51.2149 148.435C51.2235 148.298 51.1202 148.179 50.9824 148.167ZM51.565 141.981C51.4215 141.967 51.2943 142.071 51.279 142.214C51.2694 142.352 51.3737 142.472 51.5115 142.482C51.6492 142.503 51.7774 142.407 51.7975 142.269C51.8176 142.131 51.7219 142.003 51.5842 141.983C51.5775 141.982 51.5708 141.981 51.565 141.981ZM46.2468 140.683C46.1454 140.654 46.0401 140.709 46.0047 140.808C45.9693 140.912 46.0248 141.024 46.1272 141.058C46.2295 141.092 46.3424 141.038 46.3769 140.935C46.4123 140.832 46.3568 140.72 46.2544 140.686C46.2525 140.684 46.2496 140.684 46.2468 140.683ZM62.1203 151.999C62.0705 151.906 61.9548 151.871 61.862 151.921C61.7692 151.971 61.7347 152.087 61.7845 152.18C61.7854 152.182 61.7873 152.184 61.7892 152.187C61.8428 152.281 61.9614 152.313 62.0552 152.26C62.0562 152.26 62.0571 152.259 62.0581 152.259C62.1423 152.202 62.17 152.089 62.1203 151.999ZM52.0214 152.536C51.9152 152.556 51.8406 152.653 51.8511 152.76C51.8664 152.865 51.9602 152.94 52.0664 152.931C52.1725 152.911 52.2462 152.814 52.2366 152.707C52.2185 152.603 52.1257 152.53 52.0214 152.536ZM51.4751 147.89C51.3718 147.897 51.2953 147.988 51.3039 148.091C51.3039 148.095 51.3048 148.1 51.3058 148.104C51.3201 148.21 51.4139 148.288 51.521 148.283C51.6263 148.264 51.698 148.165 51.6818 148.059C51.6779 147.961 51.5947 147.883 51.4962 147.887C51.4885 147.888 51.4818 147.889 51.4751 147.89ZM50.9202 143.226C50.815 143.245 50.7432 143.343 50.7595 143.45C50.7652 143.55 50.8504 143.628 50.9518 143.623C50.9594 143.623 50.9671 143.622 50.9748 143.62C51.0809 143.608 51.1565 143.513 51.1451 143.407C51.1451 143.406 51.1451 143.406 51.1451 143.405C51.1202 143.3 51.0274 143.226 50.9202 143.226ZM50.571 138.686C50.4725 138.668 50.3826 138.651 50.285 138.633C50.2295 138.667 50.1989 138.729 50.2046 138.793C50.2171 138.901 50.3137 138.977 50.4208 138.965C50.4237 138.965 50.4256 138.964 50.4285 138.964C50.5289 138.952 50.6017 138.862 50.5902 138.762C50.5902 138.761 50.5902 138.759 50.5892 138.758C50.5883 138.733 50.5825 138.708 50.571 138.686ZM49.667 142.482C49.6163 142.498 49.5876 142.552 49.6029 142.603C49.6029 142.605 49.6038 142.606 49.6048 142.608C49.6163 142.664 49.6708 142.701 49.7263 142.689C49.7272 142.689 49.7291 142.688 49.7301 142.688C49.7932 142.661 49.8286 142.616 49.8019 142.554C49.7808 142.5 49.7234 142.469 49.667 142.482ZM49.0939 140.101C49.0834 140.042 49.0279 140.002 48.9686 140.011C48.914 140.036 48.8834 140.096 48.8968 140.155C48.9102 140.208 48.9657 140.241 49.0193 140.228C49.0202 140.228 49.0212 140.227 49.0221 140.227C49.0939 140.208 49.1207 140.145 49.0939 140.101ZM44.5907 138.991C44.5295 138.992 44.4769 139.037 44.4654 139.098C44.4635 139.153 44.5008 139.202 44.5553 139.214C44.6175 139.215 44.6721 139.175 44.6893 139.116C44.6931 139.055 44.651 139.001 44.5907 138.991ZM53.2833 146.189C53.2259 146.112 53.1187 146.096 53.0412 146.153C52.9628 146.211 52.9446 146.321 53.002 146.399C53.003 146.401 53.0039 146.402 53.0058 146.404C53.069 146.479 53.179 146.491 53.2565 146.431C53.3301 146.377 53.3464 146.274 53.2928 146.2C53.29 146.196 53.2871 146.193 53.2833 146.189ZM50.66 142.858C50.6093 142.783 50.5069 142.763 50.4314 142.813C50.4266 142.816 50.4227 142.819 50.4189 142.823C50.3481 142.874 50.3319 142.971 50.3816 143.042C50.3874 143.05 50.3941 143.057 50.4007 143.064C50.4448 143.137 50.5404 143.16 50.6131 143.115C50.6208 143.11 50.6275 143.105 50.6342 143.1C50.7078 143.047 50.7241 142.945 50.6715 142.871C50.6677 142.867 50.6638 142.862 50.66 142.858ZM48.0549 139.528C47.9946 139.451 47.8837 139.435 47.8043 139.493C47.7325 139.556 47.7172 139.662 47.7689 139.743C47.832 139.818 47.942 139.831 48.0195 139.77C48.0951 139.72 48.1152 139.617 48.0645 139.542C48.0616 139.536 48.0587 139.532 48.0549 139.528Z" fill="white"/>
<path d="M90.4538 129.146C90.4538 129.146 110.928 143.395 123.385 146.391C135.842 149.387 134.626 156.725 134.845 159.003C135.065 161.281 131.262 166.04 128.901 166.808C126.539 167.575 125.763 155.953 118.095 152.835C110.427 149.717 93.8501 151.714 86.5189 147.468L90.4538 129.146Z" fill="url(#paint9_linear)"/>
<path d="M82.2481 74.5204C79.3599 82.0649 77.8578 90.0696 77.8138 98.1479C77.7861 102.149 78.2463 106.138 79.1838 110.028V110.037C78.7811 125.364 78.9953 139.089 78.9953 139.089C70.4798 140.549 61.7806 140.576 53.2564 139.169C42.7653 137.539 32.7085 133.815 23.685 128.22C23.685 128.22 20.569 117.691 32.2971 107.601C42.154 99.1142 38.9577 99.0156 46.5318 88.0213C55.9409 74.3769 76.4524 63.6772 76.4524 63.6772L82.2481 74.5204Z" fill="url(#paint10_linear)"/>
<path d="M97.9398 134.093L85.7821 167.72C85.7821 167.72 79.1541 165.19 75.226 160.629C70.5936 155.249 64.2163 152.987 61.0296 150.019C54.6465 144.074 52.6613 141.949 49.8219 134.777C47.9563 130.063 48.8384 122.098 50.0744 114.192C53.7271 90.8159 65.3433 78.7003 76.4544 63.6782C76.4544 63.6782 77.8263 73.6614 82.2491 74.5214C79.3608 82.0659 77.8588 90.0706 77.8148 98.1489C77.787 102.15 78.2472 106.139 79.1848 110.029V110.038C81.6033 120.419 88.4609 129.215 97.9398 134.093Z" fill="#428DFC"/>
<path d="M87.9548 66.0643L82.2529 74.5215C82.2529 74.5215 76.7997 70.8574 76.5032 65.0694C78.2281 65.0024 79.9014 64.4667 81.344 63.5195C83.3273 64.856 85.587 65.7256 87.9548 66.0643Z" fill="#FFBEB6"/>
<path d="M102.876 58.1407C102.876 58.1407 98.9232 66.5022 91.3797 66.3779C87.8256 66.4391 84.3327 65.4451 81.342 63.5221C85.5123 60.9974 88.9267 55.8752 88.9267 52.2015C88.9267 52.2015 94.732 56.4024 95.7355 49.0043C98.5434 49.1698 101.346 48.591 103.859 47.3281C104.401 50.2049 105.201 53.0281 106.25 55.7614C107.399 58.4105 102.876 58.1407 102.876 58.1407Z" fill="#FFBEB6"/>
<path d="M98.2077 59.9123C98.1073 61.2775 99.1328 62.4657 100.499 62.5661C100.994 62.6025 101.487 62.4896 101.917 62.2418C102.245 62.0562 102.016 61.508 101.683 61.6965C100.8 62.2504 99.6351 61.9835 99.0812 61.1005C98.8726 60.7675 98.7722 60.3772 98.7961 59.985C98.8133 59.6071 98.2249 59.5296 98.2077 59.9123Z" fill="#1C2868"/>
<path d="M108.672 34.4862C108.457 34.0777 107.838 34.4393 108.052 34.8488C110.032 38.5483 109.24 43.1213 106.132 45.9397C104.641 47.3279 102.763 48.231 100.748 48.5305C104.119 47.6943 108.009 45.4901 108.344 39.792C108.903 30.2911 99.4093 31.3693 98.0919 35.4371C98.3684 33.0502 98.3474 26.8259 91.132 24.5805C82.1256 21.7784 84.327 30.3848 85.7286 32.3862C85.7286 32.3862 83.3273 29.1842 78.5237 30.5848C73.7201 31.9854 76.5223 35.7883 76.5223 35.7883C76.5223 35.7883 65.7145 32.3862 61.9116 42.5932C59.4003 49.3331 63.6959 51.8837 67.3074 52.4931C63.8834 52.7265 60.7349 51.3288 59.9064 47.0141C59.8193 46.5606 59.1277 46.7529 59.2147 47.2045C60.4211 53.4823 66.2244 54.1109 71.1533 52.3448C70.2358 53.1838 65.9795 57.6277 71.9196 63.2081C78.5246 69.4122 88.9316 58.6045 88.9316 52.2004C88.9316 52.2004 94.7004 56.3754 95.726 49.0614C99.8695 49.9454 104.23 49.0806 107.237 45.8507C110.113 42.7673 110.692 38.1886 108.672 34.4862Z" fill="#23286B"/>
</g>
<defs>
<linearGradient id="paint0_linear" x1="469.761" y1="224.954" x2="402.743" y2="208.474" gradientUnits="userSpaceOnUse">
<stop stop-color="#428DFC"/>
<stop offset="1" stop-color="#1E77E0"/>
</linearGradient>
<linearGradient id="paint1_linear" x1="323.97" y1="102.555" x2="367.127" y2="102.555" gradientUnits="userSpaceOnUse">
<stop stop-color="#23286B"/>
<stop offset="1" stop-color="#131951"/>
</linearGradient>
<linearGradient id="paint2_linear" x1="379.914" y1="78.7847" x2="379.914" y2="107.049" gradientUnits="userSpaceOnUse">
<stop stop-color="#23286B"/>
<stop offset="1" stop-color="#131951"/>
</linearGradient>
<linearGradient id="paint3_linear" x1="301.336" y1="177.663" x2="294.978" y2="127.851" gradientUnits="userSpaceOnUse">
<stop stop-color="#A1C3FC"/>
<stop offset="0.6955" stop-color="#81AEF2"/>
<stop offset="1" stop-color="#78A9EF"/>
</linearGradient>
<linearGradient id="paint4_linear" x1="347.43" y1="62.9434" x2="343.023" y2="58.768" gradientUnits="userSpaceOnUse">
<stop stop-color="#FFBEB6"/>
<stop offset="1" stop-color="#F79992"/>
</linearGradient>
<linearGradient id="paint5_linear" x1="266.908" y1="222.193" x2="236.14" y2="291.891" gradientUnits="userSpaceOnUse">
<stop stop-color="#A1C3FC"/>
<stop offset="1" stop-color="#84AFEF"/>
</linearGradient>
<linearGradient id="paint6_linear" x1="5.85958" y1="304.9" x2="63.7283" y2="304.9" gradientUnits="userSpaceOnUse">
<stop stop-color="#A1C3FC"/>
<stop offset="1" stop-color="#84AFEF"/>
</linearGradient>
<linearGradient id="paint7_linear" x1="17.4127" y1="235.707" x2="55.7765" y2="208.234" gradientUnits="userSpaceOnUse">
<stop stop-color="#23286B"/>
<stop offset="1" stop-color="#131951"/>
</linearGradient>
<linearGradient id="paint8_linear" x1="50.6911" y1="183.735" x2="28.0403" y2="134.507" gradientUnits="userSpaceOnUse">
<stop stop-color="#23286B"/>
<stop offset="1" stop-color="#142066"/>
</linearGradient>
<linearGradient id="paint9_linear" x1="121.162" y1="156.175" x2="69.8364" y2="124.652" gradientUnits="userSpaceOnUse">
<stop stop-color="#FFBEB6"/>
<stop offset="1" stop-color="#F79992"/>
</linearGradient>
<linearGradient id="paint10_linear" x1="79.7515" y1="100.077" x2="6.80391" y2="144.266" gradientUnits="userSpaceOnUse">
<stop stop-color="#428DFC"/>
<stop offset="1" stop-color="#1E77E0"/>
</linearGradient>
</defs>
</svg>
