<svg width="48" height="48" viewBox="0 0 48 48" fill="none" xmlns="http://www.w3.org/2000/svg">
<path fill-rule="evenodd" clip-rule="evenodd" d="M16 14C16 9.58172 19.5817 6 24 6C28.4183 6 32 9.58172 32 14C32 18.4183 28.4183 22 24 22C19.5817 22 16 18.4183 16 14ZM24 2C17.3726 2 12 7.37258 12 14C12 20.6274 17.3726 26 24 26C30.6274 26 36 20.6274 36 14C36 7.37258 30.6274 2 24 2ZM8 48C8 39.1634 15.1634 32 24 32C32.8366 32 40 39.1634 40 48H44C44 36.9543 35.0457 28 24 28C12.9543 28 4 36.9543 4 48H8Z" fill="#FE5E17"/>
</svg>
