<?xml version="1.0" encoding="UTF-8"?>
<svg width="80px" height="80px" viewBox="0 0 80 80" version="1.1" xmlns="http://www.w3.org/2000/svg" xmlns:xlink="http://www.w3.org/1999/xlink">
    <!-- Generator: Sketch 47.1 (45422) - http://www.bohemiancoding.com/sketch -->
    <title>user-image</title>
    <desc>Created with Sketch.</desc>
    <defs></defs>
    <g id="Page-1" stroke="none" stroke-width="1" fill="none" fill-rule="evenodd">
        <g id="user-image" fill-rule="nonzero">
            <g id="Avatar/People-Empty">
                <circle id="Oval" cx="40" cy="40" r="40"></circle>
            </g>
            <path d="M41,43.0179641 C42.4850374,43.0179641 44.1137636,43.2335308 45.8862275,43.6646707 C47.8982137,44.1676672 49.5269399,44.8383192 50.7724551,45.6766467 C52.2574925,46.6586875 53,47.7604729 53,48.9820359 L53,52 L29,52 L29,48.9820359 C29,47.7604729 29.7425075,46.6586875 31.2275449,45.6766467 C32.4730601,44.8383192 34.1017863,44.1676672 36.1137725,43.6646707 C37.8862364,43.2335308 39.5149626,43.0179641 41,43.0179641 Z M41,40 C39.9221503,40 38.9281483,39.7305416 38.0179641,39.1916168 C37.1077799,38.6526919 36.3832362,37.9281483 35.8443114,37.0179641 C35.3053865,36.1077799 35.0359281,35.1137778 35.0359281,34.0359281 C35.0359281,32.9580784 35.3053865,31.9521005 35.8443114,31.0179641 C36.3832362,30.0838277 37.1077799,29.3473081 38.0179641,28.8083832 C38.9281483,28.2694584 39.9221503,28 41,28 C42.0778497,28 43.0718517,28.2694584 43.9820359,28.8083832 C44.8922201,29.3473081 45.6167638,30.0838277 46.1556886,31.0179641 C46.6946135,31.9521005 46.9640719,32.9580784 46.9640719,34.0359281 C46.9640719,35.1137778 46.6946135,36.1077799 46.1556886,37.0179641 C45.6167638,37.9281483 44.8922201,38.6526919 43.9820359,39.1916168 C43.0718517,39.7305416 42.0778497,40 41,40 Z" id="person---material" fill="#929EA1" opacity="0.300000012"></path>
        </g>
    </g>
</svg>