<svg width="48" height="48" viewBox="0 0 48 48" fill="none" xmlns="http://www.w3.org/2000/svg">
<path fill-rule="evenodd" clip-rule="evenodd" d="M6 24C6 14.0589 14.0589 6 24 6C33.9411 6 42 14.0589 42 24C42 33.9411 33.9411 42 24 42C14.0589 42 6 33.9411 6 24ZM24 2C11.8497 2 2 11.8497 2 24C2 36.1503 11.8497 46 24 46C36.1503 46 46 36.1503 46 24C46 11.8497 36.1503 2 24 2ZM31.8053 25.2655C32.238 24.9902 32.5 24.5129 32.5 24C32.5 23.4872 32.238 23.0098 31.8053 22.7345L20.8053 15.7345C20.3434 15.4406 19.7581 15.4216 19.2782 15.6851C18.7983 15.9485 18.5 16.4525 18.5 17V31C18.5 31.5475 18.7983 32.0515 19.2782 32.3149C19.7581 32.5784 20.3434 32.5594 20.8053 32.2655L31.8053 25.2655ZM21.5 28.2675V19.7325L28.2061 24L21.5 28.2675Z" fill="#370AEB"/>
</svg>
