<?xml version="1.0" standalone="no"?>
<!DOCTYPE svg PUBLIC "-//W3C//DTD SVG 20010904//EN"
 "http://www.w3.org/TR/2001/REC-SVG-20010904/DTD/svg10.dtd">
<svg version="1.0" xmlns="http://www.w3.org/2000/svg"
 width="1024.000000pt" height="1024.000000pt" viewBox="0 0 1024.000000 1024.000000"
 preserveAspectRatio="xMidYMid meet">
<metadata>
Created by potrace 1.11, written by Peter Selinger 2001-2013
</metadata>
<g transform="translate(0.000000,1024.000000) scale(0.100000,-0.100000)"
fill="#000000" stroke="none">
<path d="M1992 9119 c-1 -264 -2 -482 -4 -484 -2 -2 -59 -6 -128 -9 -69 -4
-161 -9 -205 -11 -44 -3 -127 -8 -185 -10 -58 -3 -136 -7 -175 -10 -38 -2
-122 -6 -185 -10 -63 -3 -151 -8 -195 -11 -44 -2 -120 -7 -170 -9 -198 -10
-283 -15 -355 -19 -41 -3 -130 -8 -197 -11 -150 -8 -172 -10 -181 -19 -16 -17
-6 -705 13 -881 7 -68 15 -135 19 -165 12 -89 19 -138 22 -155 3 -11 6 -33 9
-50 2 -16 6 -40 9 -51 2 -12 7 -37 10 -55 11 -62 17 -94 22 -111 3 -9 7 -26 9
-38 10 -51 57 -226 82 -303 15 -45 27 -85 27 -89 1 -3 4 -10 8 -14 5 -4 8 -13
8 -20 0 -7 5 -25 12 -41 6 -15 12 -30 13 -33 20 -57 91 -216 99 -222 6 -4 8
-8 4 -8 -8 0 55 -124 98 -191 13 -21 24 -41 24 -44 0 -5 102 -154 126 -185
106 -134 310 -347 413 -430 24 -19 63 -51 86 -70 23 -19 52 -42 65 -50 21 -14
62 -44 85 -63 38 -30 245 -157 256 -157 5 0 9 -3 9 -8 0 -4 15 -13 33 -21 17
-8 39 -20 47 -27 8 -7 17 -12 20 -12 3 0 57 -25 120 -55 63 -30 131 -62 150
-70 107 -46 167 -69 280 -107 69 -23 132 -44 140 -47 8 -4 20 -7 25 -9 6 -1
55 -15 110 -30 55 -15 109 -28 121 -29 11 -1 25 -4 30 -8 6 -3 33 -9 60 -13
27 -3 59 -10 72 -15 12 -5 26 -8 30 -7 4 0 30 -2 57 -7 47 -7 52 -11 89 -66
21 -33 42 -59 47 -59 4 0 10 -8 13 -17 3 -10 18 -32 33 -48 16 -17 46 -53 68
-80 65 -82 181 -204 272 -287 56 -50 200 -158 211 -158 6 0 12 -7 16 -15 3 -8
10 -15 15 -15 5 0 42 -19 83 -43 91 -53 258 -135 288 -141 3 -1 32 -12 65 -25
84 -32 119 -46 125 -47 3 0 13 -4 23 -7 22 -9 51 -18 54 -18 2 0 22 -7 45 -15
24 -9 48 -17 53 -18 6 -2 24 -6 40 -10 17 -4 37 -10 45 -13 21 -9 28 -10 45
-12 10 -1 15 -11 15 -28 0 -16 1 -134 3 -263 1 -129 0 -259 -3 -288 -4 -29 -2
-55 2 -58 5 -3 5 -11 1 -17 -4 -7 -8 -21 -9 -32 -1 -11 -4 -56 -7 -100 -4 -44
-9 -91 -11 -104 -3 -13 -8 -49 -12 -80 -3 -31 -8 -64 -10 -73 -2 -10 -6 -28
-9 -39 -2 -12 -14 -58 -26 -103 -11 -45 -22 -85 -23 -91 -1 -5 -5 -16 -9 -22
-5 -7 -5 -13 0 -13 4 0 3 -4 -3 -8 -5 -4 -18 -29 -28 -57 -24 -66 -80 -167
-129 -234 -60 -81 -200 -215 -241 -230 -6 -2 -13 -7 -16 -11 -3 -4 -36 -25
-75 -47 -151 -85 -366 -158 -580 -198 -128 -24 -125 -22 -118 -68 3 -23 7 -55
8 -72 2 -16 4 -30 5 -30 1 0 3 -20 6 -45 2 -25 6 -65 8 -90 2 -25 7 -65 10
-90 4 -25 9 -65 12 -90 2 -25 7 -61 10 -80 3 -19 7 -57 9 -85 2 -27 4 -50 5
-50 1 0 3 -12 4 -26 2 -14 6 -31 10 -37 4 -7 2 -12 -5 -12 -9 0 -10 -3 -3 -10
7 -7 635 -9 1864 -8 1844 3 1853 3 1857 23 1 11 5 43 8 70 3 28 7 64 9 80 2
17 7 57 10 90 4 33 9 71 11 85 3 14 7 48 10 75 2 28 7 73 11 100 7 55 9 70 19
165 3 35 8 67 11 71 4 7 -56 22 -126 32 -14 2 -32 7 -40 10 -8 3 -28 8 -45 11
-65 10 -261 70 -333 102 -97 42 -228 110 -242 124 -3 3 -23 18 -45 34 -62 46
-118 99 -172 163 -47 56 -53 64 -53 71 0 5 -8 17 -18 28 -10 10 -25 34 -32 51
-8 18 -18 33 -22 33 -5 0 -8 6 -8 13 0 7 -9 32 -20 54 -41 85 -100 295 -116
408 -10 76 -12 90 -14 90 -1 0 -3 23 -6 50 -2 28 -6 75 -10 105 -7 71 -14 717
-8 735 5 12 29 22 72 31 26 5 307 97 317 103 6 4 28 13 50 20 168 54 519 249
621 345 6 6 35 31 64 56 45 39 89 83 200 199 26 27 165 200 210 261 14 18 31
39 38 46 6 7 12 17 12 23 0 12 64 30 119 34 23 1 41 5 41 8 0 3 6 6 13 6 18 0
82 12 98 17 8 3 25 7 39 10 14 3 61 14 105 26 44 12 87 23 95 25 8 2 16 4 18
5 1 2 5 3 10 4 74 18 345 115 450 162 100 44 347 168 350 176 2 4 9 8 16 8 7
0 18 6 24 13 7 6 16 12 20 12 24 1 323 208 431 300 20 17 47 39 61 50 58 48
280 276 330 340 30 39 57 72 61 75 13 11 109 160 109 170 0 5 4 10 8 10 4 0
18 19 30 43 12 23 39 74 60 112 20 39 46 91 57 118 10 26 23 47 28 47 4 0 6 4
3 8 -3 5 1 19 7 33 7 13 20 44 29 69 10 25 23 59 29 75 7 17 13 33 14 38 2 4
4 9 5 12 1 3 3 8 4 13 1 4 12 39 25 77 13 39 25 77 27 85 2 8 15 60 30 115 14
55 28 108 30 118 2 10 6 28 10 40 4 12 8 31 9 42 1 11 5 34 8 50 4 17 9 44 12
60 2 17 6 41 9 55 6 24 14 74 23 140 3 19 6 54 7 77 0 24 3 43 7 43 3 0 5 10
6 23 0 12 3 51 7 87 3 36 9 106 13 155 9 116 10 682 1 716 -7 24 -12 26 -70
29 -117 4 -193 8 -303 15 -144 9 -216 13 -355 20 -63 3 -149 7 -190 10 -41 3
-122 7 -180 10 -58 3 -136 8 -175 10 -38 2 -122 6 -185 9 -63 4 -146 8 -185
11 -38 2 -128 7 -200 10 -71 4 -132 9 -134 11 -3 3 -5 220 -6 482 l0 477
-3127 3 -3126 2 0 -481z m3159 -856 c70 -130 104 -192 126 -230 13 -24 21 -43
18 -43 -3 0 3 -9 14 -21 11 -12 22 -33 26 -47 4 -15 10 -29 14 -32 4 -3 33
-52 63 -110 146 -276 199 -373 212 -387 6 -6 38 -15 71 -18 33 -4 67 -8 76
-11 9 -3 34 -7 55 -9 22 -3 53 -8 69 -11 17 -4 46 -8 65 -10 19 -2 49 -6 65
-9 17 -3 50 -7 75 -10 25 -3 68 -10 95 -15 28 -6 66 -12 85 -14 19 -3 52 -8
74 -11 21 -4 50 -8 65 -10 14 -2 26 -4 26 -5 0 -1 16 -3 35 -5 73 -8 155 -20
213 -31 l28 -6 -23 -20 c-13 -10 -85 -79 -161 -151 -163 -155 -209 -199 -393
-372 -212 -201 -214 -203 -205 -228 5 -12 11 -44 15 -72 3 -27 8 -61 11 -75 9
-45 24 -134 29 -178 3 -24 8 -46 10 -50 2 -4 7 -34 11 -66 3 -33 8 -62 9 -65
2 -3 7 -28 10 -55 4 -27 9 -52 10 -55 2 -3 6 -28 10 -56 6 -51 13 -90 16 -90
1 0 3 -18 5 -40 2 -22 6 -51 9 -65 6 -24 12 -57 20 -112 5 -30 -8 -29 -56 4
-16 11 -28 17 -28 13 0 -3 -13 1 -30 10 -16 8 -33 15 -36 14 -4 0 -10 3 -13 8
-10 13 -49 33 -66 33 -8 0 -15 5 -15 10 0 6 -5 10 -11 10 -5 0 -65 27 -132 59
-67 32 -178 86 -247 119 -69 33 -172 83 -230 111 -58 28 -112 51 -120 51 -7 0
-59 -22 -115 -49 -55 -26 -118 -56 -140 -67 -22 -10 -43 -22 -46 -27 -3 -5 -9
-8 -13 -8 -7 2 -71 -27 -257 -118 -70 -33 -132 -61 -138 -61 -6 0 -11 -4 -11
-10 0 -5 -5 -10 -11 -10 -6 0 -59 -24 -117 -52 -152 -75 -140 -71 -136 -35 2
18 6 43 10 57 3 14 8 37 10 53 2 15 6 39 8 55 2 15 9 54 15 87 5 33 12 76 15
95 3 19 8 46 11 60 2 13 7 42 10 65 3 22 8 54 12 70 3 17 8 41 9 55 3 24 6 39
18 105 3 17 8 48 11 70 3 22 9 54 12 70 8 36 9 45 18 112 l6 52 -55 53 c-30
29 -105 101 -168 160 -62 58 -138 130 -169 160 -171 162 -337 319 -361 341
l-27 26 27 5 c15 3 47 8 72 11 25 3 70 9 100 15 66 11 134 21 175 25 17 2 30
4 30 5 0 3 32 8 160 25 22 3 54 8 70 12 17 3 41 7 55 8 28 3 85 11 145 21 22
4 47 7 55 8 14 2 88 14 135 21 11 2 31 4 45 4 15 1 29 10 36 24 36 74 119 223
126 225 4 2 8 10 8 19 0 8 9 27 20 43 11 15 17 29 14 32 -2 3 2 11 11 18 8 7
15 19 15 26 0 8 5 14 12 14 6 0 8 3 5 7 -4 3 -2 12 4 19 10 12 19 29 105 194
21 41 41 77 44 80 3 3 20 34 39 70 68 130 85 160 90 160 4 0 18 -21 32 -47z
m-3320 -507 c5 3 57 8 114 11 l105 5 1 -54 c2 -101 5 -144 12 -155 4 -7 3 -14
-3 -18 -6 -4 -8 -11 -4 -16 3 -6 8 -43 10 -82 8 -147 12 -196 18 -206 4 -5 2
-12 -4 -16 -6 -4 -8 -11 -4 -16 3 -5 7 -31 9 -57 12 -137 31 -322 40 -372 2
-14 6 -43 10 -65 15 -105 27 -173 41 -239 9 -39 17 -80 19 -91 2 -11 6 -31 10
-45 3 -14 8 -36 11 -50 3 -14 14 -58 25 -99 12 -41 23 -85 25 -99 3 -14 8 -30
12 -36 3 -6 8 -20 9 -31 2 -11 7 -29 12 -40 4 -11 23 -67 41 -125 18 -58 36
-114 40 -125 13 -33 23 -60 25 -67 2 -5 4 -11 5 -15 1 -5 2 -11 1 -15 0 -5 4
-8 11 -8 9 0 9 -3 1 -11 -11 -11 -149 29 -230 66 -17 8 -34 15 -38 15 -7 0
-33 11 -128 54 -32 14 -62 26 -67 26 -6 0 -10 5 -10 10 0 6 -3 9 -7 8 -11 -2
-106 45 -115 57 -5 7 -8 7 -8 0 0 -7 -3 -7 -8 0 -4 6 -36 28 -72 49 -250 151
-438 340 -607 612 -71 113 -178 390 -218 564 -2 8 -11 46 -20 85 -9 38 -18 83
-20 100 -3 16 -9 50 -14 75 -5 25 -12 65 -15 90 -3 25 -8 55 -10 67 -3 12 -7
48 -11 80 -3 32 -8 73 -11 91 -5 29 -3 32 23 33 15 1 42 3 58 4 17 2 84 6 150
9 66 3 149 8 185 11 196 12 420 26 508 29 34 2 66 6 70 10 3 4 8 2 10 -3 2 -6
8 -8 13 -5z m6659 0 c58 -3 136 -8 174 -10 38 -3 123 -8 190 -12 134 -7 211
-12 211 -13 0 -1 59 -4 130 -7 72 -3 146 -7 165 -9 19 -2 42 -4 51 -4 17 -1
17 -11 5 -106 -4 -27 -9 -70 -12 -93 -3 -24 -7 -53 -10 -65 -2 -12 -6 -37 -9
-57 -3 -20 -7 -47 -10 -60 -3 -13 -7 -42 -11 -64 -3 -22 -8 -45 -12 -50 -3 -6
-7 -24 -9 -40 -10 -96 -118 -421 -174 -525 -16 -30 -29 -61 -29 -68 0 -7 -4
-13 -10 -13 -5 0 -10 -5 -10 -11 0 -11 -117 -197 -135 -214 -6 -5 -27 -30 -47
-55 -129 -162 -357 -341 -574 -450 -49 -25 -91 -48 -94 -51 -3 -3 -21 -11 -40
-19 -19 -7 -57 -24 -85 -36 -27 -12 -81 -33 -120 -46 -38 -12 -72 -25 -75 -28
-4 -5 -122 -40 -134 -40 -2 0 25 83 60 185 35 102 61 185 58 185 -4 0 0 7 7
17 8 9 13 19 13 22 -1 3 0 11 1 16 2 6 5 19 8 30 2 11 16 63 30 115 14 52 28
106 31 120 3 14 7 34 10 45 19 83 27 120 32 153 3 20 7 45 10 55 6 19 11 50
28 172 20 137 24 165 32 250 3 39 8 86 10 105 2 19 6 71 9 115 3 44 7 107 10
140 3 33 7 101 10 150 2 50 5 90 5 90 2 0 7 98 9 163 l1 32 98 -5 c53 -2 144
-7 202 -9z"/>
</g>
</svg>
